<?xml version="1.0" encoding="utf-8"?>
<!-- Generator: Adobe Illustrator 15.1.0, SVG Export Plug-In . SVG Version: 6.00 Build 0)  -->
<!DOCTYPE svg PUBLIC "-//W3C//DTD SVG 1.1//EN" "http://www.w3.org/Graphics/SVG/1.1/DTD/svg11.dtd">
<svg version="1.1" id="Layer_1" xmlns="http://www.w3.org/2000/svg" xmlns:xlink="http://www.w3.org/1999/xlink" x="0px" y="0px"
	 width="512px" height="512px" viewBox="0 0 512 512" enable-background="new 0 0 512 512" xml:space="preserve">
<g>
	<path fill="#808080" stroke="#4D4D4D" stroke-width="2" stroke-miterlimit="10" d="M58.253,232.58h14.105l17.055,46.841H74.457
		l-1.966-6.692H57.6l-2.102,6.692H41L58.253,232.58z M69.603,262.691l-4.198-14.432h-0.131l-4.526,14.432H69.603z"/>
	
		<rect x="95.259" y="232.58" fill="#808080" stroke="#4D4D4D" stroke-width="2" stroke-miterlimit="10" width="14.433" height="46.841"/>
	<path fill="#808080" stroke="#4D4D4D" stroke-width="2" stroke-miterlimit="10" d="M121.043,232.58h27.488
		c8.133,0,15.284,4.526,15.284,13.383c0,4.855-2.23,9.972-7.019,11.743c3.936,1.509,6.364,5.839,6.888,11.677
		c0.197,2.23,0.197,8.004,1.573,10.038h-14.43c-0.721-2.362-0.986-4.789-1.18-7.216c-0.331-4.463-0.79-9.119-6.496-9.119h-7.676
		v16.335h-14.432V232.58z M135.475,253.048h7.545c2.688,0,6.363-0.46,6.363-4.658c0-2.953-1.64-4.658-7.149-4.658h-6.759V253.048z"
		/>
	<path fill="#808080" stroke="#4D4D4D" stroke-width="2" stroke-miterlimit="10" d="M185.077,263.677
		c0,1.114,0.195,2.165,0.524,3.083c1.051,2.818,4.2,3.409,6.889,3.409c2.362,0,5.972-0.786,5.972-4.265
		c0-2.36-2.036-3.084-10.104-5.379c-7.413-2.1-15.876-4.131-15.876-13.578c0-10.826,9.252-15.483,18.894-15.483
		c10.169,0,19.223,3.936,19.549,15.285h-13.644c0.263-1.772-0.46-2.952-1.705-3.74c-1.246-0.851-2.756-1.18-4.264-1.18
		c-1.968,0-5.183,0.525-5.183,3.148c0.199,3.283,7.02,4.201,13.58,5.906c6.626,1.9,13.187,4.853,13.187,13.51
		c0,12.205-11.153,16.142-21.649,16.142c-5.249,0-20.6-1.902-20.6-16.858L185.077,263.677L185.077,263.677z"/>
	<polygon fill="#808080" stroke="#4D4D4D" stroke-width="2" stroke-miterlimit="10" points="230.938,244.584 217.821,244.584 
		217.821,232.58 258.492,232.58 258.492,244.584 245.373,244.584 245.373,279.421 230.938,279.421 	"/>
	<path fill="#808080" stroke="#4D4D4D" stroke-width="2" stroke-miterlimit="10" d="M266.436,232.58h27.486
		c8.136,0,15.285,4.526,15.285,13.383c0,4.855-2.23,9.972-7.02,11.743c3.938,1.509,6.364,5.839,6.891,11.677
		c0.195,2.23,0.195,8.004,1.573,10.038h-14.433c-0.721-2.362-0.986-4.789-1.18-7.216c-0.33-4.463-0.79-9.119-6.496-9.119h-7.675
		v16.335h-14.433V232.58z M280.868,253.048h7.544c2.691,0,6.363-0.46,6.363-4.658c0-2.953-1.639-4.658-7.149-4.658h-6.758V253.048
		L280.868,253.048z"/>
	<polygon fill="#808080" stroke="#4D4D4D" stroke-width="2" stroke-miterlimit="10" points="317.677,232.58 356.448,232.58 
		356.448,244.584 332.11,244.584 332.11,250.424 354.22,250.424 354.22,261.577 332.11,261.577 332.11,267.414 357.17,267.414 
		357.17,279.421 317.677,279.421 	"/>
	<path fill="#808080" stroke="#4D4D4D" stroke-width="2" stroke-miterlimit="10" d="M379.481,232.58h14.104l17.056,46.841h-14.958
		l-1.966-6.692h-14.893l-2.102,6.692h-14.498L379.481,232.58z M390.831,262.691l-4.198-14.432H386.5l-4.525,14.432H390.831z"/>
	<polygon fill="#808080" stroke="#4D4D4D" stroke-width="2" stroke-miterlimit="10" points="416.419,232.58 436.953,232.58 
		443.644,260.133 443.775,260.133 450.467,232.58 471,232.58 471,279.421 457.354,279.421 457.354,249.375 457.226,249.375 
		449.088,279.421 438.331,279.421 430.197,249.375 430.065,249.375 430.065,279.421 416.419,279.421 	"/>
</g>
</svg>
