<?xml version="1.0" encoding="utf-8"?>
<!-- Generator: Adobe Illustrator 15.1.0, SVG Export Plug-In . SVG Version: 6.00 Build 0)  -->
<!DOCTYPE svg PUBLIC "-//W3C//DTD SVG 1.1//EN" "http://www.w3.org/Graphics/SVG/1.1/DTD/svg11.dtd">
<svg version="1.1" id="Layer_1" xmlns="http://www.w3.org/2000/svg" xmlns:xlink="http://www.w3.org/1999/xlink" x="0px" y="0px"
	 width="512px" height="512px" viewBox="0 0 512 512" enable-background="new 0 0 512 512" xml:space="preserve">
<g display="none">
	<path display="inline" fill="#324A51" d="M64.906,334.305v3.2l0.06,0.731l0.133,1.638c0.159,1.849,1.637,2.771,4.435,2.771
		c2.758,0,4.637-0.66,5.653-1.983c0.823-1.103,1.239-2.423,1.239-3.966c0-3.016-1.353-4.869-4.058-5.567
		c-1.569-0.396-3.347-0.595-5.323-0.595c-0.931,0-1.524,0.224-1.771,0.667C65.032,331.641,64.906,332.675,64.906,334.305
		 M64.906,321.434v5.549c0,0.761,0.186,1.285,0.549,1.591c0.363,0.303,0.995,0.452,1.898,0.452l2.687,0.062l1.198-0.062
		c2.219-0.27,3.325-1.59,3.325-3.957c0-1.92-0.612-3.469-1.848-4.644c-1.228-1.181-2.848-1.769-4.854-1.769
		c-1.168,0-1.952,0.188-2.354,0.568C65.104,319.605,64.906,320.346,64.906,321.434z M60.472,323.124
		c0-2.606-1.055-4.026-3.158-4.271l-0.892-0.119c-0.283-0.025-0.422-0.205-0.422-0.547c0-0.377,0.177-0.562,0.541-0.562l0.479,0.021
		l1.452,0.064c1.201,0.047,1.965,0.074,2.302,0.074c0.931,0,2.627-0.115,5.088-0.337c1.521-0.146,2.803-0.22,3.845-0.22
		c2.752,0,4.947,0.595,6.604,1.774c1.656,1.181,2.487,2.75,2.487,4.718c0,2.256-1.037,3.832-3.104,4.723
		c-0.472,0.205-0.724,0.383-0.735,0.521c-0.007,0.23,0.242,0.389,0.759,0.463c1.607,0.283,2.883,0.988,3.819,2.117
		c0.929,1.127,1.397,2.525,1.397,4.193c0,2.556-0.854,4.574-2.56,6.059c-1.711,1.484-4.021,2.229-6.935,2.229l-3.927-0.104
		l-3.016-0.051c-1.932,0-3.607,0.078-5.024,0.234c-0.436,0.055-0.845,0.078-1.234,0.078c-0.389,0-0.579-0.17-0.579-0.506
		c0-0.283,0.171-0.455,0.521-0.521c1.521-0.259,2.287-1.591,2.287-3.997v-16.037L60.472,323.124L60.472,323.124z"/>
	<path display="inline" fill="#324A51" d="M133.197,331.805l-2.524-5.91c-0.608-1.42-1.035-2.125-1.294-2.125
		c-0.159,0-0.437,0.455-0.852,1.373l-0.362,0.812l-2.263,5.151l-0.213,0.48c-0.09,0.2-0.13,0.364-0.13,0.503
		c0,0.442,0.462,0.66,1.385,0.66h5.715c0.493,0,0.736-0.14,0.736-0.411c0-0.059-0.032-0.17-0.1-0.322L133.197,331.805z
		 M132.473,319.68l8.801,20.193c0.435,1.016,0.957,1.779,1.543,2.283c0.596,0.501,1.364,0.838,2.305,1.001
		c0.229,0.04,0.35,0.225,0.35,0.555c0,0.356-0.146,0.528-0.444,0.515c-0.171-0.015-0.413-0.053-0.735-0.113
		c-0.997-0.217-2.595-0.321-4.806-0.321c-2.214,0-3.728,0.104-4.53,0.312c-0.193,0.061-0.354,0.084-0.501,0.084
		c-0.363,0-0.541-0.178-0.541-0.541c0-0.185,0.145-0.315,0.427-0.408c0.615-0.178,1.13-0.5,1.54-0.969
		c0.402-0.47,0.605-0.957,0.605-1.474c0-0.725-0.562-2.313-1.684-4.774c-0.342-0.746-0.724-1.174-1.147-1.287
		c-0.414-0.111-1.898-0.164-4.447-0.164h-2.624l-1.74,0.311c-0.477,0.215-1.018,1.066-1.617,2.553l-0.602,1.492
		c-0.178,0.422-0.271,0.857-0.271,1.293c0,1.622,1.138,2.565,3.404,2.821c0.489,0.065,0.726,0.251,0.714,0.562
		c-0.027,0.336-0.261,0.506-0.7,0.506c-0.23,0-0.562-0.036-0.989-0.122c-0.853-0.181-1.61-0.271-2.283-0.271
		c-0.606,0-1.59,0.064-2.948,0.198c-1.008,0.104-1.637,0.159-1.88,0.159c-0.363,0-0.543-0.159-0.543-0.478
		c0-0.265,0.18-0.461,0.543-0.595c0.699-0.216,1.26-0.62,1.676-1.206c0.422-0.582,1.048-1.814,1.872-3.695l5.278-12.151
		c0.423-0.97,0.721-1.629,0.892-1.984l1.794-3.688c0.62-1.207,0.933-1.813,0.933-1.813c0,0.041,0,0.062,0,0.062
		s0.104-0.252,0.311-0.745c0.201-0.496,0.381-0.738,0.521-0.738c0.211,0,0.564,0.541,1.067,1.621L132.473,319.68z"/>
	<path display="inline" fill="#324A51" d="M189.326,321.348v6.695c0,0.826,0.104,1.348,0.315,1.564
		c0.218,0.219,0.727,0.33,1.524,0.33c2.297,0,3.721-0.041,4.269-0.125c0.548-0.086,1.062-0.345,1.545-0.787
		c0.942-0.852,1.409-2.024,1.409-3.522c0-1.944-0.633-3.554-1.905-4.823c-1.272-1.272-2.89-1.906-4.855-1.906
		c-0.876,0-1.479,0.186-1.807,0.557C189.49,319.693,189.326,320.364,189.326,321.348 M189.326,336.436
		c0,2.447,0.225,4.104,0.681,4.969c0.448,0.869,1.338,1.365,2.662,1.496c0.544,0.055,0.812,0.259,0.812,0.621
		c0,0.361-0.218,0.549-0.66,0.549c-0.14,0-0.401-0.021-0.791-0.062c-1.107-0.092-2.178-0.137-3.205-0.137
		c-0.866,0-1.631,0.024-2.298,0.071l-1.623,0.149l-1.293,0.112c-0.36,0.04-0.612,0.062-0.759,0.062
		c-0.461,0-0.691-0.179-0.691-0.529c0-0.284,0.133-0.461,0.391-0.54c0.876-0.271,1.482-0.634,1.819-1.089
		c0.337-0.457,0.503-1.154,0.503-2.09v-1.834l0.018-0.752v-13.955c0-1.541-0.188-2.58-0.579-3.102
		c-0.633-0.863-1.661-1.385-3.101-1.562c-0.527-0.082-0.793-0.304-0.793-0.674c0-0.367,0.18-0.555,0.541-0.555
		c0.146,0,0.375,0.02,0.698,0.055c0.992,0.099,2.078,0.146,3.268,0.146c1.3,0,2.876-0.074,4.73-0.221
		c2.178-0.17,3.683-0.256,4.506-0.256c2.446,0,4.479,0.666,6.089,2.004c1.609,1.343,2.414,3.022,2.414,5.047
		c0,1.281-0.354,2.441-1.073,3.49c-0.714,1.043-1.697,1.84-2.95,2.381c-0.258,0.105-0.377,0.231-0.363,0.39
		c0.014,0.126,0.08,0.285,0.192,0.462c0.117,0.178,0.288,0.482,0.521,0.912l1.72,3.054l1.987,3.536
		c0.685,1.193,1.29,2.023,1.824,2.495c0.534,0.46,1.163,0.69,1.881,0.69c0.298,0,0.575-0.026,0.831-0.08
		c0.152-0.032,0.298-0.053,0.423-0.053c0.232,0,0.351,0.146,0.351,0.441c0,0.377-0.527,0.799-1.583,1.273
		c-1.056,0.476-1.991,0.713-2.811,0.713c-1.318,0-2.54-0.652-3.662-1.953c-1.114-1.299-2.564-3.768-4.348-7.389
		c-0.69-1.434-1.267-2.334-1.716-2.72c-0.453-0.375-1.186-0.563-2.202-0.563h-1.201l-0.87,0.148c-0.191,0.104-0.29,0.415-0.29,0.934
		V336.436L189.326,336.436z"/>
	<path display="inline" fill="#324A51" d="M251.905,327.212c0,0.72,0.093,1.201,0.283,1.446c0.188,0.242,0.548,0.367,1.089,0.367
		l0.738-0.021l2.106-0.02c0.956,0,1.682-0.203,2.169-0.62c0.488-0.409,0.978-1.22,1.452-2.421c0.11-0.297,0.25-0.441,0.416-0.441
		c0.381,0,0.571,0.167,0.571,0.501c0,0.095-0.013,0.258-0.039,0.503c-0.014,0.164-0.021,0.37-0.021,0.6
		c0,0.746,0.041,1.617,0.119,2.621l0.297,3.647c0.025,0.381,0.04,0.66,0.04,0.831c0,0.271-0.181,0.416-0.521,0.441
		c-0.252,0.015-0.402-0.166-0.47-0.522c-0.258-1.356-0.688-2.272-1.293-2.735c-0.606-0.469-1.661-0.699-3.173-0.699
		c-1.935,0-3.049,0.127-3.347,0.369c-0.288,0.243-0.441,1.166-0.441,2.775l0.021,1.545v2.277c0,1.926,0.337,3.328,1.004,4.199
		c0.487,0.646,1.465,1.024,2.929,1.143c0.418,0.041,0.619,0.218,0.619,0.534c0,0.356-0.138,0.536-0.421,0.536
		c-0.258,0-0.635-0.026-1.121-0.086c-0.464-0.047-1.394-0.072-2.791-0.072h-2.139c-0.963,0-1.787,0.047-2.486,0.132
		c-0.938,0.125-1.562,0.185-1.887,0.185c-0.423,0-0.634-0.17-0.634-0.515c0-0.251,0.178-0.437,0.534-0.555
		c0.771-0.259,1.287-0.698,1.559-1.332c0.271-0.63,0.399-1.716,0.399-3.261v-15.879c0-1.623-0.282-2.679-0.844-3.168
		c-0.646-0.562-1.576-0.877-2.812-0.941c-0.334-0.027-0.498-0.186-0.498-0.469c0-0.377,0.216-0.561,0.658-0.561
		c0.139,0,0.474,0.018,1.003,0.059c0.772,0.064,1.59,0.1,2.454,0.1l3.325-0.061l5.086-0.025c1.734,0,3.516-0.072,5.33-0.227
		c0.674-0.059,1.17-0.084,1.491-0.084c0.312,0,0.48,0.336,0.521,1.008c0.064,0.812,0.099,1.279,0.111,1.412l0.186,1.472
		c0.037,0.298,0.059,0.548,0.059,0.759c0,1.059-0.242,1.592-0.727,1.592c-0.27,0-0.4-0.179-0.4-0.541v-0.646
		c0-0.259-0.033-0.483-0.1-0.675c-0.526-1.683-2.235-2.521-5.119-2.521l-2.521-0.019l-0.79,0.019c-0.738,0-1.255,0.14-1.545,0.417
		c-0.289,0.275-0.437,0.759-0.437,1.457v6.168L251.905,327.212L251.905,327.212z"/>
	<path display="inline" fill="#324A51" d="M313.279,318.499c-2.587,0-4.604,0.957-6.059,2.869c-1.458,1.92-2.184,4.585-2.184,8.002
		c0,4.037,0.909,7.317,2.736,9.843s4.202,3.786,7.125,3.786c2.64,0,4.743-1.042,6.325-3.132c1.583-2.086,2.376-4.881,2.376-8.379
		c0-2.012-0.367-3.983-1.104-5.905c-0.73-1.917-1.709-3.449-2.928-4.578C317.796,319.336,315.698,318.499,313.279,318.499
		 M314.663,317.035c4.023,0,7.271,1.167,9.744,3.502c2.474,2.342,3.707,5.408,3.707,9.21c0,4.129-1.271,7.631-3.826,10.508
		c-2.486,2.804-5.91,4.209-10.277,4.209c-4.176,0-7.516-1.221-10.017-3.661c-2.499-2.441-3.744-5.699-3.744-9.783
		c0-1.756,0.315-3.496,0.948-5.228c0.627-1.733,1.483-3.187,2.565-4.354c1.253-1.377,2.836-2.459,4.764-3.235
		C310.453,317.423,312.5,317.035,314.663,317.035z"/>
	<path display="inline" fill="#324A51" d="M373.945,321.348v6.695c0,0.826,0.104,1.348,0.315,1.564
		c0.218,0.219,0.727,0.33,1.523,0.33c2.295,0,3.722-0.041,4.267-0.125c0.551-0.086,1.063-0.345,1.545-0.787
		c0.942-0.852,1.412-2.024,1.412-3.522c0-1.944-0.634-3.554-1.906-4.823c-1.271-1.272-2.89-1.906-4.855-1.906
		c-0.878,0-1.478,0.186-1.807,0.557C374.109,319.693,373.945,320.364,373.945,321.348 M373.945,336.436
		c0,2.447,0.226,4.104,0.678,4.969c0.449,0.869,1.342,1.365,2.667,1.496c0.539,0.055,0.812,0.259,0.812,0.621
		c0,0.361-0.217,0.549-0.658,0.549c-0.141,0-0.401-0.021-0.793-0.062c-1.105-0.092-2.177-0.137-3.206-0.137
		c-0.864,0-1.628,0.024-2.295,0.071l-1.623,0.149l-1.293,0.112c-0.362,0.04-0.613,0.062-0.761,0.062c-0.46,0-0.69-0.179-0.69-0.529
		c0-0.284,0.131-0.461,0.39-0.54c0.878-0.271,1.483-0.634,1.82-1.089c0.337-0.457,0.5-1.154,0.5-2.09v-1.834l0.021-0.752v-13.955
		c0-1.541-0.189-2.58-0.579-3.102c-0.633-0.863-1.664-1.385-3.101-1.562c-0.527-0.082-0.794-0.304-0.794-0.674
		c0-0.367,0.179-0.555,0.541-0.555c0.146,0,0.375,0.02,0.698,0.055c0.989,0.099,2.079,0.146,3.269,0.146
		c1.3,0,2.876-0.074,4.729-0.221c2.176-0.17,3.681-0.256,4.506-0.256c2.446,0,4.479,0.666,6.089,2.004
		c1.61,1.343,2.414,3.022,2.414,5.047c0,1.281-0.356,2.441-1.074,3.49c-0.713,1.043-1.695,1.84-2.948,2.381
		c-0.258,0.105-0.377,0.231-0.363,0.39c0.014,0.126,0.078,0.285,0.19,0.462c0.119,0.178,0.289,0.482,0.521,0.912l1.724,3.054
		l1.983,3.536c0.688,1.193,1.293,2.023,1.827,2.495c0.534,0.46,1.163,0.69,1.882,0.69c0.297,0,0.574-0.026,0.831-0.08
		c0.151-0.032,0.296-0.053,0.422-0.053c0.23,0,0.352,0.146,0.352,0.441c0,0.377-0.527,0.799-1.583,1.273
		c-1.057,0.476-1.994,0.713-2.812,0.713c-1.319,0-2.539-0.652-3.661-1.953c-1.113-1.299-2.565-3.768-4.348-7.389
		c-0.693-1.434-1.267-2.334-1.716-2.72c-0.456-0.375-1.188-0.563-2.202-0.563h-1.2l-0.872,0.148
		c-0.189,0.104-0.289,0.415-0.289,0.934v3.91h-0.003V336.436z"/>
	<path display="inline" fill="#324A51" d="M436.524,321.611v16.955l0.23,1.756c0.422,1.498,2.012,2.242,4.77,2.242
		c2.98,0,5.352-1.037,7.1-3.102c1.747-2.064,2.625-4.855,2.625-8.373c0-3.682-1.049-6.682-3.151-8.999
		c-2.105-2.313-4.822-3.476-8.154-3.476c-1.365,0-2.298,0.178-2.799,0.542C436.729,319.441,436.524,320.261,436.524,321.611
		 M432.09,322.646c0-1.238-0.345-2.197-1.021-2.861c-0.682-0.674-1.645-1.012-2.891-1.012c-0.4,0-0.603-0.17-0.603-0.506
		c0-0.231,0.088-0.386,0.251-0.457c0.167-0.071,0.535-0.104,1.104-0.104l2.936,0.04c0.674,0,1.27-0.014,1.805-0.04
		c0.811-0.052,1.917-0.146,3.336-0.276c1.905-0.187,3.424-0.277,4.54-0.277c4.366,0,7.868,1.123,10.501,3.359
		c2.634,2.235,3.954,5.211,3.954,8.924c0,4.791-1.771,8.604-5.312,11.441c-2.599,2.077-5.528,3.112-8.786,3.112
		c-0.541,0-1.63-0.052-3.268-0.157c-0.931-0.055-1.879-0.081-2.854-0.081c-2.297,0-3.818,0.074-4.578,0.218
		c-0.595,0.122-0.989,0.18-1.2,0.18c-0.298,0-0.442-0.189-0.442-0.573c0-0.265,0.157-0.431,0.479-0.494
		c0.793-0.151,1.335-0.481,1.623-0.99c0.285-0.5,0.43-1.364,0.43-2.593v-16.852H432.09L432.09,322.646z"/>
	<g display="inline">
		<g>
			<g>
				<defs>
					<rect id="SVGID_1_" x="56" y="167.536" width="398.361" height="123.207"/>
				</defs>
				<clipPath id="SVGID_2_">
					<use xlink:href="#SVGID_1_"  overflow="visible"/>
				</clipPath>
				<path clip-path="url(#SVGID_2_)" fill="#C19500" d="M268.994,286.329l5.696,0.164l4.627-0.888
					c2.43,0.082,4.979,0.237,7.396,0.237l8.068,0.709l3.646,0.62l7.829,0.485l5.541,1.435l6.51,0.846l5.048,3.032l10.836,0.86
					l4.596-2.124l5.021,0.562l6.951,0.558l3.956-0.466l4.568,0.632l7.712-0.036l134.905,16.232l-0.285,2.179L366.98,295.434
					c-5.112-0.164-7.502-0.199-12.274-0.854l-3.908,0.46l-6.852-0.55l-4.463-0.681l-4.896,2.262l-11.911-0.943l-5.109-3.068
					c-5.549-0.722-6.336-0.84-11.645-2.217c-4.563-0.281-7.11-0.367-11.358-1.096l-8.041-0.705l-7.016-0.229l-4.621,0.883
					l-5.953-0.168L268.994,286.329z"/>
			</g>
		</g>
		<g>
			<g>
				<defs>
					<rect id="SVGID_3_" x="56" y="167.536" width="398.361" height="123.207"/>
				</defs>
				<clipPath id="SVGID_4_">
					<use xlink:href="#SVGID_3_"  overflow="visible"/>
				</clipPath>
				<path clip-path="url(#SVGID_4_)" fill="#C19500" d="M274.145,278.516l8.979,1.137l5.531-1.137
					c5.078-0.102,9.847-0.254,14.935-0.019l4.418,0.467c6.246-0.021,7.859,0.038,14.006,0.683l8.729,0.371l5.881,2.582l9.682,0.316
					l4.872-1.723c1.509-0.426,3.064-0.801,4.585-1.2l6.617,0.582l3.464-0.675l6.973,0.428c6.688-0.004,8.128,0.102,14.86,0.867
					c5.096,0.402,10.103,0.84,15.188,1.322c7.793,0.457,14.793,1.271,22.625,2.166c10.382,0.612,19.965,1.56,30.354,2.705
					c10.104,0.934,20.104,1.915,30.194,2.969c5.492,0.312,10.362,0.682,15.829,1.225l-0.213,2.188l-7.585-0.754
					c-7.982-0.451-15.258-1.199-23.271-2.037c-10.043-0.93-19.875-1.918-29.896-3.021l-7.912-0.624
					c-7.872-0.465-14.915-1.276-22.824-2.185c-5.231-0.308-10.044-0.685-15.264-1.178c-5.162-0.404-9.922-0.867-15.067-1.451
					c-4.989,0.002-8.873-0.101-13.843-0.402l-3.509,0.68l-6.553-0.577l-4.044,1.062l-5.228,1.846l-10.534-0.341l-5.89-2.586
					c-5.439-0.231-9.73-0.496-15.107-1.06c-5.058,0.018-7.001,0.053-11.736-0.449l-7.057-0.15l-7.425,0.168l-5.696,1.172
					l-9.345-1.181L274.145,278.516z"/>
			</g>
		</g>
		<g>
			<g>
				<defs>
					<rect id="SVGID_5_" x="56" y="167.536" width="398.361" height="123.207"/>
				</defs>
				<clipPath id="SVGID_6_">
					<use xlink:href="#SVGID_5_"  overflow="visible"/>
				</clipPath>
				<path clip-path="url(#SVGID_6_)" fill="#C19500" d="M280.743,274.209c1.475-0.277,3.433-0.484,5.391-0.689
					c1.896-0.195,3.79-0.396,5.181-0.657l6.676-1.44c4.755-0.333,9.519-0.654,14.271-0.988l5.299,0.326l6.655-0.525l8.03-0.02
					l10.971-0.094l6.675,2.109l8.53-0.235l5.199-1.333l4.07-1.312l6.278,0.605l2.995-0.88l9.332,0.222l6.482-0.263l6.965,0.646
					c4.683,0.049,8.856,0.2,13.544,0.447l6.548-0.218l13.367,1.253c5.031-0.137,9.438-0.036,14.438-0.036l12.637,1.049
					c9.062,0.409,17.71,0.907,26.757,1.554l7.967-0.17l6.82,0.416l-0.128,2.195l-6.803-0.413
					c-8.208,0.177-12.634-0.162-21.243-0.776c-9.011-0.405-17.205-0.912-26.187-1.658l-7.312-0.151
					c-8.141,0.224-11.647-0.243-20.381-1.062l-6.562,0.213L406,271.943c-5.002-0.053-8.267-0.243-13.271-0.709
					c-5.501,0.227-9.899,0.179-15.466,0.045l-3.079,0.904l-6.255-0.603c-3.208,1.032-5.916,1.756-9.212,2.603
					c-3.055,0.086-6.104,0.176-9.158,0.254l-6.699-2.121c-6.163,0.056-12.312,0.099-18.477,0.11l-6.788,0.537l-5.332-0.328
					l-6.144,0.396l-7.812,0.572l-6.562,1.416c-1.479,0.28-3.436,0.484-5.393,0.688c-1.91,0.2-3.817,0.399-5.211,0.662
					L280.743,274.209z"/>
			</g>
		</g>
		<g>
			<g>
				<defs>
					<rect id="SVGID_7_" x="56" y="167.536" width="398.361" height="123.207"/>
				</defs>
				<clipPath id="SVGID_8_">
					<use xlink:href="#SVGID_7_"  overflow="visible"/>
				</clipPath>
				<path clip-path="url(#SVGID_8_)" fill="#C19500" d="M288.691,268.802c9.896-2.489,16.844-4.261,26.939-5.469l5.342-0.961
					l6.165,0.185l6.185-1.039c7.632-0.612,14.702-0.961,22.38-1.297l7.45,1.641l7.35-0.795l5.565-0.95l3.562-1.415l5.933,0.626
					l2.53-1.08l11.734,0.021l5.773-0.522l6.166,0.416l5.283-0.44l6.604,0.021l5.646-0.881l11.635,0.781
					c9.694-1.292,13.958-1.115,23.758-0.677c8.075-0.124,15.197-0.09,23.269,0.138c6.298-0.659,7.738-0.807,13.812-0.731
					l-0.025,2.196l-5.948-0.072l-7.737,0.809l-11.526-0.324c-8.049,0.125-14.397,0.072-22.408-0.289l-6.807,0.315l-6.327,0.843
					l-11.615-0.778l-5.554,0.866l-6.595-0.021l-5.425,0.452l-6.204-0.418c-6.314,0.572-10.393,0.505-17.053,0.492l-2.646,1.133
					l-5.972-0.633l-3.289,1.309c-4.807,0.831-8.733,1.312-13.626,1.836l-7.532-1.656l-12.808,0.543l-9.146,0.738l-6.222,1.046
					l-6.175-0.184l-5.243,0.946l-8.217,0.98l-7.48,1.672l-10.967,2.762L288.691,268.802z"/>
			</g>
		</g>
		<g>
			<g>
				<defs>
					<rect id="SVGID_9_" x="56" y="167.536" width="398.361" height="123.207"/>
				</defs>
				<clipPath id="SVGID_10_">
					<use xlink:href="#SVGID_9_"  overflow="visible"/>
				</clipPath>
				<path clip-path="url(#SVGID_10_)" fill="#C19500" d="M295.872,262.875c10.725-3.229,18.241-5.223,29.338-7.021l4.451-1.538
					l7.061,0.041l5.586-1.531c9.324-1.262,16.336-1.854,25.88-2.495l8.217,1.17l6.183-1.363l5.865-0.55l3.104-1.538l5.579,0.648
					l2.069-1.277l14.149-0.182l5.026-0.779l5.403,0.188l4.29-0.954l5.921-0.332l4.704-1.547l9.925,0.31l5.474-1.459
					c6.444-0.777,8.188-0.826,14.968-0.907c7.167-0.682,12.663-1.051,19.841-1.275l7.488-1.441l5.312-0.274l0.111,2.196
					l-5.146,0.265l-7.501,1.444l-9.729,0.303l-10.211,0.974l-8.433,0.104l-6.298,0.781l-5.607,1.498l-9.858-0.308l-4.611,1.516
					l-6.063,0.341l-4.376,0.972l-5.479-0.191l-4.973,0.77l-13.692,0.175l-2.209,1.365l-5.688-0.662l-2.874,1.423l-6.145,0.577
					l-6.45,1.423l-8.377-1.192l-15.064,0.999l-10.312,1.446l-5.71,1.566l-6.986-0.043l-4.283,1.479l-8.619,1.397l-8.524,1.953
					l-12.096,3.641L295.872,262.875z"/>
			</g>
		</g>
		<g>
			<g>
				<defs>
					<rect id="SVGID_11_" x="56" y="167.536" width="398.361" height="123.207"/>
				</defs>
				<clipPath id="SVGID_12_">
					<use xlink:href="#SVGID_11_"  overflow="visible"/>
				</clipPath>
				<path clip-path="url(#SVGID_12_)" fill="#C19500" d="M303.56,256.729c12.008-4.058,18.835-5.854,31.228-8.349l3.534-2.12
					l7.966-0.104l5.023-2.021c11.914-2.196,16.7-2.571,29.38-3.696l8.946,0.703l4.989-1.942l6.215-0.155l2.627-1.646l5.2,0.665
					l1.621-1.471l16.58-0.384l4.283-1.033l4.59-0.036l3.251-1.45l5.323-0.687l3.771-2.223l8.215-0.164l4.728-2.079
					c5.39-1.161,6.898-1.392,12.411-1.98l8.624-1.773l7.781-0.914l7.241-2.075l4.523-0.622l0.294,2.178l-4.336,0.597l-7.283,2.086
					l-7.945,0.934c-6.274,1.293-8.79,1.79-14.9,2.44l-5.725,1.23l-4.914,2.165l-8.098,0.162l-3.661,2.16l-5.447,0.701l-3.374,1.506
					l-4.803,0.038l-4.271,1.028l-15.984,0.373l-1.765,1.601l-5.437-0.696l-2.473,1.549l-6.424,0.159l-5.114,1.992l-9.255-0.728
					l-17.314,1.459l-11.453,2.148l-5.196,2.09l-7.789,0.101l-3.349,2.007l-9.095,1.83l-9.541,2.234l-12.706,4.292L303.56,256.729z"
					/>
			</g>
		</g>
		<g>
			<g>
				<defs>
					<rect id="SVGID_13_" x="56" y="167.536" width="398.361" height="123.207"/>
				</defs>
				<clipPath id="SVGID_14_">
					<use xlink:href="#SVGID_13_"  overflow="visible"/>
				</clipPath>
				<path clip-path="url(#SVGID_14_)" fill="#C19500" d="M262.301,281.727l14.805-4.125l3.137-3.162l7.76-5.205l22.347-18.367
					c14.101-5.166,19.116-6.419,33.993-9.953l2.601-2.703l8.906-0.251l4.478-2.51c4.362-0.981,8.73-1.951,13.091-2.952
					c6.59-0.622,13.205-1.255,19.788-1.942l9.627,0.24l3.794-2.544l6.578,0.247l2.162-1.756l4.812,0.678l1.172-1.65l19.016-0.586
					l3.543-1.282l3.729-0.252l2.227-1.935l4.736-1.044l2.824-2.896l6.536-0.646l3.999-2.694c3.286-1.06,6.442-2.059,9.753-3.034
					c5.662-2.09,7.376-2.678,13.073-4.131c4.374-1.688,6.452-2.558,10.7-3.673l0.551,2.126l-3.567,0.936
					c-5.97,2.306-7.141,2.746-13.139,4.275c-3.979,1.468-7.179,2.629-11.188,3.81l-5.197,1.68l-4.208,2.838l-6.298,0.624l-2.731,2.8
					l-4.822,1.062l-2.354,2.05l-4.174,0.279l-3.566,1.291l-18.276,0.565l-1.317,1.853l-5.188-0.732l-2.06,1.673l-6.692-0.251
					l-3.777,2.535l-10.188-0.254l-19.519,1.916l-12.643,2.851l-4.67,2.618l-8.558,0.243l-2.435,2.53l-20.104,4.773l-13.921,5.121
					c-10.085,8.292-18.963,16.069-29.795,23.333l-3.393,3.422l-15.371,4.283L262.301,281.727z"/>
			</g>
		</g>
		<g>
			<g>
				<defs>
					<rect id="SVGID_15_" x="56" y="167.536" width="398.361" height="123.207"/>
				</defs>
				<clipPath id="SVGID_16_">
					<use xlink:href="#SVGID_15_"  overflow="visible"/>
				</clipPath>
				<path clip-path="url(#SVGID_16_)" fill="#C19500" d="M5.872,220.092h4.07l4.912,2.513l4.008,1.967l2.416,2.876l3.681,0.546
					l2.271,1.315l4.454,0.651l5.012,0.471l1.308,0.999l5.014,0.112l1.671,0.872l3.852,0.974l1.248-1.001l2.29,0.346l1.397,0.456
					l1.384-1.291l2.188,1.08l0.339,0.051l1.41-1.52l3.529,1.542l3.054,0.377l1.692,2.649l3.963,1.509l2.881,0.33l2.978,0.294
					c1.592,0.429,3.188,0.855,4.782,1.275l6.655,2.6l5.561,0.894l1.866-0.905l2.919,0.492l1.36,0.92l6.038,0.294l3.926-1.24
					l1.931-1.332l3.296-0.892l5.211,0.517l4.93-0.305l2.057,0.415l22.537,10.699l23.022,0.496l7.813,3.323l7.275-0.271l5.846,3.824
					l5.792,2.506l1.913,0.494l3.849-1.562l3.047,1.573c4.865,2.192,9.729,4.381,14.585,6.591l3.349-1.439l7.351,6.63l8.227,1.062
					l1.555,0.923l7.893,0.729l4.508,2.195l5.938,1.293l5.005,4.818l13.62,9.679l-1.444,2.032l-13.772-9.79l-4.618-4.448l-5.553-1.21
					l-4.386-2.135l-7.987-0.739l-1.598-0.947l-8.483-1.092l-6.731-6.072l-2.897,1.246l-5.449-2.48
					c-4.122-1.855-8.258-3.6-12.274-5.672l-3.537,1.436l-2.908-0.75l-6.216-2.689l-5.32-3.481l-7.037,0.265l-7.888-3.354
					l-23.078-0.497l-22.753-10.802l-1.396-0.281l-4.812,0.296l-4.955-0.492l-2.466,0.667l-1.895,1.307l-4.673,1.478l-7.189-0.351
					l-1.482-1.006l-1.617-0.269l-1.85,0.896c-2.207-0.353-4.414-0.705-6.621-1.064l-6.767-2.643l-4.45-1.188
					c-2.007-0.198-3.981-0.404-5.984-0.64l-5.034-1.913l-1.499-2.351l-2.236-0.276l-2.264-0.988l-1.109,1.194l-2.007-0.305
					l-1.001-0.494l-1.204,1.121l-2.577-0.844l-1.027-0.155l-1.365,1.094l-5.344-1.354l-1.419-0.739l-5.233-0.119l-1.386-1.056
					l-4.423-0.415l-4.919-0.721l-2.275-1.316l-4.138-0.615l-2.691-3.202c-2.67-1.313-5.286-2.631-7.936-3.985H5.872V220.092z"/>
			</g>
		</g>
		<g>
			<g>
				<defs>
					<rect id="SVGID_17_" x="56" y="167.536" width="398.361" height="123.207"/>
				</defs>
				<clipPath id="SVGID_18_">
					<use xlink:href="#SVGID_17_"  overflow="visible"/>
				</clipPath>
				<path clip-path="url(#SVGID_18_)" fill="#0094B9" d="M57.131,234.295c-0.396,0.079-0.75,0.031-1.131-0.081v-0.195l0.303,0.15
					L57.131,234.295z M60.793,233.878c-0.487-0.095-1.037-0.189-1.661-0.29l0.287-0.31L60.793,233.878z M64.141,234.893
					c-0.238-0.146-0.562-0.296-1.035-0.449l0.813,0.101L64.141,234.893z M454.362,167.536v51.966l-4.501,0.99l-2.227,1.938
					l-3.729,0.25l-3.543,1.282l-19.016,0.588l-1.172,1.65l-4.812-0.681l-2.162,1.758l-6.579-0.247l-3.794,2.544l-9.626-0.24
					c-6.583,0.687-13.198,1.318-19.789,1.942c-4.357,0.999-8.729,1.969-13.09,2.953l-4.478,2.51l-8.906,0.251l-2.601,2.703
					c-14.878,3.534-19.895,4.787-33.993,9.951l-9.049,7.441l-108.554-0.062l-4.672-3.057l-7.275,0.271l-7.813-3.325l-23.022-0.494
					l-22.537-10.698l-2.058-0.416l-4.929,0.305l-5.211-0.516l-3.296,0.891l-1.93,1.332l-3.928,1.242l-6.038-0.294l-1.359-0.92
					l-2.919-0.492l-1.866,0.905l-5.561-0.894l-6.655-2.6c-1.594-0.419-3.19-0.849-4.782-1.275l-2.978-0.294l-2.882-0.332
					l-3.962-1.507l-1.692-2.649l-3.055-0.377l-3.528-1.542l-1.41,1.52l-0.339-0.052L56,231.24v-63.704H454.362z"/>
			</g>
		</g>
		<g>
			<g>
				<defs>
					<rect id="SVGID_19_" x="56" y="167.536" width="398.361" height="123.207"/>
				</defs>
				<clipPath id="SVGID_20_">
					<use xlink:href="#SVGID_19_"  overflow="visible"/>
				</clipPath>
				<path clip-path="url(#SVGID_20_)" fill="#C19500" d="M42.207,244.859l0.03,0.061c0.031,0.072,0,0.002-0.023-0.085
					L42.207,244.859z M5.872,234.895l1.938-0.004c1.51-0.013,2.184-0.018,2.872,0.128c0.586,0.128,1.049,0.326,1.875,0.683
					c0.696,0.299,1.675,0.723,3.206,1.309l4.54,1.662l3.177,2.505l4.191,0.465l0.062,0.016c1.338,0.314,1.82,0.55,2.24,0.752
					c0.559,0.271,0.952,0.462,5.795,0.941c5.795,0.57,6.177,0.965,6.438,1.509l0.007-0.025c-0.027-0.097-0.043-0.218,0.049-0.195
					c0.164,0.042,0.461,0.027,0.869,0.007c1.204-0.059,3.15-0.155,7.062,0.784c4.515,1.08,4.657,0.974,4.773,0.855
					c0.489-0.494,0.997-0.999,3.835-0.565l2.479,0.489l2.264-1.053c0.088,0.022,0.446,0.14,0.51,0.14
					c0.42,0.114,2.999,0.831,3.823,0.804l2.45-1.3l3.958,1.192l3.438,0.285l0.195,0.083c0.51,0.213,0.786,0.51,1.136,0.889
					c0.789,0.847,2.203,2.371,9.635,2.921c6.251,0.463,8.837,1.327,11.434,2.194c2.062,0.689,4.129,1.378,8.315,1.848
					c3.206,0.359,4.106,0.083,4.825-0.141c0.966-0.301,1.711-0.532,4.362,0.067l0.085,0.02l2.302,0.815
					c1.5,0.276,3.361,0.314,5.238,0.173c2.026-0.157,4.048-0.525,5.633-1.04h0.007c0.346-0.114,0.77-0.283,1.228-0.465
					c1.435-0.575,3.188-1.275,5.429-1.394l0.097-0.005l0.064,0.005c1.206,0.097,2.25,0.752,3.297,1.408
					c0.778,0.487,1.558,0.974,2.173,1.024c1.471,0.054,4.087,0.857,6.194,1.509c0.769,0.235,1.467,0.451,1.922,0.576l0.102,0.028
					l0.078,0.036c3.188,1.43,6.479,1.466,9.766,1.5c3.479,0.036,6.955,0.074,10.529,1.614c3.489,0.094,6.925,0.657,10.359,1.221
					c3.439,0.563,6.88,1.127,10.261,1.197l0.214,0.004l7.824,2.856c1.36,0.016,2.606,0.488,3.851,0.965
					c1.095,0.418,2.191,0.836,3.143,0.807l0.332-0.01l0.287,0.149c0.729,0.39,1.562,0.406,2.394,0.425
					c1.136,0.024,2.272,0.053,3.51,0.709l0.129,0.067l0.125,0.11c0.885,0.801,1.831,1.201,2.776,1.604
					c1.116,0.473,2.229,0.945,3.402,1.98l2.883,2.033l4.104,0.412l3.453,1.186l9.671,3.865l4.97,0.201
					c0.992-0.218,1.779,0.168,2.567,0.554c0.413,0.2,0.831,0.401,0.987,0.354l0.207-0.062l0.202,0.009
					c1.334,0.056,2.582,0.373,3.83,0.687c1.134,0.285,2.271,0.572,3.32,0.615l0.387,0.02l5.867,4.361l5.792,6.194l-1.827,1.7
					l-5.645-6.038l-5.067-3.772c-1.187-0.094-2.312-0.377-3.435-0.66c-1.072-0.271-2.149-0.543-3.151-0.607
					c-0.987,0.211-1.775-0.173-2.562-0.554c-0.413-0.202-0.828-0.404-0.987-0.357l-0.205,0.063l-5.77-0.233l-9.96-3.979
					l-3.204-1.098l-4.452-0.445c-1.051-0.739-2.672-1.729-3.564-2.531c-0.886-0.801-1.832-1.201-2.777-1.604
					c-1.096-0.466-2.191-0.931-3.344-1.93c-0.7-0.33-1.49-0.348-2.281-0.365c-1.044-0.021-2.09-0.048-3.215-0.564
					c-1.338-0.032-2.559-0.497-3.776-0.965c-1.096-0.418-2.19-0.838-3.144-0.807l-0.242,0.008l-7.876-2.877
					c-3.503-0.09-6.952-0.656-10.4-1.222c-3.438-0.563-6.88-1.127-10.261-1.196l-0.256-0.004l-0.229-0.104
					c-3.186-1.43-6.475-1.467-9.762-1.5c-3.527-0.038-7.055-0.076-10.679-1.68c-0.579-0.162-1.212-0.356-1.901-0.57
					c-2.001-0.614-4.495-1.383-5.575-1.398h-0.081c-1.208-0.097-2.254-0.752-3.298-1.405c-0.754-0.474-1.509-0.948-2.117-1.02
					c-1.777,0.112-3.286,0.716-4.521,1.21c-0.487,0.196-0.938,0.375-1.393,0.523c-1.773,0.577-4.007,0.989-6.221,1.157
					c-2.113,0.162-4.241,0.107-5.979-0.229l-0.096-0.02l-2.365-0.836c-1.926-0.43-2.391-0.284-2.986-0.098h-0.005
					c-0.942,0.292-2.114,0.656-5.837,0.238c-4.438-0.496-6.639-1.23-8.833-1.965c-2.438-0.812-4.868-1.625-10.82-2.065
					c-8.412-0.624-10.258-2.609-11.282-3.711l-0.206-0.222l-3.198-0.268l-3.24-0.974l-1.894,1.003l-0.178,0.038
					c-1.037,0.218-3.682-0.442-4.742-0.725l-2.182,1.013l-3.182-0.628c-1.572-0.24-1.626-0.187-1.679-0.135h-0.004
					c-0.62,0.62-1.215,1.212-7.11-0.2c-3.555-0.853-5.296-0.766-6.369-0.714c-0.629,0.031-1.078,0.054-1.59-0.074
					c-1.324-0.334-1.515-0.736-1.678-1.089c-0.083-0.182,0.146,0.31-4.457-0.144c-5.29-0.521-5.849-0.792-6.635-1.172
					c-0.294-0.144-0.636-0.308-1.659-0.553l-4.736-0.53l-3.435-2.703l-4.187-1.529c-1.605-0.615-2.602-1.044-3.304-1.347
					c-0.693-0.299-1.075-0.465-1.407-0.535c-0.449-0.096-1.03-0.092-2.333-0.081l-1.958,0.013L5.872,234.895L5.872,234.895z"/>
			</g>
		</g>
		<g>
			<g>
				<defs>
					<rect id="SVGID_21_" x="56" y="167.536" width="398.361" height="123.207"/>
				</defs>
				<clipPath id="SVGID_22_">
					<use xlink:href="#SVGID_21_"  overflow="visible"/>
				</clipPath>
				<path clip-path="url(#SVGID_22_)" fill="#C19500" d="M5.872,249.698h5.102l5.693,1.738l5.064,1.363l3.954,2.117l4.851,0.4
					l3.854,0.94l5.508,0.485l4.635,0.327l2.05,0.726l5.795,0.081l3.386,0.583l5.202,0.784l2.005-0.732l2.56,0.2l3.473,0.442
					l3.184-0.869l3.565,0.595l2.766,0.115l3.233-1.001l4.521,0.949l4.299,0.246l3.466,1.836l5.173,1.16l4.295,0.241
					c6.989,0.333,10.15,1.146,16.98,2.966l4.675,0.4l3.88,0.277l3.557-0.643c1.358,0.098,2.717,0.195,4.077,0.288l3.238,0.687
					l6.696,0.222l5.126-0.938l3.619-0.946c1.5-0.191,3.002-0.39,4.504-0.587l5.919,0.363c4.091-0.151,5.581-0.223,9.435,0.051
					l0.188,0.08c2.978,1.242,6.003,2.013,9.03,2.781c3.04,0.772,6.08,1.547,9.167,2.813c3.278,0.124,6.419,1.44,9.562,2.759
					c3.011,1.264,6.021,2.531,8.884,2.584l0.175,0.002l0.167,0.053c1.49,0.453,2.876,1.402,4.257,2.354
					c1.172,0.801,2.342,1.604,3.41,1.974c1.388,0.014,2.656,0.5,3.923,0.983c1.113,0.426,2.228,0.851,3.197,0.828l0.272-0.009
					l0.24,0.101c0.771,0.323,1.659,0.267,2.549,0.211c1.184-0.073,2.368-0.147,3.668,0.397l0.117,0.049l0.13,0.092
					c0.777,0.562,1.677,0.593,2.568,0.622c1.24,0.041,2.479,0.083,3.822,1c0.242,0.063,0.638-0.05,1.032-0.162
					c0.816-0.231,1.637-0.465,2.612-0.092l4.766,0.351c1.262,0.299,3.13,0.605,4.287,1.008c1.726,0.596,3.375,1.685,5.023,2.774
					c1.51,1,3.021,1.996,4.455,2.492l-0.812,2.362c-1.723-0.597-3.371-1.688-5.021-2.775c-1.493-0.988-2.986-1.973-4.407-2.475
					l-3.909-0.914l-4.998-0.365l-0.211-0.102c-0.232-0.109-0.669,0.015-1.104,0.137c-0.88,0.252-1.765,0.504-2.85-0.01l-0.109-0.054
					l-0.09-0.063c-0.779-0.563-1.673-0.594-2.566-0.623c-1.231-0.041-2.463-0.08-3.799-0.987c-0.748-0.281-1.601-0.228-2.452-0.173
					h-0.004c-1.111,0.068-2.221,0.139-3.429-0.303c-1.365-0.027-2.618-0.506-3.868-0.986c-1.114-0.424-2.227-0.852-3.2-0.826
					l-0.197,0.007l-0.192-0.059c-1.497-0.458-2.878-1.405-4.259-2.353l-0.006-0.008c-1.172-0.806-2.344-1.609-3.422-1.979
					c-3.3-0.107-6.459-1.438-9.62-2.762c-3.009-1.268-6.021-2.529-8.883-2.584l-0.247-0.004l-0.211-0.088
					c-2.977-1.242-6.006-2.012-9.032-2.781c-3.045-0.773-6.092-1.549-9.186-2.819l-3.215-0.231c-4.922,0.188-6.565,0.162-11.5-0.141
					l-4.073,0.525c-3.227,0.849-5.712,1.338-9.048,1.938c-2.402-0.071-4.808-0.149-7.21-0.237l-3.256-0.688l-3.621-0.257
					l-3.56,0.646c-3.032-0.213-6.036-0.451-9.067-0.719l-7.091-1.892l-5.381-0.854c-2.918-0.139-5.82-0.281-8.737-0.456
					c-1.903-0.419-3.809-0.854-5.712-1.279l-3.275-1.735l-3.939-0.226l-4.075-0.854l-3.024,0.938l-3.372-0.139l-3.171-0.53
					l-3.125,0.854l-3.83-0.49l-2.039-0.155l-2.093,0.763c-3.062-0.457-6.062-0.918-9.106-1.441l-5.984-0.083l-2.103-0.743
					c-3.346-0.234-6.642-0.494-9.981-0.802l-3.855-0.941l-5.196-0.429l-4.154-2.223c-3.493-0.941-6.73-1.886-10.197-2.943H5.872
					V249.698z"/>
			</g>
		</g>
		<g>
			<g>
				<defs>
					<rect id="SVGID_23_" x="56" y="167.536" width="398.361" height="123.207"/>
				</defs>
				<clipPath id="SVGID_24_">
					<use xlink:href="#SVGID_23_"  overflow="visible"/>
				</clipPath>
				<path clip-path="url(#SVGID_24_)" fill="#C19500" d="M5.872,264.5h5.629l6.106,1.378l5.601,1.08l4.731,1.711
					c4.403,0.261,5.838,0.386,10.096,1.075l5.978,0.389l4.461,0.258l2.425,0.584c6.188,0.064,10.072,0.482,16.239,1.17l2.381-0.588
					c2.425,0.131,4.75,0.312,7.178,0.512l4.09-0.688l4.396,0.465l3.81,0.099l4.146-0.793l5.157,0.746l4.953,0.189l4.329,1.455
					l5.746,0.945l4.994,0.195l5.093,0.168c5.38,0.633,7.755,1.071,13.185,2.203l5.289,0.321l4.666,0.228l4.402-0.515l4.751,0.222
					l0.107,0.012l4.099,0.541l6.954,0.181l5.665-0.757l4.438-0.758c1.72-0.174,3.456-0.303,5.18-0.463l6.287,0.291
					c3.94-0.109,6.811-0.14,10.696,0.037l0.182,0.069c2.813,1.06,5.563,2.604,8.316,4.149c2.61,1.466,5.225,2.932,7.782,3.92
					c2.892,0.101,5.669,1.156,8.445,2.212c2.654,1.01,5.312,2.021,7.841,2.062l0.14,0.004l0.133,0.029
					c1.071,0.264,2.261,0.098,3.451-0.068c1.369-0.19,2.741-0.383,4.216-0.06l7.483-0.151l6.86,2.188l6.684,3.718
					c0.149-0.061,0.622-0.505,1.093-0.954c1.017-0.968,2.032-1.938,3.437-1.585c8.73,0.458,10.584,1.137,19.408,3.658l5.875,0.137
					l5.133-0.768c2.489,0.07,5.071,0.206,7.553,0.206l8.119,0.612l4.24,0.537l7.957,0.424l5.914,1.242l6.776,0.731l5.503,2.636
					l10.496,0.75l5.093-1.854c1.83-0.299,3.659-0.608,5.486-0.918l7.141,0.481l4.555-0.401l5.104,0.545
					c39.95,1.094,85.806,10.278,126.045,15.479l-0.313,2.468l-117.964-15.239l-8.006-0.224l-4.864-0.521l-4.504,0.398l-7.072-0.479
					l-4.977,0.833l-5.378,1.956l-11.476-0.819l-5.548-2.659c-5.365-0.576-7.125-0.832-12.338-1.929l-7.784-0.413l-4.271-0.539
					l-8.121-0.611l-7.186-0.199l-5.125,0.767c-2.156-0.043-4.313-0.097-6.471-0.149l-9.239-2.642l-4.638-0.733l-5.574-0.291
					l-0.143-0.045c-0.088-0.027-0.607,0.469-1.127,0.963c-1.056,1.004-2.111,2.01-3.598,1.537l-0.104-0.033l-6.799-3.781
					l-6.212-1.985l-7.394,0.153l-0.155-0.038c-1.073-0.261-2.264-0.097-3.453,0.069c-1.379,0.192-2.757,0.384-4.243,0.052
					c-2.928-0.081-5.734-1.149-8.539-2.216c-2.656-1.008-5.31-2.019-7.84-2.062l-0.223-0.005l-0.197-0.072
					c-2.812-1.062-5.562-2.604-8.312-4.149c-2.614-1.47-5.23-2.937-7.791-3.925l-4.095-0.188c-4.566,0.128-7.772,0.095-12.34-0.112
					l-4.818,0.428c-3.521,0.601-6.812,1.076-10.363,1.546c-4.796-0.119-6.97-0.146-11.45-0.739l-4.481-0.211l-4.412,0.518
					c-3.474-0.162-6.918-0.354-10.389-0.569l-7.198-1.503l-5.926-0.697c-3.363-0.107-6.715-0.229-10.078-0.361l-6.085-1.004
					l-4.185-1.404c-4.208-0.162-5.416-0.277-9.605-0.886l-3.982,0.763c-1.405-0.035-2.85-0.043-4.248-0.11l-4.091-0.435
					l-4.081,0.688l-4.626-0.386l-2.402-0.133l-2.456,0.607l-6.188-0.689l-4.189-0.455l-6.326-0.064l-2.461-0.593
					c-5.355-0.312-9.697-0.537-14.989-1.396l-5.708-0.339l-4.876-1.762c-3.861-0.746-7.468-1.511-11.308-2.375H5.872V264.5z"/>
			</g>
		</g>
		<g>
			<g>
				<defs>
					<rect id="SVGID_25_" x="56" y="167.536" width="398.361" height="123.207"/>
				</defs>
				<clipPath id="SVGID_26_">
					<use xlink:href="#SVGID_25_"  overflow="visible"/>
				</clipPath>
				<path clip-path="url(#SVGID_26_)" fill="#C19500" d="M5.875,279.301h6.145l6.543,1.031c5.081,0.667,6.742,0.943,11.659,2.095
					c4.154,0.169,7.369,0.382,11.491,0.812c4.713,0.213,8.921,0.198,13.524,0.923l6.641,0.049c3.817,0.256,7.613,0.537,11.43,0.833
					l2.753-0.44c2.777,0.101,5.523,0.236,8.299,0.383l5.029-0.516l5.24,0.344l4.798,0.074l5.061-0.59l5.81,0.551l5.665,0.145
					l5.175,1.078l6.327,0.725l5.667,0.148l5.766,0.121c0.795,0.064,1.738-0.295,2.68-0.657c1.206-0.462,2.41-0.925,3.761-0.812
					l7.387,1.127l5.888,0.238l5.446,0.174c4.765-0.351,6.107-0.223,10.836-0.223l5.072,0.413l7.15,0.137l6.215-0.573
					c1.224-0.132,2.259,0.346,3.296,0.822c0.724,0.333,1.445,0.667,1.984,0.608c1.674-0.125,4.267-0.394,5.866-0.341
					c1.377,0.045,2.6,0.64,3.824,1.23c0.983,0.477,1.967,0.954,2.802,0.985c1.343-0.017,2.546,0.512,3.745,1.04
					c0.968,0.422,1.937,0.847,2.753,0.83c1.789,0,3.648,0.104,5.444,0.156l0.164,0.051c2.115,0.688,4.347,0.472,6.576,0.254
					c2.489-0.247,4.981-0.492,7.591,0.356l-0.771,2.37c-2.114-0.688-4.348-0.469-6.573-0.249h-0.006
					c-2.438,0.238-4.872,0.478-7.416-0.306l-5-0.145c-1.352,0.017-2.555-0.513-3.756-1.037c-0.968-0.424-1.938-0.85-2.758-0.834
					h-0.061c-1.374-0.045-2.599-0.638-3.821-1.229c-0.966-0.467-1.931-0.938-2.755-0.982l-5.61,0.329
					c-1.211,0.121-2.241-0.353-3.27-0.827c-0.724-0.332-1.446-0.666-1.984-0.608c-4.329,0-9.08,0.448-13.826,0.448l-5.069-0.412
					l-5.283-0.16c-8.944,0.656-15.456,0.193-24.317-1.163c-0.786-0.049-1.711,0.305-2.634,0.66
					c-1.206,0.462-2.409,0.925-3.761,0.815c-8.884-0.193-14.308-0.26-23.046-2.08c-4.077-0.104-7.055-0.285-11.118-0.67
					l-4.939,0.573c-1.706-0.021-3.424-0.078-5.128-0.078l-5.047-0.329l-5.003,0.514l-5.406-0.282l-2.802-0.103l-2.827,0.455
					l-6.562-0.511l-5.112-0.343l-6.674-0.053l-2.817-0.441c-5.568-0.247-10.617-0.475-16.146-1.046l-6.218-0.253l-5.627-1.317
					c-4.181-0.549-8.175-1.13-12.344-1.788H5.875V279.301z"/>
			</g>
		</g>
	</g>
</g>
<g>
	<rect x="12.221" y="120.778" fill-rule="evenodd" clip-rule="evenodd" fill="#384F54" width="487.559" height="270.443"/>
</g>
<g>
	<path fill="#BDCED9" d="M72.105,331.355v3.078l0.056,0.705l0.13,1.574c0.152,1.779,1.573,2.666,4.267,2.666
		c2.652,0,4.46-0.637,5.438-1.908c0.796-1.062,1.194-2.332,1.194-3.816c0-2.9-1.302-4.688-3.906-5.359
		c-1.51-0.383-3.218-0.572-5.122-0.572c-0.893,0-1.466,0.217-1.7,0.643C72.228,328.789,72.105,329.785,72.105,331.355
		 M72.105,318.969v5.342c0,0.729,0.179,1.234,0.528,1.529c0.35,0.289,0.956,0.434,1.826,0.434l2.585,0.061l1.153-0.061
		c2.135-0.258,3.203-1.527,3.203-3.809c0-1.846-0.592-3.336-1.778-4.467c-1.183-1.137-2.741-1.703-4.672-1.703
		c-1.124,0-1.882,0.186-2.269,0.547C72.295,317.209,72.105,317.924,72.105,318.969z M67.839,320.594
		c0-2.506-1.016-3.871-3.039-4.107l-0.859-0.115c-0.271-0.025-0.405-0.195-0.405-0.525c0-0.363,0.171-0.541,0.521-0.541l0.461,0.02
		l1.398,0.062c1.157,0.047,1.89,0.072,2.217,0.072c0.893,0,2.526-0.109,4.895-0.326c1.466-0.139,2.697-0.207,3.698-0.207
		c2.648,0,4.761,0.568,6.357,1.707c1.596,1.137,2.396,2.646,2.396,4.537c0,2.174-1,3.691-2.987,4.549
		c-0.454,0.195-0.696,0.365-0.71,0.5c-0.004,0.223,0.234,0.375,0.732,0.445c1.548,0.271,2.775,0.949,3.675,2.037
		c0.893,1.084,1.347,2.432,1.347,4.037c0,2.457-0.822,4.402-2.466,5.83s-3.865,2.145-6.669,2.145l-3.779-0.102l-2.901-0.049
		c-1.86,0-3.475,0.074-4.836,0.227c-0.42,0.053-0.814,0.074-1.19,0.074c-0.372,0-0.558-0.164-0.558-0.486
		c0-0.271,0.167-0.438,0.502-0.504c1.466-0.248,2.202-1.527,2.202-3.846V320.594z"/>
	<path fill="#BDCED9" d="M137.826,328.949l-2.433-5.688c-0.584-1.365-0.997-2.045-1.242-2.045c-0.156,0-0.42,0.438-0.822,1.318
		l-0.35,0.781l-2.176,4.959l-0.205,0.463c-0.085,0.191-0.126,0.35-0.126,0.484c0,0.426,0.446,0.635,1.335,0.635h5.498
		c0.476,0,0.71-0.135,0.71-0.395c0-0.057-0.03-0.164-0.097-0.312L137.826,328.949z M137.127,317.279l8.47,19.434
		c0.416,0.977,0.918,1.715,1.483,2.197c0.573,0.482,1.313,0.807,2.218,0.963c0.219,0.039,0.334,0.217,0.334,0.535
		c0,0.344-0.138,0.508-0.428,0.494c-0.163-0.014-0.394-0.051-0.706-0.107c-0.96-0.211-2.496-0.311-4.624-0.311
		c-2.132,0-3.586,0.1-4.36,0.297c-0.186,0.061-0.342,0.082-0.483,0.082c-0.35,0-0.521-0.172-0.521-0.521
		c0-0.176,0.138-0.305,0.413-0.393c0.591-0.17,1.086-0.48,1.48-0.932c0.387-0.449,0.584-0.922,0.584-1.416
		c0-0.697-0.539-2.229-1.622-4.596c-0.328-0.717-0.696-1.129-1.105-1.238c-0.398-0.107-1.826-0.158-4.278-0.158h-2.525l-1.674,0.299
		c-0.461,0.207-0.982,1.027-1.559,2.457l-0.576,1.436c-0.171,0.406-0.261,0.824-0.261,1.242c0,1.562,1.094,2.471,3.277,2.715
		c0.469,0.064,0.695,0.244,0.685,0.541c-0.026,0.326-0.25,0.49-0.673,0.49c-0.223,0-0.54-0.037-0.953-0.119
		c-0.818-0.174-1.551-0.262-2.198-0.262c-0.584,0-1.529,0.062-2.834,0.191c-0.971,0.1-1.577,0.152-1.812,0.152
		c-0.35,0-0.521-0.152-0.521-0.457c0-0.258,0.171-0.447,0.521-0.574c0.673-0.207,1.213-0.596,1.614-1.16
		c0.406-0.561,1.008-1.744,1.801-3.557l5.081-11.693c0.405-0.934,0.692-1.568,0.855-1.908l1.726-3.551
		c0.599-1.162,0.896-1.748,0.896-1.748c0,0.039,0,0.061,0,0.061s0.101-0.242,0.301-0.719c0.193-0.475,0.365-0.709,0.499-0.709
		c0.205,0,0.547,0.52,1.03,1.559L137.127,317.279z"/>
	<path fill="#BDCED9" d="M191.838,318.887v6.443c0,0.793,0.104,1.293,0.305,1.506c0.212,0.209,0.699,0.316,1.47,0.316
		c2.209,0,3.578-0.039,4.106-0.121s1.022-0.33,1.484-0.758c0.907-0.818,1.357-1.947,1.357-3.389c0-1.871-0.61-3.42-1.834-4.641
		c-1.224-1.225-2.782-1.834-4.672-1.834c-0.845,0-1.425,0.178-1.737,0.533C191.998,317.295,191.838,317.938,191.838,318.887
		 M191.838,333.404c0,2.355,0.216,3.951,0.654,4.783c0.432,0.834,1.287,1.314,2.563,1.438c0.524,0.051,0.781,0.248,0.781,0.598
		s-0.209,0.529-0.633,0.529c-0.134,0-0.387-0.02-0.763-0.061c-1.067-0.086-2.094-0.129-3.084-0.129
		c-0.833,0-1.569,0.021-2.209,0.068l-1.562,0.143l-1.246,0.111c-0.35,0.039-0.592,0.057-0.729,0.057
		c-0.443,0-0.666-0.172-0.666-0.508c0-0.273,0.126-0.445,0.375-0.521c0.841-0.262,1.425-0.607,1.749-1.047
		c0.323-0.438,0.483-1.111,0.483-2.012v-1.766l0.019-0.723v-13.43c0-1.482-0.183-2.482-0.558-2.982
		c-0.61-0.834-1.6-1.334-2.983-1.504c-0.506-0.078-0.763-0.293-0.763-0.65c0-0.354,0.175-0.531,0.521-0.531
		c0.142,0,0.361,0.018,0.673,0.053c0.953,0.092,2.002,0.139,3.144,0.139c1.25,0,2.768-0.072,4.553-0.211
		c2.095-0.164,3.542-0.248,4.334-0.248c2.358,0,4.312,0.643,5.862,1.93c1.548,1.291,2.321,2.91,2.321,4.859
		c0,1.23-0.343,2.346-1.034,3.355c-0.685,1.006-1.633,1.773-2.838,2.295c-0.25,0.1-0.361,0.221-0.35,0.371
		c0.015,0.123,0.078,0.275,0.186,0.447c0.111,0.17,0.275,0.465,0.502,0.877l1.655,2.939l1.912,3.4
		c0.658,1.15,1.242,1.949,1.756,2.402c0.514,0.441,1.12,0.666,1.812,0.666c0.286,0,0.555-0.027,0.8-0.076
		c0.146-0.033,0.282-0.053,0.405-0.053c0.224,0,0.339,0.139,0.339,0.426c0,0.363-0.51,0.77-1.525,1.225
		c-1.016,0.459-1.916,0.688-2.704,0.688c-1.269,0-2.444-0.629-3.526-1.881c-1.071-1.252-2.466-3.625-4.181-7.109
		c-0.666-1.379-1.221-2.248-1.652-2.617c-0.435-0.361-1.142-0.545-2.12-0.545h-1.153l-0.84,0.145
		c-0.183,0.102-0.279,0.4-0.279,0.896V333.404z"/>
	<path fill="#BDCED9" d="M252.06,324.529c0,0.691,0.09,1.158,0.272,1.393c0.178,0.234,0.527,0.352,1.049,0.352l0.71-0.018
		l2.027-0.02c0.918,0,1.618-0.195,2.086-0.596c0.469-0.393,0.938-1.174,1.398-2.33c0.109-0.283,0.238-0.426,0.398-0.426
		c0.369,0,0.551,0.16,0.551,0.482c0,0.092-0.012,0.248-0.037,0.484c-0.012,0.158-0.02,0.355-0.02,0.576
		c0,0.717,0.041,1.557,0.117,2.521l0.285,3.51c0.023,0.369,0.037,0.637,0.037,0.801c0,0.26-0.174,0.4-0.502,0.428
		c-0.242,0.01-0.387-0.16-0.449-0.506c-0.25-1.307-0.662-2.188-1.246-2.635s-1.6-0.67-3.055-0.67c-1.859,0-2.931,0.119-3.217,0.354
		c-0.279,0.234-0.425,1.123-0.425,2.674l0.019,1.486v2.189c0,1.855,0.324,3.205,0.964,4.045c0.473,0.621,1.41,0.984,2.819,1.096
		c0.402,0.037,0.596,0.209,0.596,0.514c0,0.344-0.131,0.518-0.402,0.518c-0.249,0-0.613-0.025-1.082-0.082
		c-0.442-0.045-1.339-0.07-2.686-0.07h-2.058c-0.926,0-1.718,0.045-2.392,0.127c-0.903,0.119-1.507,0.176-1.815,0.176
		c-0.409,0-0.609-0.164-0.609-0.494c0-0.242,0.171-0.42,0.513-0.535c0.744-0.248,1.239-0.67,1.499-1.279
		c0.261-0.605,0.387-1.65,0.387-3.139v-15.279c0-1.562-0.274-2.578-0.814-3.049c-0.621-0.539-1.518-0.844-2.704-0.906
		c-0.323-0.027-0.479-0.18-0.479-0.451c0-0.363,0.208-0.539,0.632-0.539c0.134,0,0.458,0.018,0.968,0.055
		c0.743,0.064,1.528,0.096,2.361,0.096l3.199-0.057l4.896-0.025c1.67,0,3.381-0.068,5.129-0.215
		c0.646-0.059,1.123-0.084,1.432-0.084c0.303,0,0.465,0.324,0.506,0.971c0.061,0.783,0.094,1.23,0.109,1.359l0.174,1.416
		c0.037,0.285,0.057,0.527,0.057,0.729c0,1.02-0.23,1.533-0.697,1.533c-0.26,0-0.387-0.172-0.387-0.521v-0.621
		c0-0.25-0.033-0.465-0.096-0.648c-0.506-1.619-2.15-2.428-4.926-2.428l-2.424-0.016l-0.763,0.016c-0.711,0-1.209,0.133-1.484,0.402
		c-0.279,0.268-0.421,0.732-0.421,1.402V324.529z"/>
	<path fill="#BDCED9" d="M311.119,316.143c-2.488,0-4.43,0.922-5.828,2.764c-1.402,1.846-2.098,4.41-2.098,7.699
		c0,3.885,0.873,7.041,2.633,9.473c1.76,2.43,4.043,3.643,6.855,3.643c2.541,0,4.564-1.002,6.09-3.014
		c1.521-2.008,2.283-4.697,2.283-8.062c0-1.938-0.354-3.834-1.061-5.684c-0.703-1.846-1.643-3.318-2.814-4.404
		C315.469,316.949,313.451,316.143,311.119,316.143 M312.455,314.736c3.873,0,6.996,1.123,9.377,3.369
		c2.377,2.254,3.568,5.205,3.568,8.865c0,3.973-1.229,7.342-3.684,10.109c-2.395,2.699-5.688,4.051-9.891,4.051
		c-4.021,0-7.23-1.176-9.639-3.521c-2.406-2.35-3.604-5.486-3.604-9.416c0-1.688,0.305-3.361,0.912-5.029
		c0.605-1.668,1.428-3.066,2.469-4.189c1.205-1.326,2.73-2.367,4.584-3.115C308.405,315.109,310.371,314.736,312.455,314.736z"/>
	<path fill="#BDCED9" d="M369.502,318.887v6.443c0,0.793,0.1,1.293,0.305,1.506c0.209,0.209,0.699,0.316,1.465,0.316
		c2.211,0,3.582-0.039,4.107-0.121c0.527-0.082,1.023-0.33,1.488-0.758c0.906-0.818,1.357-1.947,1.357-3.389
		c0-1.871-0.609-3.42-1.834-4.641c-1.225-1.225-2.783-1.834-4.676-1.834c-0.844,0-1.422,0.178-1.736,0.533
		C369.658,317.295,369.502,317.938,369.502,318.887 M369.502,333.404c0,2.355,0.215,3.951,0.654,4.783
		c0.432,0.834,1.287,1.314,2.566,1.438c0.518,0.051,0.777,0.248,0.777,0.598s-0.209,0.529-0.637,0.529
		c-0.133,0-0.383-0.02-0.762-0.061c-1.064-0.086-2.09-0.129-3.084-0.129c-0.832,0-1.566,0.021-2.209,0.068l-1.562,0.143
		l-1.242,0.111c-0.35,0.039-0.592,0.057-0.732,0.057c-0.443,0-0.662-0.172-0.662-0.508c0-0.273,0.123-0.445,0.371-0.521
		c0.844-0.262,1.428-0.607,1.752-1.047c0.324-0.438,0.484-1.111,0.484-2.012v-1.766l0.018-0.723v-13.43
		c0-1.482-0.182-2.482-0.557-2.982c-0.611-0.834-1.6-1.334-2.984-1.504c-0.51-0.078-0.762-0.293-0.762-0.65
		c0-0.354,0.17-0.531,0.52-0.531c0.143,0,0.361,0.018,0.67,0.053c0.957,0.092,2.002,0.139,3.146,0.139
		c1.25,0,2.768-0.072,4.551-0.211c2.094-0.164,3.541-0.248,4.336-0.248c2.355,0,4.312,0.643,5.863,1.93
		c1.547,1.291,2.32,2.91,2.32,4.859c0,1.23-0.342,2.346-1.033,3.355c-0.686,1.006-1.633,1.773-2.838,2.295
		c-0.25,0.1-0.365,0.221-0.35,0.371c0.01,0.123,0.074,0.275,0.182,0.447c0.115,0.17,0.279,0.465,0.502,0.877l1.658,2.939l1.91,3.4
		c0.662,1.15,1.246,1.949,1.758,2.402c0.514,0.441,1.121,0.666,1.812,0.666c0.283,0,0.551-0.027,0.799-0.076
		c0.146-0.033,0.283-0.053,0.406-0.053c0.223,0,0.334,0.139,0.334,0.426c0,0.363-0.506,0.77-1.521,1.225
		c-1.016,0.459-1.918,0.688-2.703,0.688c-1.273,0-2.443-0.629-3.527-1.881c-1.07-1.252-2.469-3.625-4.18-7.109
		c-0.67-1.379-1.221-2.248-1.652-2.617c-0.439-0.361-1.143-0.545-2.121-0.545h-1.156l-0.836,0.145
		c-0.184,0.102-0.279,0.4-0.279,0.896V333.404z"/>
	<path fill="#BDCED9" d="M429.725,319.141v16.314l0.219,1.689c0.41,1.441,1.939,2.16,4.592,2.16c2.871,0,5.146-0.998,6.832-2.982
		c1.682-1.99,2.525-4.676,2.525-8.061c0-3.543-1.008-6.43-3.035-8.658c-2.023-2.227-4.639-3.344-7.844-3.344
		c-1.314,0-2.215,0.168-2.693,0.52C429.918,317.051,429.725,317.84,429.725,319.141 M425.455,320.137
		c0-1.191-0.328-2.115-0.982-2.754c-0.654-0.65-1.582-0.973-2.779-0.973c-0.387,0-0.58-0.164-0.58-0.488
		c0-0.223,0.086-0.369,0.242-0.439c0.16-0.07,0.514-0.102,1.061-0.102l2.822,0.039c0.65,0,1.225-0.014,1.738-0.039
		c0.777-0.051,1.844-0.139,3.209-0.266c1.834-0.18,3.297-0.268,4.367-0.268c4.203,0,7.574,1.08,10.107,3.232
		s3.805,5.014,3.805,8.588c0,4.611-1.703,8.281-5.111,11.012c-2.5,1.996-5.318,2.994-8.455,2.994c-0.52,0-1.568-0.049-3.143-0.15
		c-0.896-0.053-1.812-0.078-2.75-0.078c-2.209,0-3.674,0.072-4.406,0.209c-0.574,0.115-0.953,0.172-1.154,0.172
		c-0.285,0-0.428-0.182-0.428-0.553c0-0.25,0.152-0.41,0.465-0.475c0.764-0.148,1.283-0.465,1.559-0.951
		c0.275-0.484,0.414-1.314,0.414-2.496V320.137z"/>
	<g>
		<defs>
			<rect id="SVGID_27_" x="63.535" y="170.869" width="383.356" height="118.565"/>
		</defs>
		<clipPath id="SVGID_28_">
			<use xlink:href="#SVGID_27_"  overflow="visible"/>
		</clipPath>
		<path clip-path="url(#SVGID_28_)" fill="#C19500" d="M268.506,285.186l5.482,0.158l4.453-0.854c2.336,0.078,4.791,0.23,7.115,0.23
			l7.764,0.682l3.512,0.596l7.533,0.467l5.334,1.381l6.264,0.812l4.854,2.918l10.432,0.83l4.422-2.047l4.832,0.541l6.688,0.537
			l3.811-0.449l4.396,0.609l7.42-0.037l129.82,15.623l-0.271,2.096l-129.566-15.332c-4.918-0.158-7.217-0.189-11.811-0.824
			l-3.764,0.443l-6.592-0.527l-4.293-0.656l-4.713,2.178l-11.461-0.908l-4.918-2.953c-5.338-0.695-6.096-0.809-11.203-2.135
			c-4.393-0.271-6.846-0.355-10.934-1.055l-7.736-0.676l-6.752-0.223l-4.449,0.852l-5.729-0.164L268.506,285.186z"/>
		<path clip-path="url(#SVGID_28_)" fill="#C19500" d="M273.461,277.668l8.641,1.094l5.322-1.094
			c4.889-0.096,9.475-0.246,14.371-0.02l4.254,0.451c6.012-0.02,7.562,0.037,13.477,0.656l8.4,0.357l5.662,2.482l9.312,0.305
			l4.691-1.654c1.451-0.412,2.949-0.771,4.412-1.156l6.367,0.559l3.334-0.648l6.707,0.41c6.436-0.004,7.822,0.1,14.303,0.836
			c4.902,0.387,9.719,0.807,14.615,1.271c7.502,0.439,14.238,1.225,21.775,2.086c9.99,0.59,19.213,1.498,29.207,2.602
			c9.723,0.898,19.35,1.846,29.059,2.857c5.285,0.301,9.973,0.654,15.232,1.178l-0.205,2.104l-7.297-0.727
			c-7.686-0.434-14.686-1.152-22.396-1.959c-9.664-0.895-19.125-1.844-28.77-2.906l-7.615-0.604
			c-7.576-0.445-14.354-1.227-21.965-2.098c-5.037-0.297-9.664-0.66-14.689-1.135c-4.965-0.391-9.549-0.834-14.5-1.396
			c-4.801,0.002-8.537-0.098-13.32-0.389l-3.377,0.654l-6.305-0.555l-3.891,1.02l-5.029,1.775l-10.137-0.328l-5.67-2.488
			c-5.232-0.223-9.361-0.479-14.539-1.02c-4.867,0.016-6.738,0.051-11.295-0.434l-6.787-0.145l-7.146,0.162l-5.482,1.127
			l-8.99-1.135L273.461,277.668z"/>
		<path clip-path="url(#SVGID_28_)" fill="#C19500" d="M279.811,273.523c1.42-0.268,3.303-0.469,5.189-0.664
			c1.822-0.191,3.645-0.383,4.984-0.633l6.424-1.389c4.574-0.318,9.158-0.629,13.732-0.951l5.1,0.316l6.406-0.508l7.727-0.018
			l10.561-0.092l6.42,2.031l8.209-0.227l5.004-1.283l3.916-1.264l6.045,0.584l2.883-0.848l8.98,0.217l6.238-0.254l6.701,0.621
			c4.506,0.049,8.527,0.193,13.035,0.432l6.301-0.209l12.863,1.205c4.844-0.133,9.084-0.035,13.896-0.035l12.16,1.01
			c8.719,0.393,17.041,0.871,25.748,1.494l7.668-0.164l6.561,0.4l-0.123,2.113l-6.543-0.398c-7.9,0.172-12.16-0.156-20.443-0.748
			c-8.67-0.391-16.557-0.877-25.201-1.596l-7.035-0.145c-7.834,0.213-11.211-0.234-19.613-1.021l-6.312,0.207l-6.934-0.365
			c-4.814-0.051-7.957-0.238-12.773-0.684c-5.293,0.215-9.527,0.17-14.883,0.045l-2.965,0.865l-6.02-0.578
			c-3.088,0.996-5.691,1.691-8.863,2.506c-2.939,0.082-5.875,0.168-8.812,0.244l-6.451-2.041
			c-5.928,0.053-11.846,0.094-17.779,0.105l-6.529,0.516l-5.133-0.314l-5.91,0.381l-7.521,0.551l-6.312,1.361
			c-1.426,0.27-3.307,0.465-5.189,0.662c-1.838,0.193-3.676,0.387-5.014,0.639L279.811,273.523z"/>
		<path clip-path="url(#SVGID_28_)" fill="#C19500" d="M287.461,268.32c9.52-2.396,16.207-4.102,25.924-5.264l5.141-0.924
			l5.934,0.176l5.951-0.996c7.344-0.592,14.146-0.926,21.537-1.25l7.168,1.578l7.072-0.764l5.355-0.916l3.43-1.361l5.707,0.604
			l2.436-1.039l11.293,0.02l5.559-0.506l5.934,0.402l5.084-0.424l6.357,0.018l5.43-0.846l11.197,0.752
			c9.33-1.245,13.432-1.074,22.861-0.65c7.771-0.119,14.627-0.086,22.391,0.131c6.062-0.632,7.449-0.774,13.293-0.704l-0.025,2.114
			l-5.725-0.07l-7.443,0.779l-11.096-0.311c-7.744,0.117-13.855,0.068-21.564-0.279l-6.551,0.305l-6.084,0.809l-11.182-0.75
			l-5.342,0.834l-6.346-0.02l-5.223,0.436l-5.967-0.4c-6.078,0.549-10.002,0.484-16.412,0.473l-2.549,1.088l-5.742-0.605
			l-3.166,1.258c-4.627,0.799-8.406,1.264-13.115,1.766l-7.246-1.594l-12.324,0.523l-8.805,0.711l-5.984,1.008l-5.945-0.18
			l-5.043,0.914l-7.908,0.943l-7.199,1.609l-10.553,2.658L287.461,268.32z"/>
		<path clip-path="url(#SVGID_28_)" fill="#C19500" d="M294.369,262.615c10.322-3.107,17.557-5.025,28.232-6.755l4.285-1.48
			l6.793,0.039l5.375-1.473c8.977-1.215,15.725-1.785,24.904-2.401l7.908,1.126l5.947-1.312l5.646-0.529l2.988-1.48l5.367,0.624
			l1.994-1.229l13.613-0.175l4.84-0.75l5.201,0.182l4.129-0.918l5.697-0.32l4.523-1.488l9.553,0.297l5.268-1.404
			c6.201-0.747,7.879-0.795,14.402-0.872c6.896-0.657,12.188-1.012,19.094-1.228l7.205-1.387l5.111-0.264l0.107,2.113l-4.947,0.254
			l-7.219,1.39l-9.363,0.292l-9.828,0.938l-8.113,0.1l-6.059,0.752l-5.396,1.44l-9.486-0.295l-4.438,1.458l-5.836,0.329
			l-4.211,0.936l-5.275-0.185l-4.783,0.741l-13.176,0.169l-2.127,1.313l-5.477-0.638l-2.764,1.37l-5.914,0.556l-6.205,1.37
			l-8.061-1.147l-14.5,0.961l-9.924,1.392l-5.494,1.507l-6.725-0.041l-4.123,1.423l-8.295,1.346l-8.201,1.881l-11.639,3.502
			L294.369,262.615z"/>
		<path clip-path="url(#SVGID_28_)" fill="#C19500" d="M301.768,256.699c11.555-3.904,18.127-5.634,30.049-8.033l3.404-2.039
			l7.666-0.1l4.836-1.944c11.463-2.113,16.068-2.474,28.27-3.557l8.611,0.677l4.799-1.869l5.98-0.149l2.531-1.583l5.002,0.64
			l1.559-1.416l15.959-0.37l4.121-0.993l4.414-0.034l3.133-1.396l5.123-0.661l3.629-2.14l7.906-0.157l4.549-2.002
			c5.186-1.116,6.639-1.339,11.943-1.905l8.299-1.706l7.488-0.88l6.967-1.997l4.355-0.598l0.283,2.096l-4.174,0.574l-7.008,2.008
			l-7.648,0.898c-6.037,1.245-8.457,1.722-14.34,2.349l-5.508,1.184l-4.729,2.084l-7.793,0.155l-3.521,2.078l-5.242,0.674
			l-3.248,1.45l-4.623,0.037l-4.109,0.989l-15.383,0.358l-1.699,1.541l-5.23-0.67l-2.377,1.491l-6.182,0.153l-4.922,1.916
			l-8.908-0.7l-16.66,1.404l-11.023,2.068l-5.002,2.012l-7.496,0.097l-3.221,1.932l-8.75,1.761l-9.184,2.15l-12.227,4.128
			L301.768,256.699z"/>
		<path clip-path="url(#SVGID_28_)" fill="#C19500" d="M262.063,280.758l14.248-3.969l3.016-3.043l7.469-5.01l21.506-17.675
			c13.568-4.972,18.393-6.178,32.711-9.578l2.504-2.601l8.57-0.243l4.307-2.415c4.199-0.945,8.404-1.878,12.596-2.841
			c6.342-0.599,12.711-1.208,19.045-1.869l9.262,0.23l3.654-2.447l6.33,0.237l2.08-1.689l4.631,0.652l1.131-1.588l18.297-0.564
			l3.408-1.234l3.59-0.241l2.143-1.863l4.557-1.004l2.719-2.787l6.289-0.622l3.852-2.593c3.162-1.021,6.201-1.981,9.385-2.919
			c5.449-2.012,7.098-2.578,12.58-3.976c4.211-1.626,6.209-2.462,10.297-3.535l0.531,2.046l-3.434,0.901
			c-5.746,2.219-6.871,2.643-12.643,4.113c-3.832,1.413-6.908,2.53-10.77,3.667l-5,1.616l-4.051,2.731l-6.059,0.601l-2.631,2.693
			l-4.643,1.022l-2.264,1.973l-4.018,0.269l-3.434,1.242l-17.588,0.544l-1.268,1.783l-4.992-0.705l-1.979,1.609l-6.443-0.241
			l-3.639,2.438l-9.801-0.243l-18.781,1.843l-12.164,2.744l-4.496,2.519l-8.232,0.233l-2.344,2.436L322.752,248l-13.396,4.928
			c-9.703,7.979-18.248,15.463-28.672,22.454l-3.266,3.293l-14.789,4.123L262.063,280.758z"/>
		<path clip-path="url(#SVGID_28_)" fill="#C19500" d="M15.297,221.446h3.917l4.728,2.417l3.857,1.893l2.325,2.768l3.541,0.525
			l2.188,1.266l4.285,0.627l4.821,0.454l1.261,0.961l4.824,0.108l1.607,0.839l3.705,0.938l1.202-0.964l2.202,0.332l1.347,0.439
			l1.332-1.243l2.105,1.04l0.324,0.049l1.358-1.462l3.396,1.483l2.938,0.364l1.629,2.549l3.813,1.452l2.775,0.317l2.864,0.284
			c1.532,0.411,3.069,0.822,4.601,1.227l6.406,2.502l5.353,0.86l1.793-0.871l2.809,0.473l1.309,0.887l5.811,0.282l3.779-1.194
			l1.86-1.282l3.169-0.857l5.018,0.497l4.743-0.294l1.979,0.4l21.686,10.295l22.155,0.479l7.521,3.196l7.001-0.261l5.624,3.68
			l5.576,2.412l1.841,0.475l3.701-1.502l2.932,1.514c4.683,2.111,9.362,4.215,14.038,6.344l3.222-1.387l7.071,6.381l7.919,1.02
			l1.496,0.889l7.592,0.699l4.341,2.113l5.714,1.244l4.816,4.637l13.105,9.314l-1.389,1.957l-13.256-9.422l-4.445-4.279
			l-5.342-1.166l-4.222-2.055l-7.686-0.711l-1.536-0.91l-8.165-1.051l-6.479-5.846l-2.786,1.201l-5.245-2.389
			c-3.969-1.787-7.949-3.463-11.814-5.457l-3.403,1.381l-2.797-0.723l-5.981-2.588l-5.122-3.352l-6.771,0.252l-7.592-3.227
			l-22.207-0.478l-21.898-10.396l-1.343-0.27l-4.631,0.285l-4.769-0.473l-2.37,0.642l-1.826,1.257l-4.494,1.422l-6.919-0.337
			l-1.428-0.968l-1.559-0.259l-1.778,0.861c-2.124-0.339-4.248-0.679-6.372-1.024l-6.51-2.543l-4.282-1.143
			c-1.934-0.19-3.835-0.389-5.762-0.615l-4.843-1.842l-1.443-2.263l-2.154-0.265l-2.176-0.951l-1.067,1.149l-1.935-0.294
			l-0.963-0.476l-1.157,1.079l-2.481-0.812l-0.989-0.149l-1.313,1.052l-5.141-1.303l-1.365-0.71l-5.037-0.115l-1.335-1.015
			l-4.255-0.4l-4.735-0.693l-2.188-1.267l-3.983-0.592l-2.589-3.081c-2.57-1.265-5.085-2.532-7.637-3.835h-3.359V221.446z"/>
		<path clip-path="url(#SVGID_28_)" fill-rule="evenodd" clip-rule="evenodd" fill="#0094B9" d="M64.625,235.114
			c-0.379,0.075-0.722,0.029-1.09-0.078v-0.188l0.29,0.144L64.625,235.114z M68.147,234.711c-0.469-0.091-0.997-0.182-1.6-0.278
			l0.279-0.299L68.147,234.711z M71.369,235.688c-0.227-0.14-0.543-0.285-0.997-0.432l0.785,0.097L71.369,235.688z M446.891,170.869
			v50.009l-4.332,0.952l-2.143,1.864l-3.59,0.24l-3.408,1.233l-18.297,0.566l-1.131,1.588l-4.631-0.654l-2.08,1.692l-6.33-0.238
			l-3.654,2.447l-9.262-0.23c-6.334,0.661-12.703,1.269-19.045,1.869c-4.191,0.961-8.396,1.895-12.596,2.841l-4.307,2.415
			l-8.57,0.243l-2.504,2.601c-14.318,3.401-19.143,4.607-32.711,9.576l-8.709,7.16l-104.462-0.057l-4.497-2.942l-7.001,0.262
			l-7.521-3.2l-22.155-0.476l-21.686-10.295l-1.979-0.4l-4.743,0.294l-5.018-0.496l-3.169,0.857l-1.86,1.281l-3.779,1.195
			l-5.811-0.283l-1.309-0.886l-2.809-0.474L100,242.295l-5.353-0.86l-6.406-2.502c-1.532-0.403-3.069-0.816-4.601-1.227
			l-2.864-0.284l-2.775-0.319l-3.813-1.45l-1.629-2.549l-2.938-0.363l-3.396-1.484l-1.358,1.463l-0.324-0.05l-1.008-0.497v-61.304
			H446.891z"/>
		<path clip-path="url(#SVGID_28_)" fill="#C19500" d="M50.262,245.279l0.03,0.059c0.03,0.069,0,0.002-0.022-0.082L50.262,245.279z
			 M15.297,235.69l1.864-0.004c1.455-0.014,2.102-0.018,2.764,0.123c0.565,0.123,1.008,0.313,1.804,0.657
			c0.669,0.287,1.611,0.695,3.087,1.26l4.367,1.599l3.058,2.411l4.032,0.447l0.063,0.015c1.287,0.303,1.752,0.529,2.154,0.724
			c0.536,0.263,0.919,0.445,5.58,0.906c5.576,0.548,5.944,0.929,6.193,1.451l0.008-0.023c-0.026-0.093-0.041-0.21,0.044-0.188
			c0.16,0.041,0.443,0.025,0.837,0.006c1.161-0.056,3.032-0.149,6.8,0.754c4.341,1.04,4.479,0.938,4.59,0.824
			c0.472-0.477,0.959-0.962,3.694-0.545l2.384,0.471l2.176-1.014c0.086,0.021,0.432,0.135,0.491,0.135
			c0.405,0.109,2.887,0.8,3.679,0.773l2.358-1.252l3.809,1.147l3.311,0.274l0.19,0.08c0.487,0.205,0.755,0.491,1.09,0.855
			c0.759,0.814,2.12,2.282,9.273,2.812c6.015,0.445,8.503,1.276,11.003,2.11c1.983,0.663,3.973,1.327,8.001,1.778
			c3.087,0.346,3.95,0.08,4.642-0.136c0.93-0.289,1.648-0.513,4.2,0.065l0.082,0.019l2.213,0.785
			c1.443,0.266,3.236,0.302,5.041,0.166c1.953-0.151,3.898-0.506,5.423-1.001h0.007c0.331-0.109,0.737-0.272,1.179-0.447
			c1.38-0.553,3.069-1.228,5.223-1.342l0.093-0.004l0.063,0.004c1.16,0.093,2.164,0.725,3.173,1.355
			c0.747,0.469,1.499,0.938,2.09,0.985c1.414,0.051,3.933,0.825,5.963,1.451c0.736,0.227,1.41,0.434,1.849,0.553l0.097,0.029
			l0.075,0.035c3.064,1.375,6.234,1.41,9.396,1.443c3.348,0.033,6.696,0.07,10.137,1.553c3.355,0.09,6.662,0.633,9.969,1.176
			c3.311,0.541,6.618,1.084,9.872,1.15l0.205,0.004l7.532,2.748c1.31,0.016,2.508,0.471,3.705,0.932
			c1.053,0.4,2.109,0.803,3.021,0.773l0.32-0.008l0.278,0.145c0.699,0.373,1.503,0.391,2.303,0.41
			c1.094,0.021,2.188,0.047,3.378,0.678l0.122,0.068l0.119,0.105c0.853,0.771,1.764,1.158,2.675,1.545
			c1.075,0.455,2.146,0.91,3.273,1.906l2.775,1.957l3.95,0.395l3.321,1.143l9.308,3.719l4.779,0.193
			c0.956-0.209,1.715,0.162,2.474,0.531c0.395,0.195,0.796,0.389,0.949,0.344l0.2-0.061l0.193,0.008
			c1.283,0.057,2.485,0.359,3.687,0.662c1.09,0.275,2.188,0.551,3.196,0.592l0.371,0.018l5.646,4.197l5.572,5.963l-1.76,1.635
			l-5.426-5.809l-4.881-3.631c-1.142-0.092-2.224-0.365-3.303-0.637c-1.034-0.26-2.072-0.521-3.035-0.584
			c-0.949,0.201-1.708-0.166-2.463-0.535c-0.397-0.193-0.8-0.387-0.952-0.342l-0.197,0.059l-5.554-0.223l-9.582-3.83l-3.084-1.057
			l-4.285-0.428c-1.012-0.711-2.57-1.666-3.43-2.438c-0.852-0.768-1.763-1.154-2.674-1.541c-1.053-0.449-2.109-0.896-3.218-1.857
			c-0.673-0.318-1.433-0.334-2.194-0.352c-1.005-0.021-2.013-0.047-3.096-0.543c-1.286-0.033-2.458-0.48-3.634-0.93
			c-1.053-0.402-2.109-0.805-3.024-0.773l-0.234,0.006l-7.577-2.768c-3.37-0.088-6.691-0.631-10.01-1.176
			c-3.311-0.543-6.617-1.084-9.872-1.152l-0.246-0.002l-0.223-0.102c-3.065-1.377-6.23-1.41-9.393-1.443
			c-3.396-0.037-6.789-0.074-10.277-1.615c-0.559-0.154-1.165-0.344-1.83-0.549c-1.924-0.592-4.326-1.332-5.364-1.348h-0.078
			c-1.161-0.092-2.169-0.723-3.173-1.351c-0.726-0.457-1.455-0.913-2.039-0.981c-1.711,0.107-3.162,0.689-4.352,1.164
			c-0.469,0.188-0.9,0.362-1.339,0.503c-1.708,0.556-3.854,0.953-5.985,1.113c-2.035,0.156-4.081,0.104-5.755-0.221l-0.093-0.016
			l-2.276-0.805c-1.853-0.414-2.299-0.274-2.872-0.094h-0.007c-0.908,0.28-2.035,0.629-5.617,0.227
			c-4.271-0.476-6.387-1.182-8.5-1.889c-2.347-0.782-4.683-1.564-10.412-1.987c-8.094-0.601-9.872-2.511-10.858-3.572L83.77,249
			l-3.08-0.257l-3.117-0.938l-1.823,0.967l-0.171,0.036c-0.997,0.21-3.541-0.425-4.56-0.697l-2.102,0.975l-3.061-0.605
			c-1.514-0.23-1.566-0.18-1.615-0.13h-0.003c-0.595,0.597-1.168,1.167-6.845-0.192c-3.418-0.82-5.096-0.736-6.13-0.687
			c-0.603,0.03-1.034,0.052-1.529-0.072c-1.276-0.321-1.455-0.708-1.615-1.047c-0.078-0.176,0.142,0.298-4.289-0.139
			c-5.089-0.501-5.628-0.763-6.383-1.128c-0.283-0.139-0.614-0.296-1.596-0.531l-4.561-0.51l-3.303-2.602l-4.028-1.471
			c-1.547-0.593-2.503-1.006-3.181-1.297c-0.666-0.287-1.034-0.447-1.354-0.514c-0.431-0.094-0.993-0.09-2.247-0.078l-1.882,0.013
			V235.69z"/>
		<path clip-path="url(#SVGID_28_)" fill="#C19500" d="M15.297,249.935h4.91l5.479,1.672l4.873,1.312l3.806,2.037l4.668,0.385
			l3.709,0.904l5.3,0.469l4.46,0.314l1.971,0.697l5.576,0.078l3.258,0.561l5.007,0.756l1.931-0.705l2.462,0.191l3.34,0.426
			l3.062-0.834l3.433,0.572l2.66,0.107l3.114-0.963l4.352,0.914l4.136,0.234l3.333,1.768l4.981,1.119l4.132,0.232
			c6.726,0.318,9.769,1.104,16.341,2.852l4.497,0.387l3.735,0.268l3.422-0.617c1.306,0.094,2.615,0.188,3.924,0.275l3.114,0.662
			l6.446,0.213l4.933-0.904l3.481-0.912c1.443-0.182,2.891-0.373,4.337-0.562l5.695,0.35c3.936-0.146,5.371-0.215,9.076,0.051
			l0.183,0.074c2.864,1.195,5.776,1.938,8.689,2.678c2.928,0.744,5.851,1.488,8.823,2.707c3.154,0.119,6.179,1.389,9.199,2.656
			c2.897,1.217,5.795,2.434,8.552,2.484l0.167,0.004l0.16,0.049c1.436,0.438,2.768,1.35,4.096,2.268
			c1.131,0.771,2.254,1.545,3.284,1.898c1.336,0.014,2.556,0.482,3.771,0.947c1.075,0.41,2.146,0.818,3.08,0.797l0.261-0.008
			l0.234,0.096c0.74,0.311,1.596,0.26,2.451,0.203c1.139-0.07,2.28-0.141,3.53,0.383l0.111,0.049l0.127,0.088
			c0.747,0.543,1.61,0.57,2.47,0.598c1.194,0.039,2.388,0.08,3.679,0.963c0.234,0.059,0.614-0.049,0.993-0.156
			c0.789-0.225,1.577-0.447,2.515-0.09l4.587,0.338c1.212,0.287,3.013,0.584,4.125,0.971c1.659,0.574,3.248,1.621,4.835,2.672
			c1.455,0.959,2.904,1.918,4.289,2.396l-0.781,2.273c-1.658-0.572-3.244-1.623-4.832-2.672c-1.44-0.949-2.875-1.898-4.245-2.379
			l-3.761-0.881l-4.81-0.354l-0.2-0.096c-0.228-0.105-0.647,0.014-1.064,0.133c-0.848,0.242-1.699,0.484-2.741-0.01l-0.107-0.051
			l-0.086-0.064c-0.752-0.541-1.61-0.57-2.47-0.596c-1.187-0.041-2.37-0.078-3.657-0.953c-0.718-0.27-1.54-0.217-2.358-0.166h-0.003
			c-1.071,0.066-2.14,0.133-3.3-0.291c-1.313-0.025-2.519-0.488-3.724-0.949c-1.071-0.408-2.143-0.818-3.08-0.795l-0.189,0.008
			l-0.186-0.057c-1.44-0.443-2.768-1.354-4.1-2.266l-0.004-0.008c-1.127-0.773-2.254-1.547-3.292-1.902
			c-3.177-0.102-6.216-1.381-9.259-2.658c-2.894-1.217-5.795-2.434-8.548-2.486l-0.238-0.004l-0.2-0.084
			c-2.868-1.195-5.781-1.938-8.693-2.678c-2.932-0.744-5.862-1.492-8.838-2.713l-3.096-0.223c-4.734,0.18-6.319,0.156-11.065-0.137
			l-3.921,0.51c-3.106,0.814-5.498,1.287-8.708,1.863c-2.311-0.07-4.624-0.145-6.938-0.23l-3.132-0.662l-3.485-0.246l-3.426,0.619
			c-2.917-0.205-5.81-0.432-8.727-0.689l-6.822-1.82l-5.178-0.824c-2.809-0.131-5.602-0.268-8.411-0.439
			c-1.83-0.4-3.664-0.82-5.494-1.23l-3.154-1.67l-3.791-0.217l-3.92-0.822l-2.913,0.9l-3.244-0.133l-3.05-0.51l-3.009,0.822
			L72.529,261l-1.96-0.148l-2.016,0.734c-2.946-0.441-5.833-0.885-8.764-1.391l-5.758-0.078l-2.024-0.717
			c-3.217-0.227-6.391-0.475-9.604-0.77l-3.712-0.906l-4.999-0.414l-3.999-2.138c-3.362-0.904-6.476-1.815-9.812-2.832h-4.583
			V249.935z"/>
		<path clip-path="url(#SVGID_28_)" fill="#C19500" d="M15.297,264.18h5.416l5.877,1.328l5.39,1.037l4.553,1.648
			c4.237,0.25,5.617,0.373,9.716,1.035L52,269.602l4.292,0.248l2.333,0.561c5.956,0.064,9.694,0.465,15.63,1.127l2.288-0.564
			c2.336,0.127,4.572,0.299,6.908,0.49l3.936-0.662l4.229,0.447l3.667,0.092l3.988-0.762l4.966,0.719l4.765,0.182l4.166,1.4
			l5.531,0.914l4.806,0.186l4.899,0.164c5.178,0.609,7.462,1.029,12.688,2.119l5.089,0.309l4.489,0.219l4.237-0.498l4.571,0.217
			l0.104,0.012l3.942,0.52l6.695,0.172l5.45-0.729l4.273-0.727c1.655-0.17,3.326-0.293,4.984-0.445l6.049,0.277
			c3.794-0.105,6.555-0.133,10.293,0.037l0.175,0.068c2.708,1.02,5.356,2.506,8.005,3.99c2.511,1.412,5.025,2.824,7.487,3.773
			c2.783,0.098,5.457,1.113,8.128,2.129c2.556,0.973,5.111,1.945,7.548,1.986l0.134,0.002l0.126,0.029
			c1.03,0.254,2.177,0.094,3.322-0.066c1.316-0.184,2.637-0.367,4.055-0.057l7.201-0.146l6.606,2.107l6.428,3.578
			c0.145-0.057,0.598-0.486,1.053-0.918c0.979-0.934,1.957-1.867,3.307-1.525c8.402,0.438,10.184,1.094,18.676,3.518l5.654,0.133
			l4.941-0.738c2.395,0.068,4.879,0.197,7.268,0.197l7.812,0.592l4.08,0.516l7.658,0.408l5.691,1.193l6.521,0.705l5.293,2.537
			l10.104,0.723l4.898-1.787c1.764-0.285,3.521-0.584,5.281-0.883l6.871,0.465l4.383-0.387l4.912,0.525
			c38.445,1.053,82.572,9.893,121.295,14.895l-0.301,2.373l-113.52-14.664l-7.705-0.215l-4.682-0.502l-4.334,0.387l-6.805-0.461
			l-4.791,0.803l-5.174,1.879L337.836,302l-5.342-2.557c-5.164-0.559-6.855-0.803-11.875-1.855l-7.486-0.398l-4.115-0.52
			l-7.814-0.588l-6.912-0.191l-4.932,0.736c-2.076-0.041-4.152-0.092-6.227-0.145l-8.895-2.541l-4.461-0.707l-5.363-0.281
			l-0.139-0.041c-0.084-0.027-0.584,0.449-1.086,0.926c-1.016,0.965-2.031,1.934-3.459,1.48l-0.1-0.033l-6.543-3.639l-5.978-1.91
			l-7.116,0.146l-0.148-0.037c-1.031-0.248-2.177-0.092-3.322,0.068c-1.328,0.186-2.652,0.369-4.084,0.049
			c-2.816-0.078-5.517-1.105-8.217-2.133c-2.556-0.971-5.111-1.941-7.544-1.982l-0.216-0.004l-0.189-0.072
			c-2.705-1.02-5.354-2.506-7.998-3.992c-2.519-1.414-5.036-2.826-7.499-3.777l-3.939-0.18c-4.396,0.125-7.48,0.092-11.877-0.109
			l-4.635,0.412c-3.389,0.576-6.555,1.035-9.973,1.486c-4.616-0.113-6.707-0.139-11.021-0.711l-4.312-0.201l-4.244,0.496
			c-3.345-0.154-6.658-0.34-9.999-0.549l-6.926-1.447l-5.703-0.67c-3.236-0.104-6.461-0.219-9.701-0.35l-5.854-0.965l-4.025-1.352
			c-4.051-0.156-5.211-0.268-9.244-0.852l-3.835,0.732c-1.35-0.033-2.741-0.041-4.088-0.107l-3.936-0.416l-3.928,0.664l-4.452-0.369
			l-2.31-0.131l-2.362,0.586l-5.955-0.662l-4.032-0.439l-6.089-0.062l-2.37-0.572c-5.152-0.299-9.329-0.514-14.421-1.34
			l-5.494-0.328l-4.694-1.695c-3.716-0.719-7.183-1.455-10.88-2.287h-5.178V264.18z"/>
		<path clip-path="url(#SVGID_28_)" fill="#C19500" d="M15.301,278.424h5.911l6.297,0.992c4.888,0.641,6.487,0.908,11.219,2.016
			c3.999,0.16,7.093,0.367,11.059,0.777c4.535,0.207,8.585,0.193,13.016,0.891l6.391,0.047c3.675,0.246,7.324,0.518,11,0.801
			l2.648-0.424c2.674,0.096,5.315,0.229,7.986,0.367l4.839-0.494l5.044,0.33l4.616,0.072l4.869-0.568l5.591,0.531l5.45,0.137
			l4.981,1.037l6.089,0.699l5.453,0.143l5.55,0.115c0.763,0.062,1.67-0.285,2.578-0.633c1.16-0.445,2.32-0.891,3.619-0.781
			l7.108,1.082l5.665,0.232l5.241,0.166c4.583-0.336,5.877-0.213,10.427-0.213l4.88,0.396l6.882,0.133l5.981-0.555
			c1.18-0.123,2.173,0.336,3.173,0.795c0.695,0.318,1.392,0.641,1.908,0.586c1.611-0.123,4.106-0.379,5.646-0.328
			c1.324,0.045,2.5,0.615,3.679,1.186c0.945,0.457,1.894,0.916,2.697,0.949c1.291-0.018,2.451,0.492,3.604,0.998
			c0.93,0.406,1.863,0.814,2.648,0.799c1.723,0,3.512,0.102,5.241,0.15l0.156,0.051c2.035,0.662,4.181,0.455,6.327,0.242
			c2.396-0.236,4.795-0.473,7.306,0.346l-0.744,2.281c-2.034-0.662-4.181-0.451-6.323-0.24h-0.008
			c-2.343,0.229-4.687,0.459-7.134-0.295l-4.813-0.137c-1.299,0.014-2.459-0.494-3.612-1c-0.934-0.408-1.867-0.816-2.656-0.801
			h-0.056c-1.324-0.043-2.499-0.613-3.679-1.186c-0.93-0.447-1.859-0.898-2.652-0.943l-5.397,0.316
			c-1.164,0.117-2.157-0.34-3.146-0.797c-0.695-0.32-1.392-0.641-1.912-0.586c-4.162,0-8.734,0.434-13.302,0.434l-4.881-0.398
			l-5.085-0.154c-8.607,0.631-14.871,0.186-23.4-1.117c-0.756-0.049-1.648,0.293-2.533,0.635c-1.161,0.443-2.321,0.891-3.62,0.781
			c-8.548-0.186-13.767-0.246-22.177-1.998c-3.924-0.1-6.789-0.273-10.698-0.646l-4.754,0.553c-1.644-0.02-3.296-0.076-4.936-0.076
			l-4.858-0.316l-4.813,0.496l-5.204-0.273l-2.697-0.1l-2.719,0.439l-6.316-0.492l-4.918-0.33l-6.424-0.049l-2.712-0.428
			c-5.356-0.238-10.214-0.453-15.534-1.006l-5.985-0.244l-5.413-1.268c-4.025-0.529-7.867-1.086-11.881-1.721h-5.784V278.424z"/>
	</g>
</g>
</svg>
