<?xml version="1.0" encoding="utf-8"?>
<!-- Generator: Adobe Illustrator 15.1.0, SVG Export Plug-In . SVG Version: 6.00 Build 0)  -->
<!DOCTYPE svg PUBLIC "-//W3C//DTD SVG 1.1//EN" "http://www.w3.org/Graphics/SVG/1.1/DTD/svg11.dtd">
<svg version="1.1" id="Layer_1" xmlns="http://www.w3.org/2000/svg" xmlns:xlink="http://www.w3.org/1999/xlink" x="0px" y="0px"
	 width="512px" height="512px" viewBox="0 0 512 512" enable-background="new 0 0 512 512" xml:space="preserve">
<g>
	<g>
		<path fill="#324A51" d="M85.947,340.688l-0.869,1.908c-1.574,0.83-2.988,1.398-4.24,1.709c-1.253,0.307-2.818,0.463-4.693,0.463
			c-2.669,0-5.03-0.425-7.082-1.267c-1.612-0.68-2.978-1.581-4.098-2.7c-1.121-1.121-1.983-2.337-2.587-3.646
			C61.459,335.18,61,333.032,61,330.717c0-3.966,1.356-7.205,4.07-9.717c2.713-2.512,6.543-3.768,11.492-3.768
			c1.699,0,3.226,0.125,4.58,0.377c1.353,0.252,2.923,0.699,4.712,1.342l0.094,0.246c-0.202,0.591-0.359,1.332-0.472,2.228
			c-0.189,1.423-0.309,2.739-0.359,3.947h-1.473c-0.025-1.386-0.088-2.493-0.188-3.323c-0.844-0.883-1.792-1.539-2.842-1.974
			c-1.052-0.435-2.396-0.651-4.032-0.651c-2.959,0-5.326,0.936-7.101,2.805s-2.663,4.478-2.663,7.828
			c0,2.025,0.299,3.795,0.897,5.307c0.598,1.511,1.394,2.759,2.389,3.748c0.994,0.988,1.995,1.709,3.003,2.162
			c1.372,0.604,3.034,0.906,4.985,0.906c1.284,0,2.499-0.146,3.645-0.434c1.146-0.291,2.392-0.788,3.739-1.492L85.947,340.688z"/>
		<path fill="#324A51" d="M90.522,344.105v-0.971c0.328-0.138,0.787-0.384,1.379-0.736c0.264-0.15,0.434-0.277,0.51-0.377
			c0.05-0.062,0.082-0.133,0.094-0.209c0.063-0.314,0.12-1.438,0.17-3.369c0.05-1.932,0.076-4.25,0.076-6.957
			c0-3.978-0.01-6.432-0.031-7.362c-0.042-2.366-0.121-3.72-0.234-4.06c-0.051-0.15-0.146-0.265-0.285-0.34
			c-0.291-0.188-1.26-0.314-2.906-0.377v-1.662c1.599,0.086,3.425,0.133,5.477,0.133c2.292,0,4.463-0.047,6.515-0.133v1.662
			c-1.423,0.062-2.292,0.176-2.606,0.34c-0.139,0.076-0.239,0.197-0.302,0.365c-0.063,0.172-0.123,0.948-0.18,2.331
			c-0.057,1.384-0.085,3.134-0.085,5.246c0,0.228,0.007,2.045,0.019,5.454c0.012,1.798,0.022,3.581,0.028,5.35
			c0.007,1.768,0.016,2.84,0.028,3.217c1.737,0.088,2.92,0.133,3.55,0.133c1.914,0,3.582-0.113,5.005-0.34
			c0.516-0.075,0.824-0.158,0.925-0.245c0.101-0.089,0.208-0.321,0.321-0.699c0.252-0.957,0.498-2.054,0.737-3.286h1.567
			c-0.038,0.352-0.057,0.561-0.057,0.623l-0.472,3.814c-0.101,1.195-0.158,1.914-0.17,2.152c-0.366,0.102-0.73,0.17-1.095,0.208
			c-0.768,0.062-1.958,0.095-3.569,0.095c-0.227,0-1.707-0.031-4.438-0.095c-2.078-0.051-3.525-0.075-4.344-0.075
			C94.916,343.938,93.041,343.993,90.522,344.105z"/>
		<path fill="#324A51" d="M114.605,331.208c0-2.306,0.349-4.313,1.048-6.024c0.699-1.713,1.696-3.166,2.994-4.361
			c1.296-1.197,2.706-2.059,4.23-2.588c1.951-0.668,4.079-1.002,6.383-1.002c2.291,0,4.368,0.322,6.232,0.965
			c1.384,0.49,2.609,1.199,3.673,2.123c1.063,0.927,1.873,1.873,2.427,2.844c0.553,0.969,0.973,2.031,1.256,3.191
			c0.283,1.156,0.425,2.436,0.425,3.832c0,2.367-0.41,4.563-1.228,6.592c-0.604,1.512-1.489,2.853-2.653,4.022
			c-1.165,1.171-2.49,2.069-3.975,2.7c-2.04,0.842-4.369,1.266-6.988,1.266c-2.833,0-5.266-0.514-7.299-1.539
			c-2.034-1.026-3.63-2.539-4.788-4.541C115.184,336.686,114.605,334.191,114.605,331.208z M120.422,330.082
			c0,2.938,0.402,5.365,1.209,7.288c0.805,1.921,1.837,3.278,3.097,4.071c1.259,0.795,2.744,1.19,4.457,1.19
			c1.586,0,3.006-0.377,4.259-1.135c1.252-0.755,2.234-2.034,2.946-3.835c0.711-1.803,1.067-3.989,1.067-6.561
			c0-1.764-0.193-3.375-0.576-4.838c-0.384-1.462-0.935-2.705-1.652-3.732c-0.718-1.027-1.565-1.812-2.54-2.354
			c-0.977-0.542-2.27-0.812-3.881-0.812c-1.839,0-3.403,0.43-4.693,1.293c-1.291,0.863-2.229,2.14-2.814,3.828
			C120.716,326.174,120.422,328.043,120.422,330.082z"/>
		<path fill="#324A51" d="M146.828,319.254v-1.568l6.138,0.133l2.549-0.045l2.549-0.065l0.699-0.021v1.567
			c-1.36,0-2.222,0.118-2.587,0.358c-0.189,0.113-0.314,0.332-0.378,0.66c-0.176,0.779-0.264,2.498-0.264,5.156v4.381l0.019,2.209
			c0,2.306,0.026,3.728,0.076,4.27c0.113,1.182,0.409,2.136,0.888,2.859c0.479,0.725,1.211,1.311,2.2,1.758
			c0.989,0.445,2.245,0.67,3.768,0.67c1.75,0,3.145-0.301,4.183-0.896c1.039-0.599,1.778-1.377,2.219-2.332
			c0.441-0.957,0.661-2.775,0.661-5.457v-3.854c0-3.324-0.007-5.354-0.019-6.081c-0.038-1.587-0.125-2.544-0.264-2.871
			c-0.088-0.201-0.233-0.353-0.435-0.453c-0.416-0.215-1.322-0.34-2.719-0.377v-1.567c2.278,0.086,3.632,0.133,4.06,0.133
			c0.113,0,0.283-0.008,0.51-0.021l4.192-0.112v1.567c-1.171,0-1.908,0.095-2.209,0.283c-0.151,0.101-0.274,0.292-0.369,0.575
			c-0.094,0.283-0.186,1.559-0.273,3.824c-0.088,2.267-0.132,4.053-0.132,5.363v4.438c0,1.133-0.082,2.304-0.246,3.513
			s-0.494,2.239-0.991,3.098c-0.498,0.854-1.199,1.629-2.106,2.322c-0.906,0.691-1.983,1.215-3.229,1.566
			c-1.246,0.353-2.688,0.529-4.325,0.529c-1.914,0-3.701-0.259-5.363-0.773c-1.208-0.378-2.197-0.887-2.965-1.521
			c-0.768-0.637-1.353-1.349-1.756-2.134c-0.403-0.788-0.648-1.547-0.736-2.274c-0.063-0.455-0.095-1.676-0.095-3.664l0.019-3.627
			v-4.797c0-1.764-0.031-3.351-0.094-4.759c-0.039-0.556-0.114-0.958-0.228-1.209c-0.064-0.14-0.222-0.302-0.476-0.491
			L146.828,319.254z"/>
		<path fill="#324A51" d="M179.372,344.105V343.2c0.1-0.063,0.274-0.165,0.523-0.304c0.474-0.265,0.91-0.541,1.309-0.83
			c0.138-1.688,0.208-4.428,0.208-8.215v-3.098c0-1.662-0.032-4.099-0.095-7.309c-0.038-1.775-0.119-2.908-0.244-3.399
			c-0.038-0.112-0.088-0.202-0.151-0.265c-0.1-0.102-0.257-0.178-0.468-0.227c-0.213-0.052-1.003-0.164-2.367-0.341v-1.53
			l6.852,0.133c0.805,0,2.321-0.035,4.548-0.104c1.611-0.044,2.9-0.063,3.87-0.063c2.227,0,4.009,0.134,5.35,0.406
			c1.339,0.27,2.506,0.703,3.501,1.303c0.994,0.597,1.834,1.305,2.52,2.123s1.205,1.701,1.556,2.646
			c0.592,1.586,0.888,3.323,0.888,5.212c0,2.404-0.44,4.553-1.321,6.439c-0.881,1.889-2.091,3.468-3.632,4.74
			c-1.542,1.271-3.212,2.188-5.011,2.748c-1.799,0.56-3.97,0.84-6.511,0.84l-5.605-0.133L179.372,344.105z M186.907,341.783
			c1.171,0.189,2.291,0.283,3.362,0.283c1.674,0,3.16-0.178,4.457-0.528c0.957-0.265,1.794-0.649,2.512-1.152
			c0.717-0.504,1.407-1.245,2.068-2.229c0.661-0.98,1.173-2.151,1.539-3.512c0.364-1.359,0.547-2.828,0.547-4.4
			c0-1.436-0.183-2.823-0.547-4.164c-0.366-1.342-0.963-2.516-1.794-3.521c-0.831-1.009-1.883-1.736-3.154-2.19
			c-1.272-0.453-3.198-0.681-5.779-0.681c-0.97,0-2.04,0.082-3.21,0.246c-0.126,1.786-0.188,5.149-0.188,10.094v4.341
			C186.718,338.116,186.78,340.588,186.907,341.783z"/>
		<path fill="#324A51" d="M212.425,344.105v-1.02c0.755-0.354,1.372-0.718,1.851-1.096c0.075-0.529,0.139-1.387,0.188-2.568
			c0.101-2.166,0.151-3.738,0.151-4.722v-8.498c0-0.328-0.019-1.556-0.057-3.683c-0.038-1.424-0.125-2.293-0.265-2.606
			c-0.063-0.126-0.158-0.222-0.283-0.283c-0.34-0.149-1.246-0.264-2.719-0.34v-1.454l4.381-0.031c0.869-0.005,1.7-0.007,2.493-0.007
			c1.725,0,3.645-0.019,5.76-0.057l3.834-0.095c0.453,0,1.372,0.024,2.757,0.076c0.125,0,0.333,0.037,0.623,0.112l0.132,0.246
			l-0.359,2.719c-0.012,0.189-0.076,1.097-0.189,2.72h-1.473c-0.025-1.485-0.082-2.397-0.169-2.737
			c-0.051-0.179-0.126-0.302-0.227-0.378c-0.164-0.113-0.667-0.215-1.507-0.303c-1.245-0.14-2.464-0.207-3.656-0.207
			c-1.119,0-2.263,0.043-3.431,0.131c-0.176,1.435-0.264,3.257-0.264,5.465v3.902c0.854,0.062,1.746,0.096,2.675,0.096
			c0.289,0,1.332-0.026,3.127-0.075c0.678-0.015,1.077-0.058,1.195-0.134c0.119-0.074,0.211-0.207,0.274-0.396
			c0.15-0.479,0.238-1.278,0.264-2.397h1.53l-0.095,4.154l0.095,4.137h-1.53c0.012-1.463-0.083-2.361-0.286-2.701
			c-0.153-0.253-0.427-0.409-0.821-0.473c-0.877-0.14-2.002-0.207-3.375-0.207c-1.234,0-2.251,0.043-3.053,0.131v7.92
			c0,0.884,0.019,1.645,0.057,2.279c1.018,0.086,2.224,0.133,3.619,0.133c1.358,0,2.611-0.047,3.76-0.133
			c1.15-0.09,1.857-0.216,2.122-0.379c0.088-0.051,0.169-0.164,0.245-0.34c0.227-0.604,0.465-1.75,0.717-3.438h1.548
			c-0.277,2.492-0.416,4.545-0.416,6.156l-0.246,0.246c-0.805,0.086-1.952,0.133-3.437,0.133l-3.041-0.066
			c-2.996-0.045-5.061-0.066-6.194-0.066C218.431,343.975,216.328,344.018,212.425,344.105z"/>
		<path fill="#324A51" d="M237.227,344.105V343.2c0.1-0.063,0.273-0.165,0.523-0.304c0.474-0.265,0.91-0.541,1.309-0.83
			c0.138-1.688,0.208-4.428,0.208-8.215v-3.098c0-1.662-0.032-4.099-0.095-7.309c-0.038-1.775-0.119-2.908-0.244-3.399
			c-0.038-0.112-0.088-0.202-0.151-0.265c-0.1-0.102-0.257-0.178-0.468-0.227c-0.213-0.052-1.003-0.164-2.366-0.341v-1.53
			l6.851,0.133c0.805,0,2.321-0.035,4.548-0.104c1.611-0.044,2.9-0.063,3.87-0.063c2.227,0,4.009,0.134,5.351,0.406
			c1.338,0.27,2.506,0.703,3.5,1.303c0.994,0.597,1.834,1.305,2.521,2.123s1.205,1.701,1.556,2.646
			c0.592,1.586,0.889,3.323,0.889,5.212c0,2.404-0.44,4.553-1.321,6.439c-0.881,1.889-2.091,3.468-3.632,4.74
			c-1.542,1.271-3.213,2.188-5.011,2.748c-1.799,0.56-3.97,0.84-6.511,0.84l-5.605-0.133L237.227,344.105z M244.762,341.783
			c1.17,0.189,2.291,0.283,3.361,0.283c1.674,0,3.16-0.178,4.457-0.528c0.957-0.265,1.794-0.649,2.512-1.152
			c0.717-0.504,1.407-1.245,2.068-2.229c0.66-0.98,1.173-2.151,1.539-3.512c0.363-1.359,0.547-2.828,0.547-4.4
			c0-1.436-0.184-2.823-0.547-4.164c-0.366-1.342-0.963-2.516-1.795-3.521c-0.83-1.009-1.882-1.736-3.153-2.19
			c-1.272-0.453-3.198-0.681-5.779-0.681c-0.97,0-2.04,0.082-3.21,0.246c-0.127,1.786-0.189,5.149-0.189,10.094v4.341
			C244.573,338.116,244.635,340.588,244.762,341.783z"/>
		<path fill="#324A51" d="M293.88,330.203l2.375-3.848c0.401-0.688,1.596-2.795,3.582-6.312c0.691-1.207,1.124-1.992,1.3-2.357
			h2.991v0.852c-1.528,2.051-3.174,4.462-4.94,7.232c-1.766,2.769-2.856,4.552-3.274,5.345c-0.277,0.54-0.459,1.013-0.547,1.416
			c-0.064,0.288-0.095,0.762-0.095,1.417v3.191c0,1.598,0.039,2.762,0.123,3.493c0.08,0.729,0.178,1.171,0.291,1.321
			s0.303,0.266,0.567,0.34c0.265,0.076,1.095,0.125,2.493,0.15v1.662c-2.402-0.088-4.57-0.133-6.506-0.133
			c-1.885,0-3.797,0.045-5.732,0.133v-1.662c1.436-0.051,2.276-0.106,2.521-0.17c0.244-0.063,0.416-0.157,0.51-0.282
			c0.094-0.127,0.161-0.505,0.197-1.134c0.062-1.436,0.095-2.656,0.095-3.664v-3.588c0-0.291-0.24-0.888-0.718-1.793
			c-1.184-2.168-2.449-4.301-3.795-6.402c-1.096-1.713-2.115-3.086-3.061-4.117c-0.631-0.68-1.076-1.09-1.341-1.229
			c-0.164-0.074-0.718-0.112-1.662-0.112v-1.416l4-0.794c0.681-0.15,1.378-0.32,2.095-0.51c0.768,0.427,1.327,0.809,1.68,1.143
			c0.352,0.333,0.836,0.96,1.453,1.879c0.918,1.359,1.83,2.928,2.735,4.703C292.689,327.803,293.578,329.552,293.88,330.203z"/>
		<path fill="#324A51" d="M307.756,344.105v-1.02c0.755-0.354,1.373-0.718,1.852-1.096c0.074-0.529,0.139-1.387,0.188-2.568
			c0.102-2.166,0.151-3.738,0.151-4.722v-8.498c0-0.328-0.02-1.556-0.058-3.683c-0.038-1.424-0.125-2.293-0.265-2.606
			c-0.062-0.126-0.157-0.222-0.283-0.283c-0.34-0.149-1.246-0.264-2.719-0.34v-1.454l4.381-0.031c0.869-0.005,1.7-0.007,2.493-0.007
			c1.725,0,3.645-0.019,5.76-0.057l3.834-0.095c0.453,0,1.373,0.024,2.757,0.076c0.126,0,0.334,0.037,0.623,0.112l0.132,0.246
			l-0.358,2.719c-0.012,0.189-0.076,1.097-0.189,2.72h-1.473c-0.024-1.485-0.081-2.397-0.169-2.737
			c-0.05-0.179-0.125-0.302-0.227-0.378c-0.164-0.113-0.667-0.215-1.508-0.303c-1.244-0.14-2.464-0.207-3.655-0.207
			c-1.119,0-2.263,0.043-3.432,0.131c-0.176,1.435-0.264,3.257-0.264,5.465v3.902c0.854,0.062,1.746,0.096,2.676,0.096
			c0.289,0,1.332-0.026,3.126-0.075c0.679-0.015,1.078-0.058,1.196-0.134c0.119-0.074,0.21-0.207,0.272-0.396
			c0.15-0.479,0.239-1.278,0.265-2.397h1.529l-0.095,4.154l0.095,4.137h-1.529c0.013-1.463-0.083-2.361-0.285-2.701
			c-0.153-0.253-0.427-0.409-0.822-0.473c-0.876-0.14-2.002-0.207-3.375-0.207c-1.233,0-2.251,0.043-3.053,0.131v7.92
			c0,0.884,0.019,1.645,0.057,2.279c1.019,0.086,2.226,0.133,3.62,0.133c1.357,0,2.61-0.047,3.76-0.133
			c1.15-0.09,1.856-0.216,2.121-0.379c0.089-0.051,0.17-0.164,0.246-0.34c0.227-0.604,0.464-1.75,0.716-3.438h1.549
			c-0.277,2.492-0.416,4.545-0.416,6.156l-0.246,0.246c-0.806,0.086-1.951,0.133-3.438,0.133l-3.041-0.066
			c-2.996-0.045-5.061-0.066-6.193-0.066C313.762,343.975,311.66,344.018,307.756,344.105z"/>
		<path fill="#324A51" d="M332.653,344.105v-0.971c0.327-0.138,0.786-0.384,1.378-0.736c0.265-0.15,0.435-0.277,0.51-0.377
			c0.049-0.062,0.082-0.133,0.095-0.209c0.062-0.314,0.119-1.438,0.17-3.369c0.05-1.932,0.076-4.25,0.076-6.957
			c0-3.978-0.012-6.432-0.032-7.362c-0.042-2.366-0.119-3.72-0.233-4.06c-0.05-0.15-0.146-0.265-0.285-0.34
			c-0.291-0.188-1.259-0.314-2.904-0.377v-1.662c1.599,0.086,3.424,0.133,5.478,0.133c2.291,0,4.462-0.047,6.515-0.133v1.662
			c-1.424,0.062-2.292,0.176-2.605,0.34c-0.141,0.076-0.24,0.197-0.303,0.365c-0.063,0.172-0.123,0.948-0.179,2.331
			c-0.057,1.384-0.085,3.134-0.085,5.246c0,0.228,0.005,2.045,0.019,5.454c0.012,1.798,0.021,3.581,0.028,5.35
			c0.005,1.768,0.015,2.84,0.028,3.217c1.736,0.088,2.919,0.133,3.55,0.133c1.913,0,3.581-0.113,5.004-0.34
			c0.516-0.075,0.823-0.158,0.925-0.245c0.101-0.089,0.208-0.321,0.321-0.699c0.251-0.957,0.497-2.054,0.736-3.286h1.566
			c-0.038,0.352-0.057,0.561-0.057,0.623l-0.472,3.814c-0.103,1.195-0.159,1.914-0.171,2.152c-0.365,0.102-0.73,0.17-1.095,0.208
			c-0.769,0.062-1.958,0.095-3.568,0.095c-0.228,0-1.707-0.031-4.438-0.095c-2.077-0.051-3.526-0.075-4.344-0.075
			C337.045,343.938,335.17,343.993,332.653,344.105z"/>
		<path fill="#324A51" d="M357.283,344.105v-0.971c0.328-0.138,0.788-0.384,1.378-0.736c0.265-0.15,0.435-0.277,0.51-0.377
			c0.051-0.062,0.082-0.133,0.094-0.209c0.063-0.314,0.12-1.438,0.17-3.369c0.052-1.932,0.076-4.25,0.076-6.957
			c0-3.978-0.01-6.432-0.03-7.362c-0.043-2.366-0.12-3.72-0.233-4.06c-0.051-0.15-0.146-0.265-0.285-0.34
			c-0.291-0.188-1.259-0.314-2.906-0.377v-1.662c1.601,0.086,3.425,0.133,5.478,0.133c2.292,0,4.463-0.047,6.516-0.133v1.662
			c-1.422,0.062-2.291,0.176-2.605,0.34c-0.139,0.076-0.239,0.197-0.303,0.365c-0.062,0.172-0.123,0.948-0.179,2.331
			c-0.057,1.384-0.085,3.134-0.085,5.246c0,0.228,0.006,2.045,0.02,5.454c0.013,1.798,0.021,3.581,0.027,5.35
			c0.006,1.768,0.017,2.84,0.028,3.217c1.737,0.088,2.921,0.133,3.55,0.133c1.914,0,3.583-0.113,5.004-0.34
			c0.518-0.075,0.825-0.158,0.925-0.245c0.102-0.089,0.208-0.321,0.321-0.699c0.252-0.957,0.498-2.054,0.736-3.286h1.566
			c-0.038,0.352-0.057,0.561-0.057,0.623l-0.472,3.814c-0.101,1.195-0.157,1.914-0.17,2.152c-0.364,0.102-0.729,0.17-1.096,0.208
			c-0.768,0.062-1.958,0.095-3.568,0.095c-0.228,0-1.705-0.031-4.438-0.095c-2.077-0.051-3.525-0.075-4.343-0.075
			C361.677,343.938,359.801,343.993,357.283,344.105z"/>
		<path fill="#324A51" d="M381.367,331.208c0-2.306,0.35-4.313,1.048-6.024c0.699-1.713,1.696-3.166,2.993-4.361
			c1.295-1.197,2.706-2.059,4.229-2.588c1.951-0.668,4.079-1.002,6.384-1.002c2.291,0,4.367,0.322,6.231,0.965
			c1.384,0.49,2.608,1.199,3.673,2.123c1.063,0.927,1.872,1.873,2.428,2.844c0.554,0.969,0.973,2.031,1.256,3.191
			c0.282,1.156,0.425,2.436,0.425,3.832c0,2.367-0.41,4.563-1.228,6.592c-0.604,1.512-1.489,2.853-2.653,4.022
			c-1.165,1.171-2.491,2.069-3.976,2.7c-2.04,0.842-4.37,1.266-6.986,1.266c-2.833,0-5.268-0.514-7.3-1.539
			c-2.033-1.026-3.63-2.539-4.786-4.541C381.945,336.686,381.367,334.191,381.367,331.208z M387.184,330.082
			c0,2.938,0.402,5.365,1.208,7.288c0.806,1.921,1.837,3.278,3.098,4.071c1.258,0.795,2.744,1.19,4.457,1.19
			c1.586,0,3.004-0.377,4.258-1.135c1.252-0.755,2.233-2.034,2.946-3.835c0.71-1.803,1.066-3.989,1.066-6.561
			c0-1.764-0.191-3.375-0.576-4.838c-0.385-1.462-0.935-2.705-1.651-3.732c-0.718-1.027-1.565-1.812-2.54-2.354
			c-0.977-0.542-2.271-0.812-3.881-0.812c-1.84,0-3.403,0.43-4.693,1.293c-1.292,0.863-2.229,2.14-2.814,3.828
			C387.476,326.174,387.184,328.043,387.184,330.082z"/>
		<path fill="#324A51" d="M432.908,317.365h1.736c0.467,1.283,0.926,2.5,1.379,3.646c1.964,5.038,3.146,8.037,3.55,8.995
			l2.265,5.594l2.192-8.472c0.844-3.351,1.329-5.401,1.454-6.157c0.037-0.201,0.057-0.391,0.057-0.566
			c0-0.264-0.059-0.471-0.179-0.622c-0.119-0.151-0.298-0.259-0.538-0.321c-0.113-0.025-0.907-0.094-2.38-0.207v-1.568
			c2.254,0.088,3.621,0.133,4.098,0.133l4.457-0.133v1.568c-0.189,0.012-0.327,0.023-0.416,0.037
			c-0.793,0.049-1.277,0.125-1.454,0.227c-0.176,0.102-0.346,0.283-0.51,0.549c-0.164,0.265-0.595,1.56-1.294,3.891
			c-0.699,2.328-1.725,6.062-3.078,11.208c-1.354,5.144-2.099,8.168-2.238,9.073h-2.89l-2.038-5.481l-5.153-13.114
			c-0.542,1.184-2.475,5.707-5.8,13.569l-2.022,5.026h-2.738l-4.392-20.094c-0.479-2.217-0.82-3.545-1.021-3.983
			c-0.139-0.315-0.328-0.529-0.568-0.644c-0.304-0.149-0.959-0.238-1.97-0.264v-1.568l5.275,0.133l6.179-0.133v1.568
			c-1.109,0.037-1.719,0.062-1.832,0.075c-0.354,0.049-0.604,0.147-0.755,0.293c-0.151,0.144-0.228,0.36-0.228,0.651
			c0,0.138,0.01,0.297,0.028,0.48c0.019,0.182,0.147,0.908,0.387,2.182c0.467,2.494,0.809,4.235,1.023,5.228l1.687,7.614
			c0.139-0.338,0.665-1.606,1.583-3.803l2.374-5.518l2.995-7.173C432.387,318.684,432.645,318.043,432.908,317.365z"/>
	</g>
	<g>
		<polygon fill="#E36500" points="456,168 56,168 56,238.528 63.13,245.581 443.636,248.049 456,232.18 		"/>
		<path fill="#324A51" d="M113.307,231.38l8.798-20.38H129v-2h29v2h221.059l13.104-1.303l0.265,1.303h10.427l3.938,20.327
			L435,229.048v1.948l13.761-2.506c0,0,3.2-3.342,6.264,0.558c3.062,3.898-2.551,21.721-9.664,21.721
			c-31.339,0-358.136-2.784-386.685-2.784c-3.27,0-3.424-11.476-0.018-14.881C62.063,229.698,113.307,231.38,113.307,231.38z
			 M142.316,222.334c-2.908,0-5.264,2.357-5.264,5.264c0,2.907,2.355,5.264,5.264,5.264c2.906,0,5.263-2.356,5.263-5.264
			C147.579,224.692,145.223,222.334,142.316,222.334z M190.736,222.334c-2.906,0-5.263,2.357-5.263,5.264
			c0,2.907,2.356,5.264,5.263,5.264c2.907,0,5.264-2.356,5.264-5.264C196,224.692,193.644,222.334,190.736,222.334z
			 M227.579,222.334c-2.907,0-5.263,2.357-5.263,5.264c0,2.907,2.355,5.264,5.263,5.264c2.906,0,5.263-2.356,5.263-5.264
			C232.842,224.692,230.485,222.334,227.579,222.334z M378.105,232.862c2.905,0,5.264-2.357,5.264-5.264
			c0-2.907-2.357-5.264-5.264-5.264c-2.907,0-5.265,2.357-5.265,5.264C372.841,230.505,375.199,232.862,378.105,232.862z
			 M329.684,232.862c2.908,0,5.265-2.357,5.265-5.264c0-2.907-2.355-5.264-5.265-5.264c-2.905,0-5.263,2.357-5.263,5.264
			C324.421,230.505,326.777,232.862,329.684,232.862z M292.842,232.862c2.907,0,5.265-2.357,5.265-5.264
			c0-2.907-2.356-5.264-5.265-5.264c-2.906,0-5.263,2.357-5.263,5.264C287.579,230.505,289.936,232.862,292.842,232.862z M256,219
			h-8v19h8V219z M268,219h-9v19h9V219z"/>
		<g>
			<g>
				<defs>
					<rect id="SVGID_1_" x="56" y="247" width="400" height="49"/>
				</defs>
				<clipPath id="SVGID_2_">
					<use xlink:href="#SVGID_1_"  overflow="visible"/>
				</clipPath>
				<path clip-path="url(#SVGID_2_)" fill="#C19500" d="M48.396,302.771c32.648-2.386,65.287-3.578,97.918-3.578
					c32.965,0,65.941,1.217,98.924,3.654c73.013,4.856,146.021,4.856,219.035,0l0.221,2.911c-12.526,0.834-25.054,1.521-37.577,2.07
					H282.584c-12.523-0.55-25.051-1.236-37.577-2.07h-0.011c-32.885-2.43-65.779-3.643-98.682-3.643
					c-32.648,0-65.289,1.192-97.918,3.586V302.771L48.396,302.771z M44.223,288.453c33.721,1.807,67.416,2.857,101.078,2.934
					c33.854,0.074,67.736-0.836,101.648-2.963c36.176-2.271,72.471-3.334,108.811-3.299c36.34,0.037,72.668,1.172,108.925,3.299
					l-0.181,2.684c-36.26-2.125-72.529-3.264-108.744-3.295c-36.219-0.035-72.445,1.025-108.617,3.295
					c-33.916,2.129-67.865,3.041-101.842,2.965c-33.721-0.075-67.414-1.122-101.078-2.924V288.453z M48.394,278.168
					c44.283-2.385,88.577-1.576,132.868-0.771c22.115,0.404,44.231,0.81,66.747,0.81c23.779,0,47.999,0.403,72.216,0.812
					c48.099,0.812,96.195,1.621,144.306-0.811l0.13,2.43c-48.151,2.432-96.314,1.621-144.477,0.807
					c-23.912-0.399-47.824-0.805-72.175-0.805c-21.993,0-44.392-0.406-66.786-0.812c-44.271-0.81-88.544-1.613-132.826,0.774
					L48.394,278.168z M28.64,272.453l-0.181-0.008v-0.012L28.64,272.453z M31.762,270.461c34.311,1.428,68.621,2.104,102.908,2.086
					c35.354-0.02,70.716-0.781,106.061-2.223c74.636-3.039,149.275-3.039,223.912,0l-0.096,2.121
					c-74.574-3.039-149.146-3.039-223.721,0c-35.342,1.441-70.738,2.199-106.156,2.219c-29.672,0.018-59.34-0.482-88.984-1.539
					c-2.148-0.795-5.318-1.445-8.822-1.977C35.218,270.898,33.489,270.668,31.762,270.461z M22.805,263.934
					c14.615-0.129,29.247-0.297,43.875-0.471c56.102-0.65,112.195-1.307,168.343,0.477c50.944,1.623,101.977,1.082,153.009,0.541
					c25.696-0.271,51.396-0.543,76.562-0.543v1.752c-25.856,0-51.204,0.271-76.548,0.537c-51.058,0.539-102.118,1.078-153.083-0.539
					c-56.127-1.787-112.189-1.131-168.262-0.479c-14.621,0.17-29.244,0.342-43.883,0.469L22.805,263.934z M22.766,258.637
					c68.168,1.201,136.336,1.197,204.504-0.016c39.387-0.697,78.787-1.002,118.189-0.979c39.403,0.022,78.805,0.373,118.201,0.979
					l-0.021,1.263c-39.395-0.608-78.79-0.959-118.18-0.983c-39.387-0.02-78.779,0.285-118.167,0.983
					c-68.171,1.209-136.345,1.216-204.519,0.015L22.766,258.637z M22.73,254.143h441.863v0.585H22.736L22.73,254.143z"/>
			</g>
		</g>
	</g>
</g>
</svg>
