<?xml version="1.0" encoding="utf-8"?>
<!-- Generator: Adobe Illustrator 15.1.0, SVG Export Plug-In . SVG Version: 6.00 Build 0)  -->
<!DOCTYPE svg PUBLIC "-//W3C//DTD SVG 1.1//EN" "http://www.w3.org/Graphics/SVG/1.1/DTD/svg11.dtd">
<svg version="1.1" id="Layer_1" xmlns="http://www.w3.org/2000/svg" xmlns:xlink="http://www.w3.org/1999/xlink" x="0px" y="0px"
	 width="512px" height="512px" viewBox="0 0 512 512" enable-background="new 0 0 512 512" xml:space="preserve">
<g>
	<g>
		<path fill="#E36500" d="M309.526,202.02c-10.44,7.229-20.949,14.457-31.323,21.753c-4.352,3.011-11.714,9.168-17.135,9.168h-0.066
			h-0.066c-5.419,0-12.784-6.157-17.135-9.168c-10.374-7.297-20.883-14.524-31.256-21.753c-4.752-3.213-11.513-10.776-11.513-16.866
			c0-6.56,3.549-12.182,10.71-12.182h98.52c5.823,0,10.71,4.819,10.71,10.709C320.972,191.178,315.418,197.937,309.526,202.02z
			 M320.972,256.501c0,5.89-4.818,10.709-10.71,10.709h-98.52c-5.891,0-10.71-4.819-10.71-10.709v-53.143
			c2.009,2.209,4.283,4.15,6.761,5.823c11.108,7.563,22.354,15.126,33.264,23.091c5.622,4.149,12.582,9.236,19.878,9.236h0.066
			h0.066c7.297,0,14.257-5.087,19.879-9.236c10.908-7.898,22.154-15.528,33.331-23.091c2.409-1.673,4.685-3.614,6.692-5.823
			L320.972,256.501L320.972,256.501z"/>
	</g>
	<g>
		<path fill="#324A51" d="M181.542,335.029l-0.853,1.869c-1.543,0.815-2.929,1.373-4.157,1.677
			c-1.228,0.303-2.762,0.454-4.602,0.454c-2.618,0-4.933-0.414-6.944-1.241c-1.581-0.666-2.92-1.55-4.019-2.647
			c-1.1-1.1-1.944-2.289-2.537-3.574c-0.901-1.938-1.352-4.043-1.352-6.313c0-3.89,1.33-7.065,3.99-9.528
			c2.66-2.463,6.417-3.693,11.269-3.693c1.667,0,3.164,0.123,4.491,0.369c1.326,0.248,2.867,0.687,4.62,1.315l0.093,0.24
			c-0.197,0.581-0.353,1.31-0.463,2.187c-0.186,1.396-0.303,2.685-0.353,3.869h-1.444c-0.024-1.357-0.086-2.443-0.185-3.259
			c-0.827-0.864-1.757-1.51-2.787-1.937c-1.031-0.426-2.35-0.639-3.954-0.639c-2.901,0-5.223,0.916-6.963,2.75
			c-1.741,1.833-2.611,4.393-2.611,7.676c0,1.988,0.294,3.723,0.88,5.203c0.586,1.481,1.367,2.707,2.343,3.678
			c0.975,0.969,1.956,1.676,2.944,2.119c1.346,0.594,2.975,0.89,4.889,0.89c1.26,0,2.451-0.142,3.574-0.427
			c1.123-0.283,2.346-0.771,3.667-1.463L181.542,335.029z"/>
		<path fill="#324A51" d="M185.491,325.732c0-2.26,0.342-4.229,1.027-5.907s1.664-3.104,2.936-4.277
			c1.271-1.173,2.654-2.019,4.147-2.536c1.914-0.654,4-0.981,6.26-0.981c2.247,0,4.284,0.313,6.111,0.944
			c1.357,0.48,2.558,1.176,3.602,2.082c1.043,0.908,1.836,1.838,2.38,2.787c0.543,0.951,0.953,1.994,1.231,3.131
			c0.277,1.135,0.416,2.389,0.416,3.76c0,2.32-0.4,4.475-1.203,6.463c-0.593,1.48-1.461,2.796-2.603,3.943s-2.441,2.03-3.897,2.647
			c-2,0.827-4.284,1.241-6.853,1.241c-2.777,0-5.163-0.504-7.157-1.51c-1.993-1.006-3.559-2.49-4.694-4.453
			C186.059,331.104,185.491,328.659,185.491,325.732z M191.194,324.629c0,2.879,0.396,5.262,1.186,7.146s1.803,3.215,3.037,3.994
			c1.234,0.777,2.691,1.166,4.37,1.166c1.556,0,2.947-0.369,4.176-1.111c1.229-0.741,2.191-1.995,2.889-3.762
			c0.698-1.768,1.047-3.912,1.047-6.433c0-1.729-0.188-3.312-0.565-4.744s-0.916-2.653-1.62-3.659
			c-0.704-1.009-1.534-1.777-2.49-2.309c-0.957-0.531-2.226-0.797-3.806-0.797c-1.803,0-3.337,0.423-4.603,1.27
			c-1.266,0.846-2.185,2.098-2.759,3.754C191.481,320.799,191.194,322.628,191.194,324.629z"/>
		<path fill="#324A51" d="M217.532,336.807c1.457-0.074,2.29-0.143,2.5-0.203c0.137-0.049,0.25-0.131,0.343-0.242
			c0.093-0.109,0.17-0.34,0.231-0.685c0.074-0.47,0.16-1.604,0.26-3.407c0.049-1.024,0.073-2.357,0.073-4v-5.944l-0.092-5.39
			c-0.013-0.899-0.05-1.486-0.11-1.759c-0.062-0.271-0.151-0.473-0.268-0.603c-0.117-0.129-0.31-0.231-0.58-0.307
			c-0.271-0.072-1.057-0.153-2.357-0.24v-1.555c1.567,0.086,2.723,0.129,3.463,0.129l2.686-0.064l1.703-0.064
			c2.544,3.321,5.624,7.148,9.241,11.481c2.604,3.123,4.766,5.567,6.481,7.333v-4.277c0-6.642-0.074-10.549-0.223-11.723
			c-0.049-0.456-0.16-0.752-0.333-0.889c-0.284-0.223-1.247-0.346-2.889-0.371v-1.555c1.507,0.086,2.889,0.129,4.148,0.129
			c1.222,0,2.796-0.043,4.722-0.129v1.555c-1.506,0.037-2.4,0.148-2.685,0.334c-0.1,0.062-0.167,0.154-0.204,0.277
			c-0.186,0.617-0.306,2.027-0.361,4.231c-0.056,2.203-0.083,3.83-0.083,4.88c0,8.21,0.08,13.191,0.24,14.943l-0.24,0.166
			c-1.037-0.172-2.093-0.332-3.167-0.48c-3.987-4.456-9.642-11.146-16.963-20.074v9.223c0,1.914,0.044,3.908,0.13,5.981
			c0.049,1.433,0.123,2.304,0.222,2.611c0.05,0.147,0.133,0.269,0.25,0.36c0.118,0.093,0.324,0.158,0.621,0.194
			c0.803,0.099,1.389,0.147,1.759,0.147c0.074,0,0.197-0.006,0.37-0.02v1.5c-2.346-0.037-3.68-0.055-4.002-0.055
			c-1.201,0-2.83,0.043-4.887,0.129L217.532,336.807L217.532,336.807z"/>
		<path fill="#324A51" d="M255.333,338.38v-1.519c1.481-0.049,2.36-0.147,2.64-0.297c0.277-0.147,0.465-0.396,0.564-0.74
			c0.136-0.53,0.203-2.129,0.203-4.797v-11.092c0-3.024-0.018-4.717-0.055-5.074h-2.648c-1.333,0-2.507,0.044-3.519,0.13
			c-0.407,0.036-0.642,0.086-0.704,0.147c-0.086,0.074-0.16,0.291-0.222,0.647c-0.16,0.864-0.253,1.834-0.278,2.907h-1.537
			c-0.049-2.53-0.08-3.957-0.092-4.277c-0.037-0.543-0.1-1.13-0.186-1.759l0.167-0.187c0.579,0.062,1.196,0.104,1.85,0.131
			c1.062,0.037,3.103,0.056,6.125,0.056h7.477c3.107,0,5.188-0.019,6.236-0.056c0.565-0.025,1.141-0.067,1.721-0.131l0.186,0.187
			c-0.111,0.753-0.18,1.413-0.203,1.981c-0.013,0.098-0.037,1.45-0.074,4.055h-1.537c-0.024-0.963-0.104-1.883-0.24-2.76
			c-0.074-0.443-0.155-0.709-0.241-0.795c-0.073-0.062-0.271-0.104-0.593-0.131c-1.012-0.099-2.229-0.148-3.646-0.148h-2.648
			c-0.037,0.434-0.057,2.123-0.057,5.074v11.094c0,2.666,0.067,4.271,0.205,4.813c0.086,0.321,0.271,0.56,0.555,0.714
			c0.285,0.154,1.166,0.256,2.648,0.305v1.52c-2.393-0.111-4.406-0.166-6.047-0.166C259.629,338.214,257.614,338.27,255.333,338.38z
			"/>
		<path fill="#324A51" d="M272.355,338.38v-1.537c1-0.073,1.597-0.139,1.787-0.194c0.191-0.055,0.354-0.142,0.491-0.258
			c0.136-0.119,0.274-0.304,0.416-0.557s0.565-1.193,1.269-2.824c0.322-0.766,0.938-2.277,1.853-4.537l4.834-11.926l1.63-4.204
			h2.629l8.278,19.334l1.147,2.537l0.74,1.703c0.123,0.224,0.24,0.383,0.353,0.481c0.11,0.1,0.237,0.174,0.38,0.223
			c0.142,0.049,0.503,0.093,1.083,0.13c0.186,0.024,0.457,0.056,0.814,0.092v1.537l-5.146-0.129l-6.499,0.129v-1.537
			c1.493-0.061,2.336-0.145,2.526-0.249c0.191-0.104,0.287-0.279,0.287-0.525c0-0.309-0.142-0.812-0.426-1.514l-1.589-4.062h-9.548
			l-0.812,2.216c-0.614,1.699-0.922,2.758-0.922,3.176c0,0.296,0.098,0.505,0.295,0.628c0.295,0.172,1.178,0.283,2.646,0.332v1.537
			l-4.271-0.129L272.355,338.38z M280.523,328.361c1.162,0.037,2.479,0.057,3.951,0.057c1.422,0,2.695-0.02,3.82-0.057l-3.963-9.569
			L280.523,328.361z"/>
		<path fill="#324A51" d="M328.361,335.029l-0.854,1.869c-1.543,0.815-2.929,1.373-4.157,1.677
			c-1.228,0.303-2.762,0.454-4.602,0.454c-2.617,0-4.933-0.414-6.944-1.241c-1.581-0.666-2.92-1.55-4.019-2.647
			c-1.101-1.1-1.944-2.289-2.537-3.574c-0.901-1.938-1.352-4.043-1.352-6.313c0-3.89,1.329-7.065,3.989-9.528
			s6.417-3.693,11.27-3.693c1.667,0,3.164,0.123,4.491,0.369c1.325,0.248,2.866,0.687,4.619,1.315l0.094,0.24
			c-0.197,0.581-0.354,1.31-0.464,2.187c-0.186,1.396-0.303,2.685-0.353,3.869H326.1c-0.023-1.357-0.086-2.443-0.185-3.259
			c-0.827-0.864-1.757-1.51-2.787-1.937c-1.031-0.426-2.35-0.639-3.954-0.639c-2.899,0-5.222,0.916-6.963,2.75
			c-1.74,1.833-2.611,4.393-2.611,7.676c0,1.988,0.294,3.723,0.881,5.203c0.586,1.481,1.366,2.707,2.343,3.678
			c0.975,0.969,1.956,1.676,2.943,2.119c1.347,0.594,2.976,0.89,4.89,0.89c1.26,0,2.451-0.142,3.574-0.427
			c1.122-0.283,2.346-0.771,3.666-1.463L328.361,335.029z"/>
		<path fill="#324A51" d="M336.995,338.38v-1.519c1.48-0.049,2.361-0.147,2.639-0.297c0.278-0.147,0.466-0.396,0.565-0.74
			c0.136-0.53,0.203-2.129,0.203-4.797v-11.092c0-3.024-0.02-4.717-0.056-5.074h-2.647c-1.333,0-2.507,0.044-3.52,0.13
			c-0.406,0.036-0.642,0.086-0.704,0.147c-0.086,0.074-0.159,0.291-0.222,0.647c-0.16,0.864-0.253,1.834-0.278,2.907h-1.536
			c-0.05-2.53-0.08-3.957-0.093-4.277c-0.037-0.543-0.1-1.13-0.186-1.759l0.167-0.187c0.579,0.062,1.196,0.104,1.85,0.131
			c1.062,0.037,3.104,0.056,6.125,0.056h7.477c3.107,0,5.188-0.019,6.235-0.056c0.566-0.025,1.142-0.067,1.722-0.131l0.185,0.187
			c-0.11,0.753-0.179,1.413-0.203,1.981c-0.013,0.098-0.037,1.45-0.074,4.055h-1.536c-0.025-0.963-0.104-1.883-0.24-2.76
			c-0.074-0.443-0.155-0.709-0.241-0.795c-0.074-0.062-0.271-0.104-0.593-0.131c-1.012-0.099-2.229-0.148-3.648-0.148h-2.646
			c-0.037,0.434-0.057,2.123-0.057,5.074v11.094c0,2.666,0.067,4.271,0.203,4.813c0.087,0.321,0.271,0.56,0.557,0.714
			c0.283,0.154,1.167,0.256,2.647,0.305v1.52c-2.392-0.111-4.406-0.166-6.046-0.166C341.291,338.214,339.276,338.27,336.995,338.38z
			"/>
	</g>
</g>
</svg>
