<?xml version="1.0" encoding="utf-8"?>
<!-- Generator: Adobe Illustrator 15.1.0, SVG Export Plug-In . SVG Version: 6.00 Build 0)  -->
<!DOCTYPE svg PUBLIC "-//W3C//DTD SVG 1.1//EN" "http://www.w3.org/Graphics/SVG/1.1/DTD/svg11.dtd">
<svg version="1.1" id="Layer_1" xmlns="http://www.w3.org/2000/svg" xmlns:xlink="http://www.w3.org/1999/xlink" x="0px" y="0px"
	 width="512px" height="512px" viewBox="0 0 512 512" enable-background="new 0 0 512 512" xml:space="preserve">
<g>
	<rect x="12.221" y="120.778" fill-rule="evenodd" clip-rule="evenodd" fill="#384F54" width="487.559" height="270.443"/>
</g>
<g>
	<path fill="#C19500" d="M108.344,232.777c14.978-2.139,32.838-6.045,9.281-18.037c-14.254-7.258-38.967-12.214-54.089-12.625
		l0.015-31.618h384.675v75.846H108.736L108.344,232.777z"/>
	<path fill="#BDCED9" d="M72.191,319.435v14.357c0,2.396,0.156,3.978,0.474,4.75c0.381,0.917,1.254,1.443,2.626,1.563l0.814,0.078
		c0.344,0.026,0.51,0.213,0.51,0.562s-0.238,0.526-0.718,0.526c-0.116,0-0.298-0.014-0.549-0.039
		c-0.407-0.039-0.822-0.06-1.248-0.06l-2.938-0.117l-0.737,0.021c-0.898,0-2.122,0.097-3.675,0.282
		c-0.506,0.072-0.904,0.104-1.19,0.104c-0.409,0-0.614-0.152-0.627-0.46c-0.013-0.29,0.149-0.471,0.478-0.549
		c0.979-0.227,1.624-0.686,1.947-1.385c0.324-0.692,0.485-1.979,0.485-3.849v-14.589c0-1.454-0.279-2.517-0.828-3.189
		c-0.548-0.666-1.475-1.073-2.776-1.211c-0.473-0.065-0.705-0.265-0.705-0.601c0-0.376,0.271-0.562,0.816-0.562
		c0.143,0,0.441,0.017,0.891,0.056c1.391,0.091,3.003,0.138,4.839,0.138c0.876,0,1.594-0.021,2.161-0.06l2.111-0.134
		c0.705-0.053,1.35-0.078,1.933-0.078c3.578,0,6.193,0.749,7.835,2.256c1.468,1.352,2.199,2.994,2.199,4.925
		c0,2.089-0.769,3.85-2.308,5.291c-1.542,1.443-3.43,2.16-5.662,2.16c-1.216,0-2.277-0.127-3.195-0.38
		c-0.913-0.261-1.371-0.558-1.371-0.9c0-0.342,0.154-0.517,0.47-0.517c0.078,0,0.183,0.021,0.303,0.058
		c0.694,0.2,1.365,0.305,2.013,0.305c1.514,0,2.764-0.493,3.742-1.482c0.977-0.989,1.466-2.252,1.466-3.785
		c0-1.915-0.567-3.474-1.7-4.685c-1.138-1.209-2.6-1.81-4.385-1.81c-1.386,0-2.31,0.206-2.79,0.613
		C72.432,317.45,72.191,318.25,72.191,319.435"/>
	<path fill="#BDCED9" d="M132.963,319.576v4.118c0,1.176,0.085,1.919,0.26,2.237c0.167,0.309,0.583,0.473,1.241,0.473l0.577-0.021
		l0.835-0.019h1.616c1.257,0,2.227-0.687,2.913-2.058l0.441-0.924c0.108-0.229,0.297-0.346,0.562-0.357
		c0.271-0.015,0.407,0.154,0.407,0.512c0,0.104-0.014,0.374-0.045,0.835c-0.021,0.323-0.033,0.601-0.033,0.826
		c0,0.409,0.052,1.352,0.163,2.842c0.069,0.969,0.108,1.816,0.108,2.537l0.021,0.963c0,0.173-0.021,0.298-0.06,0.362
		c-0.053,0.071-0.147,0.114-0.304,0.131c-0.317,0.022-0.509-0.216-0.587-0.72c-0.164-1.073-0.543-1.89-1.14-2.446
		c-0.329-0.303-0.731-0.498-1.209-0.589c-0.472-0.082-1.365-0.129-2.667-0.129h-1.292c-0.608,0-1.023,0.09-1.243,0.271
		c-0.227,0.187-0.374,0.557-0.446,1.114c-0.078,0.627-0.117,1.622-0.117,2.987v1.701c0,1.78,0.143,3.06,0.42,3.843
		c0.216,0.569,0.467,0.95,0.759,1.153c0.29,0.199,0.744,0.303,1.35,0.303c5.137,0,8.504-1.561,10.088-4.685
		c0.092-0.147,0.16-0.232,0.226-0.246c0.13-0.025,0.247,0.021,0.35,0.125c0.109,0.107,0.162,0.245,0.162,0.405
		c0,1.25-0.335,2.453-1.003,3.617c-0.558,0.99-1.256,1.702-2.089,2.123c-0.837,0.428-1.943,0.64-3.32,0.64
		c-0.814,0-1.709-0.053-2.699-0.149l-2.198-0.206c-0.809-0.07-1.903-0.108-3.287-0.108c-0.918,0-2.323,0.057-4.21,0.174
		c-0.519,0.039-0.895,0.06-1.12,0.06c-0.303,0-0.467-0.144-0.493-0.423c-0.013-0.227,0.13-0.395,0.42-0.51
		c0.72-0.28,1.209-0.57,1.469-0.881c0.259-0.311,0.465-0.859,0.622-1.655c0.134-0.674,0.206-1.579,0.206-2.73v-15.017
		c0-1.418-0.232-2.374-0.692-2.88c-0.458-0.504-1.417-0.858-2.872-1.06c-0.344-0.053-0.511-0.24-0.511-0.563
		c0-0.298,0.207-0.446,0.626-0.446c0.084,0,0.277,0.013,0.569,0.031c0.227,0.013,0.538,0.021,0.926,0.021l1.914,0.07l7.187,0.073
		c4.135,0,6.685-0.06,7.643-0.177c0.104-0.012,0.188-0.019,0.264-0.019c0.369,0,0.551,0.208,0.551,0.619
		c0,0.294,0.039,0.811,0.115,1.555c0.104,1.1,0.156,1.89,0.156,2.368c0,0.955-0.245,1.448-0.73,1.475
		c-0.238,0.013-0.355-0.265-0.355-0.835c0-1.248-0.459-2.146-1.378-2.71s-2.407-0.841-4.464-0.841h-2.316l-1.296,0.146
		c-0.647,0.209-0.971,0.843-0.971,1.918L132.963,319.576z"/>
	<path fill="#BDCED9" d="M194.964,319.487l10.016,11.276l0.646,0.718c0.855,0.964,1.431,1.443,1.725,1.443
		c0.258,0,0.405-0.381,0.433-1.158c0.11-2.788,0.168-5.448,0.168-7.978c0-2.969-0.298-4.974-0.9-6.028
		c-0.595-1.049-1.771-1.637-3.524-1.761c-0.415-0.026-0.623-0.169-0.623-0.441c0-0.329,0.183-0.488,0.553-0.488
		c0.459,0,1.188,0.062,2.205,0.193c0.653,0.078,1.204,0.117,1.63,0.117c0.872,0,2.258-0.117,4.16-0.35
		c0.253-0.026,0.436-0.039,0.549-0.039c0.409,0,0.61,0.18,0.61,0.541c0,0.323-0.201,0.519-0.61,0.584
		c-1.635,0.305-2.459,1.748-2.459,4.328v0.93l-0.27,11.821l-0.072,1.624l-0.019,2.104l0.019,1.436l0.072,2.36
		c0,0.357-0.125,0.526-0.383,0.514c-0.226-0.014-0.458-0.151-0.699-0.415l-17.229-19.151c-0.304-0.323-0.512-0.491-0.627-0.491
		c-0.303,0-0.454,0.285-0.454,0.854l-0.019,0.551v7.355c0,3.927,0.193,6.555,0.588,7.881c0.415,1.417,1.651,2.217,3.695,2.406
		c0.382,0.039,0.569,0.193,0.569,0.471c0,0.384-0.193,0.579-0.588,0.579c-0.156,0-0.401-0.026-0.745-0.078
		c-1.067-0.181-2.243-0.271-3.54-0.271c-1.279,0-2.425,0.091-3.428,0.276c-0.438,0.073-0.764,0.112-0.971,0.112
		c-0.342,0-0.51-0.156-0.51-0.467c0-0.259,0.181-0.441,0.549-0.544c0.925-0.268,1.598-0.809,2.019-1.638
		c0.428-0.826,0.634-2.019,0.634-3.569l0.138-4.511v-8.217c0-3.887-1.438-5.932-4.304-6.134c-0.396-0.026-0.588-0.181-0.588-0.479
		c0-0.355,0.212-0.528,0.646-0.528l1.313,0.058l0.803-0.019c0.99,0,2.052-0.06,3.185-0.177c0.418-0.037,0.77-0.056,1.047-0.056
		c0.393,0,0.699,0.083,0.925,0.258c0.227,0.166,0.704,0.692,1.438,1.564l1.306,1.534
		C194.558,318.996,194.862,319.364,194.964,319.487"/>
	<path fill="#BDCED9" d="M264.828,319.779v14.266c0,2.133,0.309,3.642,0.93,4.536c0.615,0.891,1.709,1.384,3.281,1.485
		c0.453,0.039,0.68,0.265,0.68,0.68c0,0.297-0.195,0.448-0.59,0.448c-0.082,0-0.246-0.008-0.471-0.021l-1.418-0.058l-2.367-0.154
		c-0.195-0.014-0.445-0.021-0.756-0.021c-0.738,0-1.393,0.021-1.975,0.059l-4.188,0.238c-0.438,0.047-0.742,0.073-0.904,0.073
		c-0.396,0-0.583-0.17-0.569-0.501c0.013-0.277,0.079-0.459,0.19-0.543c0.113-0.084,0.357-0.136,0.742-0.162
		c0.98-0.064,1.738-0.42,2.277-1.067c0.535-0.652,0.807-1.538,0.807-2.665l-0.02-0.887v-16.827c0-0.997-0.535-1.495-1.609-1.495
		c-2.524,0-4.246,0.183-5.163,0.551c-0.673,0.277-1.114,0.595-1.339,0.944c-0.222,0.343-0.52,1.211-0.9,2.589l-0.148,0.536
		c-0.144,0.519-0.355,0.777-0.646,0.777c-0.423,0-0.621-0.195-0.596-0.59c0.012-0.354,0.076-0.848,0.187-1.475l0.193-1.649
		l0.229-1.691l0.127-1.156c0.052-0.493,0.317-0.736,0.798-0.736c0.122,0,0.342,0.013,0.64,0.039
		c0.492,0.039,1.197,0.058,2.102,0.058l3.863,0.037l4.602,0.058c2.969,0,6.105-0.074,9.424-0.23c0.66-0.026,1.08-0.039,1.27-0.039
		c0.701,0,1.061,0.29,1.1,0.866l0.098,1.359c0.012,0.212,0.078,0.724,0.195,1.525c0.088,0.666,0.133,1.205,0.133,1.605
		c0,0.412-0.172,0.621-0.516,0.621c-0.291,0-0.492-0.238-0.611-0.718c-0.264-1.18-0.768-2.025-1.518-2.545
		c-0.752-0.515-1.844-0.773-3.268-0.773c-1.916,0-3.113,0.146-3.584,0.444C265.067,317.869,264.828,318.6,264.828,319.779"/>
	<path fill="#BDCED9" d="M320.877,335.228l0.154,1.902c0.148,0.971,0.518,1.723,1.105,2.237c0.59,0.52,1.361,0.777,2.312,0.777
		c0.619,0,0.93,0.187,0.93,0.569c0,0.368-0.414,0.559-1.234,0.559c-0.35,0-0.854-0.034-1.514-0.104
		c-1.643-0.188-2.977-0.284-4.004-0.284c-1.264,0-2.266,0.064-2.998,0.198c-0.633,0.125-1.088,0.19-1.365,0.19
		c-0.275,0-0.453-0.138-0.529-0.409l-0.039-0.156l0.549-0.445c0.916-0.329,1.521-0.73,1.818-1.205
		c0.299-0.472,0.449-1.253,0.449-2.354l0.018-1.682v-15.095c0-1.156-0.201-1.986-0.607-2.476c-0.4-0.492-1.146-0.821-2.219-0.985
		c-0.648-0.103-1.062-0.206-1.242-0.303c-0.188-0.098-0.279-0.259-0.279-0.491c0-0.363,0.148-0.538,0.453-0.524
		c0.232,0.013,0.568,0.064,1.029,0.156c0.453,0.104,1.215,0.152,2.289,0.152c0.711,0,1.586-0.043,2.635-0.127l1.385-0.111
		c1.305-0.097,2.301-0.146,2.994-0.146c0.42,0,0.627,0.154,0.627,0.457c0,0.226-0.033,0.382-0.096,0.454
		c-0.059,0.078-0.221,0.136-0.473,0.173c-0.912,0.15-1.502,0.409-1.76,0.757c-0.262,0.357-0.389,1.081-0.389,2.169V335.228z"/>
	<path fill="#BDCED9" d="M371.434,318.949v6.567c0,0.81,0.104,1.319,0.309,1.535c0.217,0.212,0.713,0.321,1.496,0.321
		c2.254,0,3.648-0.039,4.186-0.123c0.537-0.081,1.043-0.336,1.514-0.77c0.928-0.833,1.385-1.986,1.385-3.454
		c0-1.908-0.621-3.487-1.869-4.729c-1.248-1.248-2.834-1.869-4.762-1.869c-0.861,0-1.449,0.181-1.771,0.543
		C371.596,317.326,371.434,317.986,371.434,318.949 M371.434,333.747c0,2.401,0.221,4.022,0.666,4.871
		c0.441,0.854,1.314,1.341,2.615,1.467c0.527,0.053,0.797,0.255,0.797,0.608c0,0.357-0.217,0.54-0.65,0.54
		c-0.133,0-0.395-0.021-0.777-0.06c-1.084-0.092-2.133-0.135-3.141-0.135c-0.848,0-1.6,0.022-2.252,0.069l-1.592,0.15l-1.27,0.11
		c-0.354,0.037-0.602,0.056-0.742,0.056c-0.453,0-0.68-0.173-0.68-0.516c0-0.279,0.129-0.454,0.381-0.532
		c0.861-0.266,1.455-0.621,1.785-1.067c0.33-0.444,0.492-1.131,0.492-2.051v-1.797l0.021-0.738V321.04
		c0-1.514-0.189-2.529-0.572-3.041c-0.621-0.846-1.631-1.357-3.041-1.534c-0.516-0.076-0.777-0.298-0.777-0.656
		c0-0.365,0.178-0.545,0.533-0.545c0.143,0,0.369,0.019,0.686,0.052c0.969,0.097,2.039,0.14,3.203,0.14
		c1.273,0,2.82-0.069,4.639-0.212c2.135-0.168,3.609-0.251,4.418-0.251c2.402,0,4.395,0.652,5.971,1.966
		c1.58,1.312,2.369,2.964,2.369,4.949c0,1.255-0.352,2.394-1.057,3.422c-0.699,1.022-1.662,1.806-2.889,2.336
		c-0.254,0.104-0.371,0.225-0.357,0.381c0.012,0.125,0.078,0.279,0.188,0.454c0.117,0.173,0.285,0.471,0.512,0.893l1.689,2.997
		l1.945,3.465c0.672,1.172,1.27,1.988,1.793,2.445c0.525,0.454,1.139,0.683,1.844,0.683c0.291,0,0.562-0.026,0.814-0.082
		c0.15-0.029,0.291-0.048,0.414-0.048c0.229,0,0.344,0.14,0.344,0.432c0,0.37-0.518,0.782-1.553,1.249s-1.955,0.7-2.756,0.7
		c-1.295,0-2.492-0.642-3.59-1.918c-1.094-1.274-2.52-3.693-4.266-7.246c-0.678-1.4-1.24-2.29-1.682-2.663
		c-0.443-0.37-1.164-0.557-2.158-0.557h-1.18l-0.855,0.147c-0.186,0.104-0.283,0.409-0.283,0.913V333.747z"/>
	<path fill="#BDCED9" d="M435.11,319.576v4.118c0,1.176,0.086,1.919,0.26,2.237c0.168,0.309,0.582,0.473,1.242,0.473l0.576-0.021
		l0.834-0.019h1.619c1.254,0,2.225-0.687,2.91-2.058l0.441-0.924c0.109-0.229,0.297-0.346,0.561-0.357
		c0.271-0.015,0.41,0.154,0.41,0.512c0,0.104-0.014,0.374-0.047,0.835c-0.02,0.323-0.031,0.601-0.031,0.826
		c0,0.409,0.051,1.352,0.16,2.842c0.072,0.969,0.111,1.816,0.111,2.537l0.018,0.963c0,0.173-0.018,0.298-0.057,0.362
		c-0.051,0.071-0.15,0.114-0.307,0.131c-0.314,0.022-0.508-0.216-0.586-0.72c-0.16-1.073-0.543-1.89-1.139-2.446
		c-0.332-0.303-0.732-0.498-1.209-0.589c-0.475-0.082-1.365-0.129-2.668-0.129h-1.293c-0.607,0-1.021,0.09-1.242,0.271
		c-0.229,0.187-0.375,0.557-0.445,1.114c-0.078,0.627-0.119,1.622-0.119,2.987v1.701c0,1.78,0.145,3.06,0.422,3.843
		c0.215,0.569,0.467,0.95,0.758,1.153c0.289,0.199,0.742,0.303,1.352,0.303c5.137,0,8.5-1.561,10.086-4.685
		c0.092-0.147,0.164-0.232,0.227-0.246c0.131-0.025,0.246,0.021,0.348,0.125c0.111,0.107,0.164,0.245,0.164,0.405
		c0,1.25-0.336,2.453-1.002,3.617c-0.559,0.99-1.258,1.702-2.092,2.123c-0.834,0.428-1.941,0.64-3.318,0.64
		c-0.812,0-1.709-0.053-2.697-0.149l-2.199-0.206c-0.809-0.07-1.902-0.108-3.287-0.108c-0.918,0-2.322,0.057-4.213,0.174
		c-0.516,0.039-0.891,0.06-1.119,0.06c-0.305,0-0.465-0.144-0.49-0.423c-0.014-0.227,0.131-0.395,0.42-0.51
		c0.719-0.28,1.209-0.57,1.469-0.881s0.467-0.859,0.619-1.655c0.137-0.674,0.207-1.579,0.207-2.73v-15.017
		c0-1.418-0.234-2.374-0.691-2.88c-0.459-0.504-1.416-0.858-2.873-1.06c-0.342-0.053-0.51-0.24-0.51-0.563
		c0-0.298,0.207-0.446,0.627-0.446c0.086,0,0.279,0.013,0.568,0.031c0.229,0.013,0.539,0.021,0.928,0.021l1.912,0.07l7.189,0.073
		c4.135,0,6.682-0.06,7.641-0.177c0.104-0.012,0.189-0.019,0.264-0.019c0.371,0,0.553,0.208,0.553,0.619
		c0,0.294,0.039,0.811,0.115,1.555c0.104,1.1,0.156,1.89,0.156,2.368c0,0.955-0.246,1.448-0.732,1.475
		c-0.238,0.013-0.355-0.265-0.355-0.835c0-1.248-0.457-2.146-1.379-2.71c-0.916-0.563-2.406-0.841-4.463-0.841h-2.316l-1.295,0.146
		c-0.646,0.209-0.971,0.843-0.971,1.918L435.11,319.576z"/>
	<path fill="#C19500" d="M128.452,285.39c25.084-1.832,50.164-2.751,75.233-2.751c25.328,0,50.663,0.936,76.006,2.809
		c56.096,3.733,112.189,3.733,168.289,0l0.166,2.237c-9.623,0.64-19.248,1.17-28.869,1.591H308.383
		c-9.623-0.421-19.246-0.951-28.871-1.591h-0.008c-25.265-1.865-50.54-2.799-75.819-2.799c-25.083,0-50.163,0.919-75.233,2.757
		V285.39z M125.246,274.389c25.908,1.388,51.798,2.194,77.662,2.252c26.01,0.06,52.041-0.642,78.098-2.274
		c27.795-1.746,55.68-2.562,83.6-2.535c27.922,0.028,55.832,0.9,83.689,2.535l-0.139,2.062c-27.859-1.635-55.727-2.509-83.551-2.535
		c-27.826-0.025-55.66,0.791-83.453,2.535c-26.058,1.635-52.141,2.336-78.245,2.276c-25.91-0.058-51.797-0.862-77.662-2.246V274.389
		z M128.45,266.485c34.023-1.831,68.057-1.21,102.085-0.593c16.992,0.311,33.984,0.621,51.283,0.621
		c18.27,0,36.881,0.312,55.486,0.625c36.955,0.623,73.908,1.246,110.871-0.623l0.1,1.867c-36.996,1.867-74,1.244-111.004,0.619
		c-18.371-0.307-36.744-0.617-55.453-0.617c-16.896,0-34.106-0.312-51.312-0.625c-34.014-0.621-68.031-1.238-102.054,0.597
		L128.45,266.485z M113.274,262.095l-0.139-0.006v-0.009L113.274,262.095z M115.671,260.565c26.362,1.096,52.724,1.615,79.068,1.602
		c27.162-0.015,54.333-0.601,81.49-1.707c57.344-2.336,114.689-2.336,172.033,0l-0.072,1.629c-57.297-2.334-114.592-2.334-171.889,0
		c-27.155,1.106-54.35,1.69-81.562,1.706c-22.797,0.013-45.592-0.374-68.37-1.186c-1.651-0.609-4.086-1.108-6.777-1.518
		C118.327,260.9,116.999,260.724,115.671,260.565z M108.79,255.548c11.23-0.097,22.471-0.227,33.71-0.359
		c43.105-0.502,86.203-1.006,129.34,0.367c39.145,1.246,78.352,0.829,117.562,0.414c19.742-0.208,39.486-0.416,58.822-0.416v1.345
		c-19.865,0-39.34,0.206-58.812,0.412c-39.229,0.415-78.461,0.828-117.617-0.414c-43.123-1.371-86.198-0.869-129.278-0.366
		c-11.234,0.13-22.47,0.262-33.716,0.358L108.79,255.548z M108.76,251.48c52.375,0.921,104.749,0.919,157.125-0.012
		c30.262-0.535,60.535-0.77,90.809-0.753s60.547,0.286,90.814,0.753l-0.016,0.97c-30.268-0.469-60.535-0.737-90.799-0.756
		c-30.264-0.015-60.529,0.218-90.791,0.756c-52.376,0.93-104.757,0.934-157.137,0.011L108.76,251.48z M108.734,248.026h339.491v0.45
		H108.738L108.734,248.026z"/>
</g>
</svg>
