<?xml version="1.0" encoding="utf-8"?>
<!-- Generator: Adobe Illustrator 15.1.0, SVG Export Plug-In . SVG Version: 6.00 Build 0)  -->
<!DOCTYPE svg PUBLIC "-//W3C//DTD SVG 1.1//EN" "http://www.w3.org/Graphics/SVG/1.1/DTD/svg11.dtd">
<svg version="1.1" id="Layer_1" xmlns="http://www.w3.org/2000/svg" xmlns:xlink="http://www.w3.org/1999/xlink" x="0px" y="0px"
	 width="512px" height="512px" viewBox="0 0 512 512" enable-background="new 0 0 512 512" xml:space="preserve">
<g display="none">
	<path display="inline" fill="#324A51" d="M436.558,321.391v16.926l0.229,1.748c0.43,1.492,2.014,2.237,4.764,2.237
		c2.979,0,5.341-1.034,7.091-3.093c1.744-2.062,2.619-4.848,2.619-8.354c0-3.679-1.054-6.67-3.15-8.986
		c-2.1-2.309-4.813-3.465-8.145-3.465c-1.361,0-2.289,0.177-2.789,0.537C436.761,319.227,436.558,320.041,436.558,321.391
		 M432.123,322.436c0-1.236-0.342-2.185-1.021-2.854c-0.684-0.663-1.651-0.999-2.896-0.999c-0.4,0-0.599-0.172-0.599-0.508
		c0-0.229,0.085-0.381,0.25-0.452c0.165-0.074,0.532-0.104,1.099-0.104l2.929,0.039c0.67,0,1.27-0.015,1.795-0.039
		c0.81-0.055,1.92-0.14,3.335-0.271c1.901-0.178,3.408-0.27,4.526-0.27c4.36,0,7.847,1.109,10.479,3.342
		c2.624,2.229,3.939,5.197,3.939,8.898c0,4.764-1.771,8.566-5.304,11.387c-2.592,2.071-5.519,3.105-8.769,3.105
		c-0.539,0-1.624-0.055-3.256-0.152c-0.929-0.054-1.875-0.078-2.854-0.078c-2.282,0-3.81,0.065-4.564,0.19
		c-0.593,0.104-0.987,0.157-1.198,0.157c-0.295,0-0.44-0.184-0.44-0.559c0-0.265,0.159-0.42,0.48-0.488
		c0.795-0.149,1.342-0.479,1.63-0.979c0.29-0.506,0.436-1.36,0.436-2.585L432.123,322.436L432.123,322.436z M394.064,321.699
		l10.201,11.443l0.658,0.737c0.875,0.976,1.454,1.459,1.749,1.459c0.271,0,0.422-0.387,0.447-1.17
		c0.112-2.843,0.171-5.546,0.171-8.118c0-3.018-0.304-5.056-0.915-6.131c-0.611-1.064-1.81-1.654-3.592-1.788
		c-0.428-0.026-0.639-0.172-0.639-0.446c0-0.336,0.186-0.5,0.561-0.5c0.461,0,1.211,0.064,2.236,0.189
		c0.671,0.079,1.224,0.119,1.657,0.119c0.889,0,2.295-0.125,4.224-0.369c0.257-0.025,0.447-0.041,0.561-0.041
		c0.414,0,0.617,0.18,0.617,0.542c0,0.322-0.203,0.515-0.617,0.577c-1.658,0.312-2.487,1.783-2.487,4.414v0.947l-0.271,12.045
		l-0.078,1.656l-0.021,2.146l0.021,1.466l0.078,2.406c0,0.36-0.131,0.534-0.389,0.521c-0.229-0.015-0.467-0.152-0.71-0.422
		l-17.55-19.492c-0.311-0.336-0.521-0.5-0.639-0.5c-0.31,0-0.46,0.289-0.46,0.861l-0.021,0.561v7.479
		c0,3.998,0.197,6.67,0.599,8.017c0.423,1.441,1.679,2.256,3.757,2.447c0.388,0.04,0.58,0.197,0.58,0.488
		c0,0.38-0.198,0.578-0.6,0.578c-0.152,0-0.402-0.025-0.75-0.079c-1.079-0.177-2.275-0.269-3.593-0.269
		c-1.295,0-2.452,0.099-3.466,0.289c-0.455,0.077-0.782,0.117-0.986,0.117c-0.349,0-0.52-0.158-0.52-0.468
		c0-0.255,0.185-0.435,0.56-0.539c0.94-0.271,1.624-0.821,2.053-1.663c0.434-0.842,0.646-2.053,0.646-3.637l0.137-4.586v-8.362
		c0-3.953-1.46-6.037-4.375-6.239c-0.398-0.027-0.599-0.187-0.599-0.488c0-0.362,0.217-0.539,0.657-0.539l1.328,0.061l0.81-0.021
		c1.007,0,2.08-0.06,3.224-0.172c0.421-0.039,0.776-0.058,1.061-0.058c0.399,0,0.71,0.085,0.946,0.263
		c0.229,0.172,0.718,0.697,1.46,1.586l1.328,1.56C393.643,321.198,393.959,321.574,394.064,321.699z M356.149,331.552l-2.52-5.899
		c-0.604-1.407-1.033-2.116-1.288-2.116c-0.158,0-0.441,0.458-0.851,1.366l-0.368,0.81l-2.25,5.146l-0.21,0.479
		c-0.093,0.199-0.139,0.362-0.139,0.501c0,0.439,0.461,0.658,1.388,0.658h5.696c0.494,0,0.736-0.141,0.736-0.41
		c0-0.059-0.031-0.17-0.099-0.32L356.149,331.552z M355.419,319.48l8.77,20.136c0.434,1.014,0.953,1.776,1.538,2.278
		c0.593,0.5,1.362,0.834,2.296,0.998c0.229,0.041,0.349,0.217,0.349,0.541c0,0.349-0.145,0.519-0.439,0.506
		c-0.171-0.016-0.415-0.054-0.736-0.112c-0.986-0.218-2.585-0.329-4.781-0.329c-2.211,0-3.718,0.102-4.514,0.291
		c-0.191,0.051-0.354,0.078-0.5,0.078c-0.361,0-0.54-0.178-0.54-0.54c0-0.185,0.146-0.315,0.428-0.407
		c0.612-0.177,1.125-0.499,1.533-0.96c0.4-0.468,0.604-0.954,0.604-1.468c0-0.717-0.561-2.295-1.679-4.736
		c-0.342-0.75-0.724-1.177-1.146-1.283c-0.413-0.111-1.895-0.162-4.438-0.162h-2.618l-1.729,0.31
		c-0.479,0.217-1.021,1.063-1.618,2.538l-0.6,1.488c-0.178,0.42-0.271,0.849-0.271,1.289c0,1.617,1.132,2.551,3.396,2.81
		c0.484,0.063,0.724,0.249,0.709,0.557c-0.025,0.337-0.256,0.509-0.696,0.509c-0.229,0-0.56-0.041-0.979-0.119
		c-0.85-0.166-1.605-0.25-2.275-0.25c-0.604,0-1.578,0.063-2.935,0.189c-1,0.104-1.625,0.159-1.869,0.159
		c-0.361,0-0.54-0.159-0.54-0.47c0-0.254,0.179-0.446,0.54-0.576c0.696-0.219,1.25-0.62,1.671-1.204
		c0.414-0.586,1.033-1.813,1.854-3.69l5.265-12.139c0.427-0.958,0.725-1.623,0.888-1.979l1.789-3.685
		c0.619-1.204,0.929-1.809,0.929-1.809c0,0.041,0,0.058,0,0.058s0.104-0.24,0.31-0.729c0.204-0.48,0.375-0.723,0.521-0.723
		c0.205,0,0.561,0.539,1.061,1.618L355.419,319.48z M312.695,337.658c0,2.402,0.29,3.749,0.869,4.044
		c0.321,0.166,0.947,0.251,1.888,0.251c4.36,0,7.46-1.283,9.282-3.848c0.552-0.783,0.9-1.182,1.045-1.182
		c0.229,0,0.35,0.266,0.35,0.79c0,1.634-0.533,3.093-1.599,4.376c-0.94,1.131-2.217,1.697-3.835,1.697
		c-0.335,0-0.948-0.034-1.829-0.1c-0.229-0.014-1.007-0.062-2.314-0.133l-2.101-0.098c-0.709-0.041-1.512-0.059-2.405-0.059
		c-1.493,0-3.1,0.104-4.822,0.31c-0.525,0.065-0.881,0.099-1.06,0.099c-0.375,0-0.56-0.166-0.56-0.5c0-0.238,0.165-0.395,0.5-0.485
		c0.822-0.23,1.388-0.679,1.703-1.345c0.316-0.656,0.475-1.739,0.475-3.242v-16.107c0-2.061-0.855-3.223-2.565-3.494l-1.157-0.189
		c-0.486-0.077-0.73-0.27-0.73-0.579c0-0.388,0.191-0.578,0.579-0.578c0.125,0,0.314,0.019,0.561,0.06
		c0.179,0.012,0.429,0.039,0.75,0.08l0.829,0.051c0.781,0.078,1.367,0.119,1.756,0.119c0.619,0,1.601-0.078,2.947-0.229
		c1.007-0.105,2.024-0.157,3.064-0.157c0.771,0,1.157,0.177,1.157,0.54c0,0.314-0.275,0.479-0.83,0.506
		c-1.296,0.094-1.946,0.979-1.946,2.678L312.695,337.658L312.695,337.658z M275.598,337.658c0,2.402,0.288,3.749,0.867,4.044
		c0.323,0.166,0.947,0.251,1.889,0.251c4.36,0,7.459-1.283,9.28-3.848c0.554-0.783,0.902-1.182,1.046-1.182
		c0.23,0,0.35,0.266,0.35,0.79c0,1.634-0.533,3.093-1.6,4.376c-0.938,1.131-2.216,1.697-3.834,1.697c-0.336,0-0.947-0.034-1.83-0.1
		c-0.229-0.014-1.006-0.062-2.312-0.133l-2.102-0.098c-0.709-0.041-1.513-0.059-2.406-0.059c-1.492,0-3.098,0.104-4.82,0.31
		c-0.526,0.065-0.882,0.099-1.061,0.099c-0.375,0-0.56-0.166-0.56-0.5c0-0.238,0.165-0.395,0.499-0.485
		c0.823-0.23,1.389-0.679,1.705-1.345c0.313-0.656,0.473-1.739,0.473-3.242v-16.107c0-2.061-0.854-3.223-2.563-3.494l-1.158-0.189
		c-0.486-0.077-0.729-0.27-0.729-0.579c0-0.388,0.19-0.578,0.578-0.578c0.125,0,0.315,0.019,0.562,0.06
		c0.177,0.012,0.427,0.039,0.75,0.08l0.829,0.051c0.781,0.078,1.367,0.119,1.757,0.119c0.616,0,1.599-0.078,2.944-0.229
		c1.007-0.105,2.026-0.157,3.065-0.157c0.771,0,1.158,0.177,1.158,0.54c0,0.314-0.276,0.479-0.829,0.506
		c-1.296,0.094-1.947,0.979-1.947,2.678V337.658L275.598,337.658z M241.753,317.113c0.086-0.014,0.237,0.006,0.44,0.06
		c0.218,0.041,0.725,0.079,1.526,0.112l2.039,0.099l1.888-0.081c0.646-0.051,1.21-0.103,1.697-0.17
		c0.23-0.027,0.448-0.037,0.638-0.037c0.349,0,0.521,0.162,0.521,0.498c0,0.262-0.158,0.414-0.481,0.469l-0.735,0.129
		c-1,0.173-1.499,1.246-1.499,3.227l0.019,1.677l-0.04,2.368c0,3.711-0.185,6.703-0.546,8.979c-0.368,2.269-0.954,4.023-1.77,5.254
		c-1.935,2.994-5.225,4.492-9.86,4.492c-3.276,0-5.822-0.617-7.63-1.849c-2.454-1.683-3.685-4.946-3.685-9.788l0.21-7.453
		l-0.058-3.512c0-0.869-0.086-1.486-0.257-1.85c-0.171-0.354-0.533-0.664-1.072-0.922c-0.625-0.295-1.335-0.498-2.117-0.617
		c-0.5-0.079-0.751-0.271-0.751-0.578c0-0.336,0.218-0.508,0.658-0.508c0.139,0,0.402,0.02,0.789,0.06
		c1.625,0.149,2.889,0.229,3.769,0.229c1.265,0,2.651-0.073,4.186-0.211c0.611-0.054,1.059-0.078,1.329-0.078
		c0.664,0,1,0.186,1,0.56c0,0.204-0.053,0.349-0.151,0.427c-0.104,0.078-0.348,0.152-0.736,0.23
		c-0.781,0.152-1.31,0.447-1.578,0.875c-0.271,0.434-0.434,1.27-0.5,2.52l-0.309,4.855l0.039,3.406c0,3.111,0.164,5.322,0.494,6.643
		c0.328,1.316,1.006,2.441,2.032,3.382c1.552,1.429,3.545,2.138,5.973,2.138c2.479,0,4.486-0.729,6.012-2.197
		c1.033-0.985,1.757-2.434,2.19-4.333c0.428-1.9,0.645-4.632,0.645-8.189v-1.565l-0.098-3.946c-0.073-1.198-0.448-2.125-1.118-2.782
		c-0.665-0.665-1.571-0.994-2.717-0.994c-0.499,0-0.75-0.188-0.75-0.565C241.385,317.279,241.51,317.126,241.753,317.113z
		 M190.953,316.844c2.144,0,4.655,0.625,7.537,1.869c0.73,0.309,1.196,0.465,1.401,0.465c0.185,0,0.342-0.063,0.486-0.188
		l0.211-0.197c0.125-0.125,0.283-0.197,0.46-0.21c0.388-0.014,0.579,0.217,0.579,0.688l-0.02,1.352l-0.08,2.645l0.06,1.389
		c0.026,0.343,0.065,0.719,0.119,1.111c0.014,0.158,0.021,0.27,0.021,0.35c0,0.414-0.198,0.604-0.6,0.58
		c-0.27-0.014-0.446-0.285-0.538-0.812c-0.257-1.54-1.072-3.046-2.448-4.523c-1.939-2.08-4.282-3.119-7.033-3.119
		c-2.615,0-4.715,1.033-6.287,3.092c-1.571,2.059-2.36,4.811-2.36,8.236c0,3.67,0.809,6.762,2.433,9.273
		c1.625,2.506,3.625,3.764,6,3.764c0.711,0,1.605-0.158,2.697-0.476c1.091-0.31,1.92-0.657,2.485-1.024
		c0.514-0.334,0.868-0.822,1.072-1.469c0.197-0.638,0.295-1.63,0.295-2.979c0-1.54-0.275-2.612-0.827-3.203
		c-0.554-0.602-1.586-0.938-3.099-1.016c-0.401-0.025-0.6-0.209-0.6-0.56c0-0.347,0.229-0.526,0.689-0.526
		c0.146,0,0.369,0.015,0.679,0.041c1.255,0.112,2.684,0.17,4.274,0.17c1.646,0,2.855-0.045,3.625-0.129
		c0.579-0.082,1.06-0.119,1.447-0.119c0.46,0,0.689,0.17,0.689,0.507c0,0.309-0.229,0.506-0.689,0.598
		c-0.75,0.152-1.264,0.554-1.545,1.19c-0.283,0.646-0.421,1.729-0.421,3.257c0,0.476,0.019,0.901,0.06,1.271
		c0.052,0.645,0.078,1.092,0.078,1.35c0,0.4-0.085,0.688-0.243,0.882c-0.165,0.185-0.486,0.366-0.974,0.544
		c-0.297,0.105-1.316,0.533-3.065,1.292c-3.071,1.321-5.75,1.985-8.031,1.985c-3.475,0-6.31-1.178-8.513-3.525
		c-2.204-2.357-3.301-5.389-3.301-9.119c0-4.164,1.269-7.65,3.814-10.471C184.04,318.252,187.19,316.844,190.953,316.844z
		 M147.427,321.771v4.183c0,1.196,0.085,1.954,0.263,2.276c0.171,0.313,0.593,0.479,1.257,0.479l0.579-0.021l0.849-0.021h1.637
		c1.277,0,2.257-0.703,2.955-2.104l0.441-0.94c0.117-0.229,0.309-0.354,0.578-0.367c0.282-0.013,0.422,0.157,0.422,0.521
		c0,0.104-0.02,0.388-0.061,0.849c-0.025,0.336-0.039,0.62-0.039,0.849c0,0.416,0.061,1.377,0.171,2.896
		c0.078,0.993,0.119,1.854,0.119,2.585l0.02,0.986c0,0.18-0.02,0.303-0.061,0.363c-0.053,0.077-0.151,0.125-0.309,0.139
		c-0.322,0.024-0.521-0.217-0.6-0.731c-0.165-1.101-0.553-1.927-1.156-2.489c-0.331-0.312-0.737-0.51-1.225-0.595
		c-0.48-0.092-1.382-0.139-2.704-0.139h-1.31c-0.618,0-1.033,0.092-1.262,0.276c-0.225,0.19-0.375,0.564-0.448,1.131
		c-0.079,0.639-0.119,1.658-0.119,3.039v1.737c0,1.81,0.139,3.111,0.421,3.915c0.224,0.571,0.48,0.967,0.777,1.17
		c0.295,0.204,0.75,0.309,1.368,0.309c5.209,0,8.624-1.584,10.229-4.762c0.092-0.149,0.165-0.238,0.23-0.25
		c0.131-0.023,0.25,0.014,0.354,0.125c0.113,0.111,0.165,0.25,0.165,0.414c0,1.264-0.343,2.479-1.02,3.663
		c-0.566,1-1.276,1.718-2.118,2.151c-0.85,0.43-1.975,0.645-3.375,0.645c-0.823,0-1.736-0.051-2.736-0.15l-2.236-0.209
		c-0.822-0.08-1.934-0.118-3.335-0.118c-0.935,0-2.36,0.058-4.275,0.17c-0.526,0.041-0.908,0.062-1.139,0.062
		c-0.309,0-0.473-0.146-0.499-0.428c-0.014-0.23,0.132-0.402,0.422-0.521c0.735-0.282,1.229-0.578,1.5-0.895
		c0.263-0.316,0.467-0.875,0.625-1.686c0.139-0.684,0.211-1.605,0.211-2.775v-15.273c0-1.44-0.237-2.416-0.705-2.928
		c-0.468-0.513-1.44-0.875-2.92-1.08c-0.349-0.052-0.521-0.235-0.521-0.56c0-0.295,0.212-0.444,0.638-0.444
		c0.086,0,0.283,0.01,0.58,0.037c0.23,0.014,0.546,0.02,0.94,0.02l1.947,0.072l7.301,0.082c4.204,0,6.795-0.062,7.769-0.173
		c0.105-0.014,0.191-0.021,0.271-0.021c0.375,0,0.559,0.209,0.559,0.638c0,0.297,0.041,0.824,0.119,1.58
		c0.099,1.11,0.151,1.914,0.151,2.405c0,0.975-0.25,1.476-0.75,1.5c-0.243,0.015-0.368-0.27-0.368-0.849
		c0-1.269-0.467-2.194-1.396-2.769c-0.934-0.573-2.439-0.854-4.519-0.854h-2.354l-1.309,0.149c-0.651,0.213-0.981,0.854-0.981,1.945
		L147.427,321.771z M105.375,321.105v6.664c0,0.822,0.104,1.344,0.313,1.561c0.219,0.217,0.717,0.329,1.514,0.329
		c2.29,0,3.705-0.038,4.25-0.125c0.546-0.085,1.06-0.343,1.531-0.784c0.941-0.848,1.408-2.012,1.408-3.505
		c0-1.94-0.631-3.539-1.899-4.808c-1.264-1.267-2.875-1.896-4.822-1.896c-0.875,0-1.474,0.184-1.803,0.546
		C105.539,319.454,105.375,320.125,105.375,321.105z M105.375,336.172c0,2.439,0.223,4.092,0.677,4.958
		c0.448,0.871,1.335,1.363,2.658,1.495c0.538,0.051,0.809,0.255,0.809,0.618c0,0.362-0.217,0.54-0.658,0.54
		c-0.138,0-0.401-0.02-0.789-0.061c-1.104-0.086-2.171-0.132-3.196-0.132c-0.862,0-1.625,0.027-2.295,0.079l-1.618,0.152
		l-1.289,0.115C99.31,343.979,99.061,344,98.915,344c-0.46,0-0.69-0.177-0.69-0.525c0-0.285,0.132-0.461,0.391-0.539
		c0.866-0.271,1.473-0.631,1.808-1.086c0.335-0.461,0.5-1.158,0.5-2.094v-1.835l0.019-0.75v-13.944c0-1.545-0.19-2.578-0.579-3.104
		c-0.631-0.858-1.656-1.381-3.085-1.56c-0.525-0.078-0.789-0.295-0.789-0.656c0-0.363,0.179-0.54,0.539-0.54
		c0.146,0,0.375,0.02,0.698,0.061c0.986,0.097,2.071,0.15,3.256,0.15c1.295,0,2.867-0.072,4.716-0.21
		c2.171-0.164,3.67-0.25,4.492-0.25c2.44,0,4.466,0.665,6.071,1.992c1.605,1.33,2.408,3.008,2.408,5.02
		c0,1.27-0.356,2.43-1.073,3.469c-0.709,1.045-1.69,1.834-2.933,2.375c-0.256,0.098-0.383,0.229-0.368,0.383
		c0.013,0.129,0.078,0.281,0.189,0.465c0.119,0.177,0.29,0.479,0.526,0.902l1.711,3.043l1.986,3.526
		c0.684,1.197,1.289,2.021,1.821,2.487c0.533,0.457,1.157,0.688,1.882,0.688c0.297,0,0.571-0.025,0.827-0.078
		c0.152-0.031,0.298-0.052,0.422-0.052c0.23,0,0.349,0.144,0.349,0.44c0,0.375-0.526,0.795-1.571,1.27
		c-1.046,0.479-1.98,0.717-2.789,0.717c-1.322,0-2.546-0.65-3.659-1.947c-1.117-1.297-2.57-3.75-4.354-7.361
		c-0.696-1.426-1.262-2.328-1.717-2.708c-0.446-0.376-1.177-0.565-2.197-0.565h-1.19l-0.868,0.149
		c-0.191,0.106-0.289,0.417-0.289,0.931L105.375,336.172L105.375,336.172z M71.09,321.98v14.511c0,2.171,0.315,3.711,0.947,4.62
		c0.626,0.906,1.736,1.406,3.335,1.513c0.461,0.038,0.691,0.262,0.691,0.676c0,0.298-0.197,0.441-0.599,0.441
		c-0.093,0-0.251-0.007-0.48-0.021l-1.446-0.059l-2.408-0.148c-0.19-0.018-0.448-0.021-0.771-0.021
		c-0.749,0-1.414,0.021-2.005,0.058l-2.926,0.173l-1.331,0.077c-0.454,0.054-0.763,0.079-0.928,0.079
		c-0.402,0-0.592-0.166-0.579-0.5c0.014-0.283,0.079-0.468,0.191-0.553c0.117-0.085,0.367-0.141,0.755-0.166
		c1-0.064,1.77-0.428,2.314-1.09c0.546-0.661,0.823-1.561,0.823-2.706l-0.021-0.907v-17.116c0-1.014-0.545-1.52-1.638-1.52
		c-2.573,0-4.322,0.184-5.262,0.56c-0.677,0.282-1.131,0.6-1.355,0.954c-0.229,0.354-0.532,1.229-0.921,2.638l-0.15,0.541
		c-0.14,0.524-0.361,0.788-0.651,0.788c-0.427,0-0.625-0.196-0.599-0.598c0.014-0.363,0.079-0.864,0.189-1.502l0.191-1.677
		l0.236-1.717l0.132-1.178c0.053-0.498,0.321-0.75,0.809-0.75c0.132,0,0.349,0.014,0.658,0.041c0.499,0.038,1.211,0.051,2.137,0.051
		l3.935,0.041l4.683,0.06c3.02,0,6.216-0.085,9.597-0.251c0.665-0.024,1.1-0.038,1.291-0.038c0.703,0,1.078,0.296,1.118,0.889
		l0.099,1.39c0.008,0.217,0.072,0.734,0.191,1.558c0.085,0.685,0.131,1.231,0.131,1.638c0,0.428-0.171,0.639-0.519,0.639
		c-0.297,0-0.5-0.244-0.619-0.735c-0.271-1.188-0.79-2.054-1.552-2.585c-0.764-0.526-1.868-0.79-3.321-0.79
		c-1.954,0-3.17,0.151-3.651,0.454C71.333,320.041,71.09,320.791,71.09,321.98z"/>
	<path display="inline" fill="#324A51" d="M436.558,321.391v16.926l0.229,1.748c0.43,1.492,2.014,2.237,4.764,2.237
		c2.979,0,5.341-1.034,7.091-3.093c1.744-2.062,2.619-4.848,2.619-8.354c0-3.679-1.054-6.67-3.15-8.986
		c-2.1-2.309-4.813-3.465-8.145-3.465c-1.361,0-2.289,0.177-2.789,0.537C436.761,319.227,436.558,320.041,436.558,321.391
		 M432.123,322.436c0-1.236-0.342-2.185-1.021-2.854c-0.684-0.663-1.651-0.999-2.896-0.999c-0.4,0-0.599-0.172-0.599-0.508
		c0-0.229,0.085-0.381,0.25-0.452c0.165-0.074,0.532-0.104,1.099-0.104l2.929,0.039c0.67,0,1.27-0.015,1.795-0.039
		c0.81-0.055,1.92-0.14,3.335-0.271c1.901-0.178,3.408-0.27,4.526-0.27c4.36,0,7.847,1.109,10.479,3.342
		c2.624,2.229,3.939,5.197,3.939,8.898c0,4.764-1.771,8.566-5.304,11.387c-2.592,2.071-5.519,3.105-8.769,3.105
		c-0.539,0-1.624-0.055-3.256-0.152c-0.929-0.054-1.875-0.078-2.854-0.078c-2.282,0-3.81,0.065-4.564,0.19
		c-0.593,0.104-0.987,0.157-1.198,0.157c-0.295,0-0.44-0.184-0.44-0.559c0-0.265,0.159-0.42,0.48-0.488
		c0.795-0.149,1.342-0.479,1.63-0.979c0.29-0.506,0.436-1.36,0.436-2.585L432.123,322.436L432.123,322.436z M394.064,321.699
		l10.201,11.443l0.658,0.737c0.875,0.976,1.454,1.459,1.749,1.459c0.271,0,0.422-0.387,0.447-1.17
		c0.112-2.843,0.171-5.546,0.171-8.118c0-3.018-0.304-5.056-0.915-6.131c-0.611-1.064-1.81-1.654-3.592-1.788
		c-0.428-0.026-0.639-0.172-0.639-0.446c0-0.336,0.186-0.5,0.561-0.5c0.461,0,1.211,0.064,2.236,0.189
		c0.671,0.079,1.224,0.119,1.657,0.119c0.889,0,2.295-0.125,4.224-0.369c0.257-0.025,0.447-0.041,0.561-0.041
		c0.414,0,0.617,0.18,0.617,0.542c0,0.322-0.203,0.515-0.617,0.577c-1.658,0.312-2.487,1.783-2.487,4.414v0.947l-0.271,12.045
		l-0.078,1.656l-0.021,2.146l0.021,1.466l0.078,2.406c0,0.36-0.131,0.534-0.389,0.521c-0.229-0.015-0.467-0.152-0.71-0.422
		l-17.55-19.492c-0.311-0.336-0.521-0.5-0.639-0.5c-0.31,0-0.46,0.289-0.46,0.861l-0.021,0.561v7.479
		c0,3.998,0.197,6.67,0.599,8.017c0.423,1.441,1.679,2.256,3.757,2.447c0.388,0.04,0.58,0.197,0.58,0.488
		c0,0.38-0.198,0.578-0.6,0.578c-0.152,0-0.402-0.025-0.75-0.079c-1.079-0.177-2.275-0.269-3.593-0.269
		c-1.295,0-2.452,0.099-3.466,0.289c-0.455,0.077-0.782,0.117-0.986,0.117c-0.349,0-0.52-0.158-0.52-0.468
		c0-0.255,0.185-0.435,0.56-0.539c0.94-0.271,1.624-0.821,2.053-1.663c0.434-0.842,0.646-2.053,0.646-3.637l0.137-4.586v-8.362
		c0-3.953-1.46-6.037-4.375-6.239c-0.398-0.027-0.599-0.187-0.599-0.488c0-0.362,0.217-0.539,0.657-0.539l1.328,0.061l0.81-0.021
		c1.007,0,2.08-0.06,3.224-0.172c0.421-0.039,0.776-0.058,1.061-0.058c0.399,0,0.71,0.085,0.946,0.263
		c0.229,0.172,0.718,0.697,1.46,1.586l1.328,1.56C393.643,321.198,393.959,321.574,394.064,321.699z M356.149,331.552l-2.52-5.899
		c-0.604-1.407-1.033-2.116-1.288-2.116c-0.158,0-0.441,0.458-0.851,1.366l-0.368,0.81l-2.25,5.146l-0.21,0.479
		c-0.093,0.199-0.139,0.362-0.139,0.501c0,0.439,0.461,0.658,1.388,0.658h5.696c0.494,0,0.736-0.141,0.736-0.41
		c0-0.059-0.031-0.17-0.099-0.32L356.149,331.552z M355.419,319.48l8.77,20.136c0.434,1.014,0.953,1.776,1.538,2.278
		c0.593,0.5,1.362,0.834,2.296,0.998c0.229,0.041,0.349,0.217,0.349,0.541c0,0.349-0.145,0.519-0.439,0.506
		c-0.171-0.016-0.415-0.054-0.736-0.112c-0.986-0.218-2.585-0.329-4.781-0.329c-2.211,0-3.718,0.102-4.514,0.291
		c-0.191,0.051-0.354,0.078-0.5,0.078c-0.361,0-0.54-0.178-0.54-0.54c0-0.185,0.146-0.315,0.428-0.407
		c0.612-0.177,1.125-0.499,1.533-0.96c0.4-0.468,0.604-0.954,0.604-1.468c0-0.717-0.561-2.295-1.679-4.736
		c-0.342-0.75-0.724-1.177-1.146-1.283c-0.413-0.111-1.895-0.162-4.438-0.162h-2.618l-1.729,0.31
		c-0.479,0.217-1.021,1.063-1.618,2.538l-0.6,1.488c-0.178,0.42-0.271,0.849-0.271,1.289c0,1.617,1.132,2.551,3.396,2.81
		c0.484,0.063,0.724,0.249,0.709,0.557c-0.025,0.337-0.256,0.509-0.696,0.509c-0.229,0-0.56-0.041-0.979-0.119
		c-0.85-0.166-1.605-0.25-2.275-0.25c-0.604,0-1.578,0.063-2.935,0.189c-1,0.104-1.625,0.159-1.869,0.159
		c-0.361,0-0.54-0.159-0.54-0.47c0-0.254,0.179-0.446,0.54-0.576c0.696-0.219,1.25-0.62,1.671-1.204
		c0.414-0.586,1.033-1.813,1.854-3.69l5.265-12.139c0.427-0.958,0.725-1.623,0.888-1.979l1.789-3.685
		c0.619-1.204,0.929-1.809,0.929-1.809c0,0.041,0,0.058,0,0.058s0.104-0.24,0.31-0.729c0.204-0.48,0.375-0.723,0.521-0.723
		c0.205,0,0.561,0.539,1.061,1.618L355.419,319.48z M312.695,337.658c0,2.402,0.29,3.749,0.869,4.044
		c0.321,0.166,0.947,0.251,1.888,0.251c4.36,0,7.46-1.283,9.282-3.848c0.552-0.783,0.9-1.182,1.045-1.182
		c0.229,0,0.35,0.266,0.35,0.79c0,1.634-0.533,3.093-1.599,4.376c-0.94,1.131-2.217,1.697-3.835,1.697
		c-0.335,0-0.948-0.034-1.829-0.1c-0.229-0.014-1.007-0.062-2.314-0.133l-2.101-0.098c-0.709-0.041-1.512-0.059-2.405-0.059
		c-1.493,0-3.1,0.104-4.822,0.31c-0.525,0.065-0.881,0.099-1.06,0.099c-0.375,0-0.56-0.166-0.56-0.5c0-0.238,0.165-0.395,0.5-0.485
		c0.822-0.23,1.388-0.679,1.703-1.345c0.316-0.656,0.475-1.739,0.475-3.242v-16.107c0-2.061-0.855-3.223-2.565-3.494l-1.157-0.189
		c-0.486-0.077-0.73-0.27-0.73-0.579c0-0.388,0.191-0.578,0.579-0.578c0.125,0,0.314,0.019,0.561,0.06
		c0.179,0.012,0.429,0.039,0.75,0.08l0.829,0.051c0.781,0.078,1.367,0.119,1.756,0.119c0.619,0,1.601-0.078,2.947-0.229
		c1.007-0.105,2.024-0.157,3.064-0.157c0.771,0,1.157,0.177,1.157,0.54c0,0.314-0.275,0.479-0.83,0.506
		c-1.296,0.094-1.946,0.979-1.946,2.678L312.695,337.658L312.695,337.658z M275.598,337.658c0,2.402,0.288,3.749,0.867,4.044
		c0.323,0.166,0.947,0.251,1.889,0.251c4.36,0,7.459-1.283,9.28-3.848c0.554-0.783,0.902-1.182,1.046-1.182
		c0.23,0,0.35,0.266,0.35,0.79c0,1.634-0.533,3.093-1.6,4.376c-0.938,1.131-2.216,1.697-3.834,1.697c-0.336,0-0.947-0.034-1.83-0.1
		c-0.229-0.014-1.006-0.062-2.312-0.133l-2.102-0.098c-0.709-0.041-1.513-0.059-2.406-0.059c-1.492,0-3.098,0.104-4.82,0.31
		c-0.526,0.065-0.882,0.099-1.061,0.099c-0.375,0-0.56-0.166-0.56-0.5c0-0.238,0.165-0.395,0.499-0.485
		c0.823-0.23,1.389-0.679,1.705-1.345c0.313-0.656,0.473-1.739,0.473-3.242v-16.107c0-2.061-0.854-3.223-2.563-3.494l-1.158-0.189
		c-0.486-0.077-0.729-0.27-0.729-0.579c0-0.388,0.19-0.578,0.578-0.578c0.125,0,0.315,0.019,0.562,0.06
		c0.177,0.012,0.427,0.039,0.75,0.08l0.829,0.051c0.781,0.078,1.367,0.119,1.757,0.119c0.616,0,1.599-0.078,2.944-0.229
		c1.007-0.105,2.026-0.157,3.065-0.157c0.771,0,1.158,0.177,1.158,0.54c0,0.314-0.276,0.479-0.829,0.506
		c-1.296,0.094-1.947,0.979-1.947,2.678V337.658L275.598,337.658z M241.753,317.113c0.086-0.014,0.237,0.006,0.44,0.06
		c0.218,0.041,0.725,0.079,1.526,0.112l2.039,0.099l1.888-0.081c0.646-0.051,1.21-0.103,1.697-0.17
		c0.23-0.027,0.448-0.037,0.638-0.037c0.349,0,0.521,0.162,0.521,0.498c0,0.262-0.158,0.414-0.481,0.469l-0.735,0.129
		c-1,0.173-1.499,1.246-1.499,3.227l0.019,1.677l-0.04,2.368c0,3.711-0.185,6.703-0.546,8.979c-0.368,2.269-0.954,4.023-1.77,5.254
		c-1.935,2.994-5.225,4.492-9.86,4.492c-3.276,0-5.822-0.617-7.63-1.849c-2.454-1.683-3.685-4.946-3.685-9.788l0.21-7.453
		l-0.058-3.512c0-0.869-0.086-1.486-0.257-1.85c-0.171-0.354-0.533-0.664-1.072-0.922c-0.625-0.295-1.335-0.498-2.117-0.617
		c-0.5-0.079-0.751-0.271-0.751-0.578c0-0.336,0.218-0.508,0.658-0.508c0.139,0,0.402,0.02,0.789,0.06
		c1.625,0.149,2.889,0.229,3.769,0.229c1.265,0,2.651-0.073,4.186-0.211c0.611-0.054,1.059-0.078,1.329-0.078
		c0.664,0,1,0.186,1,0.56c0,0.204-0.053,0.349-0.151,0.427c-0.104,0.078-0.348,0.152-0.736,0.23
		c-0.781,0.152-1.31,0.447-1.578,0.875c-0.271,0.434-0.434,1.27-0.5,2.52l-0.309,4.855l0.039,3.406c0,3.111,0.164,5.322,0.494,6.643
		c0.328,1.316,1.006,2.441,2.032,3.382c1.552,1.429,3.545,2.138,5.973,2.138c2.479,0,4.486-0.729,6.012-2.197
		c1.033-0.985,1.757-2.434,2.19-4.333c0.428-1.9,0.645-4.632,0.645-8.189v-1.565l-0.098-3.946c-0.073-1.198-0.448-2.125-1.118-2.782
		c-0.665-0.665-1.571-0.994-2.717-0.994c-0.499,0-0.75-0.188-0.75-0.565C241.385,317.279,241.51,317.126,241.753,317.113z
		 M190.953,316.844c2.144,0,4.655,0.625,7.537,1.869c0.73,0.309,1.196,0.465,1.401,0.465c0.185,0,0.342-0.063,0.486-0.188
		l0.211-0.197c0.125-0.125,0.283-0.197,0.46-0.21c0.388-0.014,0.579,0.217,0.579,0.688l-0.02,1.352l-0.08,2.645l0.06,1.389
		c0.026,0.343,0.065,0.719,0.119,1.111c0.014,0.158,0.021,0.27,0.021,0.35c0,0.414-0.198,0.604-0.6,0.58
		c-0.27-0.014-0.446-0.285-0.538-0.812c-0.257-1.54-1.072-3.046-2.448-4.523c-1.939-2.08-4.282-3.119-7.033-3.119
		c-2.615,0-4.715,1.033-6.287,3.092c-1.571,2.059-2.36,4.811-2.36,8.236c0,3.67,0.809,6.762,2.433,9.273
		c1.625,2.506,3.625,3.764,6,3.764c0.711,0,1.605-0.158,2.697-0.476c1.091-0.31,1.92-0.657,2.485-1.024
		c0.514-0.334,0.868-0.822,1.072-1.469c0.197-0.638,0.295-1.63,0.295-2.979c0-1.54-0.275-2.612-0.827-3.203
		c-0.554-0.602-1.586-0.938-3.099-1.016c-0.401-0.025-0.6-0.209-0.6-0.56c0-0.347,0.229-0.526,0.689-0.526
		c0.146,0,0.369,0.015,0.679,0.041c1.255,0.112,2.684,0.17,4.274,0.17c1.646,0,2.855-0.045,3.625-0.129
		c0.579-0.082,1.06-0.119,1.447-0.119c0.46,0,0.689,0.17,0.689,0.507c0,0.309-0.229,0.506-0.689,0.598
		c-0.75,0.152-1.264,0.554-1.545,1.19c-0.283,0.646-0.421,1.729-0.421,3.257c0,0.476,0.019,0.901,0.06,1.271
		c0.052,0.645,0.078,1.092,0.078,1.35c0,0.4-0.085,0.688-0.243,0.882c-0.165,0.185-0.486,0.366-0.974,0.544
		c-0.297,0.105-1.316,0.533-3.065,1.292c-3.071,1.321-5.75,1.985-8.031,1.985c-3.475,0-6.31-1.178-8.513-3.525
		c-2.204-2.357-3.301-5.389-3.301-9.119c0-4.164,1.269-7.65,3.814-10.471C184.04,318.252,187.19,316.844,190.953,316.844z
		 M147.427,321.771v4.183c0,1.196,0.085,1.954,0.263,2.276c0.171,0.313,0.593,0.479,1.257,0.479l0.579-0.021l0.849-0.021h1.637
		c1.277,0,2.257-0.703,2.955-2.104l0.441-0.94c0.117-0.229,0.309-0.354,0.578-0.367c0.282-0.013,0.422,0.157,0.422,0.521
		c0,0.104-0.02,0.388-0.061,0.849c-0.025,0.336-0.039,0.62-0.039,0.849c0,0.416,0.061,1.377,0.171,2.896
		c0.078,0.993,0.119,1.854,0.119,2.585l0.02,0.986c0,0.18-0.02,0.303-0.061,0.363c-0.053,0.077-0.151,0.125-0.309,0.139
		c-0.322,0.024-0.521-0.217-0.6-0.731c-0.165-1.101-0.553-1.927-1.156-2.489c-0.331-0.312-0.737-0.51-1.225-0.595
		c-0.48-0.092-1.382-0.139-2.704-0.139h-1.31c-0.618,0-1.033,0.092-1.262,0.276c-0.225,0.19-0.375,0.564-0.448,1.131
		c-0.079,0.639-0.119,1.658-0.119,3.039v1.737c0,1.81,0.139,3.111,0.421,3.915c0.224,0.571,0.48,0.967,0.777,1.17
		c0.295,0.204,0.75,0.309,1.368,0.309c5.209,0,8.624-1.584,10.229-4.762c0.092-0.149,0.165-0.238,0.23-0.25
		c0.131-0.023,0.25,0.014,0.354,0.125c0.113,0.111,0.165,0.25,0.165,0.414c0,1.264-0.343,2.479-1.02,3.663
		c-0.566,1-1.276,1.718-2.118,2.151c-0.85,0.43-1.975,0.645-3.375,0.645c-0.823,0-1.736-0.051-2.736-0.15l-2.236-0.209
		c-0.822-0.08-1.934-0.118-3.335-0.118c-0.935,0-2.36,0.058-4.275,0.17c-0.526,0.041-0.908,0.062-1.139,0.062
		c-0.309,0-0.473-0.146-0.499-0.428c-0.014-0.23,0.132-0.402,0.422-0.521c0.735-0.282,1.229-0.578,1.5-0.895
		c0.263-0.316,0.467-0.875,0.625-1.686c0.139-0.684,0.211-1.605,0.211-2.775v-15.273c0-1.44-0.237-2.416-0.705-2.928
		c-0.468-0.513-1.44-0.875-2.92-1.08c-0.349-0.052-0.521-0.235-0.521-0.56c0-0.295,0.212-0.444,0.638-0.444
		c0.086,0,0.283,0.01,0.58,0.037c0.23,0.014,0.546,0.02,0.94,0.02l1.947,0.072l7.301,0.082c4.204,0,6.795-0.062,7.769-0.173
		c0.105-0.014,0.191-0.021,0.271-0.021c0.375,0,0.559,0.209,0.559,0.638c0,0.297,0.041,0.824,0.119,1.58
		c0.099,1.11,0.151,1.914,0.151,2.405c0,0.975-0.25,1.476-0.75,1.5c-0.243,0.015-0.368-0.27-0.368-0.849
		c0-1.269-0.467-2.194-1.396-2.769c-0.934-0.573-2.439-0.854-4.519-0.854h-2.354l-1.309,0.149c-0.651,0.213-0.981,0.854-0.981,1.945
		L147.427,321.771z M105.375,321.105v6.664c0,0.822,0.104,1.344,0.313,1.561c0.219,0.217,0.717,0.329,1.514,0.329
		c2.29,0,3.705-0.038,4.25-0.125c0.546-0.085,1.06-0.343,1.531-0.784c0.941-0.848,1.408-2.012,1.408-3.505
		c0-1.94-0.631-3.539-1.899-4.808c-1.264-1.267-2.875-1.896-4.822-1.896c-0.875,0-1.474,0.184-1.803,0.546
		C105.539,319.454,105.375,320.125,105.375,321.105z M105.375,336.172c0,2.439,0.223,4.092,0.677,4.958
		c0.448,0.871,1.335,1.363,2.658,1.495c0.538,0.051,0.809,0.255,0.809,0.618c0,0.362-0.217,0.54-0.658,0.54
		c-0.138,0-0.401-0.02-0.789-0.061c-1.104-0.086-2.171-0.132-3.196-0.132c-0.862,0-1.625,0.027-2.295,0.079l-1.618,0.152
		l-1.289,0.115C99.31,343.979,99.061,344,98.915,344c-0.46,0-0.69-0.177-0.69-0.525c0-0.285,0.132-0.461,0.391-0.539
		c0.866-0.271,1.473-0.631,1.808-1.086c0.335-0.461,0.5-1.158,0.5-2.094v-1.835l0.019-0.75v-13.944c0-1.545-0.19-2.578-0.579-3.104
		c-0.631-0.858-1.656-1.381-3.085-1.56c-0.525-0.078-0.789-0.295-0.789-0.656c0-0.363,0.179-0.54,0.539-0.54
		c0.146,0,0.375,0.02,0.698,0.061c0.986,0.097,2.071,0.15,3.256,0.15c1.295,0,2.867-0.072,4.716-0.21
		c2.171-0.164,3.67-0.25,4.492-0.25c2.44,0,4.466,0.665,6.071,1.992c1.605,1.33,2.408,3.008,2.408,5.02
		c0,1.27-0.356,2.43-1.073,3.469c-0.709,1.045-1.69,1.834-2.933,2.375c-0.256,0.098-0.383,0.229-0.368,0.383
		c0.013,0.129,0.078,0.281,0.189,0.465c0.119,0.177,0.29,0.479,0.526,0.902l1.711,3.043l1.986,3.526
		c0.684,1.197,1.289,2.021,1.821,2.487c0.533,0.457,1.157,0.688,1.882,0.688c0.297,0,0.571-0.025,0.827-0.078
		c0.152-0.031,0.298-0.052,0.422-0.052c0.23,0,0.349,0.144,0.349,0.44c0,0.375-0.526,0.795-1.571,1.27
		c-1.046,0.479-1.98,0.717-2.789,0.717c-1.322,0-2.546-0.65-3.659-1.947c-1.117-1.297-2.57-3.75-4.354-7.361
		c-0.696-1.426-1.262-2.328-1.717-2.708c-0.446-0.376-1.177-0.565-2.197-0.565h-1.19l-0.868,0.149
		c-0.191,0.106-0.289,0.417-0.289,0.931L105.375,336.172L105.375,336.172z M71.09,321.98v14.511c0,2.171,0.315,3.711,0.947,4.62
		c0.626,0.906,1.736,1.406,3.335,1.513c0.461,0.038,0.691,0.262,0.691,0.676c0,0.298-0.197,0.441-0.599,0.441
		c-0.093,0-0.251-0.007-0.48-0.021l-1.446-0.059l-2.408-0.148c-0.19-0.018-0.448-0.021-0.771-0.021
		c-0.749,0-1.414,0.021-2.005,0.058l-2.926,0.173l-1.331,0.077c-0.454,0.054-0.763,0.079-0.928,0.079
		c-0.402,0-0.592-0.166-0.579-0.5c0.014-0.283,0.079-0.468,0.191-0.553c0.117-0.085,0.367-0.141,0.755-0.166
		c1-0.064,1.77-0.428,2.314-1.09c0.546-0.661,0.823-1.561,0.823-2.706l-0.021-0.907v-17.116c0-1.014-0.545-1.52-1.638-1.52
		c-2.573,0-4.322,0.184-5.262,0.56c-0.677,0.282-1.131,0.6-1.355,0.954c-0.229,0.354-0.532,1.229-0.921,2.638l-0.15,0.541
		c-0.14,0.524-0.361,0.788-0.651,0.788c-0.427,0-0.625-0.196-0.599-0.598c0.014-0.363,0.079-0.864,0.189-1.502l0.191-1.677
		l0.236-1.717l0.132-1.178c0.053-0.498,0.321-0.75,0.809-0.75c0.132,0,0.349,0.014,0.658,0.041c0.499,0.038,1.211,0.051,2.137,0.051
		l3.935,0.041l4.683,0.06c3.02,0,6.216-0.085,9.597-0.251c0.665-0.024,1.1-0.038,1.291-0.038c0.703,0,1.078,0.296,1.118,0.889
		l0.099,1.39c0.008,0.217,0.072,0.734,0.191,1.558c0.085,0.685,0.131,1.231,0.131,1.638c0,0.428-0.171,0.639-0.519,0.639
		c-0.297,0-0.5-0.244-0.619-0.735c-0.271-1.188-0.79-2.054-1.552-2.585c-0.764-0.526-1.868-0.79-3.321-0.79
		c-1.954,0-3.17,0.151-3.651,0.454C71.333,320.041,71.09,320.791,71.09,321.98z"/>
	<g display="inline">
		<g>
			<g>
				<defs>
					<rect id="SVGID_1_" x="56" y="167.811" width="400" height="122.71"/>
				</defs>
				<clipPath id="SVGID_2_">
					<use xlink:href="#SVGID_1_"  overflow="visible"/>
				</clipPath>
				<path clip-path="url(#SVGID_2_)" fill="#E36500" d="M455.991,258.99l-0.001-91.179H56l-0.01,89.957l36.281-5.71
					c1.577,0.002,12.001-3.201,14.025-3.57c5.822,0.262,9.011,1.88,13.672-0.786c7.353-4.199,15.018-10.99,22.346-14.347
					c1.431-0.651,7.65-4.121,9.945-4.374c0.758-0.083,1.755,0.588,2.319,1.041c0.691,0.553,1.405,1.184,1.979,1.184
					c1.002,0.298,1.946-1.994,3.038-3.156c0.494-0.526,1.392-0.833,1.878-0.555c0.985,0.394,2.622,1.732,3.737,2.467
					c1.035,0.678,1.191,0.244,2.285,0.275c2.854,0.087,4.574,3.156,7.797,3.828c1.814,0.392,13.485,8.46,17.606,8.568
					c5.393-0.618,43.103,18.304,90.288,15.564c3.494-0.099,22.866-3.646,27.127-3.712c6.991,0,13.782-2.37,20.574-4.284
					c0-0.371,18.557-5.998,22.521-5.998c2.867-0.289,14.785,4.917,21.189,1.716c2.097-0.721,2.619,1.493,4.082,1.421
					c2.795,0.318,6.981,2.209,9.228,1.719c1.26-1.13,3.263-1.003,5.017-1.003c1.833,0.02,5.629,2.415,8.369,3.134
					c1.579,0.414,2.036-0.005,3.344-0.569c0.801-0.345,1.796-0.707,2.002-0.707c1.396-0.23,3.156,1.479,5.429,0.857
					c0.824-0.38,9.192,2.847,10.852,3.141c2.863,0.259,11.807,4.358,15.764,4.146c3.353,2.678,6.928-0.354,10.135-0.146
					C448.814,257.632,454.933,258.948,455.991,258.99"/>
			</g>
		</g>
		<g>
			<g>
				<defs>
					<rect id="SVGID_3_" x="56" y="167.811" width="400" height="122.71"/>
				</defs>
				<clipPath id="SVGID_4_">
					<use xlink:href="#SVGID_3_"  overflow="visible"/>
				</clipPath>
				<path clip-path="url(#SVGID_4_)" fill="#C19500" d="M55.991,268.959l28.221-3.792l0.06-0.007h0.073
					c1.248,0,4.392-0.651,7.377-1.271h0.003c2.433-0.502,4.767-0.988,6.05-1.104l0.065-0.004h0.053
					c1.473,0.047,2.728,0.156,3.906,0.257c3.213,0.278,5.89,0.506,8.981-0.716v0.002c2.633-1.176,5.324-2.666,8.017-4.161
					c2.543-1.408,5.093-2.823,7.628-3.993c1.154-0.533,2.305-1.014,3.449-1.423l0.058-0.018l0.075-0.018
					c0.768-0.154,2.025-0.591,3.419-1.072v-0.002c2.346-0.811,5.051-1.741,6.939-1.84c1.532-0.076,3.254,0.4,4.701,0.835
					c1.036,0.311,2.075,0.625,2.97,0.625l0.068,0.004c1.689,0.123,3.472-0.551,5.238-1.218c2.118-0.799,4.22-1.594,6.453-1.247
					h0.017c1.058,0.181,2.247,0.613,3.411,1.034c1.507,0.544,2.972,1.074,3.584,0.897l0.079-0.022l0.058-0.009
					c2.464-0.356,4.371,0.423,6.361,1.238c1.26,0.515,2.562,1.045,4.013,1.237c1.249,0.139,3.52,1.157,6.094,2.31
					c3.417,1.531,7.402,3.322,9.626,3.393c1.626-0.121,4.911,0.856,9.635,2.269c11.424,3.408,31.511,9.399,54.726,8.108h0.039
					c1.709-0.026,5.859-0.58,10.174-1.149c4.801-0.636,9.807-1.301,12.084-1.323h0.009c4.969,0,9.907-1.104,14.829-2.206
					c1.093-0.242,2.279-0.51,2.847-0.633l0.035-0.006c0.299-0.052,1.325-0.31,2.752-0.666c4.641-1.16,13.418-3.351,16.601-3.351
					v0.005c1.239-0.059,3.07,0.297,5.213,0.717c4.029,0.787,9.243,1.803,12.729,0.489l0.088-0.032l0.095-0.017
					c1.815-0.312,3.042,0.021,4.256,0.349v0.004c0.758,0.207,1.515,0.412,2.381,0.396h0.083c1.366,0.09,2.93,0.383,4.507,0.679
					c2.164,0.407,4.366,0.821,5.938,0.669c2.147-0.694,4.621-0.69,7.006-0.683h0.714h0.003c1.431,0.009,3.208,0.548,5.04,1.104
					c0.979,0.295,1.978,0.601,2.907,0.813c2.281,0.528,5.062,0.049,7.346-0.194c2.202-0.234,4.55-0.488,6.349-0.488v0.002
					c1.707-0.065,3.419,0.123,5.186,0.315h0.003c2.147,0.235,4.388,0.481,6.669,0.263l0.02-0.006
					c1.998-0.152,5.565,0.488,9.018,1.108c2.555,0.457,5.044,0.903,6.672,0.985v0.002c2.147,0.08,5.045,0.662,8.093,1.274
					c3.76,0.756,7.768,1.562,10.681,1.486l0.188-0.007l0.17,0.061c2.987,1.064,6.139,0.662,9.244,0.27
					c1.822-0.232,3.637-0.461,5.447-0.418c1.633-0.109,4.5,0.123,7.334,0.352c2.207,0.179,4.399,0.355,5.854,0.367l-0.017,1.992
					c-1.608-0.013-3.795-0.19-5.995-0.367c-2.771-0.225-5.573-0.45-7.049-0.352l-0.027,0.002l-0.065-0.002
					c-1.696-0.049-3.46,0.176-5.233,0.401c-3.289,0.418-6.626,0.846-9.995-0.302c-3.106,0.045-7.139-0.77-10.926-1.528
					c-2.974-0.599-5.796-1.167-7.786-1.24h-0.011c-1.739-0.084-4.303-0.546-6.932-1.019c-3.315-0.594-6.745-1.208-8.516-1.074
					v-0.002c-2.489,0.236-4.818-0.02-7.054-0.266c-1.712-0.188-3.37-0.368-4.933-0.305l-0.04,0.002
					c-1.737,0-4.008,0.244-6.138,0.477c-2.585,0.273-5.25,0.761-7.816,0.191c-1.053-0.232-2.149-0.565-3.227-0.894
					c-1.688-0.511-3.329-1.011-4.468-1.017h-0.709c-2.262-0.006-4.606-0.015-6.478,0.619l-0.104,0.034l-0.107,0.013
					c-1.863,0.211-4.268-0.239-6.626-0.685c-1.499-0.278-2.984-0.562-4.235-0.646c-1.125,0.017-2.005-0.227-2.889-0.467
					l-0.001,0.004c-0.985-0.269-1.98-0.537-3.312-0.322c-4.01,1.459-9.478,0.39-13.716-0.438c-2.044-0.397-3.788-0.737-4.772-0.684
					l-0.057,0.004c-2.947,0-11.562,2.149-16.115,3.286c-1.436,0.359-2.481,0.622-2.869,0.693c-1.313,0.281-2.021,0.442-2.819,0.617
					c-5.02,1.125-10.059,2.254-15.251,2.254c-2.146,0.022-7.097,0.678-11.84,1.309c-4.338,0.572-8.511,1.128-10.362,1.166
					c-23.568,1.31-43.863-4.743-55.405-8.188c-4.531-1.352-7.679-2.289-8.927-2.187l-0.017,0.002l-0.081-0.002
					c-2.622-0.047-6.857-1.945-10.479-3.568c-2.44-1.092-4.592-2.057-5.508-2.149l-0.031-0.004c-1.7-0.224-3.125-0.806-4.504-1.37
					c-1.716-0.703-3.362-1.372-5.28-1.113c-1.237,0.307-2.958-0.317-4.73-0.96c-1.079-0.39-2.181-0.79-3.069-0.942l0,0
					c-1.7-0.26-3.559,0.441-5.429,1.148c-1.958,0.738-3.932,1.484-6.033,1.343c-1.173-0.002-2.347-0.358-3.519-0.709
					c-0.968-0.291-3.108-0.913-4.284-0.794c-1.411,0.143-3.951,1.023-6.138,1.775l-0.001-0.004c-1.426,0.492-2.721,0.94-3.588,1.128
					c-3.507,1.256-7.118,3.261-10.721,5.254c-2.748,1.523-5.493,3.045-8.215,4.258l-0.042,0.02c-3.528,1.393-6.409,1.146-9.872,0.85
					c-1.193-0.104-2.462-0.211-3.75-0.256c-1.16,0.113-3.411,0.582-5.757,1.066l0,0c-3.029,0.629-6.219,1.292-7.717,1.311
					l-28.42,3.801v-1.988H55.991z"/>
			</g>
		</g>
		<g>
			<g>
				<defs>
					<rect id="SVGID_5_" x="56" y="167.811" width="400" height="122.71"/>
				</defs>
				<clipPath id="SVGID_6_">
					<use xlink:href="#SVGID_5_"  overflow="visible"/>
				</clipPath>
				<path clip-path="url(#SVGID_6_)" fill="#C19500" d="M167.587,262.133h-0.002 M55.991,273.85l24.277-2.843l0.034-0.004h0.08
					c1.48,0,4.343-0.472,7.112-0.929c2.351-0.391,4.646-0.77,6.091-0.855h0.083c1.354,0.033,2.546,0.112,3.682,0.188
					c3.203,0.21,5.987,0.394,9.092-0.544v0.002c2.427-0.889,4.873-2.004,7.321-3.118c3.372-1.536,6.754-3.075,10.112-4.056
					l0.071-0.021l0.054-0.007l0.023-0.004c0.953-0.125,2.376-0.5,3.895-0.9c4.352-1.144,7.664-1.473,12.034-0.666
					c1.306,0.241,2.617,0.482,3.823,0.482h0.038c2.291,0.099,4.65-0.421,6.995-0.935c2.647-0.582,5.286-1.162,8.009-0.918h0.019
					c1.195,0.127,2.492,0.441,3.771,0.75c1.785,0.434,3.541,0.855,4.683,0.682l0.047-0.006c2.472-0.258,4.521,0.326,6.635,0.926
					c1.359,0.387,2.753,0.785,4.232,0.931v-0.002c1.457,0.097,3.787,0.947,6.333,1.875c3.062,1.119,6.459,2.359,8.608,2.408
					c1.62-0.097,4.646,0.733,8.867,1.896c9.374,2.578,24.834,6.828,42.523,5.887h0.039c1.771-0.021,5.452-0.445,9.24-0.881
					c4.096-0.472,8.321-0.957,10.581-0.976l0.004-0.004c4.621,0,9.186-0.826,13.733-1.649l2.632-0.477l0.086-0.007
					c0.653-0.058,2.516-0.445,4.797-0.917c4.299-0.895,10.071-2.092,12.8-2.092v0.005c1.32-0.048,3.138,0.241,5.193,0.571
					c3.66,0.586,8.138,1.303,11.36,0.325l0.079-0.021l0.098-0.014c1.916-0.221,3.424,0.02,4.921,0.254
					c1.026,0.164,2.053,0.323,3.171,0.312h0.056c1.459,0.064,3.059,0.287,4.666,0.509c2.249,0.31,4.526,0.621,6.329,0.494
					c2.529-0.515,5.327-0.513,8.055-0.506h0.831h0.003c1.535,0.007,3.332,0.414,5.164,0.831c2.265,0.512,4.593,1.041,6.232,0.754
					l0.056-0.009l0.095-0.003c1.736-0.041,3.8-0.17,5.91-0.301c2.799-0.17,5.683-0.349,8.146-0.349v0.005
					c2.229-0.052,4.451,0.092,6.711,0.236c2.757,0.177,5.579,0.359,8.444,0.191h0.02c2.658-0.108,6.438,0.353,10.147,0.807
					c2.883,0.352,5.728,0.701,7.843,0.763c2.605,0.062,5.779,0.515,9.06,0.985c3.921,0.562,8.005,1.146,11.282,1.087h0.128
					l0.109,0.024c3.58,0.818,7.289,0.514,10.962,0.213c2.106-0.172,4.21-0.347,6.351-0.311c2.375-0.081,5.669,0.094,8.942,0.264
					c2.583,0.133,5.158,0.269,7.182,0.275l-0.01,1.992c-2.127-0.01-4.696-0.145-7.273-0.276c-3.24-0.168-6.504-0.339-8.777-0.263
					h-0.047c-2.003-0.036-4.104,0.136-6.21,0.311c-3.785,0.311-7.604,0.625-11.455-0.235c-3.432,0.042-7.526-0.542-11.464-1.106
					c-3.24-0.463-6.373-0.91-8.824-0.969h-0.008c-2.279-0.066-5.136-0.417-8.032-0.771c-3.634-0.444-7.34-0.896-9.808-0.799v0.002
					c-2.991,0.174-5.875-0.012-8.688-0.191c-2.244-0.146-4.449-0.287-6.565-0.237l-0.021,0.004c-2.477,0-5.294,0.172-8.026,0.34
					c-2.055,0.125-4.065,0.255-5.899,0.302c-2.018,0.332-4.519-0.239-6.95-0.791c-1.731-0.393-3.43-0.778-4.733-0.782h-0.826
					c-2.646-0.005-5.357-0.009-7.726,0.483l-0.07,0.016l-0.059,0.002c-2.002,0.152-4.415-0.18-6.796-0.506
					c-1.561-0.215-3.109-0.43-4.469-0.492c-1.273,0.014-2.369-0.161-3.47-0.336c-1.333-0.21-2.675-0.42-4.299-0.246
					c-3.637,1.062-8.322,0.312-12.16-0.303c-1.97-0.312-3.708-0.592-4.841-0.545l-0.039,0.004c-2.546,0-8.188,1.17-12.396,2.043
					c-2.256,0.468-4.11,0.854-4.957,0.938c-1.356,0.24-1.985,0.354-2.61,0.468c-4.66,0.844-9.332,1.69-14.086,1.69v-0.004
					c-2.103,0.018-6.295,0.499-10.356,0.967c-3.788,0.438-7.472,0.862-9.403,0.89c-18.001,0.961-33.658-3.347-43.15-5.955
					c-4.042-1.112-6.938-1.907-8.231-1.824h-0.076c-2.497-0.034-6.089-1.346-9.324-2.525c-2.407-0.88-4.609-1.683-5.778-1.762
					l-0.031-0.002c-1.701-0.166-3.181-0.586-4.622-0.996c-1.914-0.546-3.775-1.072-5.841-0.866
					c-1.515,0.229-3.463-0.239-5.444-0.719c-1.212-0.291-2.441-0.588-3.513-0.705l0,0c-2.393-0.21-4.889,0.335-7.396,0.886
					c-2.457,0.542-4.929,1.083-7.494,0.975c-1.38-0.004-2.766-0.26-4.146-0.516c-4.193-0.773-6.807-0.508-11.166,0.639
					c-1.533,0.402-2.972,0.783-4.068,0.937c-3.197,0.938-6.484,2.438-9.767,3.935c-2.521,1.146-5.041,2.295-7.521,3.196
					l-0.051,0.019c-3.442,1.041-6.396,0.847-9.796,0.623c-1.144-0.076-2.344-0.154-3.55-0.188c-1.36,0.083-3.581,0.45-5.858,0.828
					c-2.801,0.461-5.691,0.941-7.363,0.954l-24.462,2.852L55.991,273.85L55.991,273.85L55.991,273.85z"/>
			</g>
		</g>
		<g>
			<g>
				<defs>
					<rect id="SVGID_7_" x="56" y="167.811" width="400" height="122.71"/>
				</defs>
				<clipPath id="SVGID_8_">
					<use xlink:href="#SVGID_7_"  overflow="visible"/>
				</clipPath>
				<path clip-path="url(#SVGID_8_)" fill="#C19500" d="M55.991,278.743l20.337-1.896l0.043-0.006h0.047
					c1.705,0,4.334-0.309,6.917-0.609c2.219-0.262,4.409-0.521,6.058-0.58h0.05c1.237,0.021,2.367,0.074,3.458,0.123
					c3.174,0.143,6.065,0.271,9.158-0.354c2.248-0.601,4.478-1.351,6.704-2.095c4.857-1.629,8.711-2.496,13.542-3.357v-0.004
					c4.365-0.779,8.187-0.857,12.559-0.4c4.595,0.479,8.722,0.254,13.362-0.299c3.202-0.386,6.396-0.766,9.639-0.607h0.012
					c1.345,0.083,2.743,0.289,4.131,0.486c2.049,0.297,4.081,0.593,5.705,0.463h0.013c2.479-0.168,4.676,0.221,6.917,0.615
					c1.47,0.26,2.961,0.526,4.513,0.623v0.002c1.671,0.072,3.954,0.683,6.366,1.323h0.005c2.723,0.728,5.622,1.504,7.725,1.533
					c1.646-0.074,4.395,0.584,8.062,1.459c7.217,1.728,18.111,4.331,30.364,3.729h0.038c1.879-0.018,5.042-0.307,8.261-0.6
					c3.426-0.311,6.925-0.629,9.119-0.641l0.003-0.004c4.249,0,8.446-0.551,12.632-1.103h0.002l2.433-0.315l0.083-0.008
					c1.088-0.047,3.248-0.391,5.68-0.776c3.578-0.566,7.736-1.226,10.203-1.226v0.002c1.435-0.033,3.208,0.176,5.144,0.403
					c1.851,0.218,3.856,0.455,5.787,0.507c3.52,0.086,6.366-0.486,10.021-0.173c1.307,0.112,2.613,0.226,3.934,0.218h0.031
					c1.538,0.041,3.178,0.191,4.824,0.34c2.308,0.205,4.631,0.416,6.645,0.328c2.937-0.345,6.083-0.34,9.182-0.338l0.938,0.002
					c1.653,0.002,3.458,0.277,5.285,0.551c2.291,0.349,4.625,0.699,6.493,0.5l0.028-0.002h0.063c2.41-0.028,5.038-0.119,7.691-0.205
					c3.434-0.112,6.919-0.229,10.01-0.229v0.004c2.74-0.036,5.479,0.062,8.25,0.161c3.354,0.117,6.762,0.237,10.193,0.125h0.011
					c3.315-0.074,7.347,0.229,11.334,0.528c3.185,0.236,6.346,0.477,8.981,0.517h0.005c3.031,0.04,6.473,0.354,9.981,0.671
					c4.075,0.369,8.251,0.748,11.915,0.712h0.069l0.065,0.007c4.17,0.559,8.421,0.354,12.648,0.149
					c2.412-0.115,4.822-0.229,7.251-0.206h0.024c3.115-0.052,6.844,0.061,10.557,0.175c2.955,0.091,5.907-0.227,8.493-0.22v1.992
					c-2.646-0.008-5.595,0.31-8.547,0.219c-3.708-0.111-7.431-0.227-10.495-0.175h-0.023c-2.349-0.021-4.755,0.092-7.165,0.206
					c-4.291,0.208-8.605,0.414-12.936-0.157c-3.742,0.031-7.939-0.347-12.039-0.718c-3.474-0.315-6.878-0.625-9.832-0.665h-0.003
					c-2.786-0.044-5.934-0.28-9.103-0.519c-3.963-0.297-7.969-0.598-11.135-0.526c-3.504,0.112-6.938-0.009-10.327-0.125
					c-2.759-0.101-5.492-0.195-8.168-0.161l-0.012,0.004c-3.268,0-6.634,0.111-9.947,0.22c-2.621,0.086-5.216,0.175-7.67,0.205
					c-2.125,0.22-4.568-0.149-6.967-0.513c-1.772-0.27-3.526-0.533-4.987-0.537h-0.938c-3.021-0.002-6.089-0.007-8.955,0.332
					l-0.068,0.004c-2.145,0.1-4.57-0.118-6.979-0.336h-0.003c-1.605-0.146-3.207-0.287-4.687-0.331
					c-1.474,0.01-2.778-0.104-4.089-0.217c-3.393-0.291-6.488,0.26-9.826,0.179c-2.037-0.047-4.122-0.295-6.042-0.521
					c-1.893-0.223-3.625-0.426-4.896-0.396l-0.021,0.005c-2.358,0-6.407,0.643-9.892,1.194c-2.478,0.392-4.679,0.743-5.878,0.799
					l-2.373,0.308v0.002c-4.277,0.562-8.565,1.125-12.89,1.125v-0.004c-2.104,0.01-5.558,0.324-8.942,0.635
					c-3.238,0.293-6.421,0.584-8.387,0.604c-12.525,0.615-23.588-2.027-30.917-3.781c-3.509-0.841-6.141-1.468-7.517-1.406h-0.05
					c-2.382-0.021-5.425-0.834-8.276-1.594v-0.003c-2.323-0.62-4.522-1.206-5.954-1.264h-0.028c-1.68-0.104-3.217-0.378-4.729-0.646
					c-2.122-0.375-4.202-0.742-6.429-0.594l0,0c-1.836,0.146-3.979-0.166-6.144-0.479c-1.351-0.197-2.716-0.396-3.966-0.473
					c-3.054-0.146-6.173,0.227-9.299,0.601c-4.794,0.571-9.056,0.79-13.801,0.3c-4.299-0.445-7.631-0.396-12.001,0.385l-0.001-0.004
					c-4.607,0.826-8.782,1.786-13.263,3.288c-2.293,0.771-4.588,1.54-6.818,2.136l-0.06,0.014c-3.356,0.688-6.379,0.554-9.702,0.402
					c-1.101-0.049-2.241-0.099-3.378-0.121c-1.521,0.058-3.682,0.311-5.875,0.57c-2.597,0.303-5.241,0.614-7.101,0.619l-20.469,1.9
					L55.991,278.743L55.991,278.743z"/>
			</g>
		</g>
		<g>
			<g>
				<defs>
					<rect id="SVGID_9_" x="56" y="167.811" width="400" height="122.71"/>
				</defs>
				<clipPath id="SVGID_10_">
					<use xlink:href="#SVGID_9_"  overflow="visible"/>
				</clipPath>
				<path clip-path="url(#SVGID_10_)" fill="#C19500" d="M55.991,283.633l16.465-0.949c4.263,0,8.504-0.596,12.761-0.596
					c2.438,0.025,4.88,0.123,7.32,0.121c3.978-0.004,7.343-0.564,11.252-1.296c4.342-0.815,8.464-1.29,12.843-1.688
					c4.464-0.403,8.704-0.382,13.162-0.183c5.308,0.237,10.507,0.116,15.827-0.149c5.323-0.27,10.509-0.414,15.81-0.063
					c1.584,0.104,3.167,0.21,4.674,0.239c0.687,0.018,1.356,0.018,2.003-0.004c2.518-0.082,4.861,0.112,7.226,0.309
					c3.721,0.311,7.335,0.455,11.045,1.003c7.947,1.175,18.026,2.896,26.701,3.292c4.334,0.196,8.704-0.023,13.029-0.266
					c6.415-0.354,12.812-0.408,19.226-0.869c7.147-0.51,14.375-1.413,21.54-0.945c4.314,0.285,8.513-0.006,12.812,0.042
					c6.359,0.076,12.729,0.685,19.072,0.556v-0.002l44.841,0.141v0.003c26.087-0.144,53.348,1.915,80.695,2.401
					c10.569,0.187,21.158-1.302,31.695-1.293v1.99l-31.55,1.2l-80.842-2.304l-44.738-0.147h-0.031
					c-6.33,0.13-12.691-0.47-19.038-0.55c-4.375-0.055-8.651,0.244-13.042-0.045c-7.021-0.457-14.25,0.447-21.272,0.943
					c-6.426,0.463-12.832,0.514-19.257,0.871c-4.372,0.242-8.757,0.459-13.137,0.268c-8.772-0.395-18.919-2.12-26.995-3.312
					c-3.673-0.543-7.232-0.683-10.918-0.986c-2.331-0.191-4.646-0.383-6.999-0.307c-2.198,0.068-4.529-0.084-6.866-0.238
					c-5.221-0.342-10.364-0.197-15.59,0.065c-5.385,0.272-10.637,0.392-16.008,0.15c-4.363-0.195-8.527-0.222-12.896,0.175
					c-4.292,0.389-8.399,0.868-12.653,1.665c-4.125,0.771-7.645,1.33-11.848,1.325c-2.367,0-4.733-0.096-7.1-0.119
					c-4.24,0.068-8.466,0.593-12.708,0.595l-16.511,0.951L55.991,283.633L55.991,283.633z"/>
			</g>
		</g>
		<g>
			<g>
				<defs>
					<rect id="SVGID_11_" x="56" y="167.811" width="400" height="122.71"/>
				</defs>
				<clipPath id="SVGID_12_">
					<use xlink:href="#SVGID_11_"  overflow="visible"/>
				</clipPath>
				<path clip-path="url(#SVGID_12_)" fill="#C19500" d="M55.991,264.068l32.173-4.74l0.056-0.01h0.09
					c1.024,0.002,4.536-0.858,7.769-1.648v-0.002c2.469-0.604,4.789-1.173,5.877-1.314l0.085-0.011l0.079,0.004
					c1.529,0.059,2.876,0.202,4.126,0.334c3.216,0.338,5.784,0.606,8.878-0.893l0,0c2.857-1.468,5.791-3.337,8.724-5.206
					c2.764-1.762,5.536-3.53,8.291-4.994c1.252-0.665,2.501-1.269,3.743-1.779l0.033-0.014l0.058-0.018
					c0.522-0.159,1.55-0.598,2.746-1.108c2.289-0.976,5.155-2.198,7.168-2.471c1.519-0.204,2.995,0.358,4.341,1.007
					c0.756,0.365,1.519,0.732,2.07,0.732h0.03l0.095,0.013c1.012,0.128,2.215-0.669,3.396-1.455
					c1.602-1.061,3.179-2.106,4.988-1.616h0.002l0.013,0.004l0,0c0.926,0.247,2.01,0.804,3.054,1.343
					c2.907,1.5,1.736,0.709,4.413,0.922c1.625,0.128,2.966,0.869,4.357,1.641l0.001-0.002c1.157,0.64,2.36,1.307,3.739,1.544l0,0
					c1.023,0.152,3.179,1.271,5.733,2.601c3.806,1.981,8.556,4.454,10.854,4.53c1.667-0.119,5.188,0.987,10.332,2.605
					c13.401,4.219,38.145,12.008,66.958,10.366h0.034c1.616-0.035,6.218-0.707,11.056-1.412c5.5-0.802,11.313-1.649,13.644-1.681
					l0.011-0.004c5.367,0,10.667-1.381,15.943-2.757c1.115-0.289,2.201-0.573,3.029-0.778c1.135-0.393,7.574-2.274,13.147-3.611
					c3.362-0.806,6.448-1.424,7.958-1.424l0,0c1.148-0.065,2.987,0.347,5.202,0.846c3.77,0.851,8.716,1.965,12.425,1.204
					c1.287-0.264,2.073-0.83,3.434-0.752c0.854,0.049,1.485,0.352,2.108,0.647c2.471,1.177,7.286,1.824,10.129,2.12
					c1.42,0.146,2.322-0.466,3.7-0.676c3.452-0.533,5.861-0.063,9.166,1.189c2.22,0.842,4.564,1.731,5.713,1.313l0.111-0.038
					l0.105-0.016c0.474-0.058,1.24-0.209,2.098-0.377c1.628-0.319,3.577-0.705,4.748-0.705c1.21-0.075,2.42,0.151,3.696,0.396
					c1.523,0.289,3.159,0.601,4.842,0.336l0.004-0.004c1.392-0.213,4.798,0.633,7.997,1.431c2.215,0.551,4.332,1.079,5.415,1.183
					v-0.003c1.714,0.097,4.295,0.785,7.079,1.527c3.617,0.961,7.6,2.021,10.136,1.926l0.266-0.008l0.237,0.125
					c2.368,1.262,4.956,0.771,7.489,0.288c1.537-0.29,3.059-0.579,4.599-0.528c1.001-0.115,3.38,0.17,5.708,0.453
					c1.812,0.22,3.6,0.437,4.506,0.448l-0.024,1.992c-1.071-0.017-2.882-0.233-4.715-0.458c-2.287-0.273-4.619-0.561-5.256-0.452
					l-0.101,0.017l-0.106-0.004c-1.34-0.056-2.785,0.218-4.242,0.496c-2.794,0.532-5.647,1.073-8.555-0.365
					c-2.827,0.033-6.813-1.029-10.448-2c-2.688-0.713-5.18-1.379-6.684-1.463l-0.03-0.004c-1.261-0.112-3.453-0.658-5.749-1.229
					c-3.014-0.75-6.218-1.546-7.227-1.392v-0.004c-2.022,0.316-3.828-0.024-5.508-0.347c-1.167-0.222-2.271-0.432-3.256-0.356
					l-0.073,0.004c-0.994,0-2.83,0.363-4.366,0.664c-0.854,0.166-1.626,0.32-2.147,0.391c-1.84,0.58-4.471-0.418-6.967-1.365
					c-2.941-1.119-5.144-1.584-8.24-1.076c-1.846,0.308-2.018,0.877-4.057,0.679c-3.084-0.304-8.157-1.021-10.854-2.302
					c-0.387-0.185-0.777-0.371-1.263-0.428c-1.157-0.137-2.358,0.586-3.515,0.774c-4.055,0.663-8.973-0.448-12.77-1.303
					c-2.096-0.475-3.83-0.864-4.689-0.797l-0.073,0.002c-1.359,0-4.282,0.591-7.499,1.363c-5.827,1.397-12.519,3.355-12.947,3.546
					l-0.092,0.041l-0.072,0.021c-1.189,0.298-2.125,0.542-3.026,0.777c-5.413,1.409-10.845,2.823-16.443,2.823v-0.002
					c-2.174,0.029-7.928,0.869-13.372,1.663c-4.851,0.707-9.463,1.381-11.261,1.429c-29.18,1.666-54.143-6.194-67.662-10.451
					c-5.002-1.576-8.399-2.644-9.619-2.522l-0.055,0.004h-0.063c-2.769-0.06-7.771-2.666-11.778-4.75
					c-2.396-1.247-4.418-2.299-5.102-2.401l-0.019-0.002c-1.729-0.293-3.085-1.043-4.39-1.766l-0.003-0.004
					c-1.172-0.647-2.301-1.269-3.556-1.383c-2.137-0.188-3.018-0.04-5.167-1.148c-0.958-0.495-1.953-1.01-2.653-1.191l-0.017-0.004
					c-0.938-0.26-2.146,0.542-3.37,1.352c-1.458,0.969-2.94,1.949-4.649,1.779c-0.991-0.007-1.953-0.475-2.916-0.937
					c-0.638-0.309-2.685-1.155-3.48-0.965c-1.356,0.325-4.181,1.529-6.378,2.467c-1.195,0.51-2.229,0.951-2.896,1.164
					c-3.812,1.571-7.755,4.087-11.687,6.594c-2.98,1.898-5.957,3.796-8.906,5.309l-0.019,0.011
					c-3.604,1.749-6.423,1.451-9.951,1.079c-1.205-0.127-2.504-0.262-3.926-0.322c-0.989,0.146-3.203,0.688-5.562,1.266h-0.004
					c-3.265,0.8-6.809,1.673-8.152,1.707l-32.404,4.754v-2h0.003V264.068z"/>
			</g>
		</g>
		<g>
			<g>
				<defs>
					<rect id="SVGID_13_" x="56" y="167.811" width="400" height="122.71"/>
				</defs>
				<clipPath id="SVGID_14_">
					<use xlink:href="#SVGID_13_"  overflow="visible"/>
				</clipPath>
				<path clip-path="url(#SVGID_14_)" fill="#C19500" d="M55.991,259.184l36.129-5.691l0.076-0.011h0.075
					c0.808,0,4.893-1.137,8.432-2.124c2.396-0.667,4.551-1.271,5.42-1.428l0.112-0.02l0.106,0.002
					c1.662,0.076,3.062,0.25,4.346,0.41c3.221,0.398,5.69,0.705,8.787-1.065h0.004c3.08-1.759,6.254-4.006,9.431-6.258h0.003
					c2.985-2.115,5.979-4.234,8.95-5.989c1.353-0.799,2.698-1.522,4.038-2.138l0.004-0.002c1.761-0.801,3.454-1.773,5.204-2.605
					c2.541-1.204,5.13-2.153,6.328-1.591c0.708,0.139,1.351,0.653,1.991,1.173l0.004,0.004c0.931,0.754,1.238,1.193,2.041,0.215
					c0.237-0.289,0.508-0.649,0.773-1.005c1.088-1.459,2.144-2.87,3.674-2.035c0.763,0.327,1.742,1.034,2.655,1.692h0.005
					c1.564,1.133,1.094,0.98,2.688,0.936c1.893-0.054,3.271,0.946,4.728,2.005c1.059,0.768,2.171,1.573,3.498,1.851h0.008
					c0.778,0.167,2.694,1.287,5.082,2.684c4.146,2.426,9.819,5.746,12.271,5.864c1.688-0.144,5.461,1.087,11.07,2.923
					c15.328,5.016,44.75,14.643,79.204,12.642h0.029c1.559-0.042,6.56-0.826,11.883-1.656c6.23-0.976,12.902-2.019,15.258-2.055
					h0.012c5.733,0,11.406-1.659,17.054-3.308c7.632-2.225,17.892-6.979,26.042-6.979l0,0c1.091-0.071,2.917,0.387,5.171,0.954
					c4.732,1.191,11.51,2.898,15.573,0.869l0.054-0.027l0.066-0.025c1.782-0.611,2.491,0.067,3.184,0.73l0.003,0.002
					c1.188,1.146,6.275,1.862,8.168,2.247c1.9,0.387,2.303-0.438,4.057-0.748c0.897-0.156,1.846-0.152,2.753-0.146l0.49,0.002h0.004
					c1.229,0.013,2.938,0.794,4.742,1.618c1.268,0.578,2.589,1.184,3.654,1.502c1.9,0.571,3.313-0.922,5.15-1.247l-0.001-0.004
					c0.841-0.139,1.604,0.147,2.454,0.463c0.485,0.181,1.014,0.378,1.562,0.465c1.056,0.17,1.868-0.13,3.007,0.121
					c1.525,0.334,3.672,1.055,5.623,1.708c1.777,0.595,3.386,1.137,3.965,1.24v0.002c1.291,0.141,3.448,0.873,5.861,1.692
					c3.477,1.183,7.514,2.558,9.682,2.438l0.378-0.021l0.294,0.235c1.755,1.397,3.753,0.832,5.69,0.281
					c1.205-0.341,2.39-0.677,3.608-0.65c0.11-0.021,0.235-0.034,0.371-0.034c0.58,0,2.318,0.315,3.979,0.618
					c1.374,0.249,2.694,0.49,3.08,0.504l-0.077,1.992c-0.513-0.021-1.903-0.273-3.354-0.537c-1.01-0.184-2.056-0.369-2.784-0.479
					v0.006l-1.062-0.068c-0.974-0.062-2.088,0.253-3.219,0.572c-2.328,0.662-4.729,1.344-7.18-0.416
					c-2.577-0.008-6.575-1.371-10.045-2.553c-2.354-0.801-4.453-1.515-5.481-1.607l-0.082-0.01
					c-0.701-0.123-2.385-0.691-4.254-1.315c-1.825-0.613-3.845-1.292-5.017-1.649c-1.271-0.389-1.9,0.125-3.25-0.083
					c-0.727-0.112-1.381-0.358-1.987-0.584c-1.952-0.732-2.307-0.119-4.227,0.835c-0.765,0.38-1.731,0.347-2.799,0.092
					c-1.368-0.327-2.898-1.027-4.367-1.699c-1.605-0.732-3.13-1.431-3.93-1.437l-0.486-0.002c-0.854-0.004-1.75-0.011-2.519,0.146
					c-2.114,0.432-1.521,1.278-4.375,0.763c-2.538-0.458-6.092-1.105-8.429-2.059c-0.422-0.172-0.724-0.461-1.028-0.752
					c-0.251-0.242-0.516-0.488-1.112-0.298c-4.723,2.303-11.871,0.504-16.87-0.756c-2.146-0.54-3.869-0.972-4.589-0.9l-0.08,0.007
					h-0.02c-8.18,0-14.913,3.899-22.25,5.96c-1.284,0.36-2.245,0.645-3.238,0.931c-5.774,1.689-11.576,3.386-17.596,3.389
					c-2.214,0.032-8.813,1.064-14.979,2.03c-5.36,0.836-10.401,1.627-12.104,1.681c-34.831,2.021-64.482-7.682-79.932-12.736
					c-5.446-1.781-9.081-2.97-10.298-2.831l-0.054,0.006l-0.083-0.004c-2.933-0.076-8.928-3.581-13.299-6.137
					c-2.223-1.3-4.004-2.343-4.495-2.449v-0.002c-1.746-0.365-3.032-1.298-4.256-2.187c-0.859-0.622-1.688-1.222-2.59-1.477
					c-0.98-0.278-1.688,0.289-2.575-0.036c-0.567-0.208-1.384-0.799-2.251-1.426l0.001-0.002c-0.449-0.325-0.919-0.663-1.341-0.94
					c-1.132-0.748-0.955-0.831-1.714,0.186c-0.157,0.208-0.331,0.441-0.507,0.676c-0.969,1.3-1.972,2.641-3.409,2.37
					c-0.812-0.051-1.538-0.643-2.262-1.227c-2.393-1.932-3.201-0.763-6.217,0.669c-1.762,0.834-3.464,1.819-5.236,2.621v-0.002
					c-4.121,1.889-8.399,4.917-12.661,7.937l0.001,0.002c-3.212,2.274-6.419,4.548-9.6,6.363l0.001,0.002
					c-3.676,2.099-6.432,1.759-10.021,1.313c-1.247-0.154-2.605-0.32-4.081-0.392c-0.824,0.168-2.869,0.736-5.129,1.368
					c-3.574,0.996-7.684,2.144-8.885,2.193l-36.359,5.701v-1.989H55.991L55.991,259.184z"/>
			</g>
		</g>
		<g>
			<g>
				<defs>
					<rect id="SVGID_15_" x="56" y="167.811" width="400" height="122.71"/>
				</defs>
				<clipPath id="SVGID_16_">
					<use xlink:href="#SVGID_15_"  overflow="visible"/>
				</clipPath>
				<path clip-path="url(#SVGID_16_)" fill="#C19500" d="M55.963,289.408l16.493-0.479c2.23,0,4.293-0.071,6.353-0.145
					c2.19-0.076,4.378-0.154,6.408-0.154l3.084,0.034c1.418,0.018,2.833,0.032,4.236,0.029c1.941,0,3.763-0.07,5.589-0.186
					c1.863-0.119,3.659-0.277,5.573-0.457c2.221-0.208,4.342-0.369,6.435-0.503c2.082-0.132,4.224-0.243,6.454-0.345
					c2.229-0.1,4.42-0.148,6.623-0.159c2.188-0.009,4.37,0.019,6.602,0.067c2.65,0.061,5.271,0.074,7.888,0.058
					c2.606-0.017,5.234-0.065,7.896-0.132c2.658-0.066,5.289-0.119,7.934-0.132c2.643-0.013,5.278,0.014,7.932,0.099l0.186,0.008
					c1.528,0.049,3.054,0.102,4.465,0.115l1.014,0.004l0.967-0.006c2.542-0.042,4.884,0.055,7.241,0.15l3.147,0.119
					c2.679,0.096,5.333,0.188,7.967,0.385l4.116,0.311c7.149,0.544,15.378,1.172,22.535,1.334c2.158,0.049,4.325,0.045,6.487,0.016
					c2.145-0.027,4.326-0.086,6.498-0.146c2.716-0.076,5.469-0.125,8.219-0.175c3.652-0.062,7.304-0.127,10.999-0.26
					c1.559-0.057,3.164-0.125,4.77-0.189c5.597-0.229,11.224-0.465,16.837-0.281c2.703,0.088,5.355,0.062,8.017,0.04
					c1.579-0.016,3.165-0.028,4.768-0.02c2.695,0.016,5.363,0.077,8.031,0.141c3.666,0.085,7.33,0.173,10.971,0.138h0.043
					c2.771-0.071,5.569-0.109,8.374-0.104c2.812,0.006,5.614,0.056,8.381,0.159c1.17,0.042,2.35,0.087,3.443,0.113
					c1.123,0.023,2.22,0.035,3.25,0.01l0.066-0.004c3.051-0.002,6.221-0.024,9.396-0.047l0.819-0.004
					c4.208-0.029,8.39-0.058,11.132-0.058c3.306,0,6.609,0.022,9.916,0.047c3.914,0.029,7.854,0.06,11.808,0.029l0.008-0.004
					c1.981-0.002,4.053,0.011,6.161,0.036c2.12,0.024,4.27,0.062,6.408,0.1l0.187,0.002c3.398,0.062,6.785,0.119,9.896,0.127
					c1.861,0.008,3.735,0.249,5.636,0.493c1.748,0.226,3.522,0.452,5.275,0.49c2.097,0.045,4.15,0.274,6.179,0.504
					c2.184,0.243,4.34,0.487,6.362,0.481h0.092c2.799,0.084,5.631-0.045,8.462-0.172c1.919-0.087,3.841-0.172,5.81-0.195
					c1.215-0.01,2.521-0.121,3.829-0.228c1.419-0.116,2.839-0.233,4.332-0.229l0.008-0.004c3.854-0.008,8.051-0.428,12.018-0.819
					c3.646-0.365,7.104-0.71,10.008-0.708v1.988c-2.789,0-6.207,0.345-9.812,0.701c-4.002,0.398-8.235,0.821-12.212,0.836
					l-0.008,0.004c-1.342-0.008-2.757,0.109-4.169,0.225c-1.295,0.105-2.593,0.215-3.977,0.229
					c-1.876,0.021-3.809,0.106-5.739,0.194c-2.85,0.127-5.7,0.257-8.575,0.172l-0.063,0.005c-2.169,0-4.361-0.246-6.581-0.498
					c-2.007-0.224-4.038-0.453-6-0.494c-1.86-0.041-3.688-0.274-5.486-0.506c-1.84-0.238-3.655-0.473-5.386-0.478
					c-3.149-0.009-6.534-0.069-9.929-0.127l-0.188-0.002c-2.149-0.036-4.305-0.074-6.399-0.099
					c-2.104-0.027-4.167-0.041-6.134-0.033l-0.009,0.004c-3.958,0.023-7.9-0.004-11.817-0.034l-5.01-0.034l-4.897-0.009
					c-4.023,0.004-7.585,0.026-11.124,0.051l-0.823,0.009c-3.174,0.02-6.34,0.041-9.401,0.047l-0.043,0.004
					c-1.055,0.022-2.172,0.016-3.312-0.014c-1.177-0.029-2.33-0.07-3.476-0.113c-2.77-0.104-5.545-0.155-8.312-0.16
					c-2.448-0.002-4.902,0.027-7.35,0.082v0.015l-0.993,0.011c-3.699,0.036-7.394-0.049-11.088-0.137
					c-2.677-0.062-5.352-0.125-7.996-0.143c-1.587-0.008-3.168,0.006-4.744,0.021c-2.688,0.023-5.373,0.049-8.095-0.041
					c-5.534-0.182-11.13,0.051-16.696,0.282c-1.582,0.065-3.163,0.132-4.775,0.19c-3.658,0.129-7.349,0.195-11.038,0.26
					c-2.717,0.049-5.438,0.099-8.195,0.175c-2.154,0.058-4.326,0.116-6.529,0.147c-2.186,0.029-4.374,0.032-6.548-0.018
					c-7.313-0.168-15.517-0.792-22.644-1.336l-4.108-0.311c-2.7-0.199-5.288-0.291-7.896-0.385c-1.03-0.037-2.134-0.117-3.155-0.117
					c-2.342-0.098-4.669-0.189-7.132-0.149l-1.003,0.007l-1.021-0.004c-1.485-0.018-3-0.067-4.517-0.117l-0.187-0.006
					c-2.646-0.085-5.258-0.112-7.86-0.1c-2.605,0.012-5.231,0.064-7.896,0.131c-2.656,0.064-5.29,0.117-7.937,0.134
					c-2.64,0.019-5.277,0.002-7.935-0.06c-2.226-0.049-4.396-0.076-6.555-0.065c-2.146,0.009-4.31,0.058-6.544,0.157
					c-2.148,0.1-4.258,0.209-6.416,0.347c-2.149,0.136-4.261,0.297-6.38,0.495c-1.994,0.188-3.838,0.351-5.628,0.465
					c-1.827,0.114-3.68,0.188-5.713,0.188c-1.425,0.002-2.842-0.018-4.256-0.031l-3.064-0.029c-2.225,0.004-4.285,0.078-6.346,0.15
					c-2.191,0.076-4.386,0.15-6.416,0.15L56.019,291.4L55.963,289.408z"/>
			</g>
		</g>
	</g>
</g>
<g>
	<rect x="12.22" y="120.778" fill-rule="evenodd" clip-rule="evenodd" fill="#384F54" width="487.559" height="270.443"/>
	<path fill="#C4D1DB" d="M429.715,319.896v16.284l0.223,1.684c0.41,1.437,1.938,2.148,4.58,2.148c2.871,0,5.143-0.991,6.824-2.972
		c1.678-1.99,2.52-4.665,2.52-8.041c0-3.537-1.014-6.42-3.029-8.643c-2.021-2.223-4.637-3.338-7.838-3.338
		c-1.311,0-2.203,0.17-2.684,0.521C429.912,317.812,429.715,318.597,429.715,319.896 M425.455,320.899
		c0-1.189-0.336-2.103-0.988-2.743c-0.658-0.643-1.586-0.967-2.781-0.967c-0.387,0-0.578-0.163-0.578-0.488
		c0-0.218,0.08-0.366,0.24-0.434c0.158-0.07,0.514-0.103,1.061-0.103l2.811,0.038c0.65,0,1.223-0.01,1.732-0.038
		c0.773-0.054,1.846-0.132,3.205-0.258c1.83-0.172,3.279-0.261,4.355-0.261c4.199,0,7.551,1.071,10.088,3.214
		c2.52,2.144,3.787,5,3.787,8.567c0,4.582-1.701,8.238-5.104,10.957c-2.496,1.994-5.307,2.985-8.436,2.985
		c-0.516,0-1.561-0.053-3.131-0.146c-0.895-0.048-1.805-0.074-2.748-0.074c-2.199,0-3.662,0.063-4.391,0.184
		c-0.566,0.103-0.949,0.149-1.15,0.149c-0.287,0-0.426-0.176-0.426-0.536c0-0.255,0.148-0.403,0.455-0.472
		c0.771-0.144,1.295-0.462,1.572-0.94c0.281-0.486,0.426-1.309,0.426-2.488V320.899z M388.83,320.191l9.816,11.012l0.631,0.712
		c0.844,0.935,1.396,1.406,1.682,1.406c0.268,0,0.404-0.378,0.436-1.129c0.107-2.733,0.16-5.335,0.16-7.812
		c0-2.903-0.287-4.865-0.881-5.901c-0.584-1.025-1.742-1.593-3.449-1.722c-0.414-0.025-0.615-0.162-0.615-0.427
		c0-0.323,0.176-0.483,0.537-0.483c0.438,0,1.16,0.063,2.146,0.186c0.646,0.074,1.18,0.111,1.598,0.111
		c0.854,0,2.213-0.116,4.066-0.35c0.248-0.027,0.43-0.044,0.535-0.044c0.4,0,0.594,0.175,0.594,0.521
		c0,0.312-0.193,0.494-0.594,0.559c-1.592,0.297-2.389,1.715-2.389,4.249v0.908l-0.26,11.589l-0.082,1.598l-0.012,2.062l0.012,1.414
		l0.082,2.317c0,0.346-0.127,0.509-0.377,0.498c-0.221-0.016-0.445-0.148-0.68-0.408l-16.889-18.753
		c-0.299-0.323-0.498-0.482-0.611-0.482c-0.297,0-0.445,0.281-0.445,0.832l-0.021,0.536v7.197c0,3.852,0.189,6.42,0.58,7.715
		c0.402,1.385,1.611,2.169,3.611,2.354c0.371,0.038,0.557,0.191,0.557,0.469c0,0.372-0.191,0.557-0.578,0.557
		c-0.145,0-0.381-0.026-0.721-0.074c-1.035-0.169-2.186-0.259-3.455-0.259c-1.246,0-2.361,0.095-3.338,0.278
		c-0.436,0.076-0.754,0.111-0.945,0.111c-0.34,0-0.498-0.152-0.498-0.449c0-0.243,0.174-0.412,0.535-0.521
		c0.908-0.254,1.566-0.788,1.977-1.596c0.418-0.813,0.621-1.979,0.621-3.505l0.131-4.407v-8.045c0-3.805-1.406-5.812-4.209-6.009
		c-0.387-0.026-0.578-0.178-0.578-0.471c0-0.344,0.209-0.516,0.633-0.516l1.277,0.053l0.781-0.016c0.965,0,2-0.06,3.098-0.163
		c0.41-0.036,0.75-0.06,1.02-0.06c0.393,0,0.691,0.08,0.914,0.255c0.221,0.165,0.691,0.667,1.406,1.523l1.277,1.503
		C388.426,319.71,388.721,320.072,388.83,320.191z M352.342,329.676l-2.42-5.679c-0.584-1.357-0.99-2.041-1.24-2.041
		c-0.148,0-0.426,0.445-0.818,1.316l-0.35,0.779L345.348,329l-0.201,0.464c-0.09,0.191-0.139,0.35-0.139,0.481
		c0,0.425,0.447,0.632,1.338,0.632h5.482c0.471,0,0.705-0.134,0.705-0.392c0-0.058-0.031-0.167-0.094-0.307L352.342,329.676z
		 M351.643,318.061l8.438,19.373c0.418,0.976,0.922,1.709,1.484,2.191c0.562,0.479,1.307,0.803,2.209,0.961
		c0.223,0.037,0.332,0.206,0.332,0.52c0,0.334-0.143,0.499-0.424,0.488c-0.164-0.017-0.398-0.055-0.705-0.111
		c-0.955-0.207-2.494-0.312-4.607-0.312c-2.121,0-3.576,0.094-4.34,0.273c-0.182,0.056-0.338,0.075-0.477,0.075
		c-0.352,0-0.52-0.169-0.52-0.516c0-0.178,0.137-0.307,0.406-0.392c0.59-0.176,1.084-0.481,1.477-0.923
		c0.387-0.452,0.584-0.919,0.584-1.418c0-0.689-0.541-2.207-1.617-4.552c-0.33-0.723-0.691-1.138-1.102-1.237
		c-0.398-0.106-1.818-0.16-4.271-0.16h-2.514l-1.666,0.298c-0.467,0.212-0.988,1.025-1.562,2.447l-0.57,1.427
		c-0.17,0.409-0.262,0.815-0.262,1.243c0,1.56,1.088,2.455,3.264,2.699c0.467,0.065,0.697,0.245,0.686,0.541
		c-0.027,0.324-0.25,0.488-0.674,0.488c-0.219,0-0.537-0.038-0.939-0.115c-0.818-0.16-1.545-0.239-2.193-0.239
		c-0.584,0-1.516,0.064-2.822,0.187c-0.959,0.1-1.559,0.146-1.793,0.146c-0.35,0-0.52-0.146-0.52-0.451
		c0-0.242,0.17-0.428,0.52-0.557c0.67-0.207,1.199-0.594,1.604-1.156c0.402-0.563,0.996-1.746,1.781-3.551l5.068-11.678
		c0.408-0.925,0.695-1.562,0.855-1.906l1.719-3.546c0.592-1.156,0.896-1.738,0.896-1.738c0,0.037,0,0.057,0,0.057
		s0.1-0.234,0.297-0.698c0.195-0.469,0.355-0.701,0.498-0.701c0.197,0,0.535,0.519,1.02,1.56L351.643,318.061z M310.539,335.544
		c0,2.313,0.275,3.608,0.828,3.895c0.311,0.16,0.91,0.239,1.818,0.239c4.197,0,7.18-1.23,8.932-3.699
		c0.529-0.751,0.871-1.134,1.008-1.134c0.223,0,0.334,0.253,0.334,0.758c0,1.569-0.516,2.977-1.539,4.208
		c-0.906,1.093-2.131,1.634-3.686,1.634c-0.324,0-0.914-0.031-1.766-0.094c-0.219-0.011-0.963-0.053-2.227-0.127l-2.016-0.091
		c-0.686-0.043-1.455-0.058-2.32-0.058c-1.438,0-2.977,0.101-4.637,0.295c-0.506,0.065-0.844,0.096-1.02,0.096
		c-0.361,0-0.535-0.159-0.535-0.481c0-0.229,0.158-0.378,0.477-0.468c0.791-0.223,1.338-0.653,1.641-1.29
		c0.303-0.636,0.455-1.682,0.455-3.125v-15.5c0-1.979-0.822-3.1-2.467-3.359l-1.115-0.186c-0.467-0.075-0.699-0.261-0.699-0.557
		c0-0.371,0.18-0.557,0.553-0.557c0.125,0,0.307,0.02,0.541,0.056c0.168,0.013,0.414,0.038,0.721,0.075l0.797,0.055
		c0.754,0.074,1.314,0.111,1.686,0.111c0.594,0,1.539-0.075,2.838-0.219c0.973-0.105,1.949-0.152,2.953-0.152
		c0.736,0,1.107,0.168,1.107,0.52c0,0.303-0.266,0.462-0.795,0.489c-1.242,0.083-1.867,0.937-1.867,2.571V335.544z M274.836,335.544
		c0,2.313,0.275,3.608,0.84,3.895c0.307,0.16,0.906,0.239,1.814,0.239c4.191,0,7.174-1.23,8.93-3.699
		c0.531-0.751,0.865-1.134,1.004-1.134c0.221,0,0.338,0.253,0.338,0.758c0,1.569-0.514,2.977-1.537,4.208
		c-0.902,1.093-2.133,1.634-3.693,1.634c-0.318,0-0.914-0.031-1.756-0.094c-0.225-0.011-0.971-0.053-2.23-0.127l-2.021-0.091
		c-0.678-0.043-1.453-0.058-2.314-0.058c-1.432,0-2.98,0.101-4.635,0.295c-0.51,0.065-0.852,0.096-1.02,0.096
		c-0.361,0-0.543-0.159-0.543-0.481c0-0.229,0.16-0.378,0.484-0.468c0.791-0.223,1.332-0.653,1.637-1.29
		c0.305-0.636,0.459-1.682,0.459-3.125v-15.5c0-1.979-0.822-3.1-2.475-3.359l-1.113-0.186c-0.465-0.075-0.701-0.261-0.701-0.557
		c0-0.371,0.186-0.557,0.564-0.557c0.117,0,0.297,0.02,0.531,0.056c0.174,0.013,0.412,0.038,0.719,0.075l0.803,0.055
		c0.754,0.074,1.316,0.111,1.693,0.111c0.594,0,1.535-0.075,2.834-0.219c0.965-0.105,1.947-0.152,2.949-0.152
		c0.736,0,1.115,0.168,1.115,0.52c0,0.303-0.268,0.462-0.801,0.489c-1.248,0.083-1.875,0.937-1.875,2.571V335.544z M242.278,315.779
		c0.078-0.012,0.221,0.004,0.424,0.057c0.201,0.037,0.69,0.075,1.464,0.107l1.964,0.094l1.816-0.074
		c0.619-0.052,1.166-0.102,1.632-0.164c0.224-0.025,0.432-0.037,0.616-0.037c0.335,0,0.501,0.154,0.501,0.479
		c0,0.254-0.155,0.403-0.469,0.451l-0.705,0.127c-0.96,0.163-1.443,1.193-1.443,3.099l0.017,1.614l-0.034,2.279
		c0,3.571-0.18,6.449-0.53,8.641c-0.349,2.182-0.913,3.874-1.698,5.057c-1.862,2.883-5.031,4.326-9.488,4.326
		c-3.152,0-5.604-0.595-7.344-1.779c-2.356-1.624-3.545-4.76-3.545-9.417l0.203-7.176l-0.054-3.381c0-0.834-0.084-1.427-0.25-1.777
		c-0.164-0.339-0.515-0.638-1.029-0.886c-0.606-0.287-1.291-0.477-2.044-0.594c-0.478-0.075-0.721-0.262-0.721-0.557
		c0-0.324,0.212-0.488,0.636-0.488c0.134,0,0.383,0.02,0.758,0.057c1.567,0.143,2.777,0.223,3.625,0.223
		c1.22,0,2.552-0.073,4.029-0.199c0.587-0.055,1.018-0.08,1.278-0.08c0.638,0,0.967,0.18,0.967,0.54c0,0.198-0.054,0.335-0.148,0.41
		c-0.103,0.074-0.34,0.148-0.712,0.223c-0.753,0.142-1.258,0.428-1.518,0.837c-0.258,0.42-0.413,1.227-0.476,2.426l-0.298,4.676
		l0.032,3.278c0,2.993,0.158,5.114,0.478,6.389c0.318,1.27,0.965,2.352,1.953,3.253c1.495,1.374,3.416,2.059,5.75,2.059
		c2.383,0,4.315-0.701,5.784-2.112c0.993-0.949,1.688-2.345,2.107-4.171c0.409-1.829,0.621-4.456,0.621-7.879v-1.508l-0.097-3.799
		c-0.069-1.153-0.429-2.042-1.077-2.68c-0.642-0.639-1.513-0.955-2.615-0.955c-0.478,0-0.722-0.182-0.722-0.543
		C241.917,315.938,242.037,315.795,242.278,315.779z M193.394,315.519c2.059,0,4.479,0.604,7.248,1.798
		c0.707,0.298,1.157,0.449,1.349,0.449c0.18,0,0.33-0.062,0.473-0.184l0.201-0.186c0.123-0.121,0.271-0.191,0.44-0.207
		c0.378-0.012,0.564,0.213,0.564,0.668l-0.022,1.297l-0.074,2.547l0.054,1.331c0.026,0.329,0.063,0.69,0.115,1.071
		c0.011,0.148,0.022,0.261,0.022,0.334c0,0.398-0.191,0.585-0.579,0.558c-0.26-0.011-0.43-0.271-0.521-0.779
		c-0.25-1.481-1.034-2.93-2.355-4.356c-1.864-1.996-4.123-2.998-6.766-2.998c-2.515,0-4.539,0.996-6.051,2.978
		c-1.512,1.979-2.271,4.628-2.271,7.921c0,3.534,0.775,6.506,2.339,8.926c1.566,2.415,3.487,3.62,5.775,3.62
		c0.684,0,1.543-0.148,2.595-0.454c1.05-0.302,1.847-0.635,2.392-0.987c0.495-0.322,0.833-0.794,1.03-1.413
		c0.191-0.613,0.286-1.566,0.286-2.868c0-1.479-0.27-2.514-0.801-3.083c-0.53-0.576-1.524-0.896-2.976-0.971
		c-0.39-0.025-0.579-0.206-0.579-0.539c0-0.335,0.224-0.508,0.668-0.508c0.138,0,0.35,0.013,0.647,0.038
		c1.211,0.108,2.585,0.164,4.118,0.164c1.582,0,2.749-0.046,3.487-0.126c0.557-0.076,1.02-0.111,1.396-0.111
		c0.436,0,0.658,0.165,0.658,0.483c0,0.297-0.223,0.486-0.658,0.578c-0.722,0.144-1.22,0.53-1.492,1.146
		c-0.27,0.62-0.408,1.666-0.408,3.129c0,0.459,0.021,0.871,0.063,1.223c0.048,0.618,0.075,1.051,0.075,1.299
		c0,0.388-0.086,0.663-0.235,0.849c-0.158,0.176-0.473,0.35-0.939,0.524c-0.287,0.104-1.269,0.51-2.951,1.242
		c-2.955,1.27-5.529,1.913-7.726,1.913c-3.343,0-6.07-1.137-8.192-3.396c-2.119-2.269-3.179-5.182-3.179-8.772
		c0-4.008,1.227-7.361,3.672-10.076C186.74,316.878,189.769,315.519,193.394,315.519z M151.511,320.264v4.021
		c0,1.156,0.078,1.884,0.254,2.19c0.164,0.304,0.567,0.465,1.203,0.465l0.564-0.018l0.816-0.021h1.572
		c1.229,0,2.174-0.68,2.843-2.027l0.424-0.903c0.117-0.223,0.298-0.346,0.558-0.355c0.269-0.01,0.407,0.155,0.407,0.499
		c0,0.102-0.02,0.378-0.063,0.816c-0.02,0.324-0.031,0.595-0.031,0.819c0,0.397,0.052,1.32,0.16,2.786
		c0.073,0.954,0.116,1.782,0.116,2.482l0.022,0.95c0,0.175-0.022,0.291-0.065,0.35c-0.046,0.073-0.138,0.123-0.295,0.133
		c-0.31,0.027-0.501-0.207-0.574-0.702c-0.16-1.061-0.531-1.856-1.116-2.397c-0.318-0.298-0.71-0.489-1.177-0.572
		c-0.456-0.086-1.326-0.132-2.6-0.132h-1.263c-0.595,0-0.988,0.089-1.211,0.264c-0.215,0.186-0.36,0.548-0.433,1.089
		c-0.074,0.615-0.111,1.598-0.111,2.928v1.667c0,1.741,0.131,2.999,0.407,3.768c0.212,0.552,0.457,0.935,0.744,1.125
		c0.287,0.202,0.722,0.303,1.315,0.303c5.014,0,8.301-1.527,9.844-4.585c0.09-0.143,0.158-0.227,0.223-0.238
		c0.121-0.026,0.238,0.012,0.339,0.116c0.111,0.11,0.16,0.237,0.16,0.397c0,1.216-0.329,2.388-0.982,3.529
		c-0.541,0.961-1.231,1.65-2.038,2.069c-0.817,0.409-1.899,0.621-3.248,0.621c-0.791,0-1.67-0.053-2.631-0.149l-2.154-0.2
		c-0.791-0.075-1.858-0.111-3.205-0.111c-0.901,0-2.273,0.059-4.118,0.163c-0.506,0.037-0.871,0.054-1.094,0.054
		c-0.298,0-0.457-0.139-0.478-0.41c-0.017-0.22,0.123-0.386,0.404-0.498c0.705-0.276,1.183-0.555,1.443-0.858
		c0.249-0.307,0.447-0.845,0.599-1.623c0.134-0.658,0.203-1.545,0.203-2.671v-14.698c0-1.385-0.229-2.324-0.675-2.818
		c-0.456-0.491-1.39-0.844-2.812-1.035c-0.335-0.052-0.499-0.227-0.499-0.538c0-0.284,0.201-0.433,0.616-0.433
		c0.08,0,0.271,0.015,0.552,0.038c0.223,0.015,0.53,0.022,0.907,0.022l1.873,0.065l7.025,0.075c4.043,0,6.537-0.053,7.471-0.163
		c0.106-0.012,0.191-0.016,0.266-0.016c0.361,0,0.536,0.2,0.536,0.61c0,0.286,0.037,0.791,0.112,1.521
		c0.095,1.068,0.148,1.843,0.148,2.315c0,0.94-0.243,1.416-0.722,1.442c-0.234,0.017-0.355-0.261-0.355-0.815
		c0-1.221-0.452-2.112-1.344-2.665c-0.896-0.552-2.345-0.823-4.352-0.823h-2.26l-1.263,0.148c-0.627,0.202-0.945,0.824-0.945,1.875
		L151.511,320.264z M111.05,319.619v6.417c0,0.79,0.095,1.288,0.301,1.495c0.208,0.212,0.689,0.319,1.459,0.319
		c2.197,0,3.562-0.037,4.087-0.122c0.521-0.08,1.019-0.329,1.474-0.754c0.903-0.816,1.354-1.936,1.354-3.369
		c0-1.868-0.61-3.406-1.833-4.628c-1.208-1.216-2.763-1.825-4.636-1.825c-0.839,0-1.417,0.176-1.735,0.525
		C111.208,318.034,111.05,318.682,111.05,319.619z M111.05,334.117c0,2.345,0.211,3.938,0.647,4.771
		c0.436,0.838,1.283,1.308,2.558,1.438c0.521,0.053,0.781,0.243,0.781,0.593c0,0.352-0.208,0.521-0.633,0.521
		c-0.132,0-0.387-0.021-0.765-0.058c-1.06-0.08-2.085-0.129-3.073-0.129c-0.827,0-1.563,0.026-2.208,0.08l-1.555,0.144l-1.241,0.117
		c-0.351,0.037-0.595,0.054-0.732,0.054c-0.441,0-0.659-0.171-0.659-0.506c0-0.275,0.123-0.444,0.372-0.519
		c0.833-0.261,1.417-0.61,1.741-1.045c0.318-0.441,0.478-1.113,0.478-2.011V335.8l0.021-0.721v-13.421
		c0-1.486-0.181-2.478-0.558-2.987c-0.61-0.831-1.596-1.329-2.965-1.498c-0.509-0.079-0.764-0.286-0.764-0.636
		c0-0.344,0.169-0.516,0.519-0.516c0.138,0,0.361,0.016,0.67,0.053c0.954,0.098,1.995,0.148,3.136,0.148
		c1.246,0,2.76-0.066,4.536-0.201c2.091-0.16,3.534-0.242,4.321-0.242c2.356,0,4.298,0.641,5.847,1.921
		c1.544,1.277,2.314,2.89,2.314,4.828c0,1.22-0.34,2.337-1.03,3.333c-0.685,1.008-1.629,1.767-2.823,2.287
		c-0.249,0.094-0.37,0.221-0.355,0.364c0.017,0.128,0.081,0.272,0.186,0.45c0.112,0.172,0.277,0.463,0.504,0.867l1.652,2.928
		l1.91,3.396c0.657,1.152,1.235,1.944,1.75,2.395c0.51,0.441,1.114,0.663,1.81,0.663c0.281,0,0.554-0.026,0.803-0.074
		c0.137-0.031,0.28-0.052,0.403-0.052c0.221,0,0.333,0.142,0.333,0.424c0,0.36-0.504,0.763-1.513,1.22
		c-1.007,0.462-1.904,0.69-2.683,0.69c-1.274,0-2.452-0.627-3.52-1.873c-1.076-1.245-2.477-3.607-4.192-7.085
		c-0.667-1.368-1.214-2.239-1.65-2.605c-0.436-0.36-1.136-0.541-2.113-0.541h-1.146l-0.839,0.145c-0.18,0.1-0.275,0.396-0.275,0.892
		V334.117z M78.059,320.463v13.961c0,2.09,0.303,3.57,0.913,4.448c0.599,0.871,1.672,1.353,3.21,1.454
		c0.441,0.036,0.664,0.255,0.664,0.651c0,0.287-0.191,0.425-0.578,0.425c-0.085,0-0.24-0.005-0.461-0.021l-1.391-0.058l-2.319-0.145
		c-0.18-0.009-0.429-0.021-0.742-0.021c-0.722,0-1.359,0.021-1.926,0.057l-2.818,0.166l-1.278,0.074
		c-0.436,0.054-0.738,0.08-0.893,0.08c-0.387,0-0.567-0.161-0.556-0.483c0.009-0.271,0.074-0.446,0.18-0.532
		c0.116-0.084,0.356-0.13,0.731-0.158c0.961-0.062,1.698-0.407,2.23-1.051c0.519-0.633,0.785-1.501,0.785-2.6l-0.017-0.875V319.37
		c0-0.974-0.524-1.463-1.575-1.463c-2.473,0-4.161,0.175-5.062,0.534c-0.653,0.277-1.094,0.579-1.305,0.917
		c-0.224,0.347-0.51,1.186-0.886,2.537l-0.144,0.521c-0.134,0.511-0.349,0.766-0.626,0.766c-0.413,0-0.604-0.192-0.578-0.579
		c0.016-0.346,0.08-0.828,0.186-1.442l0.18-1.615l0.229-1.649l0.126-1.138c0.048-0.48,0.314-0.721,0.781-0.721
		c0.126,0,0.333,0.011,0.63,0.037c0.484,0.037,1.163,0.055,2.054,0.055l3.789,0.036l4.51,0.058c2.903,0,5.976-0.084,9.235-0.244
		c0.636-0.02,1.051-0.035,1.236-0.035c0.679,0,1.04,0.287,1.078,0.853l0.094,1.339c0.006,0.207,0.069,0.711,0.181,1.501
		c0.085,0.658,0.128,1.183,0.128,1.575c0,0.409-0.16,0.611-0.5,0.611c-0.287,0-0.477-0.233-0.593-0.706
		c-0.26-1.146-0.759-1.974-1.498-2.489c-0.73-0.503-1.792-0.758-3.193-0.758c-1.879,0-3.052,0.143-3.514,0.435
		C78.293,318.597,78.059,319.318,78.059,320.463z"/>
	<path fill="#C29900" d="M63.552,269.447l27.158-3.649l0.059-0.005h0.069c1.2,0,4.224-0.628,7.1-1.227l0,0
		c2.345-0.483,4.584-0.95,5.827-1.062l0.063-0.006h0.049c1.417,0.049,2.62,0.155,3.757,0.25c3.093,0.266,5.667,0.488,8.645-0.688
		l0,0c2.529-1.13,5.12-2.562,7.709-4.002c2.446-1.358,4.903-2.715,7.339-3.842c1.114-0.514,2.218-0.977,3.322-1.369l0.052-0.021
		l0.074-0.016c0.738-0.148,1.952-0.568,3.29-1.029v-0.006c2.262-0.775,4.862-1.671,6.677-1.767c1.476-0.074,3.13,0.383,4.525,0.801
		c0.999,0.302,2.001,0.6,2.855,0.6l0.069,0.005c1.623,0.122,3.344-0.53,5.042-1.166c2.037-0.77,4.058-1.535,6.208-1.201h0.015
		c1.014,0.17,2.161,0.584,3.285,0.992c1.449,0.521,2.854,1.035,3.45,0.866l0.074-0.022l0.052-0.011
		c2.374-0.34,4.209,0.409,6.125,1.188c1.208,0.5,2.462,1.01,3.862,1.194c1.2,0.133,3.385,1.115,5.858,2.225
		c3.291,1.469,7.122,3.193,9.265,3.262c1.561-0.115,4.722,0.822,9.27,2.182c10.99,3.279,30.316,9.048,52.657,7.806h0.037
		c1.645-0.033,5.639-0.559,9.791-1.108c4.615-0.61,9.434-1.254,11.625-1.275h0.004c4.787,0,9.541-1.061,14.275-2.121
		c1.051-0.234,2.195-0.488,2.738-0.609l0.033-0.008c0.285-0.047,1.277-0.295,2.652-0.637c4.463-1.119,12.904-3.225,15.971-3.225
		v0.004c1.189-0.058,2.951,0.287,5.01,0.691c3.887,0.758,8.9,1.734,12.254,0.471l0.086-0.031l0.088-0.016
		c1.752-0.303,2.93,0.016,4.098,0.334v0.005c0.732,0.197,1.451,0.394,2.291,0.376h0.074c1.316,0.092,2.824,0.373,4.342,0.654
		c2.078,0.391,4.203,0.789,5.715,0.648c2.066-0.674,4.447-0.67,6.738-0.659h0.686h0.012c1.367,0.011,3.082,0.524,4.844,1.061
		c0.939,0.286,1.904,0.58,2.797,0.786c2.195,0.508,4.871,0.043,7.068-0.191c2.123-0.227,4.375-0.467,6.107-0.467l0,0
		c1.645-0.064,3.289,0.121,4.992,0.303l0,0c2.07,0.228,4.225,0.465,6.416,0.254l0.021-0.004c1.92-0.149,5.354,0.472,8.676,1.066
		c2.457,0.439,4.85,0.869,6.422,0.949l0,0c2.068,0.078,4.85,0.637,7.785,1.227c3.615,0.73,7.477,1.506,10.277,1.434l0.18-0.008
		l0.158,0.06c2.877,1.022,5.912,0.636,8.898,0.253c1.754-0.221,3.498-0.439,5.238-0.402c1.572-0.1,4.33,0.123,7.059,0.34
		c2.129,0.174,4.234,0.345,5.635,0.356l-0.016,1.915c-1.545-0.01-3.65-0.186-5.768-0.356c-2.664-0.212-5.361-0.429-6.781-0.339
		l-0.029,0.004l-0.062-0.004c-1.631-0.042-3.328,0.175-5.035,0.393c-3.164,0.404-6.379,0.813-9.615-0.292
		c-2.992,0.044-6.871-0.735-10.518-1.47c-2.859-0.572-5.572-1.125-7.494-1.193h-0.004c-1.676-0.086-4.145-0.524-6.67-0.982
		c-3.193-0.568-6.49-1.162-8.193-1.034l0,0c-2.398,0.228-4.637-0.017-6.793-0.257c-1.643-0.178-3.234-0.354-4.742-0.289h-0.037
		c-1.672,0-3.859,0.238-5.906,0.455c-2.484,0.266-5.053,0.732-7.52,0.191c-1.014-0.229-2.064-0.553-3.104-0.859
		c-1.625-0.494-3.205-0.978-4.299-0.981h-0.686c-2.176-0.006-4.43-0.011-6.227,0.595l-0.104,0.029l-0.107,0.018
		c-1.791,0.203-4.105-0.232-6.371-0.656c-1.443-0.271-2.873-0.544-4.074-0.622c-1.084,0.015-1.928-0.219-2.781-0.446l0,0
		c-0.949-0.254-1.906-0.515-3.189-0.312c-3.852,1.406-9.117,0.376-13.197-0.42c-1.969-0.383-3.646-0.711-4.59-0.658l-0.055,0.006
		c-2.838,0-11.125,2.069-15.51,3.163c-1.379,0.345-2.389,0.593-2.758,0.668c-1.27,0.27-1.947,0.425-2.713,0.593
		c-4.83,1.083-9.678,2.165-14.678,2.165c-2.064,0.022-6.824,0.654-11.393,1.259c-4.178,0.557-8.188,1.089-9.971,1.125
		c-22.679,1.258-42.202-4.563-53.308-7.88c-4.363-1.3-7.393-2.202-8.593-2.106l-0.015,0.006l-0.08-0.006
		c-2.52-0.038-6.596-1.867-10.083-3.429c-2.351-1.05-4.419-1.979-5.3-2.069l-0.032-0.004c-1.635-0.219-3.003-0.776-4.33-1.317
		c-1.651-0.679-3.239-1.322-5.083-1.072c-1.19,0.297-2.845-0.309-4.553-0.922c-1.037-0.378-2.102-0.759-2.952-0.909l0,0
		c-1.633-0.249-3.428,0.425-5.221,1.104c-1.89,0.71-3.788,1.428-5.805,1.294c-1.131-0.006-2.261-0.345-3.387-0.684
		c-0.934-0.277-2.992-0.876-4.127-0.765c-1.359,0.139-3.799,0.982-5.901,1.709v-0.005c-1.374,0.478-2.62,0.903-3.459,1.083
		c-3.371,1.216-6.846,3.141-10.312,5.062c-2.646,1.465-5.284,2.928-7.906,4.096l-0.037,0.018c-3.396,1.342-6.171,1.102-9.504,0.816
		c-1.146-0.096-2.365-0.201-3.603-0.244c-1.119,0.107-3.284,0.557-5.54,1.025c-2.918,0.604-5.986,1.246-7.429,1.262l-27.349,3.655
		V269.447z"/>
	<path fill="#C29900" d="M170.932,262.878L170.932,262.878 M63.552,274.148l23.363-2.731l0.034-0.006h0.078
		c1.422,0,4.177-0.456,6.846-0.897c2.26-0.371,4.468-0.736,5.859-0.821h0.074c1.304,0.037,2.451,0.112,3.543,0.181
		c3.083,0.207,5.764,0.381,8.75-0.521l0,0c2.336-0.854,4.685-1.924,7.042-2.998c3.247-1.475,6.5-2.961,9.733-3.9l0.074-0.02
		l0.042-0.006l0.032-0.006c0.911-0.121,2.282-0.481,3.74-0.865c4.187-1.098,7.371-1.417,11.583-0.641
		c1.253,0.232,2.516,0.466,3.673,0.466h0.043c2.202,0.09,4.467-0.409,6.727-0.901c2.548-0.557,5.083-1.12,7.706-0.883h0.021
		c1.147,0.124,2.399,0.427,3.63,0.725c1.713,0.412,3.407,0.822,4.499,0.65l0.049-0.003c2.382-0.251,4.35,0.312,6.383,0.889
		c1.312,0.372,2.654,0.755,4.075,0.898c1.403,0.091,3.642,0.905,6.093,1.804c2.944,1.072,6.22,2.266,8.283,2.314
		c1.554-0.092,4.475,0.705,8.533,1.824c9.021,2.478,23.896,6.569,40.918,5.669h0.037c1.704-0.022,5.249-0.432,8.889-0.851
		c3.942-0.455,8.006-0.924,10.182-0.938l0.006-0.006c4.447,0,8.84-0.796,13.213-1.587l2.537-0.457l0.08-0.01
		c0.629-0.054,2.418-0.426,4.611-0.879c4.137-0.861,9.693-2.013,12.32-2.013v0.005c1.268-0.047,3.012,0.232,5,0.546
		c3.518,0.563,7.826,1.253,10.93,0.313l0.076-0.02l0.094-0.012c1.842-0.213,3.291,0.015,4.732,0.244
		c0.988,0.158,1.975,0.314,3.053,0.303h0.053c1.406,0.062,2.945,0.275,4.488,0.487c2.166,0.298,4.357,0.599,6.086,0.478
		c2.443-0.498,5.127-0.492,7.756-0.488h0.801l0,0c1.48,0.007,3.205,0.398,4.971,0.803c2.178,0.491,4.422,1,5.996,0.723l0.053-0.008
		l0.09-0.004c1.674-0.037,3.658-0.16,5.689-0.287c2.689-0.164,5.465-0.334,7.838-0.334l0,0c2.15-0.049,4.281,0.089,6.459,0.234
		c2.652,0.167,5.369,0.344,8.123,0.178h0.016c2.557-0.104,6.199,0.341,9.764,0.775c2.781,0.345,5.52,0.68,7.553,0.738
		c2.508,0.059,5.561,0.494,8.717,0.95c3.773,0.535,7.699,1.099,10.852,1.044h0.121l0.107,0.023c3.449,0.79,7.014,0.492,10.549,0.205
		c2.029-0.168,4.055-0.334,6.113-0.297c2.281-0.08,5.453,0.092,8.607,0.252c2.482,0.129,4.957,0.258,6.908,0.269l-0.012,1.916
		c-2.047-0.011-4.52-0.139-6.998-0.271c-3.121-0.157-6.256-0.323-8.447-0.249h-0.047c-1.928-0.038-3.949,0.128-5.975,0.297
		c-3.643,0.297-7.312,0.601-11.016-0.223c-3.303,0.037-7.252-0.526-11.039-1.065c-3.109-0.446-6.129-0.882-8.49-0.935h-0.006
		c-2.191-0.064-4.939-0.398-7.727-0.743c-3.496-0.43-7.062-0.865-9.439-0.771v0.006c-2.877,0.166-5.646-0.017-8.357-0.184
		c-2.16-0.146-4.281-0.277-6.32-0.231h-0.016c-2.383,0-5.096,0.171-7.721,0.331c-1.979,0.121-3.916,0.244-5.68,0.287
		c-1.941,0.323-4.35-0.224-6.684-0.76c-1.672-0.377-3.301-0.747-4.559-0.754h-0.795c-2.545-0.004-5.156-0.01-7.434,0.468
		l-0.066,0.015h-0.059c-1.926,0.149-4.25-0.169-6.543-0.486c-1.494-0.203-2.992-0.416-4.297-0.473
		c-1.221,0.015-2.283-0.154-3.338-0.324c-1.279-0.2-2.574-0.403-4.135-0.238c-3.502,1.029-8.014,0.303-11.701-0.287
		c-1.895-0.305-3.57-0.573-4.658-0.525h-0.037c-2.451,0-7.881,1.129-11.93,1.971c-2.17,0.449-3.957,0.82-4.766,0.904
		c-1.311,0.229-1.908,0.341-2.514,0.447c-4.484,0.812-8.979,1.627-13.553,1.627v-0.003c-2.027,0.015-6.059,0.483-9.964,0.934
		c-3.652,0.42-7.197,0.821-9.053,0.854c-17.32,0.923-32.38-3.221-41.518-5.736c-3.889-1.066-6.675-1.831-7.917-1.751h-0.075
		c-2.403-0.033-5.856-1.294-8.972-2.431c-2.319-0.85-4.436-1.62-5.567-1.693L181,264.667c-1.64-0.16-3.058-0.562-4.447-0.96
		c-1.841-0.521-3.636-1.03-5.62-0.829c-1.453,0.219-3.331-0.233-5.243-0.696c-1.161-0.278-2.346-0.562-3.374-0.676l0,0
		c-2.302-0.203-4.707,0.324-7.121,0.854c-2.362,0.519-4.745,1.039-7.206,0.938c-1.328-0.005-2.665-0.255-3.992-0.499
		c-4.032-0.744-6.549-0.488-10.74,0.615c-1.475,0.389-2.864,0.754-3.916,0.903c-3.079,0.899-6.239,2.344-9.404,3.777
		c-2.419,1.11-4.85,2.214-7.233,3.082l-0.046,0.017c-3.312,1.003-6.157,0.812-9.425,0.601c-1.104-0.074-2.261-0.149-3.418-0.182
		c-1.305,0.081-3.448,0.435-5.635,0.796c-2.696,0.446-5.481,0.907-7.088,0.918l-23.54,2.744V274.148z"/>
	<path fill="#C29900" d="M63.557,278.861l19.572-1.826l0.041-0.004h0.043c1.646,0,4.172-0.297,6.66-0.59
		c2.139-0.249,4.239-0.5,5.832-0.556h0.042c1.188,0.021,2.282,0.067,3.333,0.115c3.05,0.138,5.831,0.267,8.809-0.339
		c2.165-0.58,4.31-1.294,6.452-2.016c4.671-1.566,8.379-2.399,13.034-3.232v-0.006c4.19-0.749,7.873-0.824,12.077-0.381
		c4.427,0.461,8.396,0.243,12.863-0.294c3.079-0.364,6.157-0.731,9.276-0.582h0.011c1.294,0.08,2.637,0.274,3.968,0.47
		c1.974,0.289,3.927,0.569,5.492,0.447h0.015c2.379-0.164,4.496,0.212,6.654,0.59c1.412,0.248,2.846,0.509,4.341,0.6v0.004
		c1.609,0.064,3.806,0.653,6.125,1.27h0.003c2.617,0.7,5.414,1.449,7.436,1.475c1.581-0.069,4.224,0.563,7.758,1.408
		c6.94,1.658,17.425,4.169,29.216,3.585h0.037c1.81-0.015,4.851-0.292,7.949-0.573c3.293-0.297,6.659-0.605,8.771-0.615v-0.006
		c4.096,0,8.129-0.529,12.156-1.06h0.006l2.34-0.304l0.08-0.006c1.045-0.048,3.125-0.375,5.467-0.747
		c3.438-0.547,7.438-1.183,9.814-1.183v0.004c1.381-0.029,3.092,0.171,4.947,0.387c1.783,0.214,3.713,0.436,5.572,0.488
		c3.385,0.086,6.121-0.467,9.641-0.165c1.258,0.108,2.514,0.214,3.783,0.209h0.031c1.48,0.042,3.059,0.186,4.639,0.323
		c2.223,0.201,4.457,0.404,6.4,0.318c2.82-0.33,5.848-0.33,8.828-0.324h0.908c1.588,0.006,3.326,0.266,5.084,0.53
		c2.201,0.335,4.451,0.675,6.244,0.483l0.033-0.006h0.059c2.318-0.025,4.846-0.109,7.402-0.195c3.303-0.107,6.654-0.219,9.631-0.219
		l0,0c2.637-0.03,5.27,0.064,7.938,0.156c3.232,0.115,6.506,0.227,9.812,0.121h0.012c3.182-0.069,7.066,0.223,10.898,0.509
		c3.066,0.229,6.113,0.456,8.648,0.499l0,0c2.92,0.037,6.23,0.34,9.605,0.646c3.928,0.352,7.939,0.717,11.463,0.687h0.074
		l0.061,0.005c4.014,0.535,8.1,0.338,12.168,0.143c2.32-0.111,4.645-0.218,6.98-0.195h0.021c3.002-0.049,6.59,0.058,10.16,0.168
		c2.84,0.084,5.684,0.17,8.168,0.176v1.916c-2.543-0.006-5.381-0.092-8.219-0.176c-3.572-0.111-7.148-0.217-10.1-0.168h-0.021
		c-2.26-0.023-4.578,0.089-6.898,0.195c-4.129,0.202-8.279,0.403-12.451-0.149c-3.596,0.032-7.633-0.333-11.576-0.693
		c-3.344-0.298-6.623-0.601-9.461-0.639h-0.006c-2.674-0.042-5.705-0.269-8.754-0.498c-3.816-0.286-7.676-0.572-10.723-0.509
		c-3.361,0.111-6.674-0.006-9.932-0.119c-2.652-0.094-5.283-0.186-7.859-0.151h-0.01c-3.146,0-6.385,0.111-9.572,0.212
		c-2.521,0.086-5.021,0.17-7.381,0.195c-2.049,0.214-4.395-0.143-6.703-0.489c-1.705-0.259-3.391-0.513-4.797-0.519h-0.908
		c-2.902,0-5.857-0.006-8.611,0.318l-0.068,0.005c-2.059,0.095-4.395-0.116-6.715-0.323h-0.002
		c-1.547-0.138-3.086-0.275-4.514-0.318c-1.412,0.012-2.674-0.101-3.932-0.208c-3.262-0.278-6.238,0.251-9.449,0.171
		c-1.965-0.043-3.969-0.28-5.816-0.498c-1.82-0.213-3.492-0.415-4.713-0.383l-0.021,0.006c-2.27,0-6.164,0.62-9.518,1.15
		c-2.383,0.377-4.502,0.711-5.658,0.77l-2.281,0.293v0.005c-4.119,0.536-8.246,1.083-12.406,1.083v-0.006
		c-2.021,0.009-5.343,0.314-8.597,0.609c-3.121,0.281-6.182,0.564-8.077,0.579c-12.051,0.595-22.689-1.947-29.748-3.634
		c-3.374-0.813-5.904-1.412-7.227-1.354h-0.052c-2.294-0.021-5.223-0.8-7.96-1.532v-0.006c-2.24-0.595-4.351-1.162-5.731-1.215
		h-0.027c-1.618-0.103-3.093-0.361-4.552-0.621c-2.044-0.356-4.044-0.711-6.182-0.568c-1.772,0.137-3.831-0.16-5.913-0.462
		c-1.306-0.186-2.615-0.376-3.82-0.458c-2.938-0.137-5.937,0.219-8.946,0.58c-4.61,0.552-8.713,0.764-13.278,0.291
		c-4.138-0.428-7.343-0.382-11.546,0.371l-0.006-0.004c-4.43,0.789-8.453,1.719-12.761,3.162c-2.207,0.736-4.415,1.482-6.56,2.054
		l-0.057,0.012c-3.233,0.662-6.14,0.529-9.334,0.392c-1.061-0.048-2.16-0.095-3.253-0.12c-1.458,0.056-3.539,0.301-5.65,0.55
		c-2.5,0.293-5.042,0.588-6.836,0.596l-19.698,1.83V278.861z"/>
	<path fill="#C29900" d="M63.557,283.564l15.846-0.914c4.101,0,8.182-0.573,12.279-0.573c2.346,0.026,4.697,0.121,7.048,0.117
		c3.82-0.005,7.062-0.542,10.824-1.248c4.176-0.784,8.139-1.24,12.354-1.623c4.298-0.388,8.379-0.365,12.671-0.175
		c5.105,0.227,10.103,0.111,15.223-0.149c5.122-0.255,10.11-0.397,15.214-0.06c1.529,0.103,3.046,0.203,4.501,0.234
		c0.657,0.018,1.305,0.018,1.925-0.004c2.42-0.082,4.676,0.105,6.953,0.297c3.582,0.291,7.058,0.435,10.629,0.961
		c7.646,1.131,17.345,2.79,25.692,3.167c4.172,0.192,8.374-0.021,12.534-0.255c6.177-0.338,12.333-0.393,18.498-0.832
		c6.878-0.488,13.834-1.364,20.727-0.912c4.15,0.275,8.193-0.008,12.332,0.041c6.113,0.074,12.248,0.658,18.35,0.535v-0.004
		c5.334-0.271,10.736-0.293,16.062,0.104c2.234,0.172,4.484,0.341,6.5,0.239h0.043c2.949-0.016,6.018-0.057,9.084-0.094
		c3.98-0.06,7.98-0.111,11.453-0.111l0,0c3.145-0.018,6.293,0.029,9.451,0.077c3.793,0.061,7.619,0.112,11.453,0.061h0.006
		c3.807-0.034,7.955,0.11,12.084,0.253c3.328,0.111,6.645,0.23,9.711,0.25c3.375,0.021,6.912,0.176,10.484,0.33
		c4.086,0.174,8.221,0.354,12.09,0.334h0.059c4.584,0.275,9.184,0.176,13.764,0.078c2.617-0.058,5.227-0.111,7.85-0.1h0.004
		c3.729-0.025,7.752,0.031,11.77,0.085c3.199,0.041,6.4,0.086,9.42,0.09v1.915c-3.047-0.003-6.24-0.049-9.441-0.089
		c-4.016-0.054-8.039-0.108-11.748-0.085h-0.004c-2.59-0.012-5.201,0.047-7.812,0.1c-4.635,0.1-9.281,0.197-13.904-0.074
		c-3.932,0.016-8.053-0.164-12.129-0.339c-3.576-0.154-7.121-0.308-10.406-0.329c-3.131-0.021-6.447-0.132-9.768-0.251
		c-4.117-0.142-8.258-0.286-11.998-0.253c-3.863,0.058-7.701,0-11.512-0.06c-3.148-0.048-6.291-0.095-9.412-0.075h-0.01
		c-4.014,0-7.729,0.055-11.426,0.108c-3.051,0.038-6.098,0.084-9.068,0.095c-2.156,0.106-4.447-0.068-6.729-0.24
		c-5.25-0.39-10.566-0.371-15.824-0.104h-0.025c-6.098,0.127-12.217-0.452-18.324-0.525c-4.207-0.055-8.32,0.232-12.545-0.049
		c-6.758-0.434-13.71,0.43-20.472,0.913c-6.186,0.446-12.343,0.495-18.53,0.833c-4.202,0.234-8.425,0.446-12.64,0.261
		c-8.436-0.384-18.201-2.044-25.975-3.185c-3.534-0.524-6.956-0.658-10.501-0.95c-2.25-0.185-4.473-0.37-6.737-0.296
		c-2.113,0.066-4.358-0.082-6.601-0.23c-5.031-0.328-9.977-0.189-15.008,0.065c-5.18,0.259-10.231,0.377-15.4,0.144
		c-4.201-0.188-8.204-0.213-12.405,0.168c-4.135,0.373-8.087,0.834-12.179,1.598c-3.974,0.744-7.359,1.283-11.403,1.279
		c-2.276,0-4.553-0.096-6.829-0.111c-4.081,0.064-8.147,0.568-12.233,0.568l-15.887,0.916V283.564z"/>
	<rect x="63.557" y="288.269" fill="#C29900" width="384.887" height="1.921"/>
	<path fill="#C29900" d="M63.55,264.736l30.956-4.559l0.056-0.012h0.089c0.982,0,4.364-0.822,7.477-1.585l0,0
		c2.377-0.583,4.605-1.131,5.658-1.265l0.078-0.012h0.074c1.47,0.061,2.764,0.197,3.97,0.324c3.094,0.325,5.564,0.584,8.544-0.859
		l0,0c2.751-1.411,5.572-3.203,8.396-5.008c2.656-1.693,5.326-3.395,7.975-4.802c1.208-0.642,2.406-1.22,3.6-1.714l0.035-0.01
		l0.055-0.015c0.502-0.155,1.488-0.579,2.645-1.072c2.195-0.939,4.955-2.112,6.893-2.377c1.458-0.192,2.883,0.349,4.178,0.971
		c0.732,0.351,1.461,0.706,1.994,0.706h0.033l0.082,0.01c0.978,0.127,2.135-0.642,3.277-1.395c1.536-1.025,3.054-2.033,4.802-1.555
		l0,0h0.008v0.004c0.893,0.233,1.934,0.77,2.942,1.29c2.797,1.443,1.667,0.679,4.245,0.887c1.558,0.122,2.853,0.833,4.191,1.581
		v-0.004c1.117,0.615,2.273,1.257,3.598,1.485l0,0c0.989,0.148,3.058,1.227,5.52,2.505c3.66,1.904,8.229,4.287,10.441,4.356
		c1.604-0.111,4.996,0.95,9.947,2.51c12.892,4.06,36.696,11.552,64.422,9.971h0.039c1.549-0.031,5.973-0.679,10.635-1.358
		c5.297-0.77,10.883-1.588,13.125-1.617h0.012c5.164,0,10.264-1.332,15.34-2.654c1.072-0.281,2.117-0.553,2.914-0.753
		c1.094-0.372,7.291-2.188,12.65-3.47c3.236-0.775,6.209-1.37,7.664-1.37l0,0c1.104-0.064,2.875,0.334,5.002,0.812
		c3.627,0.821,8.385,1.894,11.955,1.162c1.24-0.254,1.998-0.801,3.305-0.727c0.824,0.047,1.43,0.339,2.031,0.626
		c2.377,1.13,7.01,1.75,9.748,2.036c1.361,0.146,2.23-0.443,3.553-0.65c3.322-0.51,5.643-0.06,8.818,1.146
		c2.141,0.81,4.395,1.666,5.5,1.268l0.107-0.037l0.104-0.016c0.459-0.059,1.193-0.202,2.018-0.367
		c1.572-0.308,3.443-0.674,4.574-0.674c1.156-0.074,2.324,0.144,3.557,0.375c1.465,0.283,3.035,0.58,4.656,0.324v-0.004
		c1.34-0.201,4.615,0.615,7.697,1.381c2.131,0.529,4.168,1.039,5.211,1.135l0,0c1.646,0.09,4.133,0.754,6.811,1.469
		c3.48,0.924,7.312,1.943,9.752,1.853l0.258-0.011l0.227,0.122c2.277,1.217,4.771,0.744,7.205,0.282
		c1.48-0.282,2.947-0.558,4.428-0.509c0.959-0.119,3.254,0.157,5.494,0.435c1.736,0.213,3.459,0.419,4.332,0.428l-0.027,1.916
		c-1.029-0.01-2.77-0.223-4.529-0.439c-2.203-0.266-4.451-0.535-5.062-0.435l-0.098,0.015l-0.1-0.004
		c-1.289-0.053-2.678,0.213-4.08,0.477c-2.689,0.516-5.434,1.034-8.234-0.35c-2.717,0.031-6.555-0.993-10.053-1.921
		c-2.588-0.69-4.98-1.332-6.43-1.413l-0.027-0.003c-1.217-0.107-3.324-0.632-5.535-1.185c-2.896-0.716-5.984-1.486-6.953-1.337
		v-0.004c-1.945,0.307-3.682-0.022-5.299-0.331c-1.121-0.212-2.18-0.418-3.137-0.344l-0.062,0.006c-0.961,0-2.729,0.344-4.205,0.636
		c-0.824,0.159-1.564,0.308-2.066,0.375c-1.775,0.559-4.301-0.401-6.707-1.314c-2.83-1.077-4.947-1.523-7.932-1.034
		c-1.77,0.292-1.934,0.842-3.896,0.652c-2.967-0.291-7.85-0.981-10.443-2.213c-0.371-0.181-0.75-0.355-1.215-0.412
		c-1.117-0.135-2.273,0.561-3.381,0.747c-3.898,0.636-8.637-0.432-12.283-1.257c-2.023-0.458-3.689-0.829-4.516-0.766h-0.07
		c-1.311,0-4.123,0.574-7.219,1.312c-5.6,1.342-12.043,3.229-12.457,3.41l-0.084,0.043l-0.076,0.018
		c-1.145,0.285-2.041,0.519-2.908,0.746c-5.211,1.358-10.438,2.717-15.824,2.717l0,0c-2.09,0.025-7.629,0.832-12.867,1.598
		c-4.664,0.684-9.105,1.333-10.834,1.379c-28.078,1.598-52.096-5.964-65.108-10.06c-4.809-1.513-8.079-2.542-9.251-2.426
		l-0.056,0.006h-0.063c-2.663-0.059-7.481-2.563-11.334-4.569c-2.302-1.204-4.244-2.212-4.903-2.314H179.1
		c-1.666-0.28-2.972-1.007-4.222-1.702l0,0c-1.13-0.627-2.221-1.227-3.43-1.333c-2.053-0.18-2.897-0.037-4.965-1.108
		c-0.922-0.473-1.879-0.972-2.552-1.146h-0.015c-0.904-0.25-2.071,0.52-3.25,1.3c-1.399,0.934-2.82,1.879-4.468,1.714
		c-0.952-0.01-1.878-0.456-2.805-0.902c-0.61-0.297-2.585-1.109-3.348-0.929c-1.306,0.313-4.025,1.475-6.141,2.372
		c-1.153,0.494-2.143,0.918-2.786,1.119c-3.668,1.513-7.462,3.933-11.245,6.347c-2.868,1.826-5.729,3.649-8.57,5.11l-0.019,0.01
		c-3.459,1.683-6.178,1.396-9.574,1.035c-1.157-0.117-2.407-0.249-3.776-0.307c-0.952,0.138-3.08,0.658-5.349,1.215h-0.007
		c-3.139,0.768-6.554,1.608-7.841,1.646l-31.186,4.571V264.736z"/>
	<path fill-rule="evenodd" clip-rule="evenodd" fill="#E36614" d="M448.448,259.854l-0.008-87.735H63.565l-0.012,86.558
		l34.918-5.498c1.518,0.006,11.546-3.078,13.495-3.433c5.598,0.254,8.664,1.81,13.153-0.759c7.075-4.038,14.451-10.57,21.504-13.802
		c1.373-0.626,7.354-3.963,9.571-4.207c0.722-0.08,1.689,0.567,2.229,0.998c0.662,0.536,1.346,1.141,1.901,1.141
		c0.963,0.287,1.878-1.916,2.924-3.036c0.472-0.503,1.342-0.801,1.808-0.535c0.945,0.382,2.522,1.665,3.601,2.371
		c0.99,0.653,1.146,0.239,2.195,0.271c2.746,0.085,4.405,3.036,7.503,3.678c1.748,0.383,12.974,8.146,16.939,8.246
		c5.189-0.594,41.476,17.611,86.875,14.974c3.363-0.089,22.004-3.506,26.102-3.57c6.727,0,13.262-2.282,19.801-4.123
		c0-0.355,17.852-5.77,21.672-5.77c2.756-0.275,14.221,4.729,20.385,1.65c2.016-0.693,2.518,1.438,3.928,1.37
		c2.686,0.302,6.717,2.123,8.879,1.656c1.211-1.093,3.135-0.967,4.82-0.967c1.768,0.017,5.424,2.325,8.057,3.015
		c1.521,0.398,1.965-0.006,3.215-0.547c0.777-0.334,1.729-0.679,1.934-0.679c1.344-0.224,3.035,1.421,5.219,0.821
		c0.797-0.364,8.842,2.74,10.447,3.02c2.746,0.249,11.355,4.197,15.164,3.99c3.225,2.574,6.666-0.34,9.754-0.138
		C441.543,258.544,447.426,259.812,448.448,259.854"/>
	<path fill="#C29900" d="M63.535,260.039l34.769-5.477l0.074-0.009h0.075c0.773,0,4.702-1.099,8.109-2.049
		c2.302-0.642,4.383-1.22,5.215-1.375l0.112-0.02l0.097,0.004c1.603,0.074,2.949,0.245,4.181,0.394
		c3.103,0.386,5.476,0.678,8.459-1.025h0.003c2.968-1.693,6.019-3.858,9.077-6.017h0.003c2.864-2.038,5.75-4.076,8.607-5.768
		c1.306-0.77,2.6-1.464,3.883-2.053l0.007-0.006c1.696-0.769,3.325-1.704,5.007-2.504c2.448-1.163,4.936-2.075,6.085-1.529
		c0.681,0.127,1.302,0.627,1.924,1.125v0.005c0.896,0.723,1.187,1.147,1.963,0.208c0.23-0.281,0.487-0.626,0.741-0.972
		c1.052-1.4,2.071-2.758,3.541-1.953c0.732,0.313,1.678,0.992,2.551,1.624h0.004c1.514,1.093,1.056,0.945,2.593,0.902
		c1.819-0.053,3.147,0.914,4.545,1.932c1.02,0.737,2.09,1.513,3.367,1.778h0.007c0.751,0.165,2.593,1.241,4.888,2.583
		c3.991,2.335,9.452,5.531,11.806,5.641c1.626-0.138,5.259,1.05,10.657,2.817c14.752,4.824,43.057,14.089,76.211,12.163h0.025
		c1.504-0.044,6.316-0.796,11.436-1.599c5.996-0.934,12.416-1.942,14.678-1.972h0.016c5.512,0,10.973-1.599,16.406-3.185
		c7.344-2.144,17.221-6.718,25.064-6.718v0.006c1.049-0.07,2.803,0.371,4.971,0.918c4.553,1.145,11.074,2.786,14.986,0.833
		l0.049-0.027l0.066-0.021c1.715-0.589,2.396,0.064,3.062,0.701l0,0c1.145,1.103,6.039,1.793,7.861,2.165
		c1.828,0.372,2.215-0.425,3.902-0.722c0.867-0.149,1.779-0.143,2.65-0.138h0.475l0,0c1.184,0.011,2.832,0.764,4.564,1.561
		c1.221,0.551,2.488,1.135,3.512,1.443c1.838,0.547,3.195-0.886,4.957-1.2V252.5c0.812-0.133,1.549,0.143,2.367,0.446
		c0.469,0.175,0.971,0.366,1.494,0.45c1.021,0.16,1.807-0.127,2.898,0.112c1.467,0.323,3.535,1.013,5.412,1.646
		c1.711,0.572,3.256,1.092,3.812,1.192l0,0c1.24,0.138,3.322,0.839,5.641,1.629c3.348,1.143,7.23,2.463,9.312,2.352l0.365-0.022
		l0.283,0.223c1.686,1.349,3.613,0.804,5.477,0.277c1.16-0.329,2.301-0.651,3.475-0.626c0.107-0.021,0.23-0.038,0.355-0.038
		c0.559,0,2.229,0.31,3.824,0.595c1.32,0.244,2.596,0.473,2.969,0.488l-0.074,1.916c-0.496-0.016-1.838-0.261-3.23-0.514
		c-0.973-0.175-1.982-0.357-2.68-0.461v0.004l-1.021-0.069c-0.934-0.059-2.01,0.243-3.098,0.552
		c-2.238,0.637-4.549,1.295-6.912-0.398c-2.473-0.011-6.322-1.32-9.664-2.455c-2.264-0.777-4.279-1.461-5.27-1.551l-0.082-0.006
		c-0.674-0.121-2.293-0.667-4.092-1.268c-1.756-0.59-3.697-1.241-4.828-1.587c-1.219-0.376-1.832,0.122-3.125-0.079
		c-0.699-0.113-1.328-0.346-1.912-0.563c-1.881-0.706-2.217-0.111-4.07,0.801c-0.736,0.367-1.668,0.334-2.688,0.091
		c-1.316-0.313-2.791-0.987-4.203-1.636c-1.549-0.705-3.014-1.373-3.785-1.384h-0.467c-0.822-0.006-1.682-0.011-2.426,0.138
		c-2.035,0.418-1.463,1.23-4.207,0.737c-2.439-0.44-5.863-1.066-8.109-1.979c-0.404-0.169-0.691-0.445-0.988-0.727
		c-0.246-0.234-0.494-0.467-1.072-0.287c-4.545,2.219-11.42,0.484-16.229-0.726c-2.068-0.521-3.725-0.939-4.42-0.871l-0.082,0.01
		h-0.008c-7.873,0-14.354,3.752-21.418,5.737c-1.232,0.345-2.154,0.616-3.109,0.896c-5.561,1.623-11.145,3.26-16.932,3.26
		c-2.129,0.029-8.486,1.022-14.412,1.951c-5.158,0.807-10.01,1.565-11.65,1.619c-33.514,1.942-62.045-7.393-76.91-12.258
		c-5.242-1.715-8.738-2.854-9.913-2.723l-0.052,0.005h-0.075c-2.823-0.074-8.593-3.449-12.8-5.906
		c-2.139-1.253-3.85-2.256-4.319-2.356v-0.006c-1.688-0.35-2.92-1.247-4.095-2.101c-0.83-0.6-1.625-1.178-2.496-1.421
		c-0.945-0.266-1.623,0.276-2.478-0.032c-0.546-0.201-1.332-0.771-2.169-1.374h0.004c-0.431-0.314-0.885-0.643-1.291-0.908
		c-1.09-0.716-0.915-0.796-1.647,0.181c-0.157,0.196-0.32,0.425-0.491,0.647c-0.934,1.253-1.894,2.542-3.277,2.282
		c-0.781-0.048-1.48-0.615-2.18-1.178c-2.299-1.857-3.081-0.738-5.978,0.643c-1.696,0.801-3.333,1.751-5.04,2.52l0,0
		c-3.969,1.814-8.083,4.734-12.183,7.636l0,0c-3.091,2.192-6.178,4.379-9.232,6.124v0.006c-3.541,2.016-6.189,1.692-9.642,1.263
		c-1.202-0.149-2.511-0.308-3.936-0.377c-0.788,0.16-2.752,0.706-4.932,1.316c-3.433,0.961-7.388,2.064-8.544,2.112l-34.992,5.487
		V260.039z"/>
</g>
</svg>
