<?xml version="1.0" encoding="utf-8"?>
<!-- Generator: Adobe Illustrator 15.1.0, SVG Export Plug-In . SVG Version: 6.00 Build 0)  -->
<!DOCTYPE svg PUBLIC "-//W3C//DTD SVG 1.1//EN" "http://www.w3.org/Graphics/SVG/1.1/DTD/svg11.dtd">
<svg version="1.1" id="Layer_1" xmlns="http://www.w3.org/2000/svg" xmlns:xlink="http://www.w3.org/1999/xlink" x="0px" y="0px"
	 width="512px" height="512px" viewBox="0 0 512 512" enable-background="new 0 0 512 512" xml:space="preserve">
<g>
	<rect x="56" y="194.643" fill-rule="evenodd" clip-rule="evenodd" fill="#E36500" width="400" height="122.714"/>
	<path fill="#324A51" d="M423.307,253.839v15.284l0.209,1.582c0.38,1.35,1.814,2.021,4.299,2.021c2.687,0,4.823-0.934,6.399-2.794
		c1.574-1.862,2.366-4.377,2.366-7.547c0-3.317-0.946-6.024-2.844-8.111c-1.896-2.087-4.345-3.134-7.35-3.134
		c-1.229,0-2.069,0.161-2.52,0.489C423.491,251.884,423.307,252.621,423.307,253.839 M419.311,254.772
		c0-1.117-0.309-1.98-0.921-2.58c-0.614-0.608-1.482-0.911-2.606-0.911c-0.363,0-0.541-0.154-0.541-0.458
		c0-0.208,0.077-0.346,0.226-0.411c0.15-0.064,0.482-0.095,0.994-0.095l2.646,0.035c0.605,0,1.142-0.011,1.625-0.035
		c0.73-0.048,1.73-0.131,3.009-0.25c1.718-0.166,3.086-0.249,4.09-0.249c3.938,0,7.097,1.01,9.469,3.026
		c2.372,2.016,3.562,4.698,3.562,8.046c0,4.318-1.593,7.754-4.788,10.311c-2.343,1.874-4.984,2.808-7.921,2.808
		c-0.487,0-1.468-0.047-2.944-0.143c-0.837-0.047-1.693-0.071-2.575-0.071c-2.069,0-3.443,0.065-4.125,0.196
		c-0.537,0.107-0.892,0.161-1.084,0.161c-0.267,0-0.396-0.173-0.396-0.518c0-0.238,0.142-0.386,0.434-0.446
		c0.712-0.137,1.201-0.434,1.461-0.892c0.255-0.453,0.387-1.232,0.387-2.337V254.772z M384.922,254.095l9.204,10.366l0.595,0.66
		c0.785,0.886,1.315,1.326,1.583,1.326c0.238,0,0.374-0.351,0.397-1.064c0.102-2.562,0.154-5.006,0.154-7.332
		c0-2.729-0.273-4.573-0.825-5.542c-0.547-0.962-1.63-1.504-3.24-1.617c-0.382-0.024-0.572-0.155-0.572-0.404
		c0-0.304,0.167-0.452,0.505-0.452c0.422,0,1.094,0.059,2.027,0.178c0.602,0.072,1.106,0.107,1.499,0.107
		c0.804,0,2.076-0.107,3.823-0.321c0.231-0.024,0.398-0.036,0.505-0.036c0.376,0,0.56,0.167,0.56,0.5
		c0,0.297-0.184,0.475-0.56,0.534c-1.503,0.28-2.259,1.607-2.259,3.979v0.857l-0.25,10.864l-0.065,1.492l-0.017,1.933l0.017,1.32
		l0.065,2.17c0,0.328-0.113,0.482-0.349,0.47c-0.209-0.012-0.424-0.137-0.643-0.38l-15.837-17.603
		c-0.28-0.297-0.47-0.452-0.576-0.452c-0.28,0-0.416,0.262-0.416,0.785l-0.019,0.505v6.762c0,3.609,0.18,6.024,0.541,7.243
		c0.382,1.302,1.516,2.039,3.397,2.211c0.351,0.037,0.522,0.18,0.522,0.436c0,0.351-0.178,0.529-0.541,0.529
		c-0.142,0-0.37-0.024-0.685-0.072c-0.979-0.166-2.063-0.25-3.251-0.25c-1.178,0-2.232,0.083-3.153,0.256
		c-0.403,0.066-0.702,0.101-0.892,0.101c-0.315,0-0.47-0.143-0.47-0.429c0-0.237,0.165-0.403,0.505-0.499
		c0.85-0.245,1.468-0.744,1.856-1.504c0.393-0.761,0.583-1.855,0.583-3.283l0.125-4.145v-7.552c0-3.574-1.321-5.453-3.954-5.637
		c-0.363-0.024-0.543-0.167-0.543-0.439c0-0.327,0.196-0.488,0.595-0.488l1.207,0.053l0.739-0.019c0.908,0,1.883-0.054,2.925-0.16
		c0.386-0.036,0.706-0.053,0.962-0.053c0.363,0,0.643,0.078,0.85,0.238c0.209,0.154,0.649,0.636,1.322,1.438l1.201,1.409
		C384.547,253.643,384.827,253.982,384.922,254.095z M350.632,263.027l-2.278-5.328c-0.547-1.278-0.933-1.915-1.165-1.915
		c-0.142,0-0.393,0.411-0.766,1.237l-0.328,0.731l-2.04,4.645l-0.19,0.434c-0.084,0.179-0.119,0.327-0.119,0.452
		c0,0.398,0.417,0.595,1.249,0.595h5.151c0.445,0,0.666-0.125,0.666-0.369c0-0.054-0.029-0.154-0.09-0.292L350.632,263.027z
		 M349.979,252.097l7.932,18.204c0.393,0.916,0.862,1.604,1.393,2.057c0.535,0.453,1.23,0.755,2.075,0.904
		c0.207,0.036,0.315,0.203,0.315,0.5c0,0.32-0.131,0.475-0.399,0.463c-0.154-0.013-0.376-0.048-0.666-0.102
		c-0.898-0.196-2.338-0.291-4.33-0.291c-1.999,0-3.36,0.095-4.084,0.28c-0.173,0.053-0.322,0.076-0.453,0.076
		c-0.326,0-0.487-0.16-0.487-0.486c0-0.167,0.129-0.286,0.386-0.369c0.554-0.161,1.017-0.453,1.387-0.875
		c0.361-0.421,0.545-0.862,0.545-1.326c0-0.655-0.505-2.087-1.516-4.305c-0.309-0.672-0.653-1.059-1.033-1.16
		c-0.376-0.101-1.714-0.148-4.009-0.148h-2.365l-1.57,0.279c-0.428,0.196-0.917,0.963-1.458,2.302l-0.541,1.344
		c-0.161,0.38-0.244,0.773-0.244,1.166c0,1.462,1.023,2.313,3.067,2.544c0.44,0.06,0.656,0.227,0.643,0.506
		c-0.023,0.304-0.231,0.458-0.63,0.458c-0.209,0-0.505-0.037-0.892-0.114c-0.766-0.16-1.451-0.243-2.059-0.243
		c-0.547,0-1.433,0.059-2.658,0.178c-0.91,0.094-1.474,0.142-1.693,0.142c-0.328,0-0.488-0.142-0.488-0.428
		c0-0.238,0.161-0.417,0.488-0.534c0.628-0.196,1.134-0.56,1.51-1.089c0.38-0.523,0.946-1.635,1.689-3.331l4.756-10.953
		c0.38-0.875,0.649-1.469,0.804-1.791l1.618-3.324c0.557-1.088,0.839-1.636,0.839-1.636c0,0.037,0,0.055,0,0.055
		s0.094-0.227,0.278-0.672c0.186-0.446,0.345-0.666,0.47-0.666c0.19,0,0.512,0.487,0.965,1.462L349.979,252.097z M311.348,268.552
		c0,2.177,0.263,3.395,0.781,3.662c0.29,0.149,0.856,0.227,1.7,0.227c3.938,0,6.727-1.16,8.368-3.473
		c0.51-0.707,0.831-1.059,0.963-1.059c0.213,0,0.321,0.238,0.321,0.714c0,1.48-0.489,2.795-1.464,3.961
		c-0.843,1.023-2.004,1.535-3.459,1.535c-0.305,0-0.858-0.03-1.654-0.09c-0.215-0.012-0.91-0.053-2.094-0.125l-1.896-0.088
		c-0.637-0.037-1.364-0.053-2.171-0.053c-1.351,0-2.8,0.088-4.354,0.272c-0.474,0.054-0.795,0.084-0.956,0.084
		c-0.338,0-0.505-0.155-0.505-0.458c0-0.208,0.148-0.352,0.451-0.434c0.75-0.208,1.261-0.613,1.547-1.213
		c0.284-0.595,0.428-1.576,0.428-2.938v-14.57c0-1.86-0.773-2.914-2.32-3.158l-1.046-0.172c-0.447-0.071-0.666-0.25-0.666-0.535
		c0-0.357,0.171-0.535,0.522-0.535c0.113,0,0.286,0.018,0.507,0.053c0.159,0.012,0.387,0.037,0.677,0.072l0.75,0.053
		c0.708,0.071,1.236,0.107,1.587,0.107c0.56,0,1.445-0.072,2.664-0.214c0.911-0.096,1.831-0.143,2.773-0.143
		c0.695,0,1.046,0.166,1.046,0.499c0,0.286-0.25,0.44-0.743,0.463c-1.171,0.083-1.756,0.893-1.756,2.427V268.552z M277.81,268.552
		c0,2.177,0.261,3.395,0.779,3.662c0.292,0.149,0.858,0.227,1.702,0.227c3.936,0,6.725-1.16,8.366-3.473
		c0.512-0.707,0.833-1.059,0.965-1.059c0.213,0,0.319,0.238,0.319,0.714c0,1.48-0.486,2.795-1.461,3.961
		c-0.846,1.023-2.004,1.535-3.462,1.535c-0.303,0-0.856-0.03-1.654-0.09c-0.213-0.012-0.91-0.053-2.092-0.125l-1.898-0.088
		c-0.637-0.037-1.361-0.053-2.169-0.053c-1.351,0-2.802,0.088-4.354,0.272c-0.476,0.054-0.797,0.084-0.958,0.084
		c-0.338,0-0.505-0.155-0.505-0.458c0-0.208,0.148-0.352,0.453-0.434c0.747-0.208,1.259-0.613,1.545-1.213
		c0.286-0.595,0.428-1.576,0.428-2.938v-14.57c0-1.86-0.772-2.914-2.319-3.158l-1.046-0.172c-0.444-0.071-0.666-0.25-0.666-0.535
		c0-0.357,0.173-0.535,0.524-0.535c0.113,0,0.284,0.018,0.505,0.053c0.161,0.012,0.386,0.037,0.679,0.072l0.748,0.053
		c0.708,0.071,1.238,0.107,1.589,0.107c0.56,0,1.445-0.072,2.664-0.214c0.911-0.096,1.831-0.143,2.771-0.143
		c0.695,0,1.046,0.166,1.046,0.499c0,0.286-0.249,0.44-0.743,0.463c-1.171,0.083-1.754,0.893-1.754,2.427V268.552z M247.177,249.962
		c0.083-0.012,0.215,0.006,0.405,0.053c0.196,0.036,0.653,0.072,1.38,0.107l1.854,0.089l1.714-0.065
		c0.589-0.048,1.099-0.095,1.539-0.148c0.215-0.024,0.405-0.036,0.583-0.036c0.315,0,0.472,0.154,0.472,0.463
		c0,0.239-0.144,0.381-0.434,0.429l-0.662,0.119c-0.897,0.155-1.349,1.124-1.349,2.909l0.017,1.51l-0.033,2.141
		c0,3.353-0.169,6.054-0.495,8.104c-0.332,2.053-0.862,3.634-1.595,4.752c-1.754,2.7-4.727,4.049-8.918,4.049
		c-2.962,0-5.256-0.559-6.897-1.671c-2.22-1.522-3.325-4.466-3.325-8.842l0.191-6.731l-0.055-3.17c0-0.791-0.077-1.344-0.231-1.67
		c-0.161-0.327-0.481-0.601-0.975-0.832c-0.571-0.269-1.214-0.452-1.921-0.56c-0.458-0.071-0.685-0.25-0.685-0.536
		c0-0.309,0.197-0.463,0.59-0.463c0.131,0,0.369,0.019,0.713,0.048c1.474,0.137,2.61,0.202,3.414,0.202
		c1.136,0,2.397-0.059,3.776-0.184c0.56-0.042,0.958-0.065,1.202-0.065c0.601,0,0.904,0.173,0.904,0.511
		c0,0.185-0.048,0.315-0.138,0.387c-0.095,0.065-0.314,0.136-0.666,0.208c-0.708,0.137-1.183,0.404-1.427,0.79
		c-0.245,0.393-0.392,1.148-0.452,2.278l-0.28,4.395l0.037,3.086c0,2.812,0.149,4.817,0.446,6.006
		c0.291,1.189,0.904,2.212,1.831,3.057c1.409,1.291,3.205,1.939,5.4,1.939c2.235,0,4.049-0.66,5.43-1.987
		c0.927-0.892,1.587-2.2,1.973-3.919c0.386-1.719,0.583-4.187,0.583-7.403v-1.416l-0.088-3.568
		c-0.067-1.082-0.405-1.921-1.013-2.515c-0.605-0.6-1.426-0.899-2.461-0.899c-0.458,0-0.683-0.171-0.683-0.522
		C246.845,250.116,246.958,249.974,247.177,249.962z M201.27,249.712c1.938,0,4.21,0.564,6.814,1.694
		c0.661,0.274,1.088,0.417,1.272,0.417c0.161,0,0.304-0.061,0.435-0.173l0.19-0.179c0.119-0.111,0.256-0.178,0.417-0.19
		c0.351-0.012,0.523,0.196,0.523,0.629l-0.017,1.221l-0.072,2.391l0.053,1.26c0.024,0.315,0.053,0.648,0.096,1.01
		c0.005,0.143,0.012,0.246,0.012,0.315c0,0.375-0.18,0.548-0.542,0.524c-0.25-0.012-0.41-0.256-0.493-0.732
		c-0.233-1.392-0.97-2.754-2.207-4.086c-1.748-1.879-3.858-2.819-6.339-2.819c-2.361,0-4.252,0.928-5.667,2.79
		c-1.422,1.861-2.13,4.336-2.13,7.427c0,3.313,0.732,6.102,2.201,8.368c1.462,2.265,3.271,3.396,5.411,3.396
		c0.637,0,1.451-0.143,2.434-0.422c0.987-0.286,1.735-0.595,2.242-0.928c0.463-0.297,0.79-0.737,0.969-1.314
		c0.178-0.577,0.267-1.469,0.267-2.682c0-1.385-0.25-2.343-0.749-2.878s-1.439-0.838-2.813-0.909
		c-0.362-0.024-0.541-0.196-0.541-0.519c0-0.32,0.208-0.48,0.625-0.48c0.13,0,0.332,0.011,0.612,0.029
		c1.136,0.101,2.426,0.149,3.865,0.149c1.488,0,2.581-0.037,3.277-0.114c0.523-0.064,0.958-0.101,1.308-0.101
		c0.417,0,0.625,0.155,0.625,0.458c0,0.28-0.208,0.457-0.625,0.541c-0.672,0.137-1.129,0.5-1.385,1.077
		c-0.256,0.583-0.381,1.563-0.381,2.944c0,0.428,0.018,0.808,0.054,1.147c0.047,0.578,0.071,0.988,0.071,1.22
		c0,0.357-0.077,0.618-0.22,0.791c-0.148,0.166-0.439,0.333-0.88,0.494c-0.267,0.094-1.189,0.481-2.771,1.165
		c-2.777,1.195-5.197,1.795-7.267,1.795c-3.134,0-5.697-1.064-7.689-3.187c-1.992-2.129-2.992-4.876-2.992-8.242
		c0-3.765,1.148-6.921,3.449-9.473C195.014,250.985,197.868,249.712,201.27,249.712z M161.938,254.178v3.782
		c0,1.083,0.077,1.766,0.238,2.058c0.154,0.285,0.534,0.435,1.142,0.435l0.529-0.019l0.766-0.018h1.487
		c1.154,0,2.046-0.629,2.675-1.891l0.405-0.851c0.101-0.208,0.274-0.315,0.517-0.327c0.25-0.012,0.376,0.143,0.376,0.47
		c0,0.095-0.013,0.345-0.042,0.768c-0.018,0.296-0.03,0.553-0.03,0.761c0,0.375,0.048,1.243,0.149,2.611
		c0.065,0.892,0.1,1.67,0.1,2.331l0.019,0.885c0,0.161-0.019,0.273-0.054,0.333c-0.047,0.066-0.137,0.107-0.279,0.119
		c-0.292,0.024-0.47-0.196-0.541-0.66c-0.149-0.988-0.5-1.736-1.047-2.248c-0.304-0.28-0.672-0.458-1.112-0.541
		c-0.435-0.077-1.255-0.119-2.45-0.119h-1.189c-0.56,0-0.941,0.083-1.144,0.25c-0.208,0.172-0.343,0.512-0.41,1.023
		c-0.071,0.577-0.106,1.492-0.106,2.747v1.563c0,1.636,0.13,2.813,0.386,3.533c0.197,0.523,0.428,0.874,0.695,1.058
		c0.27,0.184,0.685,0.279,1.245,0.279c4.722,0,7.814-1.432,9.27-4.305c0.084-0.137,0.148-0.214,0.208-0.226
		c0.119-0.024,0.227,0.018,0.32,0.113c0.102,0.102,0.149,0.227,0.149,0.375c0,1.147-0.309,2.254-0.922,3.324
		c-0.511,0.911-1.153,1.564-1.921,1.951c-0.766,0.392-1.783,0.588-3.049,0.588c-0.75,0-1.57-0.047-2.48-0.136l-2.022-0.191
		c-0.744-0.065-1.749-0.102-3.021-0.102c-0.844,0-2.135,0.053-3.872,0.161c-0.475,0.036-0.82,0.054-1.028,0.054
		c-0.28,0-0.429-0.132-0.452-0.386c-0.011-0.209,0.118-0.364,0.387-0.471c0.66-0.255,1.112-0.523,1.35-0.808
		c0.237-0.285,0.428-0.792,0.571-1.523c0.124-0.618,0.191-1.451,0.191-2.509v-13.802c0-1.303-0.215-2.182-0.637-2.647
		c-0.423-0.463-1.303-0.79-2.64-0.975c-0.315-0.047-0.47-0.219-0.47-0.518c0-0.272,0.19-0.41,0.577-0.41
		c0.077,0,0.255,0.012,0.523,0.03c0.208,0.012,0.494,0.018,0.851,0.018l1.76,0.066l6.606,0.065c3.8,0,6.144-0.053,7.023-0.161
		c0.095-0.011,0.173-0.019,0.243-0.019c0.341,0,0.506,0.191,0.506,0.572c0,0.268,0.035,0.744,0.107,1.427
		c0.096,1.011,0.143,1.736,0.143,2.177c0,0.88-0.227,1.332-0.671,1.355c-0.222,0.013-0.328-0.243-0.328-0.766
		c0-1.148-0.423-1.974-1.266-2.492c-0.845-0.517-2.213-0.772-4.104-0.772h-2.128l-1.189,0.136c-0.594,0.191-0.893,0.773-0.893,1.761
		L161.938,254.178z M123.92,253.601v6.036c0,0.743,0.095,1.213,0.285,1.409c0.196,0.196,0.654,0.298,1.374,0.298
		c2.069,0,3.354-0.036,3.848-0.113c0.494-0.077,0.958-0.309,1.392-0.708c0.85-0.767,1.271-1.826,1.271-3.176
		c0-1.754-0.57-3.205-1.718-4.347c-1.147-1.147-2.604-1.718-4.376-1.718c-0.792,0-1.333,0.166-1.629,0.5
		C124.07,252.109,123.92,252.716,123.92,253.601z M123.92,267.202c0,2.206,0.203,3.698,0.613,4.478
		c0.404,0.785,1.207,1.231,2.403,1.35c0.486,0.048,0.731,0.231,0.731,0.56c0,0.327-0.196,0.493-0.595,0.493
		c-0.125,0-0.362-0.018-0.714-0.053c-0.998-0.083-1.961-0.125-2.89-0.125c-0.779,0-1.469,0.024-2.069,0.066l-1.464,0.137
		l-1.164,0.101c-0.328,0.036-0.554,0.054-0.685,0.054c-0.417,0-0.625-0.16-0.625-0.475c0-0.256,0.118-0.417,0.351-0.489
		c0.79-0.243,1.338-0.571,1.641-0.981c0.304-0.41,0.452-1.04,0.452-1.884v-1.653l0.018-0.678v-12.577
		c0-1.393-0.172-2.326-0.523-2.796c-0.571-0.779-1.499-1.249-2.795-1.409c-0.476-0.072-0.713-0.273-0.713-0.606s0.16-0.5,0.486-0.5
		c0.131,0,0.339,0.019,0.63,0.048c0.893,0.09,1.874,0.131,2.944,0.131c1.17,0,2.592-0.067,4.264-0.196
		c1.962-0.154,3.317-0.232,4.062-0.232c2.206,0,4.037,0.601,5.489,1.809c1.45,1.206,2.176,2.723,2.176,4.548
		c0,1.154-0.321,2.2-0.969,3.146c-0.643,0.939-1.529,1.66-2.659,2.146c-0.231,0.095-0.338,0.209-0.327,0.351
		c0.012,0.114,0.071,0.256,0.172,0.417c0.106,0.161,0.261,0.435,0.47,0.821l1.552,2.754l1.79,3.188
		c0.619,1.076,1.166,1.826,1.647,2.248c0.482,0.417,1.047,0.624,1.695,0.624c0.267,0,0.518-0.024,0.75-0.071
		c0.136-0.03,0.267-0.048,0.38-0.048c0.209,0,0.315,0.13,0.315,0.397c0,0.34-0.476,0.719-1.428,1.148
		c-0.951,0.428-1.795,0.642-2.533,0.642c-1.189,0-2.289-0.589-3.3-1.76c-1.005-1.171-2.313-3.396-3.919-6.661
		c-0.625-1.29-1.142-2.104-1.546-2.449c-0.41-0.339-1.07-0.512-1.986-0.512h-1.083l-0.784,0.136
		c-0.172,0.095-0.262,0.376-0.262,0.839V267.202z M92.915,254.363v13.112c0,1.962,0.285,3.348,0.856,4.169
		c0.566,0.82,1.57,1.272,3.015,1.366c0.417,0.037,0.625,0.246,0.625,0.625c0,0.273-0.179,0.41-0.541,0.41
		c-0.077,0-0.227-0.005-0.434-0.018l-1.302-0.053l-2.177-0.143c-0.179-0.012-0.41-0.018-0.696-0.018
		c-0.678,0-1.278,0.018-1.813,0.053l-3.848,0.22c-0.404,0.041-0.683,0.065-0.832,0.065c-0.362,0-0.536-0.154-0.523-0.458
		c0.011-0.256,0.071-0.422,0.172-0.499c0.106-0.077,0.333-0.125,0.684-0.149c0.904-0.059,1.6-0.386,2.093-0.981
		c0.494-0.601,0.743-1.415,0.743-2.45l-0.018-0.814v-15.468c0-0.916-0.494-1.374-1.48-1.374c-2.32,0-3.901,0.166-4.746,0.506
		c-0.618,0.254-1.023,0.547-1.23,0.867c-0.203,0.315-0.475,1.113-0.827,2.378l-0.137,0.494c-0.13,0.476-0.327,0.714-0.594,0.714
		c-0.387,0-0.572-0.179-0.548-0.542c0.013-0.327,0.072-0.779,0.172-1.355l0.18-1.517l0.208-1.551l0.119-1.065
		c0.048-0.452,0.292-0.678,0.731-0.678c0.114,0,0.316,0.012,0.589,0.036c0.453,0.036,1.1,0.053,1.932,0.053l3.552,0.037l4.227,0.053
		c2.73,0,5.614-0.072,8.665-0.214c0.607-0.024,0.993-0.037,1.165-0.037c0.642,0,0.976,0.269,1.011,0.797l0.09,1.25
		c0.011,0.195,0.071,0.666,0.179,1.403c0.082,0.613,0.125,1.105,0.125,1.475c0,0.38-0.161,0.571-0.476,0.571
		c-0.267,0-0.452-0.221-0.56-0.661c-0.243-1.082-0.707-1.861-1.396-2.337c-0.69-0.475-1.695-0.713-3.004-0.713
		c-1.76,0-2.859,0.137-3.293,0.411C93.135,252.608,92.915,253.28,92.915,254.363z"/>
	<path fill-rule="evenodd" clip-rule="evenodd" fill="#324A51" d="M228.213,294.58c-0.211-0.018-0.583,0.199-1.113,0.646
		c-0.593,0.48-0.871,1.068-0.834,1.75c0.053,1.166,0.632,2.472,1.736,3.912c0.816,1.072,1.785,1.907,2.915,2.508
		c1.127,0.602,2.284,0.902,3.478,0.902c0.713,0,1.328-0.099,1.844-0.3c0.517-0.198,0.777-0.43,0.777-0.695
		c0-0.211-0.229-0.471-0.682-0.777c-1.517-1.018-2.975-2.206-4.378-3.57c-1.4-1.363-2.382-2.548-2.952-3.544
		C228.692,294.871,228.432,294.599,228.213,294.58 M231.734,287.339c0.655,0,1.432,0.162,2.32,0.485
		c0.69,0.247,1.112,0.368,1.26,0.368c0.129,0,0.246-0.037,0.354-0.104l0.287-0.196c0.064-0.046,0.135-0.068,0.216-0.068
		c0.215,0,0.323,0.206,0.323,0.619c0,0.103-0.004,0.25-0.014,0.434c-0.026,0.396-0.04,0.625-0.04,0.683
		c0,0.237,0.049,0.682,0.143,1.336c0.094,0.656,0.175,1.059,0.233,1.221c0.036,0.103,0.054,0.184,0.054,0.233
		c0,0.193-0.116,0.292-0.346,0.292c-0.229,0-0.399-0.207-0.516-0.619c-0.305-1.113-0.857-2.037-1.651-2.772
		c-0.798-0.736-1.646-1.104-2.544-1.104c-0.557,0-1.027,0.175-1.414,0.525c-0.391,0.35-0.583,0.776-0.583,1.274
		c0,0.871,0.453,1.974,1.359,3.32c0.902,1.346,2.162,2.786,3.782,4.321c2.377,2.251,3.772,3.364,4.18,3.337
		c0.261-0.019,0.525-0.323,0.785-0.916c0.26-0.597,0.391-1.171,0.391-1.727c0-0.83-0.162-1.423-0.479-1.782
		c-0.324-0.358-0.88-0.564-1.683-0.627c-0.66-0.063-0.986-0.211-0.986-0.444c0-0.207,0.116-0.309,0.354-0.309
		c0.144,0,0.296,0.004,0.462,0.012c0.924,0.064,1.664,0.095,2.225,0.095c0.669,0,1.108-0.018,1.319-0.049l0.525-0.085
		c0.098-0.018,0.188-0.027,0.277-0.027c0.274,0,0.408,0.117,0.408,0.355c0,0.162-0.099,0.274-0.3,0.346
		c-0.314,0.103-0.512,0.215-0.584,0.332c-0.076,0.121-0.111,0.368-0.111,0.74c0,0.771-0.238,1.691-0.709,2.763
		c-0.467,1.059-0.691,1.664-0.682,1.822c0.022,0.511,0.565,1.072,1.619,1.687c1.049,0.614,2.001,0.919,2.849,0.919
		c0.395,0,0.727-0.036,1-0.108l0.746-0.215c0.079-0.019,0.146-0.027,0.21-0.027c0.224,0,0.332,0.086,0.322,0.252
		c-0.025,0.295-0.52,0.623-1.474,0.973c-0.96,0.35-1.836,0.525-2.621,0.525c-1.279,0-2.702-0.377-4.271-1.131
		c-0.251-0.121-0.438-0.185-0.56-0.185c-0.144,0-0.333,0.055-0.566,0.158l-1.185,0.525c-1.35,0.583-2.889,0.875-4.615,0.875
		c-2.261,0-4.097-0.583-5.505-1.754c-1.404-1.171-2.109-2.701-2.109-4.585c0-1.104,0.287-2.113,0.857-3.023
		c0.57-0.912,1.336-1.584,2.293-2.023c0.403-0.185,0.605-0.373,0.605-0.565c0-0.094-0.036-0.233-0.117-0.408
		c-0.237-0.561-0.354-1.211-0.354-1.956c0-1.144,0.408-2.101,1.221-2.867C229.508,287.721,230.523,287.339,231.734,287.339z"/>
	<path fill="#324A51" d="M265.313,287.017c1.633,0,3.059,0.35,4.276,1.049l0.864,0.502c0.175,0.103,0.336,0.156,0.476,0.156
		c0.175,0,0.305-0.067,0.395-0.206l0.274-0.404c0.046-0.067,0.121-0.104,0.238-0.104c0.273,0,0.409,0.283,0.409,0.853l0.013,0.959
		v1.193l0.108,0.996l0.119,0.592c0.054,0.288,0.082,0.548,0.082,0.777c0,0.332-0.121,0.498-0.368,0.498
		c-0.144,0-0.234-0.103-0.278-0.314c-0.071-0.332-0.315-0.843-0.733-1.529c-0.411-0.687-0.81-1.234-1.188-1.637
		c-1.524-1.647-3.222-2.468-5.086-2.468c-1.66,0-3.007,0.682-4.038,2.041c-1.036,1.359-1.551,3.127-1.551,5.297
		c0,2.836,0.848,5.098,2.539,6.789c1.27,1.259,2.654,1.888,4.153,1.888c0.889,0,1.827-0.211,2.818-0.637
		c0.985-0.422,1.767-0.946,2.336-1.574l0.856-0.928c0.124-0.144,0.238-0.215,0.347-0.225c0.165-0.009,0.247,0.09,0.247,0.287
		c0,0.363-0.345,0.934-1.038,1.723c-1.811,2.049-4.044,3.077-6.705,3.077c-2.577,0-4.662-0.825-6.268-2.471
		c-1.605-1.646-2.409-3.791-2.409-6.429c0-1.444,0.3-2.861,0.906-4.244c0.602-1.387,1.41-2.512,2.414-3.378
		C261.177,287.725,263.106,287.017,265.313,287.017"/>
	<rect x="275.807" y="298.433" fill-rule="evenodd" clip-rule="evenodd" fill="#324A51" width="10.421" height="1.224"/>
	<path fill-rule="evenodd" clip-rule="evenodd" fill="#324A51" d="M281.179,287.016c1.368,0,2.472,0.397,3.314,1.191
		c0.841,0.796,1.261,1.839,1.261,3.132c0,1.404-0.434,2.594-1.303,3.572c-0.843,0.954-2.008,1.432-3.493,1.432
		c-1.419,0-2.556-0.415-3.405-1.246c-0.85-0.829-1.274-1.937-1.274-3.326c0-0.596,0.107-1.188,0.322-1.777
		c0.215-0.589,0.505-1.083,0.873-1.48c0.426-0.469,0.965-0.836,1.621-1.101C279.749,287.149,280.444,287.016,281.179,287.016
		 M280.708,287.514c-0.879,0-1.566,0.326-2.059,0.976c-0.495,0.652-0.741,1.559-0.741,2.721c0,1.373,0.309,2.487,0.929,3.347
		c0.622,0.858,1.43,1.287,2.424,1.287c0.896,0,1.612-0.354,2.151-1.066c0.539-0.708,0.808-1.659,0.808-2.848
		c0-0.685-0.125-1.355-0.375-2.007c-0.249-0.654-0.581-1.173-0.996-1.557C282.244,287.799,281.532,287.514,280.708,287.514z"/>
</g>
</svg>
