<?xml version="1.0" encoding="utf-8"?>
<!-- Generator: Adobe Illustrator 15.1.0, SVG Export Plug-In . SVG Version: 6.00 Build 0)  -->
<!DOCTYPE svg PUBLIC "-//W3C//DTD SVG 1.1//EN" "http://www.w3.org/Graphics/SVG/1.1/DTD/svg11.dtd">
<svg version="1.1" id="Layer_1" xmlns="http://www.w3.org/2000/svg" xmlns:xlink="http://www.w3.org/1999/xlink" x="0px" y="0px"
	 width="488px" height="270px" viewBox="12 121 488 270" enable-background="new 12 121 488 270" xml:space="preserve">
<g>
	<rect x="11.5" y="121" display="none" fill-rule="evenodd" clip-rule="evenodd" fill="#384F54" width="488" height="270"/>
	<path fill="#C2D0D9" d="M429.373,320.454v16.3l0.223,1.686c0.41,1.437,1.938,2.149,4.584,2.149c2.874,0,5.146-0.992,6.83-2.975
		c1.679-1.992,2.522-4.669,2.522-8.048c0-3.54-1.015-6.426-3.033-8.65c-2.023-2.225-4.641-3.342-7.845-3.342
		c-1.312,0-2.204,0.172-2.686,0.521C429.57,318.367,429.373,319.153,429.373,320.454 M425.107,321.458
		c0-1.189-0.335-2.104-0.988-2.746c-0.659-0.643-1.588-0.966-2.783-0.966c-0.387,0-0.578-0.164-0.578-0.49
		c0-0.218,0.08-0.366,0.239-0.434c0.159-0.07,0.515-0.103,1.062-0.103l2.814,0.037c0.65,0,1.224-0.009,1.733-0.037
		c0.774-0.054,1.847-0.132,3.207-0.259c1.832-0.171,3.282-0.261,4.36-0.261c4.201,0,7.558,1.072,10.097,3.217
		c2.522,2.146,3.792,5.004,3.792,8.575c0,4.587-1.705,8.246-5.109,10.966c-2.496,1.998-5.312,2.99-8.444,2.99
		c-0.516,0-1.562-0.054-3.133-0.147c-0.894-0.048-1.806-0.074-2.752-0.074c-2.2,0-3.665,0.063-4.393,0.185
		c-0.568,0.103-0.95,0.148-1.152,0.148c-0.287,0-0.425-0.175-0.425-0.536c0-0.255,0.148-0.404,0.456-0.473
		c0.771-0.144,1.296-0.462,1.573-0.94c0.281-0.487,0.424-1.311,0.424-2.49V321.458z M388.45,320.75l9.825,11.021l0.633,0.713
		c0.843,0.935,1.396,1.407,1.683,1.407c0.267,0,0.404-0.377,0.436-1.13c0.106-2.736,0.16-5.339,0.16-7.818
		c0-2.905-0.286-4.87-0.882-5.906c-0.585-1.026-1.743-1.594-3.452-1.723c-0.415-0.025-0.616-0.163-0.616-0.428
		c0-0.324,0.176-0.484,0.536-0.484c0.441,0,1.164,0.063,2.15,0.187c0.647,0.074,1.181,0.111,1.6,0.111
		c0.854,0,2.215-0.117,4.069-0.35c0.249-0.028,0.43-0.045,0.536-0.045c0.401,0,0.594,0.175,0.594,0.521
		c0,0.312-0.192,0.495-0.594,0.559c-1.594,0.298-2.391,1.716-2.391,4.254v0.908l-0.261,11.6l-0.08,1.599l-0.015,2.064l0.015,1.415
		l0.08,2.319c0,0.347-0.127,0.51-0.378,0.499c-0.222-0.015-0.444-0.148-0.68-0.408l-16.904-18.77
		c-0.298-0.324-0.499-0.484-0.61-0.484c-0.299,0-0.447,0.283-0.447,0.834l-0.021,0.536v7.204c0,3.854,0.19,6.427,0.579,7.723
		c0.404,1.385,1.614,2.17,3.617,2.356c0.37,0.037,0.557,0.191,0.557,0.469c0,0.372-0.192,0.557-0.579,0.557
		c-0.144,0-0.382-0.026-0.723-0.074c-1.035-0.17-2.188-0.259-3.457-0.259c-1.249,0-2.364,0.095-3.341,0.279
		c-0.436,0.074-0.754,0.111-0.946,0.111c-0.339,0-0.499-0.152-0.499-0.45c0-0.244,0.176-0.413,0.536-0.521
		c0.909-0.253,1.567-0.789,1.978-1.597c0.419-0.813,0.621-1.981,0.621-3.508l0.133-4.412v-8.053c0-3.807-1.407-5.815-4.213-6.013
		c-0.387-0.026-0.579-0.179-0.579-0.472c0-0.344,0.209-0.516,0.633-0.516l1.279,0.053l0.782-0.015c0.966,0,2.001-0.06,3.101-0.164
		c0.41-0.037,0.749-0.06,1.021-0.06c0.393,0,0.69,0.08,0.914,0.255c0.222,0.166,0.69,0.668,1.407,1.524l1.279,1.504
		C388.046,320.269,388.344,320.629,388.45,320.75z M351.93,330.242l-2.422-5.684c-0.585-1.358-0.992-2.044-1.242-2.044
		c-0.148,0-0.426,0.447-0.818,1.318l-0.351,0.78l-2.167,4.953l-0.203,0.464c-0.089,0.191-0.138,0.35-0.138,0.482
		c0,0.426,0.447,0.633,1.339,0.633h5.486c0.473,0,0.707-0.134,0.707-0.393c0-0.058-0.031-0.166-0.095-0.308L351.93,330.242z
		 M351.229,318.617l8.444,19.39c0.419,0.978,0.923,1.711,1.487,2.193c0.562,0.48,1.307,0.804,2.21,0.962
		c0.223,0.037,0.333,0.207,0.333,0.52c0,0.335-0.144,0.501-0.425,0.49c-0.164-0.018-0.398-0.055-0.705-0.112
		c-0.957-0.206-2.497-0.312-4.611-0.312c-2.124,0-3.58,0.095-4.345,0.275c-0.181,0.054-0.339,0.074-0.477,0.074
		c-0.353,0-0.521-0.169-0.521-0.516c0-0.179,0.138-0.307,0.409-0.393c0.589-0.175,1.084-0.482,1.477-0.923
		c0.387-0.453,0.585-0.92,0.585-1.419c0-0.69-0.542-2.21-1.62-4.558c-0.329-0.722-0.69-1.137-1.1-1.237
		c-0.398-0.106-1.823-0.16-4.276-0.16h-2.517l-1.668,0.298c-0.468,0.212-0.989,1.025-1.562,2.449l-0.573,1.429
		c-0.169,0.409-0.261,0.816-0.261,1.243c0,1.562,1.089,2.459,3.268,2.703c0.467,0.065,0.696,0.244,0.685,0.542
		c-0.025,0.323-0.249,0.487-0.674,0.487c-0.218,0-0.538-0.037-0.94-0.115c-0.818-0.16-1.547-0.238-2.194-0.238
		c-0.585,0-1.519,0.063-2.826,0.186c-0.96,0.101-1.56,0.147-1.794,0.147c-0.351,0-0.52-0.147-0.52-0.452
		c0-0.242,0.169-0.429,0.52-0.557c0.67-0.207,1.2-0.594,1.604-1.158c0.404-0.563,0.998-1.748,1.783-3.554l5.073-11.688
		c0.409-0.926,0.696-1.562,0.854-1.908l1.722-3.548c0.594-1.158,0.897-1.741,0.897-1.741c0,0.037,0,0.058,0,0.058
		s0.101-0.234,0.298-0.699c0.195-0.47,0.355-0.702,0.499-0.702c0.197,0,0.536,0.52,1.02,1.562L351.229,318.617z M310.089,336.115
		c0,2.316,0.275,3.612,0.828,3.898c0.312,0.16,0.912,0.24,1.821,0.24c4.201,0,7.188-1.232,8.938-3.702
		c0.531-0.753,0.871-1.136,1.009-1.136c0.224,0,0.336,0.255,0.336,0.76c0,1.57-0.516,2.979-1.542,4.21
		c-0.906,1.095-2.133,1.637-3.689,1.637c-0.324,0-0.914-0.031-1.765-0.095c-0.222-0.012-0.966-0.053-2.23-0.127l-2.018-0.091
		c-0.686-0.043-1.456-0.058-2.321-0.058c-1.439,0-2.979,0.101-4.642,0.296c-0.506,0.065-0.845,0.095-1.02,0.095
		c-0.361,0-0.536-0.158-0.536-0.482c0-0.229,0.158-0.378,0.477-0.467c0.791-0.224,1.338-0.653,1.642-1.292
		c0.304-0.637,0.456-1.683,0.456-3.128V321.16c0-1.981-0.822-3.102-2.468-3.362l-1.117-0.187c-0.468-0.074-0.7-0.26-0.7-0.557
		c0-0.372,0.181-0.557,0.553-0.557c0.127,0,0.308,0.02,0.542,0.057c0.169,0.011,0.413,0.037,0.723,0.074l0.796,0.054
		c0.754,0.074,1.316,0.112,1.688,0.112c0.594,0,1.54-0.075,2.841-0.219c0.972-0.105,1.949-0.152,2.954-0.152
		c0.737,0,1.11,0.168,1.11,0.52c0,0.304-0.267,0.462-0.797,0.489c-1.244,0.084-1.869,0.938-1.869,2.575V336.115z M274.354,336.115
		c0,2.316,0.276,3.612,0.84,3.898c0.308,0.16,0.908,0.24,1.817,0.24c4.195,0,7.18-1.232,8.938-3.702
		c0.532-0.753,0.865-1.136,1.005-1.136c0.222,0,0.339,0.255,0.339,0.76c0,1.57-0.516,2.979-1.54,4.21
		c-0.902,1.095-2.135,1.637-3.696,1.637c-0.318,0-0.914-0.031-1.758-0.095c-0.224-0.012-0.972-0.053-2.231-0.127l-2.024-0.091
		c-0.679-0.043-1.453-0.058-2.315-0.058c-1.434,0-2.984,0.101-4.641,0.296c-0.51,0.065-0.851,0.095-1.021,0.095
		c-0.361,0-0.542-0.158-0.542-0.482c0-0.229,0.16-0.378,0.484-0.467c0.791-0.224,1.333-0.653,1.641-1.292
		c0.303-0.637,0.457-1.683,0.457-3.128V321.16c0-1.981-0.824-3.102-2.476-3.362l-1.115-0.187c-0.467-0.074-0.701-0.26-0.701-0.557
		c0-0.372,0.186-0.557,0.563-0.557c0.117,0,0.298,0.02,0.531,0.057c0.175,0.011,0.415,0.037,0.722,0.074l0.803,0.054
		c0.754,0.074,1.315,0.112,1.693,0.112c0.596,0,1.536-0.075,2.838-0.219c0.966-0.105,1.948-0.152,2.952-0.152
		c0.737,0,1.115,0.168,1.115,0.52c0,0.304-0.267,0.462-0.803,0.489c-1.247,0.084-1.875,0.938-1.875,2.575V336.115z M241.765,316.333
		c0.079-0.012,0.222,0.005,0.425,0.058c0.201,0.037,0.69,0.074,1.465,0.107l1.966,0.094l1.817-0.074
		c0.62-0.053,1.167-0.101,1.634-0.164c0.224-0.026,0.432-0.037,0.616-0.037c0.335,0,0.501,0.154,0.501,0.479
		c0,0.255-0.155,0.403-0.469,0.452l-0.706,0.126c-0.96,0.164-1.444,1.195-1.444,3.102l0.017,1.616l-0.034,2.282
		c0,3.574-0.18,6.454-0.53,8.646c-0.35,2.184-0.914,3.878-1.7,5.062c-1.863,2.885-5.036,4.329-9.496,4.329
		c-3.156,0-5.609-0.596-7.352-1.779c-2.358-1.627-3.548-4.766-3.548-9.427l0.203-7.182l-0.054-3.385c0-0.834-0.083-1.428-0.25-1.777
		c-0.164-0.341-0.516-0.639-1.029-0.889c-0.607-0.286-1.292-0.477-2.046-0.594c-0.479-0.074-0.722-0.261-0.722-0.557
		c0-0.324,0.212-0.489,0.637-0.489c0.134,0,0.383,0.021,0.759,0.058c1.567,0.144,2.779,0.224,3.628,0.224
		c1.221,0,2.554-0.075,4.032-0.201c0.588-0.054,1.018-0.08,1.279-0.08c0.639,0,0.968,0.181,0.968,0.542
		c0,0.197-0.054,0.335-0.149,0.409c-0.102,0.074-0.34,0.148-0.713,0.224c-0.754,0.141-1.258,0.428-1.519,0.837
		c-0.259,0.421-0.413,1.228-0.477,2.428l-0.298,4.681l0.032,3.281c0,2.995,0.158,5.119,0.479,6.395
		c0.318,1.27,0.966,2.354,1.955,3.256c1.497,1.376,3.42,2.061,5.756,2.061c2.385,0,4.319-0.701,5.79-2.114
		c0.994-0.949,1.688-2.348,2.109-4.174c0.409-1.832,0.622-4.462,0.622-7.888v-1.51l-0.097-3.801
		c-0.069-1.154-0.43-2.044-1.078-2.683c-0.642-0.639-1.513-0.955-2.617-0.955c-0.479,0-0.722-0.183-0.722-0.544
		C241.404,316.491,241.525,316.35,241.765,316.333z M192.837,316.072c2.061,0,4.483,0.604,7.255,1.8
		c0.708,0.298,1.158,0.451,1.35,0.451c0.181,0,0.33-0.063,0.473-0.185l0.201-0.187c0.123-0.121,0.272-0.191,0.441-0.206
		c0.378-0.012,0.564,0.212,0.564,0.668l-0.022,1.298l-0.075,2.548l0.054,1.333c0.026,0.33,0.063,0.69,0.115,1.074
		c0.011,0.147,0.022,0.259,0.022,0.333c0,0.398-0.192,0.585-0.579,0.557c-0.26-0.009-0.43-0.27-0.521-0.779
		c-0.25-1.482-1.035-2.933-2.357-4.36c-1.865-1.997-4.127-3.001-6.772-3.001c-2.517,0-4.542,0.998-6.056,2.98
		c-1.513,1.98-2.273,4.632-2.273,7.929c0,3.537,0.776,6.512,2.342,8.934c1.568,2.416,3.491,3.622,5.78,3.622
		c0.685,0,1.545-0.148,2.597-0.452c1.052-0.303,1.849-0.637,2.394-0.988c0.495-0.324,0.834-0.797,1.031-1.417
		c0.191-0.612,0.287-1.567,0.287-2.868c0-1.481-0.27-2.517-0.802-3.087c-0.531-0.577-1.525-0.896-2.979-0.972
		c-0.389-0.025-0.579-0.206-0.579-0.54c0-0.335,0.223-0.51,0.668-0.51c0.138,0,0.35,0.015,0.647,0.041
		c1.212,0.108,2.588,0.164,4.122,0.164c1.583,0,2.751-0.047,3.491-0.127c0.557-0.078,1.02-0.111,1.396-0.111
		c0.436,0,0.659,0.166,0.659,0.483c0,0.298-0.224,0.488-0.659,0.579c-0.722,0.144-1.221,0.531-1.493,1.146
		c-0.27,0.622-0.408,1.668-0.408,3.134c0,0.458,0.021,0.871,0.063,1.223c0.048,0.62,0.075,1.052,0.075,1.302
		c0,0.387-0.086,0.662-0.235,0.849c-0.158,0.175-0.473,0.35-0.94,0.524c-0.287,0.103-1.27,0.511-2.953,1.244
		c-2.958,1.27-5.534,1.913-7.733,1.913c-3.347,0-6.076-1.137-8.2-3.398c-2.12-2.27-3.181-5.185-3.181-8.779
		c0-4.012,1.227-7.368,3.674-10.086C186.177,317.433,189.209,316.072,192.837,316.072z M150.917,320.821v4.024
		c0,1.158,0.078,1.886,0.255,2.193c0.164,0.303,0.568,0.463,1.205,0.463l0.564-0.017l0.817-0.021h1.573
		c1.23,0,2.176-0.68,2.846-2.029l0.425-0.902c0.117-0.224,0.298-0.347,0.559-0.355c0.27-0.012,0.407,0.154,0.407,0.499
		c0,0.101-0.021,0.378-0.063,0.816c-0.021,0.324-0.032,0.596-0.032,0.819c0,0.398,0.052,1.322,0.16,2.789
		c0.073,0.955,0.115,1.783,0.115,2.485l0.022,0.951c0,0.175-0.022,0.29-0.065,0.35c-0.047,0.074-0.138,0.123-0.296,0.132
		c-0.309,0.028-0.5-0.206-0.573-0.701c-0.16-1.062-0.532-1.858-1.117-2.399c-0.318-0.298-0.711-0.49-1.179-0.573
		c-0.456-0.086-1.327-0.133-2.603-0.133h-1.264c-0.596,0-0.989,0.09-1.212,0.265c-0.216,0.186-0.361,0.547-0.434,1.089
		c-0.074,0.616-0.111,1.599-0.111,2.932v1.668c0,1.743,0.132,3.001,0.408,3.771c0.212,0.552,0.458,0.935,0.745,1.125
		c0.287,0.203,0.722,0.303,1.316,0.303c5.019,0,8.308-1.528,9.854-4.588c0.089-0.144,0.158-0.228,0.223-0.238
		c0.121-0.026,0.238,0.011,0.339,0.115c0.112,0.111,0.16,0.238,0.16,0.398c0,1.217-0.33,2.39-0.983,3.533
		c-0.542,0.96-1.232,1.651-2.041,2.07c-0.817,0.409-1.9,0.621-3.25,0.621c-0.791,0-1.672-0.052-2.634-0.148l-2.156-0.201
		c-0.791-0.074-1.859-0.112-3.208-0.112c-0.903,0-2.275,0.06-4.122,0.164c-0.506,0.037-0.871,0.054-1.094,0.054
		c-0.298,0-0.458-0.139-0.479-0.409c-0.017-0.222,0.123-0.387,0.404-0.499c0.706-0.277,1.184-0.557,1.445-0.859
		c0.25-0.308,0.447-0.846,0.599-1.626c0.134-0.658,0.203-1.545,0.203-2.673v-14.71c0-1.387-0.229-2.327-0.676-2.822
		c-0.456-0.491-1.391-0.844-2.815-1.035c-0.335-0.052-0.499-0.228-0.499-0.54c0-0.283,0.201-0.432,0.616-0.432
		c0.08,0,0.271,0.015,0.553,0.037c0.223,0.015,0.53,0.022,0.908,0.022l1.875,0.067l7.031,0.074c4.047,0,6.543-0.053,7.478-0.164
		c0.106-0.011,0.192-0.015,0.266-0.015c0.361,0,0.536,0.201,0.536,0.61c0,0.287,0.038,0.791,0.112,1.522
		c0.095,1.069,0.149,1.844,0.149,2.316c0,0.941-0.244,1.418-0.722,1.444c-0.234,0.017-0.355-0.261-0.355-0.817
		c0-1.221-0.453-2.112-1.344-2.665c-0.897-0.554-2.347-0.825-4.356-0.825h-2.262l-1.264,0.149c-0.627,0.202-0.946,0.824-0.946,1.876
		L150.917,320.821z M110.418,320.177v6.423c0,0.791,0.095,1.29,0.301,1.496c0.208,0.213,0.691,0.32,1.461,0.32
		c2.199,0,3.565-0.037,4.09-0.123c0.521-0.08,1.021-0.329,1.477-0.754c0.903-0.816,1.355-1.938,1.355-3.373
		c0-1.869-0.61-3.408-1.833-4.631c-1.21-1.216-2.767-1.826-4.641-1.826c-0.839,0-1.418,0.175-1.737,0.524
		C110.577,318.591,110.418,319.238,110.418,320.177z M110.418,334.688c0,2.348,0.212,3.941,0.648,4.775
		c0.436,0.84,1.284,1.311,2.56,1.439c0.521,0.054,0.782,0.243,0.782,0.594c0,0.352-0.208,0.521-0.633,0.521
		c-0.132,0-0.387-0.021-0.765-0.058c-1.061-0.08-2.087-0.128-3.075-0.128c-0.829,0-1.566,0.025-2.21,0.08l-1.556,0.143l-1.242,0.118
		c-0.352,0.037-0.596,0.054-0.733,0.054c-0.441,0-0.659-0.172-0.659-0.507c0-0.275,0.123-0.444,0.373-0.52
		c0.834-0.26,1.418-0.61,1.742-1.046c0.318-0.441,0.479-1.115,0.479-2.013v-1.768l0.021-0.723v-13.434
		c0-1.487-0.181-2.479-0.559-2.989c-0.61-0.83-1.597-1.329-2.967-1.499c-0.51-0.08-0.765-0.286-0.765-0.637
		c0-0.344,0.169-0.516,0.52-0.516c0.138,0,0.361,0.016,0.67,0.053c0.955,0.097,1.998,0.148,3.139,0.148
		c1.248,0,2.763-0.066,4.541-0.201c2.092-0.159,3.537-0.243,4.324-0.243c2.359,0,4.302,0.642,5.853,1.923
		c1.545,1.279,2.316,2.893,2.316,4.833c0,1.221-0.341,2.338-1.032,3.336c-0.685,1.009-1.63,1.769-2.826,2.289
		c-0.25,0.094-0.371,0.222-0.355,0.365c0.017,0.126,0.08,0.271,0.186,0.45c0.112,0.172,0.277,0.464,0.504,0.867l1.653,2.931
		l1.912,3.399c0.657,1.154,1.236,1.945,1.752,2.397c0.51,0.439,1.115,0.663,1.811,0.663c0.281,0,0.553-0.026,0.803-0.075
		c0.138-0.031,0.281-0.052,0.404-0.052c0.222,0,0.333,0.142,0.333,0.425c0,0.36-0.504,0.763-1.513,1.221
		c-1.009,0.462-1.906,0.69-2.687,0.69c-1.275,0-2.454-0.627-3.522-1.874c-1.078-1.247-2.479-3.611-4.196-7.091
		c-0.668-1.37-1.216-2.241-1.651-2.608c-0.436-0.361-1.137-0.542-2.115-0.542h-1.147l-0.839,0.144
		c-0.181,0.101-0.275,0.398-0.275,0.894V334.688z M77.398,321.022v13.973c0,2.093,0.303,3.574,0.914,4.453
		c0.599,0.871,1.673,1.353,3.213,1.454c0.441,0.037,0.665,0.255,0.665,0.653c0,0.286-0.192,0.424-0.579,0.424
		c-0.085,0-0.24-0.004-0.461-0.021l-1.393-0.058l-2.321-0.146c-0.181-0.009-0.43-0.02-0.743-0.02c-0.723,0-1.361,0.02-1.929,0.058
		l-2.82,0.165l-1.279,0.074c-0.436,0.055-0.739,0.08-0.894,0.08c-0.387,0-0.568-0.16-0.557-0.483
		c0.009-0.272,0.074-0.447,0.181-0.532c0.115-0.084,0.355-0.131,0.731-0.158c0.962-0.063,1.7-0.408,2.232-1.052
		c0.52-0.634,0.786-1.503,0.786-2.603l-0.017-0.875v-16.482c0-0.976-0.525-1.465-1.577-1.465c-2.476,0-4.165,0.175-5.067,0.535
		c-0.653,0.278-1.095,0.579-1.307,0.918c-0.224,0.347-0.51,1.187-0.886,2.539l-0.144,0.521c-0.134,0.51-0.35,0.766-0.627,0.766
		c-0.413,0-0.605-0.192-0.579-0.579c0.017-0.347,0.08-0.829,0.186-1.444l0.181-1.616l0.229-1.651l0.126-1.138
		c0.048-0.481,0.314-0.722,0.782-0.722c0.127,0,0.333,0.011,0.631,0.037c0.484,0.037,1.164,0.054,2.055,0.054l3.792,0.037
		l4.514,0.058c2.906,0,5.981-0.083,9.243-0.243c0.637-0.021,1.052-0.036,1.238-0.036c0.68,0,1.041,0.287,1.078,0.854l0.095,1.34
		c0.006,0.207,0.069,0.711,0.181,1.502c0.086,0.659,0.128,1.185,0.128,1.577c0,0.409-0.16,0.61-0.5,0.61
		c-0.287,0-0.477-0.232-0.594-0.705c-0.261-1.146-0.76-1.976-1.499-2.491c-0.731-0.504-1.794-0.76-3.196-0.76
		c-1.88,0-3.055,0.144-3.516,0.437C77.632,319.153,77.398,319.875,77.398,321.022z"/>
	<path fill="#D2D4D5" d="M62.877,269.959l27.183-3.652l0.06-0.006h0.069c1.201,0,4.228-0.627,7.106-1.227l0,0
		c2.347-0.483,4.588-0.951,5.832-1.062l0.063-0.006h0.048c1.418,0.049,2.623,0.154,3.76,0.249c3.096,0.267,5.672,0.49,8.653-0.688
		l0,0c2.532-1.132,5.125-2.565,7.716-4.006c2.448-1.359,4.907-2.718,7.346-3.846c1.115-0.514,2.221-0.976,3.325-1.37l0.052-0.021
		l0.074-0.017c0.739-0.149,1.955-0.568,3.293-1.029v-0.006c2.264-0.774,4.866-1.671,6.683-1.769
		c1.477-0.074,3.133,0.384,4.529,0.802c1,0.304,2.003,0.602,2.857,0.602l0.069,0.004c1.625,0.123,3.347-0.531,5.047-1.169
		c2.039-0.769,4.062-1.534,6.214-1.199h0.015c1.014,0.169,2.163,0.584,3.287,0.992c1.45,0.521,2.858,1.037,3.454,0.866l0.074-0.021
		l0.052-0.011c2.375-0.341,4.213,0.41,6.13,1.189c1.21,0.499,2.465,1.009,3.867,1.195c1.201,0.134,3.388,1.117,5.864,2.227
		c3.293,1.471,7.128,3.196,9.272,3.265c1.562-0.115,4.727,0.823,9.278,2.184c11,3.282,30.344,9.057,52.705,7.813h0.037
		c1.646-0.033,5.645-0.559,9.799-1.109c4.621-0.61,9.442-1.255,11.637-1.277h0.004c4.792,0,9.55-1.061,14.288-2.122
		c1.052-0.234,2.198-0.489,2.74-0.61l0.033-0.008c0.286-0.047,1.278-0.296,2.654-0.637c4.468-1.12,12.918-3.228,15.987-3.228v0.004
		c1.189-0.059,2.952,0.286,5.014,0.692c3.889,0.758,8.907,1.734,12.264,0.471l0.086-0.031l0.089-0.016
		c1.754-0.303,2.933,0.016,4.102,0.334v0.005c0.731,0.197,1.454,0.393,2.293,0.376h0.074c1.318,0.092,2.826,0.373,4.346,0.655
		c2.081,0.392,4.207,0.79,5.72,0.648c2.066-0.674,4.451-0.671,6.745-0.659h0.685h0.012c1.37,0.011,3.086,0.524,4.85,1.061
		c0.939,0.287,1.906,0.581,2.798,0.788c2.2,0.508,4.877,0.043,7.075-0.192c2.124-0.227,4.381-0.467,6.113-0.467l0,0
		c1.646-0.065,3.292,0.121,4.997,0.304l0,0c2.071,0.227,4.228,0.465,6.422,0.253l0.021-0.004c1.924-0.148,5.359,0.473,8.685,1.066
		c2.459,0.441,4.854,0.872,6.426,0.951l0,0c2.072,0.079,4.855,0.637,7.793,1.228c3.621,0.731,7.483,1.508,10.287,1.435l0.181-0.007
		l0.16,0.06c2.878,1.023,5.916,0.637,8.905,0.253c1.754-0.222,3.5-0.439,5.242-0.402c1.573-0.101,4.334,0.123,7.065,0.339
		c2.129,0.175,4.238,0.347,5.64,0.357l-0.017,1.918c-1.545-0.012-3.654-0.187-5.772-0.357c-2.666-0.213-5.365-0.429-6.787-0.339
		l-0.028,0.004l-0.063-0.004c-1.63-0.043-3.33,0.175-5.039,0.393c-3.166,0.404-6.385,0.813-9.624-0.292
		c-2.995,0.043-6.879-0.737-10.527-1.471c-2.863-0.573-5.577-1.127-7.5-1.195h-0.004c-1.68-0.086-4.149-0.525-6.678-0.983
		c-3.196-0.569-6.495-1.163-8.2-1.034l0,0c-2.399,0.227-4.641-0.018-6.798-0.258c-1.646-0.178-3.239-0.354-4.747-0.29h-0.038
		c-1.673,0-3.862,0.238-5.912,0.456c-2.485,0.267-5.056,0.733-7.526,0.191c-1.015-0.229-2.066-0.553-3.106-0.859
		c-1.625-0.495-3.208-0.979-4.303-0.983h-0.685c-2.178-0.005-4.435-0.011-6.234,0.596l-0.103,0.03l-0.106,0.017
		c-1.794,0.203-4.11-0.232-6.378-0.657c-1.444-0.271-2.874-0.544-4.078-0.622c-1.084,0.016-1.929-0.22-2.783-0.446l0,0
		c-0.951-0.255-1.908-0.516-3.192-0.312c-3.855,1.407-9.126,0.376-13.21-0.421c-1.97-0.384-3.648-0.711-4.594-0.659l-0.053,0.006
		c-2.843,0-11.138,2.071-15.525,3.166c-1.379,0.345-2.391,0.594-2.761,0.669c-1.27,0.27-1.949,0.426-2.714,0.594
		c-4.835,1.083-9.688,2.167-14.691,2.167c-2.066,0.021-6.83,0.655-11.402,1.26c-4.182,0.557-8.196,1.089-9.98,1.126
		c-22.7,1.259-42.241-4.568-53.356-7.887c-4.367-1.302-7.4-2.204-8.601-2.109l-0.015,0.006l-0.08-0.006
		c-2.522-0.037-6.601-1.869-10.092-3.431c-2.353-1.052-4.423-1.981-5.305-2.072l-0.032-0.004c-1.636-0.22-3.006-0.776-4.334-1.318
		c-1.653-0.68-3.241-1.322-5.087-1.072c-1.191,0.298-2.848-0.309-4.557-0.923c-1.037-0.38-2.104-0.76-2.955-0.908l0,0
		c-1.634-0.25-3.431,0.424-5.225,1.104c-1.892,0.711-3.792,1.428-5.81,1.296c-1.132-0.006-2.264-0.345-3.39-0.685
		c-0.935-0.277-2.995-0.877-4.131-0.765c-1.361,0.138-3.803,0.983-5.907,1.711v-0.006c-1.375,0.477-2.623,0.903-3.462,1.083
		c-3.373,1.217-6.853,3.144-10.321,5.067c-2.649,1.466-5.289,2.931-7.913,4.1l-0.038,0.017c-3.399,1.344-6.177,1.104-9.513,0.817
		c-1.146-0.095-2.368-0.201-3.605-0.244c-1.121,0.106-3.288,0.557-5.546,1.026c-2.921,0.604-5.991,1.247-7.435,1.262l-27.375,3.66
		V269.959z"/>
	<path fill="#D2D4D5" d="M170.355,263.384L170.355,263.384 M62.877,274.665l23.385-2.734l0.033-0.006h0.079
		c1.424,0,4.181-0.456,6.852-0.897c2.262-0.372,4.472-0.736,5.864-0.822h0.074c1.305,0.037,2.454,0.111,3.546,0.181
		c3.086,0.206,5.769,0.382,8.759-0.521l0,0c2.338-0.854,4.689-1.927,7.048-3.001c3.25-1.477,6.506-2.964,9.742-3.903l0.074-0.021
		l0.043-0.006l0.032-0.006c0.912-0.121,2.284-0.481,3.744-0.865c4.19-1.099,7.377-1.419,11.594-0.643
		c1.255,0.232,2.519,0.468,3.677,0.468h0.042c2.204,0.089,4.472-0.41,6.733-0.903c2.55-0.557,5.088-1.12,7.712-0.882h0.021
		c1.149,0.122,2.401,0.426,3.634,0.724c1.715,0.413,3.411,0.823,4.503,0.651l0.048-0.003c2.385-0.252,4.354,0.312,6.389,0.89
		c1.312,0.372,2.657,0.756,4.079,0.898c1.403,0.092,3.645,0.907,6.098,1.806c2.947,1.072,6.225,2.268,8.29,2.316
		c1.557-0.092,4.479,0.705,8.541,1.826c9.029,2.479,23.917,6.575,40.955,5.674h0.037c1.706-0.022,5.253-0.432,8.896-0.851
		c3.947-0.456,8.014-0.925,10.192-0.94l0.006-0.005c4.451,0,8.848-0.797,13.225-1.588l2.539-0.458l0.08-0.01
		c0.631-0.054,2.422-0.426,4.615-0.881c4.142-0.861,9.704-2.014,12.333-2.014v0.006c1.27-0.049,3.016,0.232,5.004,0.545
		c3.52,0.564,7.833,1.255,10.94,0.314l0.074-0.021l0.095-0.011c1.843-0.212,3.293,0.015,4.738,0.244
		c0.988,0.158,1.975,0.314,3.055,0.303h0.052c1.407,0.063,2.949,0.275,4.494,0.488c2.167,0.298,4.359,0.6,6.091,0.479
		c2.444-0.499,5.131-0.494,7.761-0.49h0.803l0,0c1.481,0.008,3.207,0.398,4.976,0.805c2.179,0.491,4.425,1.001,6.002,0.722
		l0.052-0.007l0.092-0.004c1.674-0.037,3.659-0.16,5.692-0.287c2.693-0.165,5.472-0.335,7.845-0.335l0,0
		c2.152-0.048,4.287,0.09,6.465,0.235c2.655,0.167,5.375,0.344,8.132,0.178h0.015c2.56-0.104,6.205,0.341,9.773,0.776
		c2.783,0.345,5.523,0.68,7.558,0.739c2.512,0.058,5.566,0.493,8.726,0.949c3.777,0.536,7.707,1.101,10.862,1.047h0.123l0.105,0.022
		c3.452,0.791,7.021,0.493,10.56,0.206c2.028-0.169,4.056-0.335,6.117-0.298c2.283-0.08,5.46,0.092,8.615,0.251
		c2.484,0.131,4.961,0.259,6.915,0.271l-0.011,1.917c-2.05-0.011-4.525-0.14-7.005-0.271c-3.124-0.158-6.263-0.324-8.455-0.249
		h-0.049c-1.929-0.038-3.952,0.128-5.979,0.298c-3.645,0.296-7.319,0.601-11.026-0.224c-3.304,0.037-7.256-0.527-11.048-1.066
		c-3.112-0.447-6.134-0.883-8.498-0.935h-0.006c-2.193-0.065-4.944-0.398-7.732-0.745c-3.5-0.43-7.068-0.865-9.448-0.771v0.006
		c-2.88,0.165-5.651-0.018-8.365-0.185c-2.162-0.146-4.286-0.277-6.326-0.23h-0.017c-2.385,0-5.099,0.171-7.728,0.331
		c-1.98,0.121-3.919,0.244-5.684,0.286c-1.943,0.324-4.354-0.223-6.69-0.759c-1.673-0.378-3.304-0.749-4.562-0.756h-0.797
		c-2.545-0.004-5.158-0.01-7.44,0.469l-0.065,0.015h-0.058c-1.929,0.149-4.254-0.169-6.549-0.487
		c-1.497-0.203-2.995-0.415-4.302-0.473c-1.222,0.015-2.284-0.154-3.34-0.324c-1.281-0.201-2.576-0.404-4.139-0.238
		c-3.505,1.029-8.02,0.302-11.711-0.288c-1.896-0.304-3.574-0.574-4.663-0.525h-0.037c-2.454,0-7.888,1.13-11.94,1.972
		c-2.173,0.45-3.961,0.822-4.77,0.906c-1.312,0.229-1.912,0.341-2.517,0.447c-4.488,0.813-8.987,1.629-13.565,1.629v-0.004
		c-2.029,0.015-6.064,0.483-9.974,0.935c-3.654,0.421-7.203,0.822-9.061,0.856c-17.336,0.923-32.41-3.225-41.556-5.743
		c-3.893-1.067-6.681-1.832-7.925-1.752h-0.074c-2.405-0.033-5.862-1.296-8.98-2.433c-2.321-0.852-4.44-1.622-5.572-1.694
		l-0.026-0.006c-1.642-0.16-3.061-0.562-4.451-0.96c-1.843-0.521-3.639-1.032-5.625-0.831c-1.454,0.22-3.334-0.232-5.248-0.696
		c-1.162-0.279-2.347-0.562-3.376-0.678l0,0c-2.305-0.202-4.712,0.324-7.128,0.854c-2.364,0.52-4.749,1.041-7.211,0.94
		c-1.329-0.006-2.667-0.255-3.995-0.499c-4.036-0.744-6.555-0.489-10.75,0.614c-1.476,0.39-2.867,0.756-3.918,0.905
		c-3.081,0.9-6.246,2.346-9.412,3.78c-2.422,1.111-4.855,2.216-7.24,3.085l-0.046,0.017c-3.315,1.004-6.162,0.813-9.433,0.602
		c-1.106-0.074-2.264-0.149-3.422-0.183c-1.307,0.082-3.451,0.436-5.641,0.797c-2.697,0.446-5.486,0.908-7.094,0.92l-23.562,2.745
		V274.665z"/>
	<path fill="#D2D4D5" d="M62.883,279.383l19.589-1.828l0.041-0.004h0.043c1.647,0,4.176-0.298,6.667-0.59
		c2.141-0.25,4.242-0.501,5.836-0.557h0.043c1.189,0.021,2.284,0.066,3.336,0.115c3.053,0.138,5.836,0.266,8.816-0.339
		c2.167-0.581,4.313-1.296,6.458-2.019c4.674-1.567,8.386-2.401,13.046-3.235v-0.005c4.194-0.75,7.88-0.825,12.087-0.382
		c4.43,0.462,8.403,0.244,12.875-0.294c3.081-0.365,6.162-0.731,9.284-0.583h0.011c1.295,0.08,2.64,0.275,3.973,0.471
		c1.975,0.289,3.93,0.57,5.497,0.447h0.015c2.381-0.164,4.5,0.212,6.661,0.59c1.413,0.25,2.848,0.51,4.345,0.602v0.004
		c1.61,0.063,3.809,0.653,6.13,1.27h0.003c2.619,0.701,5.419,1.45,7.443,1.478c1.582-0.07,4.228,0.562,7.764,1.407
		c6.948,1.661,17.441,4.174,29.244,3.59h0.037c1.812-0.016,4.855-0.293,7.957-0.573c3.297-0.298,6.665-0.607,8.779-0.616v-0.006
		c4.099,0,8.137-0.53,12.167-1.062h0.005l2.342-0.303l0.08-0.006c1.047-0.049,3.13-0.376,5.472-0.748
		c3.441-0.548,7.446-1.185,9.825-1.185v0.004c1.381-0.03,3.092,0.171,4.95,0.388c1.785,0.214,3.717,0.436,5.577,0.489
		c3.388,0.086,6.128-0.468,9.65-0.166c1.258,0.108,2.517,0.214,3.786,0.209h0.031c1.482,0.043,3.061,0.186,4.644,0.323
		c2.225,0.201,4.46,0.404,6.405,0.318c2.824-0.329,5.853-0.329,8.837-0.323h0.908c1.588,0.005,3.331,0.266,5.088,0.53
		c2.204,0.335,4.457,0.676,6.251,0.484l0.032-0.006h0.06c2.321-0.026,4.85-0.11,7.409-0.195c3.304-0.108,6.66-0.22,9.639-0.22l0,0
		c2.64-0.03,5.274,0.064,7.945,0.156c3.235,0.115,6.512,0.227,9.821,0.121h0.012c3.185-0.069,7.074,0.224,10.908,0.51
		c3.07,0.229,6.119,0.456,8.656,0.499l0,0c2.923,0.037,6.236,0.341,9.613,0.647c3.932,0.353,7.947,0.717,11.474,0.688h0.074
		l0.063,0.004c4.016,0.536,8.105,0.339,12.178,0.143c2.322-0.111,4.648-0.218,6.985-0.195h0.022
		c3.004-0.048,6.595,0.058,10.169,0.17c2.843,0.083,5.689,0.169,8.175,0.175v1.917c-2.545-0.005-5.386-0.091-8.227-0.175
		c-3.574-0.111-7.154-0.218-10.108-0.169h-0.021c-2.264-0.022-4.583,0.089-6.904,0.195c-4.133,0.203-8.286,0.403-12.462-0.149
		c-3.6,0.032-7.642-0.333-11.588-0.694c-3.346-0.298-6.629-0.601-9.47-0.639h-0.006c-2.677-0.042-5.709-0.27-8.763-0.499
		c-3.819-0.286-7.681-0.573-10.729-0.51c-3.366,0.112-6.682-0.006-9.943-0.117c-2.654-0.095-5.288-0.186-7.864-0.152h-0.012
		c-3.149,0-6.389,0.111-9.581,0.212c-2.522,0.086-5.024,0.17-7.387,0.195c-2.052,0.214-4.399-0.144-6.709-0.489
		c-1.706-0.259-3.395-0.514-4.802-0.52h-0.908c-2.904,0-5.864-0.006-8.619,0.318l-0.068,0.006c-2.062,0.095-4.399-0.117-6.721-0.324
		h-0.004c-1.547-0.138-3.086-0.275-4.516-0.318c-1.413,0.012-2.677-0.101-3.936-0.208c-3.266-0.279-6.246,0.251-9.459,0.171
		c-1.966-0.043-3.973-0.281-5.821-0.499c-1.822-0.212-3.494-0.415-4.717-0.384l-0.021,0.006c-2.273,0-6.171,0.622-9.527,1.152
		c-2.385,0.378-4.505,0.711-5.663,0.771l-2.284,0.293v0.005c-4.121,0.536-8.252,1.084-12.417,1.084v-0.006
		c-2.024,0.01-5.349,0.314-8.604,0.61c-3.124,0.281-6.188,0.564-8.084,0.579c-12.062,0.596-22.709-1.949-29.774-3.638
		c-3.376-0.813-5.91-1.413-7.234-1.354h-0.052c-2.295-0.021-5.227-0.801-7.967-1.534v-0.006c-2.241-0.596-4.354-1.163-5.736-1.216
		h-0.028c-1.62-0.103-3.096-0.361-4.555-0.621c-2.046-0.357-4.049-0.712-6.188-0.57c-1.774,0.138-3.834-0.16-5.918-0.461
		c-1.307-0.187-2.617-0.377-3.823-0.458c-2.941-0.138-5.942,0.22-8.955,0.58c-4.615,0.552-8.721,0.764-13.29,0.291
		c-4.142-0.429-7.35-0.382-11.557,0.372l-0.005-0.004c-4.435,0.789-8.461,1.721-12.772,3.165c-2.209,0.737-4.419,1.481-6.566,2.055
		l-0.058,0.012c-3.235,0.662-6.145,0.53-9.343,0.393c-1.061-0.049-2.161-0.095-3.256-0.121c-1.459,0.056-3.542,0.302-5.655,0.551
		c-2.502,0.293-5.047,0.589-6.841,0.596L62.883,281.3V279.383z"/>
	<path fill="#D2D4D5" d="M62.883,284.089l15.86-0.914c4.105,0,8.189-0.573,12.29-0.573c2.348,0.025,4.701,0.12,7.054,0.117
		c3.824-0.006,7.068-0.544,10.834-1.25c4.179-0.785,8.146-1.241,12.364-1.625c4.302-0.387,8.387-0.364,12.683-0.175
		c5.11,0.228,10.112,0.112,15.237-0.148c5.127-0.255,10.12-0.398,15.228-0.06c1.53,0.102,3.049,0.203,4.505,0.234
		c0.657,0.017,1.307,0.017,1.926-0.004c2.422-0.082,4.68,0.104,6.959,0.296c3.585,0.292,7.064,0.436,10.639,0.963
		c7.653,1.132,17.361,2.792,25.716,3.17c4.175,0.191,8.381-0.021,12.545-0.255c6.183-0.339,12.344-0.393,18.516-0.834
		c6.884-0.488,13.846-1.364,20.745-0.912c4.153,0.275,8.2-0.008,12.344,0.041c6.119,0.074,12.259,0.659,18.366,0.536v-0.004
		c5.338-0.271,10.745-0.294,16.077,0.104c2.235,0.171,4.488,0.34,6.506,0.24h0.043c2.952-0.018,6.022-0.059,9.092-0.096
		c3.984-0.06,7.988-0.111,11.462-0.111l0,0c3.149-0.017,6.3,0.029,9.46,0.078c3.798,0.06,7.627,0.111,11.466,0.06h0.006
		c3.809-0.033,7.962,0.111,12.095,0.253c3.33,0.112,6.649,0.231,9.719,0.252c3.377,0.021,6.92,0.175,10.496,0.329
		c4.088,0.175,8.226,0.355,12.098,0.335h0.058c4.589,0.275,9.194,0.175,13.778,0.078c2.619-0.058,5.23-0.111,7.855-0.101h0.006
		c3.732-0.025,7.759,0.032,11.779,0.086c3.202,0.041,6.406,0.086,9.428,0.089v1.918c-3.05-0.004-6.246-0.049-9.449-0.09
		c-4.02-0.054-8.046-0.107-11.758-0.085h-0.006c-2.592-0.012-5.205,0.048-7.818,0.101c-4.638,0.101-9.289,0.197-13.916-0.075
		c-3.935,0.018-8.062-0.163-12.141-0.339c-3.58-0.154-7.128-0.309-10.416-0.329c-3.133-0.021-6.452-0.132-9.776-0.251
		c-4.122-0.142-8.266-0.287-12.009-0.254c-3.867,0.059-7.707,0-11.521-0.059c-3.153-0.049-6.298-0.096-9.422-0.075h-0.011
		c-4.016,0-7.733,0.054-11.434,0.108c-3.056,0.037-6.104,0.084-9.077,0.095c-2.158,0.106-4.451-0.069-6.735-0.24
		c-5.253-0.391-10.575-0.372-15.838-0.104h-0.026c-6.103,0.127-12.227-0.452-18.34-0.526c-4.211-0.054-8.329,0.232-12.557-0.049
		c-6.765-0.434-13.724,0.431-20.49,0.914c-6.192,0.447-12.354,0.495-18.547,0.834c-4.206,0.235-8.433,0.447-12.651,0.261
		c-8.444-0.383-18.217-2.046-25.999-3.187c-3.537-0.525-6.962-0.659-10.511-0.951c-2.252-0.185-4.477-0.371-6.745-0.296
		c-2.114,0.066-4.361-0.082-6.606-0.231c-5.036-0.327-9.985-0.189-15.021,0.065c-5.185,0.259-10.241,0.378-15.414,0.144
		c-4.205-0.187-8.211-0.213-12.417,0.169c-4.138,0.372-8.094,0.834-12.189,1.6c-3.979,0.744-7.366,1.284-11.414,1.28
		c-2.278,0-4.557-0.097-6.835-0.111c-4.084,0.063-8.154,0.567-12.244,0.567l-15.901,0.918V284.089z"/>
	<rect x="62.883" y="288.798" fill="#D2D4D5" width="385.234" height="1.924"/>
	<path fill="#D2D4D5" d="M62.875,265.244l30.984-4.563l0.056-0.011h0.089c0.983,0,4.367-0.823,7.483-1.586l0,0
		c2.379-0.585,4.609-1.132,5.663-1.266l0.078-0.012h0.074c1.471,0.06,2.767,0.197,3.973,0.324c3.098,0.325,5.57,0.584,8.552-0.86
		l0,0c2.755-1.411,5.577-3.206,8.403-5.013c2.658-1.694,5.332-3.397,7.982-4.807c1.21-0.642,2.409-1.221,3.604-1.714l0.033-0.011
		l0.056-0.015c0.502-0.157,1.489-0.581,2.647-1.074c2.197-0.94,4.959-2.113,6.899-2.379c1.459-0.192,2.885,0.35,4.181,0.972
		c0.733,0.352,1.463,0.706,1.996,0.706h0.034l0.082,0.011c0.979,0.127,2.137-0.642,3.28-1.396c1.538-1.026,3.057-2.035,4.807-1.556
		l0,0h0.007v0.004c0.894,0.234,1.936,0.771,2.945,1.292c2.8,1.445,1.668,0.68,4.248,0.886c1.56,0.123,2.855,0.834,4.196,1.583
		v-0.004c1.117,0.616,2.275,1.258,3.6,1.486l0,0c0.991,0.148,3.061,1.229,5.525,2.509c3.664,1.906,8.235,4.289,10.451,4.36
		c1.605-0.112,5,0.949,9.956,2.511c12.905,4.064,36.729,11.562,64.481,9.98h0.037c1.553-0.032,5.979-0.68,10.645-1.359
		c5.302-0.771,10.894-1.59,13.139-1.619h0.012c5.168,0,10.271-1.333,15.354-2.656c1.072-0.281,2.119-0.554,2.916-0.754
		c1.095-0.373,7.297-2.189,12.662-3.474c3.239-0.774,6.214-1.37,7.67-1.37l0,0c1.105-0.063,2.878,0.335,5.008,0.812
		c3.63,0.823,8.392,1.897,11.966,1.166c1.239-0.257,1.999-0.804,3.306-0.73c0.827,0.048,1.434,0.341,2.033,0.627
		c2.379,1.132,7.019,1.752,9.759,2.038c1.362,0.146,2.233-0.444,3.556-0.651c3.324-0.51,5.647-0.06,8.827,1.146
		c2.141,0.812,4.397,1.668,5.503,1.271l0.107-0.038l0.104-0.015c0.458-0.06,1.195-0.203,2.019-0.368
		c1.574-0.308,3.447-0.674,4.579-0.674c1.158-0.075,2.327,0.143,3.56,0.376c1.467,0.282,3.038,0.58,4.661,0.323v-0.003
		c1.34-0.201,4.62,0.616,7.703,1.381c2.134,0.53,4.174,1.041,5.216,1.136l0,0c1.649,0.089,4.137,0.756,6.817,1.471
		c3.485,0.925,7.319,1.945,9.762,1.854l0.257-0.011l0.228,0.123c2.278,1.217,4.776,0.744,7.212,0.283
		c1.481-0.283,2.948-0.559,4.431-0.511c0.96-0.119,3.258,0.158,5.499,0.436c1.738,0.213,3.462,0.419,4.337,0.429l-0.025,1.917
		c-1.031-0.009-2.774-0.224-4.535-0.439c-2.204-0.266-4.453-0.536-5.067-0.436l-0.097,0.015l-0.101-0.003
		c-1.292-0.055-2.681,0.212-4.084,0.477c-2.692,0.516-5.439,1.034-8.243-0.351c-2.718,0.032-6.561-0.994-10.06-1.923
		c-2.592-0.69-4.985-1.333-6.438-1.413l-0.026-0.004c-1.218-0.107-3.328-0.633-5.54-1.186c-2.9-0.717-5.99-1.487-6.959-1.338v-0.004
		c-1.946,0.307-3.686-0.022-5.305-0.332c-1.121-0.212-2.182-0.418-3.139-0.344l-0.063,0.006c-0.961,0-2.729,0.344-4.207,0.636
		c-0.827,0.16-1.567,0.31-2.07,0.376c-1.776,0.559-4.304-0.401-6.713-1.315c-2.833-1.078-4.952-1.524-7.938-1.035
		c-1.772,0.292-1.937,0.843-3.902,0.653c-2.967-0.292-7.855-0.982-10.45-2.215c-0.373-0.181-0.752-0.356-1.218-0.414
		c-1.117-0.134-2.274,0.562-3.385,0.749c-3.901,0.637-8.641-0.433-12.293-1.259c-2.025-0.458-3.693-0.83-4.521-0.767h-0.07
		c-1.311,0-4.125,0.576-7.223,1.314c-5.607,1.345-12.056,3.234-12.47,3.415l-0.085,0.042l-0.074,0.018
		c-1.147,0.286-2.045,0.519-2.912,0.748c-5.216,1.358-10.447,2.718-15.838,2.718l0,0c-2.093,0.026-7.637,0.834-12.879,1.599
		c-4.669,0.686-9.114,1.335-10.846,1.382c-28.102,1.599-52.142-5.97-65.166-10.069c-4.814-1.515-8.087-2.545-9.26-2.428
		l-0.056,0.004h-0.063c-2.666-0.058-7.487-2.565-11.344-4.572c-2.305-1.207-4.248-2.215-4.907-2.316h-0.022
		c-1.668-0.281-2.975-1.009-4.226-1.705l0,0c-1.132-0.625-2.223-1.227-3.433-1.333c-2.055-0.181-2.9-0.037-4.971-1.109
		c-0.923-0.473-1.88-0.972-2.554-1.147h-0.015c-0.905-0.25-2.074,0.52-3.254,1.299c-1.4,0.935-2.822,1.88-4.472,1.716
		c-0.953-0.011-1.88-0.456-2.807-0.903c-0.61-0.296-2.587-1.109-3.351-0.929c-1.307,0.312-4.029,1.476-6.147,2.374
		c-1.154,0.493-2.145,0.917-2.789,1.121c-3.671,1.514-7.469,3.937-11.255,6.354c-2.871,1.826-5.733,3.652-8.578,5.113l-0.019,0.01
		c-3.462,1.685-6.184,1.398-9.583,1.037c-1.158-0.117-2.409-0.25-3.779-0.308c-0.953,0.138-3.083,0.659-5.354,1.216h-0.007
		c-3.143,0.769-6.56,1.61-7.849,1.647l-31.215,4.576V265.244z"/>
	<path fill-rule="evenodd" clip-rule="evenodd" fill="#5B6168" d="M448.121,260.357l-0.008-87.814H62.891l-0.011,86.636
		l34.949-5.503c1.519,0.006,11.557-3.081,13.507-3.436c5.604,0.255,8.671,1.811,13.165-0.76
		c7.082-4.042,14.465-10.579,21.523-13.815c1.374-0.625,7.361-3.967,9.58-4.21c0.722-0.08,1.69,0.567,2.23,0.998
		c0.663,0.536,1.348,1.143,1.902,1.143c0.964,0.287,1.88-1.917,2.927-3.038c0.473-0.506,1.344-0.804,1.809-0.536
		c0.946,0.382,2.524,1.666,3.604,2.372c0.991,0.655,1.147,0.24,2.197,0.272c2.748,0.085,4.408,3.038,7.51,3.682
		c1.75,0.381,12.986,8.152,16.955,8.252c5.194-0.594,41.513,17.627,86.954,14.988c3.365-0.09,22.022-3.511,26.125-3.575
		c6.731,0,13.273-2.282,19.818-4.125c0-0.357,17.867-5.775,21.691-5.775c2.759-0.275,14.233,4.732,20.402,1.653
		c2.019-0.696,2.521,1.437,3.932,1.37c2.688,0.301,6.725,2.124,8.888,1.657c1.214-1.095,3.139-0.968,4.825-0.968
		c1.769,0.017,5.428,2.327,8.064,3.018c1.522,0.398,1.966-0.005,3.217-0.547c0.777-0.333,1.73-0.68,1.936-0.68
		c1.344-0.224,3.038,1.422,5.224,0.823c0.797-0.365,8.85,2.74,10.455,3.023c2.751,0.25,11.366,4.2,15.179,3.993
		c3.229,2.576,6.672-0.341,9.763-0.138C441.211,259.047,447.101,260.316,448.121,260.357"/>
	<path fill="#D2D4D5" d="M62.861,260.543l34.8-5.48l0.074-0.011h0.075c0.774,0,4.706-1.099,8.116-2.052
		c2.305-0.64,4.386-1.221,5.22-1.374l0.111-0.022l0.097,0.006c1.605,0.074,2.953,0.244,4.185,0.393
		c3.105,0.387,5.48,0.681,8.466-1.024h0.004c2.971-1.694,6.024-3.861,9.084-6.024h0.003c2.867-2.041,5.756-4.079,8.616-5.773
		c1.307-0.771,2.603-1.465,3.887-2.055l0.007-0.005c1.698-0.771,3.329-1.705,5.012-2.506c2.45-1.165,4.94-2.077,6.091-1.53
		c0.682,0.127,1.303,0.625,1.925,1.125v0.007c0.897,0.723,1.188,1.147,1.966,0.205c0.231-0.279,0.488-0.625,0.741-0.972
		c1.054-1.4,2.074-2.761,3.544-1.955c0.733,0.315,1.679,0.994,2.554,1.627h0.003c1.515,1.094,1.058,0.945,2.595,0.901
		c1.82-0.052,3.149,0.916,4.55,1.934c1.02,0.739,2.092,1.514,3.369,1.78h0.007c0.752,0.166,2.595,1.242,4.893,2.585
		c3.995,2.338,9.46,5.537,11.817,5.646c1.627-0.138,5.265,1.052,10.667,2.82c14.766,4.829,43.095,14.101,76.279,12.174h0.026
		c1.504-0.045,6.322-0.797,11.445-1.601c6.002-0.935,12.428-1.943,14.691-1.974h0.015c5.518,0,10.983-1.601,16.423-3.187
		c7.35-2.146,17.234-6.724,25.087-6.724v0.003c1.05-0.069,2.804,0.373,4.974,0.92c4.558,1.146,11.084,2.789,15.001,0.834
		l0.048-0.026l0.067-0.022c1.717-0.588,2.397,0.063,3.064,0.702l0,0c1.146,1.104,6.046,1.794,7.87,2.167
		c1.828,0.37,2.216-0.427,3.906-0.723c0.867-0.149,1.779-0.143,2.65-0.14h0.477l0,0c1.185,0.011,2.833,0.767,4.568,1.564
		c1.222,0.551,2.491,1.135,3.515,1.444c1.839,0.547,3.198-0.888,4.963-1.203v-0.003c0.812-0.134,1.549,0.143,2.368,0.447
		c0.469,0.175,0.972,0.365,1.497,0.45c1.02,0.16,1.806-0.126,2.899,0.112c1.468,0.324,3.537,1.015,5.418,1.646
		c1.712,0.573,3.258,1.095,3.815,1.195l0,0c1.24,0.138,3.325,0.839,5.645,1.63c3.351,1.144,7.238,2.465,9.323,2.354l0.364-0.022
		l0.283,0.224c1.687,1.35,3.615,0.804,5.48,0.277c1.162-0.33,2.305-0.653,3.478-0.628c0.108-0.021,0.23-0.037,0.357-0.037
		c0.559,0,2.23,0.31,3.827,0.596c1.322,0.244,2.599,0.474,2.972,0.488l-0.075,1.917c-0.495-0.015-1.839-0.261-3.231-0.514
		c-0.976-0.175-1.984-0.357-2.685-0.462v0.004l-1.02-0.068c-0.935-0.058-2.015,0.243-3.102,0.553
		c-2.241,0.637-4.554,1.296-6.918-0.398c-2.476-0.012-6.329-1.322-9.673-2.459c-2.267-0.776-4.285-1.462-5.275-1.551l-0.082-0.006
		c-0.674-0.123-2.293-0.668-4.096-1.27c-1.757-0.59-3.7-1.242-4.832-1.588c-1.222-0.376-1.832,0.123-3.128-0.08
		c-0.699-0.112-1.329-0.344-1.913-0.564c-1.884-0.706-2.22-0.11-4.073,0.804c-0.737,0.365-1.672,0.333-2.692,0.089
		c-1.317-0.313-2.792-0.987-4.207-1.636c-1.549-0.706-3.016-1.376-3.786-1.387h-0.469c-0.823-0.003-1.684-0.009-2.428,0.14
		c-2.037,0.419-1.464,1.23-4.211,0.739c-2.442-0.443-5.868-1.069-8.116-1.983c-0.406-0.169-0.693-0.445-0.991-0.728
		c-0.245-0.235-0.495-0.467-1.072-0.287c-4.549,2.221-11.43,0.484-16.244-0.726c-2.069-0.521-3.727-0.942-4.423-0.871l-0.082,0.009
		h-0.007c-7.882,0-14.368,3.754-21.438,5.743c-1.232,0.344-2.155,0.614-3.112,0.897c-5.566,1.623-11.154,3.262-16.947,3.262
		c-2.13,0.029-8.493,1.023-14.424,1.952c-5.164,0.809-10.019,1.567-11.661,1.622c-33.545,1.943-62.102-7.4-76.979-12.27
		c-5.246-1.716-8.746-2.857-9.922-2.725l-0.052,0.005h-0.075c-2.826-0.075-8.601-3.451-12.812-5.913
		c-2.141-1.252-3.853-2.256-4.322-2.356v-0.006c-1.69-0.352-2.923-1.249-4.099-2.104c-0.831-0.601-1.627-1.178-2.499-1.424
		c-0.945-0.265-1.623,0.277-2.479-0.03c-0.547-0.203-1.333-0.771-2.17-1.377h0.003c-0.432-0.313-0.886-0.643-1.292-0.909
		c-1.091-0.715-0.916-0.797-1.649,0.183c-0.157,0.195-0.32,0.424-0.492,0.647c-0.935,1.253-1.895,2.543-3.28,2.283
		c-0.782-0.049-1.481-0.615-2.182-1.179c-2.301-1.859-3.083-0.739-5.983,0.643c-1.698,0.802-3.336,1.753-5.045,2.524l0,0
		c-3.973,1.815-8.09,4.736-12.193,7.642l0,0c-3.094,2.194-6.184,4.382-9.241,6.13v0.004c-3.544,2.018-6.195,1.694-9.65,1.266
		c-1.203-0.149-2.513-0.309-3.939-0.378c-0.79,0.158-2.755,0.706-4.937,1.316c-3.437,0.962-7.394,2.066-8.552,2.114l-35.023,5.492
		V260.543z"/>
</g>
</svg>
